999
DXF created by VCGLib
0
SECTION
2
HEADER
9
$ACADVER
1
AC1009
9
$INSBASE
10
0.0
20
0.0
30
0.0
9
$EXTMIN
10
-60.086353
20
-60.086353
9
$EXTMAX
10
59.913647
20
59.913647
9
$LINMIN
10
-60.086353
20
-60.086353
9
$LINMAX
10
59.913647
20
59.913647
0
ENDSEC
0
SECTION
2
ENTITIES
0
3DFACE
8
0
10
-30.888477
20
15.775712
30
10.000000
11
-30.888477
21
10.291996
31
10.000000
12
-30.888477
22
15.775712
32
27.500000
13
-30.888477
23
15.775712
33
27.500000
0
3DFACE
8
0
10
-30.888477
20
15.775712
30
27.500000
11
-30.888477
21
10.291996
31
10.000000
12
-30.888477
22
10.291996
32
27.500000
13
-30.888477
23
10.291996
33
27.500000
0
3DFACE
8
0
10
-30.888477
20
10.291996
30
27.500000
11
49.913647
21
10.291996
31
27.500000
12
-30.888477
22
15.775712
32
27.500000
13
-30.888477
23
15.775712
33
27.500000
0
3DFACE
8
0
10
-30.888477
20
15.775712
30
27.500000
11
49.913647
21
10.291996
31
27.500000
12
49.913647
22
15.775712
32
27.500000
13
49.913647
23
15.775712
33
27.500000
0
3DFACE
8
0
10
-30.888477
20
15.775712
30
10.000000
11
-60.086353
21
15.775712
31
10.000000
12
-30.888477
22
10.291996
32
10.000000
13
-30.888477
23
10.291996
33
10.000000
0
3DFACE
8
0
10
-30.888477
20
10.291996
30
10.000000
11
-60.086353
21
15.775712
31
10.000000
12
-60.086353
22
10.291996
32
10.000000
13
-60.086353
23
10.291996
33
10.000000
0
3DFACE
8
0
10
59.913647
20
-14.224288
30
27.816442
11
59.913647
21
15.775712
31
27.816442
12
49.913647
22
-14.224288
32
27.816442
13
49.913647
23
-14.224288
33
27.816442
0
3DFACE
8
0
10
49.913647
20
-14.224288
30
27.816442
11
59.913647
21
15.775712
31
27.816442
12
49.913647
22
15.775712
32
27.816442
13
49.913647
23
15.775712
33
27.816442
0
3DFACE
8
0
10
49.913647
20
10.291996
30
5.000000
11
49.913647
21
-9.708004
31
10.000000
12
49.913647
22
10.291996
32
27.500000
13
49.913647
23
10.291996
33
27.500000
0
3DFACE
8
0
10
49.913647
20
10.291996
30
27.500000
11
49.913647
21
-9.708004
31
10.000000
12
49.913647
22
-14.224288
32
27.816442
13
49.913647
23
-14.224288
33
27.816442
0
3DFACE
8
0
10
49.913647
20
10.291996
30
27.500000
11
49.913647
21
-14.224288
31
27.816442
12
49.913647
22
15.775712
32
27.816442
13
49.913647
23
15.775712
33
27.816442
0
3DFACE
8
0
10
49.913647
20
10.291996
30
5.000000
11
49.913647
21
-9.708004
31
5.000000
12
49.913647
22
-9.708004
32
10.000000
13
49.913647
23
-9.708004
33
10.000000
0
3DFACE
8
0
10
49.913647
20
-9.708004
30
10.000000
11
49.913647
21
-14.224288
31
10.000000
12
49.913647
22
-14.224288
32
27.816442
13
49.913647
23
-14.224288
33
27.816442
0
3DFACE
8
0
10
49.913647
20
15.775712
30
27.816442
11
49.913647
21
15.775712
31
27.500000
12
49.913647
22
10.291996
32
27.500000
13
49.913647
23
10.291996
33
27.500000
0
3DFACE
8
0
10
49.913647
20
-9.708004
30
10.000000
11
-60.086353
21
-9.708004
31
10.000000
12
49.913647
22
-14.224288
32
10.000000
13
49.913647
23
-14.224288
33
10.000000
0
3DFACE
8
0
10
49.913647
20
-14.224288
30
10.000000
11
-60.086353
21
-9.708004
31
10.000000
12
-60.086353
22
-14.224288
32
10.000000
13
-60.086353
23
-14.224288
33
10.000000
0
3DFACE
8
0
10
49.913647
20
-9.708004
30
5.000000
11
-60.086353
21
-9.708004
31
5.000000
12
49.913647
22
-9.708004
32
10.000000
13
49.913647
23
-9.708004
33
10.000000
0
3DFACE
8
0
10
49.913647
20
-9.708004
30
10.000000
11
-60.086353
21
-9.708004
31
5.000000
12
-60.086353
22
-9.708004
32
10.000000
13
-60.086353
23
-9.708004
33
10.000000
0
3DFACE
8
0
10
49.913647
20
10.291996
30
5.000000
11
-60.086353
21
10.291996
31
5.000000
12
49.913647
22
-9.708004
32
5.000000
13
49.913647
23
-9.708004
33
5.000000
0
3DFACE
8
0
10
49.913647
20
-9.708004
30
5.000000
11
-60.086353
21
10.291996
31
5.000000
12
-60.086353
22
-9.708004
32
5.000000
13
-60.086353
23
-9.708004
33
5.000000
0
3DFACE
8
0
10
-60.086353
20
10.291996
30
5.000000
11
49.913647
21
10.291996
31
5.000000
12
-30.888477
22
10.291996
32
10.000000
13
-30.888477
23
10.291996
33
10.000000
0
3DFACE
8
0
10
-30.888477
20
10.291996
30
10.000000
11
49.913647
21
10.291996
31
5.000000
12
49.913647
22
10.291996
32
27.500000
13
49.913647
23
10.291996
33
27.500000
0
3DFACE
8
0
10
-30.888477
20
10.291996
30
10.000000
11
49.913647
21
10.291996
31
27.500000
12
-30.888477
22
10.291996
32
27.500000
13
-30.888477
23
10.291996
33
27.500000
0
3DFACE
8
0
10
-30.888477
20
10.291996
30
10.000000
11
-60.086353
21
10.291996
31
10.000000
12
-60.086353
22
10.291996
32
5.000000
13
-60.086353
23
10.291996
33
5.000000
0
3DFACE
8
0
10
-60.086353
20
-9.708004
30
10.000000
11
-60.086353
21
-9.708004
31
5.000000
12
-60.086353
22
-14.224288
32
10.000000
13
-60.086353
23
-14.224288
33
10.000000
0
3DFACE
8
0
10
-60.086353
20
-14.224288
30
10.000000
11
-60.086353
21
-9.708004
31
5.000000
12
-60.086353
22
-14.224288
32
0.000000
13
-60.086353
23
-14.224288
33
0.000000
0
3DFACE
8
0
10
-60.086353
20
-14.224288
30
0.000000
11
-60.086353
21
-9.708004
31
5.000000
12
-60.086353
22
10.291996
32
5.000000
13
-60.086353
23
10.291996
33
5.000000
0
3DFACE
8
0
10
-60.086353
20
-14.224288
30
0.000000
11
-60.086353
21
10.291996
31
5.000000
12
-60.086353
22
15.775712
32
0.000000
13
-60.086353
23
15.775712
33
0.000000
0
3DFACE
8
0
10
-60.086353
20
15.775712
30
0.000000
11
-60.086353
21
10.291996
31
5.000000
12
-60.086353
22
15.775712
32
10.000000
13
-60.086353
23
15.775712
33
10.000000
0
3DFACE
8
0
10
-60.086353
20
15.775712
30
10.000000
11
-60.086353
21
10.291996
31
5.000000
12
-60.086353
22
10.291996
32
10.000000
13
-60.086353
23
10.291996
33
10.000000
0
3DFACE
8
0
10
-60.086353
20
15.775712
30
0.000000
11
-30.888477
21
15.775712
31
10.000000
12
59.913647
22
15.775712
32
0.000000
13
59.913647
23
15.775712
33
0.000000
0
3DFACE
8
0
10
59.913647
20
15.775712
30
0.000000
11
-30.888477
21
15.775712
31
10.000000
12
49.913647
22
15.775712
32
27.500000
13
49.913647
23
15.775712
33
27.500000
0
3DFACE
8
0
10
59.913647
20
15.775712
30
0.000000
11
49.913647
21
15.775712
31
27.500000
12
59.913647
22
15.775712
32
27.816442
13
59.913647
23
15.775712
33
27.816442
0
3DFACE
8
0
10
59.913647
20
15.775712
30
27.816442
11
49.913647
21
15.775712
31
27.500000
12
49.913647
22
15.775712
32
27.816442
13
49.913647
23
15.775712
33
27.816442
0
3DFACE
8
0
10
-60.086353
20
15.775712
30
0.000000
11
-60.086353
21
15.775712
31
10.000000
12
-30.888477
22
15.775712
32
10.000000
13
-30.888477
23
15.775712
33
10.000000
0
3DFACE
8
0
10
-30.888477
20
15.775712
30
10.000000
11
-30.888477
21
15.775712
31
27.500000
12
49.913647
22
15.775712
32
27.500000
13
49.913647
23
15.775712
33
27.500000
0
3DFACE
8
0
10
59.913647
20
-14.224288
30
0.000000
11
59.913647
21
15.775712
31
0.000000
12
59.913647
22
-14.224288
32
27.816442
13
59.913647
23
-14.224288
33
27.816442
0
3DFACE
8
0
10
59.913647
20
-14.224288
30
27.816442
11
59.913647
21
15.775712
31
0.000000
12
59.913647
22
15.775712
32
27.816442
13
59.913647
23
15.775712
33
27.816442
0
3DFACE
8
0
10
-60.086353
20
-14.224288
30
10.000000
11
-60.086353
21
-14.224288
31
0.000000
12
49.913647
22
-14.224288
32
10.000000
13
49.913647
23
-14.224288
33
10.000000
0
3DFACE
8
0
10
49.913647
20
-14.224288
30
10.000000
11
-60.086353
21
-14.224288
31
0.000000
12
59.913647
22
-14.224288
32
0.000000
13
59.913647
23
-14.224288
33
0.000000
0
3DFACE
8
0
10
49.913647
20
-14.224288
30
10.000000
11
59.913647
21
-14.224288
31
0.000000
12
59.913647
22
-14.224288
32
27.816442
13
59.913647
23
-14.224288
33
27.816442
0
3DFACE
8
0
10
59.913647
20
-14.224288
30
27.816442
11
49.913647
21
-14.224288
31
27.816442
12
49.913647
22
-14.224288
32
10.000000
13
49.913647
23
-14.224288
33
10.000000
0
3DFACE
8
0
10
59.913647
20
-14.224288
30
0.000000
11
-60.086353
21
-14.224288
31
0.000000
12
59.913647
22
15.775712
32
0.000000
13
59.913647
23
15.775712
33
0.000000
0
3DFACE
8
0
10
59.913647
20
15.775712
30
0.000000
11
-60.086353
21
-14.224288
31
0.000000
12
-60.086353
22
15.775712
32
0.000000
13
-60.086353
23
15.775712
33
0.000000
0
ENDSEC
0
EOF
