999
DXF created by VCGLib
0
SECTION
2
HEADER
9
$ACADVER
1
AC1009
9
$INSBASE
10
0.0
20
0.0
30
0.0
9
$EXTMIN
10
-60.000000
20
-60.000000
9
$EXTMAX
10
59.993286
20
59.993286
9
$LINMIN
10
-60.000000
20
-60.000000
9
$LINMAX
10
59.993286
20
59.993286
0
ENDSEC
0
SECTION
2
ENTITIES
0
3DFACE
8
0
10
-59.892609
20
3.588249
30
20.000000
11
-59.892609
21
3.588249
31
0.000000
12
-60.000000
22
-0.000000
32
20.000000
13
-60.000000
23
-0.000000
33
20.000000
0
3DFACE
8
0
10
-60.000000
20
-0.000000
30
20.000000
11
-59.892609
21
3.588249
31
0.000000
12
-60.000000
22
-0.000000
32
0.000000
13
-60.000000
23
-0.000000
33
0.000000
0
3DFACE
8
0
10
-60.000000
20
-0.000000
30
20.000000
11
-60.000000
21
-0.000000
31
0.000000
12
-59.892609
22
-3.588249
32
20.000000
13
-59.892609
23
-3.588249
33
20.000000
0
3DFACE
8
0
10
-59.892609
20
-3.588249
30
20.000000
11
-60.000000
21
-0.000000
31
0.000000
12
-59.892609
22
-3.588249
32
0.000000
13
-59.892609
23
-3.588249
33
0.000000
0
3DFACE
8
0
10
-59.892609
20
-3.588249
30
20.000000
11
-59.892609
21
-3.588249
31
0.000000
12
-59.570816
22
-7.163653
32
20.000000
13
-59.570816
23
-7.163653
33
20.000000
0
3DFACE
8
0
10
-59.570816
20
-7.163653
30
20.000000
11
-59.892609
21
-3.588249
31
0.000000
12
-59.570816
22
-7.163653
32
0.000000
13
-59.570816
23
-7.163653
33
0.000000
0
3DFACE
8
0
10
-59.570816
20
-7.163653
30
20.000000
11
-59.570816
21
-7.163653
31
0.000000
12
-59.035774
22
-10.713413
32
20.000000
13
-59.035774
23
-10.713413
33
20.000000
0
3DFACE
8
0
10
-59.035774
20
-10.713413
30
20.000000
11
-59.570816
21
-7.163653
31
0.000000
12
-59.035774
22
-10.713413
32
0.000000
13
-59.035774
23
-10.713413
33
0.000000
0
3DFACE
8
0
10
-59.035774
20
-10.713413
30
20.000000
11
-59.035774
21
-10.713413
31
0.000000
12
-58.289402
22
-14.224823
32
20.000000
13
-58.289402
23
-14.224823
33
20.000000
0
3DFACE
8
0
10
-58.289402
20
-14.224823
30
20.000000
11
-59.035774
21
-10.713413
31
0.000000
12
-58.289402
22
-14.224823
32
0.000000
13
-58.289402
23
-14.224823
33
0.000000
0
3DFACE
8
0
10
-58.289402
20
-14.224823
30
20.000000
11
-58.289402
21
-14.224823
31
0.000000
12
-57.334370
22
-17.685310
32
20.000000
13
-57.334370
23
-17.685310
33
20.000000
0
3DFACE
8
0
10
-57.334370
20
-17.685310
30
20.000000
11
-58.289402
21
-14.224823
31
0.000000
12
-57.334370
22
-17.685310
32
0.000000
13
-57.334370
23
-17.685310
33
0.000000
0
3DFACE
8
0
10
-57.334370
20
-17.685310
30
20.000000
11
-57.334370
21
-17.685310
31
0.000000
12
-56.174091
22
-21.082489
32
20.000000
13
-56.174091
23
-21.082489
33
20.000000
0
3DFACE
8
0
10
-56.174091
20
-21.082489
30
20.000000
11
-57.334370
21
-17.685310
31
0.000000
12
-56.174091
22
-21.082489
32
0.000000
13
-56.174091
23
-21.082489
33
0.000000
0
3DFACE
8
0
10
-56.174091
20
-21.082489
30
20.000000
11
-56.174091
21
-21.082489
31
0.000000
12
-54.812729
22
-24.404198
32
20.000000
13
-54.812729
23
-24.404198
33
20.000000
0
3DFACE
8
0
10
-54.812729
20
-24.404198
30
20.000000
11
-56.174091
21
-21.082489
31
0.000000
12
-54.812729
22
-24.404198
32
0.000000
13
-54.812729
23
-24.404198
33
0.000000
0
3DFACE
8
0
10
-54.812729
20
-24.404198
30
20.000000
11
-54.812729
21
-24.404198
31
0.000000
12
-53.255146
22
-27.638548
32
20.000000
13
-53.255146
23
-27.638548
33
20.000000
0
3DFACE
8
0
10
-53.255146
20
-27.638548
30
20.000000
11
-54.812729
21
-24.404198
31
0.000000
12
-53.255146
22
-27.638548
32
0.000000
13
-53.255146
23
-27.638548
33
0.000000
0
3DFACE
8
0
10
-53.255146
20
-27.638548
30
20.000000
11
-53.255146
21
-27.638548
31
0.000000
12
-51.506927
22
-30.773956
32
20.000000
13
-51.506927
23
-30.773956
33
20.000000
0
3DFACE
8
0
10
-51.506927
20
-30.773956
30
20.000000
11
-53.255146
21
-27.638548
31
0.000000
12
-51.506927
22
-30.773956
32
0.000000
13
-51.506927
23
-30.773956
33
0.000000
0
3DFACE
8
0
10
-51.506927
20
-30.773956
30
20.000000
11
-51.506927
21
-30.773956
31
0.000000
12
-49.574326
22
-33.799202
32
20.000000
13
-49.574326
23
-33.799202
33
20.000000
0
3DFACE
8
0
10
-49.574326
20
-33.799202
30
20.000000
11
-51.506927
21
-30.773956
31
0.000000
12
-49.574326
22
-33.799202
32
0.000000
13
-49.574326
23
-33.799202
33
0.000000
0
3DFACE
8
0
10
-49.574326
20
-33.799202
30
20.000000
11
-49.574326
21
-33.799202
31
0.000000
12
-47.464264
22
-36.703457
32
20.000000
13
-47.464264
23
-36.703457
33
20.000000
0
3DFACE
8
0
10
-47.464264
20
-36.703457
30
20.000000
11
-49.574326
21
-33.799202
31
0.000000
12
-47.464264
22
-36.703457
32
0.000000
13
-47.464264
23
-36.703457
33
0.000000
0
3DFACE
8
0
10
-47.464264
20
-36.703457
30
20.000000
11
-47.464264
21
-36.703457
31
0.000000
12
-45.184288
22
-39.476322
32
20.000000
13
-45.184288
23
-39.476322
33
20.000000
0
3DFACE
8
0
10
-45.184288
20
-39.476322
30
20.000000
11
-47.464264
21
-36.703457
31
0.000000
12
-45.184288
22
-39.476322
32
0.000000
13
-45.184288
23
-39.476322
33
0.000000
0
3DFACE
8
0
10
-45.184288
20
-39.476322
30
20.000000
11
-45.184288
21
-39.476322
31
0.000000
12
-42.742565
22
-42.107876
32
20.000000
13
-42.742565
23
-42.107876
33
20.000000
0
3DFACE
8
0
10
-42.742565
20
-42.107876
30
20.000000
11
-45.184288
21
-39.476322
31
0.000000
12
-42.742565
22
-42.107876
32
0.000000
13
-42.742565
23
-42.107876
33
0.000000
0
3DFACE
8
0
10
-42.742565
20
-42.107876
30
20.000000
11
-42.742565
21
-42.107876
31
0.000000
12
-40.147835
22
-44.588688
32
20.000000
13
-40.147835
23
-44.588688
33
20.000000
0
3DFACE
8
0
10
-40.147835
20
-44.588688
30
20.000000
11
-42.742565
21
-42.107876
31
0.000000
12
-40.147835
22
-44.588688
32
0.000000
13
-40.147835
23
-44.588688
33
0.000000
0
3DFACE
8
0
10
-40.147835
20
-44.588688
30
20.000000
11
-40.147835
21
-44.588688
31
0.000000
12
-37.409389
22
-46.909889
32
20.000000
13
-37.409389
23
-46.909889
33
20.000000
0
3DFACE
8
0
10
-37.409389
20
-46.909889
30
20.000000
11
-40.147835
21
-44.588688
31
0.000000
12
-37.409389
22
-46.909889
32
0.000000
13
-37.409389
23
-46.909889
33
0.000000
0
3DFACE
8
0
10
-37.409389
20
-46.909889
30
20.000000
11
-37.409389
21
-46.909889
31
0.000000
12
-34.537025
22
-49.063164
32
20.000000
13
-34.537025
23
-49.063164
33
20.000000
0
3DFACE
8
0
10
-34.537025
20
-49.063164
30
20.000000
11
-37.409389
21
-46.909889
31
0.000000
12
-34.537025
22
-49.063164
32
0.000000
13
-34.537025
23
-49.063164
33
0.000000
0
3DFACE
8
0
10
-34.537025
20
-49.063164
30
20.000000
11
-34.537025
21
-49.063164
31
0.000000
12
-31.541027
22
-51.040806
32
20.000000
13
-31.541027
23
-51.040806
33
20.000000
0
3DFACE
8
0
10
-31.541027
20
-51.040806
30
20.000000
11
-34.537025
21
-49.063164
31
0.000000
12
-31.541027
22
-51.040806
32
0.000000
13
-31.541027
23
-51.040806
33
0.000000
0
3DFACE
8
0
10
-31.541027
20
-51.040806
30
20.000000
11
-31.541027
21
-51.040806
31
0.000000
12
-28.432119
22
-52.835732
32
20.000000
13
-28.432119
23
-52.835732
33
20.000000
0
3DFACE
8
0
10
-28.432119
20
-52.835732
30
20.000000
11
-31.541027
21
-51.040806
31
0.000000
12
-28.432119
22
-52.835732
32
0.000000
13
-28.432119
23
-52.835732
33
0.000000
0
3DFACE
8
0
10
-28.432119
20
-52.835732
30
20.000000
11
-28.432119
21
-52.835732
31
0.000000
12
-25.221434
22
-54.441521
32
20.000000
13
-25.221434
23
-54.441521
33
20.000000
0
3DFACE
8
0
10
-25.221434
20
-54.441521
30
20.000000
11
-28.432119
21
-52.835732
31
0.000000
12
-25.221434
22
-54.441521
32
0.000000
13
-25.221434
23
-54.441521
33
0.000000
0
3DFACE
8
0
10
-25.221434
20
-54.441521
30
20.000000
11
-25.221434
21
-54.441521
31
0.000000
12
-21.920462
22
-55.852425
32
20.000000
13
-21.920462
23
-55.852425
33
20.000000
0
3DFACE
8
0
10
-21.920462
20
-55.852425
30
20.000000
11
-25.221434
21
-54.441521
31
0.000000
12
-21.920462
22
-55.852425
32
0.000000
13
-21.920462
23
-55.852425
33
0.000000
0
3DFACE
8
0
10
-21.920462
20
-55.852425
30
20.000000
11
-21.920462
21
-55.852425
31
0.000000
12
-18.541019
22
-57.063393
32
20.000000
13
-18.541019
23
-57.063393
33
20.000000
0
3DFACE
8
0
10
-18.541019
20
-57.063393
30
20.000000
11
-21.920462
21
-55.852425
31
0.000000
12
-18.541019
22
-57.063393
32
0.000000
13
-18.541019
23
-57.063393
33
0.000000
0
3DFACE
8
0
10
-18.541019
20
-57.063393
30
20.000000
11
-18.541019
21
-57.063393
31
0.000000
12
-15.095206
22
-58.070084
32
20.000000
13
-15.095206
23
-58.070084
33
20.000000
0
3DFACE
8
0
10
-15.095206
20
-58.070084
30
20.000000
11
-18.541019
21
-57.063393
31
0.000000
12
-15.095206
22
-58.070084
32
0.000000
13
-15.095206
23
-58.070084
33
0.000000
0
3DFACE
8
0
10
-15.095206
20
-58.070084
30
20.000000
11
-15.095206
21
-58.070084
31
0.000000
12
-11.595355
22
-58.868904
32
20.000000
13
-11.595355
23
-58.868904
33
20.000000
0
3DFACE
8
0
10
-11.595355
20
-58.868904
30
20.000000
11
-15.095206
21
-58.070084
31
0.000000
12
-11.595355
22
-58.868904
32
0.000000
13
-11.595355
23
-58.868904
33
0.000000
0
3DFACE
8
0
10
-11.595355
20
-58.868904
30
20.000000
11
-11.595355
21
-58.868904
31
0.000000
12
-8.053996
22
-59.456985
32
20.000000
13
-8.053996
23
-59.456985
33
20.000000
0
3DFACE
8
0
10
-8.053996
20
-59.456985
30
20.000000
11
-11.595355
21
-58.868904
31
0.000000
12
-8.053996
22
-59.456985
32
0.000000
13
-8.053996
23
-59.456985
33
0.000000
0
3DFACE
8
0
10
-8.053996
20
-59.456985
30
20.000000
11
-8.053996
21
-59.456985
31
0.000000
12
-4.483806
22
-59.832230
32
20.000000
13
-4.483806
23
-59.832230
33
20.000000
0
3DFACE
8
0
10
-4.483806
20
-59.832230
30
20.000000
11
-8.053996
21
-59.456985
31
0.000000
12
-4.483806
22
-59.832230
32
0.000000
13
-4.483806
23
-59.832230
33
0.000000
0
3DFACE
8
0
10
-4.483806
20
-59.832230
30
20.000000
11
-4.483806
21
-59.832230
31
0.000000
12
-0.897564
22
-59.993286
32
20.000000
13
-0.897564
23
-59.993286
33
20.000000
0
3DFACE
8
0
10
-0.897564
20
-59.993286
30
20.000000
11
-4.483806
21
-59.832230
31
0.000000
12
-0.897564
22
-59.993286
32
0.000000
13
-0.897564
23
-59.993286
33
0.000000
0
3DFACE
8
0
10
-0.897564
20
-59.993286
30
20.000000
11
-0.897564
21
-59.993286
31
0.000000
12
2.691890
22
-59.939583
32
20.000000
13
2.691890
23
-59.939583
33
20.000000
0
3DFACE
8
0
10
2.691890
20
-59.939583
30
20.000000
11
-0.897564
21
-59.993286
31
0.000000
12
2.691890
22
-59.939583
32
0.000000
13
2.691890
23
-59.939583
33
0.000000
0
3DFACE
8
0
10
2.691890
20
-59.939583
30
20.000000
11
2.691890
21
-59.939583
31
0.000000
12
6.271708
22
-59.671314
32
20.000000
13
6.271708
23
-59.671314
33
20.000000
0
3DFACE
8
0
10
6.271708
20
-59.671314
30
20.000000
11
2.691890
21
-59.939583
31
0.000000
12
6.271708
22
-59.671314
32
0.000000
13
6.271708
23
-59.671314
33
0.000000
0
3DFACE
8
0
10
6.271708
20
-59.671314
30
20.000000
11
6.271708
21
-59.671314
31
0.000000
12
9.829075
22
-59.189434
32
20.000000
13
9.829075
23
-59.189434
33
20.000000
0
3DFACE
8
0
10
9.829075
20
-59.189434
30
20.000000
11
6.271708
21
-59.671314
31
0.000000
12
9.829075
22
-59.189434
32
0.000000
13
9.829075
23
-59.189434
33
0.000000
0
3DFACE
8
0
10
9.829075
20
-59.189434
30
20.000000
11
9.829075
21
-59.189434
31
0.000000
12
13.351256
22
-58.495674
32
20.000000
13
13.351256
23
-58.495674
33
20.000000
0
3DFACE
8
0
10
13.351256
20
-58.495674
30
20.000000
11
9.829075
21
-59.189434
31
0.000000
12
13.351256
22
-58.495674
32
0.000000
13
13.351256
23
-58.495674
33
0.000000
0
3DFACE
8
0
10
13.351256
20
-58.495674
30
20.000000
11
13.351256
21
-58.495674
31
0.000000
12
16.825644
22
-57.592514
32
20.000000
13
16.825644
23
-57.592514
33
20.000000
0
3DFACE
8
0
10
16.825644
20
-57.592514
30
20.000000
11
13.351256
21
-58.495674
31
0.000000
12
16.825644
22
-57.592514
32
0.000000
13
16.825644
23
-57.592514
33
0.000000
0
3DFACE
8
0
10
16.825644
20
-57.592514
30
20.000000
11
16.825644
21
-57.592514
31
0.000000
12
20.239799
22
-56.483189
32
20.000000
13
20.239799
23
-56.483189
33
20.000000
0
3DFACE
8
0
10
20.239799
20
-56.483189
30
20.000000
11
16.825644
21
-57.592514
31
0.000000
12
20.239799
22
-56.483189
32
0.000000
13
20.239799
23
-56.483189
33
0.000000
0
3DFACE
8
0
10
20.239799
20
-56.483189
30
20.000000
11
20.239799
21
-56.483189
31
0.000000
12
23.581501
22
-55.171665
32
20.000000
13
23.581501
23
-55.171665
33
20.000000
0
3DFACE
8
0
10
23.581501
20
-55.171665
30
20.000000
11
20.239799
21
-56.483189
31
0.000000
12
23.581501
22
-55.171665
32
0.000000
13
23.581501
23
-55.171665
33
0.000000
0
3DFACE
8
0
10
23.581501
20
-55.171665
30
20.000000
11
23.581501
21
-55.171665
31
0.000000
12
26.838789
22
-53.662643
32
20.000000
13
26.838789
23
-53.662643
33
20.000000
0
3DFACE
8
0
10
26.838789
20
-53.662643
30
20.000000
11
23.581501
21
-55.171665
31
0.000000
12
26.838789
22
-53.662643
32
0.000000
13
26.838789
23
-53.662643
33
0.000000
0
3DFACE
8
0
10
26.838789
20
-53.662643
30
20.000000
11
26.838789
21
-53.662643
31
0.000000
12
30.000000
22
-51.961525
32
20.000000
13
30.000000
23
-51.961525
33
20.000000
0
3DFACE
8
0
10
30.000000
20
-51.961525
30
20.000000
11
26.838789
21
-53.662643
31
0.000000
12
30.000000
22
-51.961525
32
0.000000
13
30.000000
23
-51.961525
33
0.000000
0
3DFACE
8
0
10
30.000000
20
-51.961525
30
20.000000
11
30.000000
21
-51.961525
31
0.000000
12
33.053818
22
-50.074394
32
20.000000
13
33.053818
23
-50.074394
33
20.000000
0
3DFACE
8
0
10
33.053818
20
-50.074394
30
20.000000
11
30.000000
21
-51.961525
31
0.000000
12
33.053818
22
-50.074394
32
0.000000
13
33.053818
23
-50.074394
33
0.000000
0
3DFACE
8
0
10
33.053818
20
-50.074394
30
20.000000
11
33.053818
21
-50.074394
31
0.000000
12
35.989315
22
-48.008015
32
20.000000
13
35.989315
23
-48.008015
33
20.000000
0
3DFACE
8
0
10
35.989315
20
-48.008015
30
20.000000
11
33.053818
21
-50.074394
31
0.000000
12
35.989315
22
-48.008015
32
0.000000
13
35.989315
23
-48.008015
33
0.000000
0
3DFACE
8
0
10
35.989315
20
-48.008015
30
20.000000
11
35.989315
21
-48.008015
31
0.000000
12
38.795975
22
-45.769775
32
20.000000
13
38.795975
23
-45.769775
33
20.000000
0
3DFACE
8
0
10
38.795975
20
-45.769775
30
20.000000
11
35.989315
21
-48.008015
31
0.000000
12
38.795975
22
-45.769775
32
0.000000
13
38.795975
23
-45.769775
33
0.000000
0
3DFACE
8
0
10
38.795975
20
-45.769775
30
20.000000
11
38.795975
21
-45.769775
31
0.000000
12
41.463760
22
-43.367691
32
20.000000
13
41.463760
23
-43.367691
33
20.000000
0
3DFACE
8
0
10
41.463760
20
-43.367691
30
20.000000
11
38.795975
21
-45.769775
31
0.000000
12
41.463760
22
-43.367691
32
0.000000
13
41.463760
23
-43.367691
33
0.000000
0
3DFACE
8
0
10
41.463760
20
-43.367691
30
20.000000
11
41.463760
21
-43.367691
31
0.000000
12
43.983112
22
-40.810364
32
20.000000
13
43.983112
23
-40.810364
33
20.000000
0
3DFACE
8
0
10
43.983112
20
-40.810364
30
20.000000
11
41.463760
21
-43.367691
31
0.000000
12
43.983112
22
-40.810364
32
0.000000
13
43.983112
23
-40.810364
33
0.000000
0
3DFACE
8
0
10
43.983112
20
-40.810364
30
20.000000
11
43.983112
21
-40.810364
31
0.000000
12
46.345016
22
-38.106945
32
20.000000
13
46.345016
23
-38.106945
33
20.000000
0
3DFACE
8
0
10
46.345016
20
-38.106945
30
20.000000
11
43.983112
21
-40.810364
31
0.000000
12
46.345016
22
-38.106945
32
0.000000
13
46.345016
23
-38.106945
33
0.000000
0
3DFACE
8
0
10
46.345016
20
-38.106945
30
20.000000
11
46.345016
21
-38.106945
31
0.000000
12
48.541019
22
-35.267117
32
20.000000
13
48.541019
23
-35.267117
33
20.000000
0
3DFACE
8
0
10
48.541019
20
-35.267117
30
20.000000
11
46.345016
21
-38.106945
31
0.000000
12
48.541019
22
-35.267117
32
0.000000
13
48.541019
23
-35.267117
33
0.000000
0
3DFACE
8
0
10
48.541019
20
-35.267117
30
20.000000
11
48.541019
21
-35.267117
31
0.000000
12
50.563259
22
-32.301037
32
20.000000
13
50.563259
23
-32.301037
33
20.000000
0
3DFACE
8
0
10
50.563259
20
-32.301037
30
20.000000
11
48.541019
21
-35.267117
31
0.000000
12
50.563259
22
-32.301037
32
0.000000
13
50.563259
23
-32.301037
33
0.000000
0
3DFACE
8
0
10
50.563259
20
-32.301037
30
20.000000
11
50.563259
21
-32.301037
31
0.000000
12
52.404491
22
-29.219330
32
20.000000
13
52.404491
23
-29.219330
33
20.000000
0
3DFACE
8
0
10
52.404491
20
-29.219330
30
20.000000
11
50.563259
21
-32.301037
31
0.000000
12
52.404491
22
-29.219330
32
0.000000
13
52.404491
23
-29.219330
33
0.000000
0
3DFACE
8
0
10
52.404491
20
-29.219330
30
20.000000
11
52.404491
21
-29.219330
31
0.000000
12
54.058132
22
-26.033024
32
20.000000
13
54.058132
23
-26.033024
33
20.000000
0
3DFACE
8
0
10
54.058132
20
-26.033024
30
20.000000
11
52.404491
21
-29.219330
31
0.000000
12
54.058132
22
-26.033024
32
0.000000
13
54.058132
23
-26.033024
33
0.000000
0
3DFACE
8
0
10
54.058132
20
-26.033024
30
20.000000
11
54.058132
21
-26.033024
31
0.000000
12
55.518257
22
-22.753529
32
20.000000
13
55.518257
23
-22.753529
33
20.000000
0
3DFACE
8
0
10
55.518257
20
-22.753529
30
20.000000
11
54.058132
21
-26.033024
31
0.000000
12
55.518257
22
-22.753529
32
0.000000
13
55.518257
23
-22.753529
33
0.000000
0
3DFACE
8
0
10
55.518257
20
-22.753529
30
20.000000
11
55.518257
21
-22.753529
31
0.000000
12
56.779644
22
-19.392580
32
20.000000
13
56.779644
23
-19.392580
33
20.000000
0
3DFACE
8
0
10
56.779644
20
-19.392580
30
20.000000
11
55.518257
21
-22.753529
31
0.000000
12
56.779644
22
-19.392580
32
0.000000
13
56.779644
23
-19.392580
33
0.000000
0
3DFACE
8
0
10
56.779644
20
-19.392580
30
20.000000
11
56.779644
21
-19.392580
31
0.000000
12
57.837772
22
-15.962211
32
20.000000
13
57.837772
23
-15.962211
33
20.000000
0
3DFACE
8
0
10
57.837772
20
-15.962211
30
20.000000
11
56.779644
21
-19.392580
31
0.000000
12
57.837772
22
-15.962211
32
0.000000
13
57.837772
23
-15.962211
33
0.000000
0
3DFACE
8
0
10
57.837772
20
-15.962211
30
20.000000
11
57.837772
21
-15.962211
31
0.000000
12
58.688854
22
-12.474702
32
20.000000
13
58.688854
23
-12.474702
33
20.000000
0
3DFACE
8
0
10
58.688854
20
-12.474702
30
20.000000
11
57.837772
21
-15.962211
31
0.000000
12
58.688854
22
-12.474702
32
0.000000
13
58.688854
23
-12.474702
33
0.000000
0
3DFACE
8
0
10
58.688854
20
-12.474702
30
20.000000
11
58.688854
21
-12.474702
31
0.000000
12
59.329849
22
-8.942536
32
20.000000
13
59.329849
23
-8.942536
33
20.000000
0
3DFACE
8
0
10
59.329849
20
-8.942536
30
20.000000
11
58.688854
21
-12.474702
31
0.000000
12
59.329849
22
-8.942536
32
0.000000
13
59.329849
23
-8.942536
33
0.000000
0
3DFACE
8
0
10
59.329849
20
-8.942536
30
20.000000
11
59.329849
21
-8.942536
31
0.000000
12
59.758457
22
-5.378358
32
20.000000
13
59.758457
23
-5.378358
33
20.000000
0
3DFACE
8
0
10
59.758457
20
-5.378358
30
20.000000
11
59.329849
21
-8.942536
31
0.000000
12
59.758457
22
-5.378358
32
0.000000
13
59.758457
23
-5.378358
33
0.000000
0
3DFACE
8
0
10
59.758457
20
-5.378358
30
20.000000
11
59.758457
21
-5.378358
31
0.000000
12
59.973145
22
-1.794928
32
20.000000
13
59.973145
23
-1.794928
33
20.000000
0
3DFACE
8
0
10
59.973145
20
-1.794928
30
20.000000
11
59.758457
21
-5.378358
31
0.000000
12
59.973145
22
-1.794928
32
0.000000
13
59.973145
23
-1.794928
33
0.000000
0
3DFACE
8
0
10
59.973145
20
-1.794928
30
20.000000
11
59.973145
21
-1.794928
31
0.000000
12
59.973145
22
1.794928
32
20.000000
13
59.973145
23
1.794928
33
20.000000
0
3DFACE
8
0
10
59.973145
20
1.794928
30
20.000000
11
59.973145
21
-1.794928
31
0.000000
12
59.973145
22
1.794928
32
0.000000
13
59.973145
23
1.794928
33
0.000000
0
3DFACE
8
0
10
59.973145
20
1.794928
30
20.000000
11
59.973145
21
1.794928
31
0.000000
12
59.758457
22
5.378358
32
20.000000
13
59.758457
23
5.378358
33
20.000000
0
3DFACE
8
0
10
59.758457
20
5.378358
30
20.000000
11
59.973145
21
1.794928
31
0.000000
12
59.758457
22
5.378358
32
0.000000
13
59.758457
23
5.378358
33
0.000000
0
3DFACE
8
0
10
59.758457
20
5.378358
30
20.000000
11
59.758457
21
5.378358
31
0.000000
12
59.329849
22
8.942536
32
20.000000
13
59.329849
23
8.942536
33
20.000000
0
3DFACE
8
0
10
59.329849
20
8.942536
30
20.000000
11
59.758457
21
5.378358
31
0.000000
12
59.329849
22
8.942536
32
0.000000
13
59.329849
23
8.942536
33
0.000000
0
3DFACE
8
0
10
59.329849
20
8.942536
30
20.000000
11
59.329849
21
8.942536
31
0.000000
12
58.688854
22
12.474702
32
20.000000
13
58.688854
23
12.474702
33
20.000000
0
3DFACE
8
0
10
58.688854
20
12.474702
30
20.000000
11
59.329849
21
8.942536
31
0.000000
12
58.688854
22
12.474702
32
0.000000
13
58.688854
23
12.474702
33
0.000000
0
3DFACE
8
0
10
58.688854
20
12.474702
30
20.000000
11
58.688854
21
12.474702
31
0.000000
12
57.837772
22
15.962211
32
20.000000
13
57.837772
23
15.962211
33
20.000000
0
3DFACE
8
0
10
57.837772
20
15.962211
30
20.000000
11
58.688854
21
12.474702
31
0.000000
12
57.837772
22
15.962211
32
0.000000
13
57.837772
23
15.962211
33
0.000000
0
3DFACE
8
0
10
57.837772
20
15.962211
30
20.000000
11
57.837772
21
15.962211
31
0.000000
12
56.779644
22
19.392580
32
20.000000
13
56.779644
23
19.392580
33
20.000000
0
3DFACE
8
0
10
56.779644
20
19.392580
30
20.000000
11
57.837772
21
15.962211
31
0.000000
12
56.779644
22
19.392580
32
0.000000
13
56.779644
23
19.392580
33
0.000000
0
3DFACE
8
0
10
56.779644
20
19.392580
30
20.000000
11
56.779644
21
19.392580
31
0.000000
12
55.518257
22
22.753529
32
20.000000
13
55.518257
23
22.753529
33
20.000000
0
3DFACE
8
0
10
55.518257
20
22.753529
30
20.000000
11
56.779644
21
19.392580
31
0.000000
12
55.518257
22
22.753529
32
0.000000
13
55.518257
23
22.753529
33
0.000000
0
3DFACE
8
0
10
55.518257
20
22.753529
30
20.000000
11
55.518257
21
22.753529
31
0.000000
12
54.058132
22
26.033024
32
20.000000
13
54.058132
23
26.033024
33
20.000000
0
3DFACE
8
0
10
54.058132
20
26.033024
30
20.000000
11
55.518257
21
22.753529
31
0.000000
12
54.058132
22
26.033024
32
0.000000
13
54.058132
23
26.033024
33
0.000000
0
3DFACE
8
0
10
54.058132
20
26.033024
30
20.000000
11
54.058132
21
26.033024
31
0.000000
12
52.404491
22
29.219330
32
20.000000
13
52.404491
23
29.219330
33
20.000000
0
3DFACE
8
0
10
52.404491
20
29.219330
30
20.000000
11
54.058132
21
26.033024
31
0.000000
12
52.404491
22
29.219330
32
0.000000
13
52.404491
23
29.219330
33
0.000000
0
3DFACE
8
0
10
52.404491
20
29.219330
30
20.000000
11
52.404491
21
29.219330
31
0.000000
12
50.563259
22
32.301037
32
20.000000
13
50.563259
23
32.301037
33
20.000000
0
3DFACE
8
0
10
50.563259
20
32.301037
30
20.000000
11
52.404491
21
29.219330
31
0.000000
12
50.563259
22
32.301037
32
0.000000
13
50.563259
23
32.301037
33
0.000000
0
3DFACE
8
0
10
50.563259
20
32.301037
30
20.000000
11
50.563259
21
32.301037
31
0.000000
12
48.541019
22
35.267117
32
20.000000
13
48.541019
23
35.267117
33
20.000000
0
3DFACE
8
0
10
48.541019
20
35.267117
30
20.000000
11
50.563259
21
32.301037
31
0.000000
12
48.541019
22
35.267117
32
0.000000
13
48.541019
23
35.267117
33
0.000000
0
3DFACE
8
0
10
48.541019
20
35.267117
30
20.000000
11
48.541019
21
35.267117
31
0.000000
12
46.345016
22
38.106945
32
20.000000
13
46.345016
23
38.106945
33
20.000000
0
3DFACE
8
0
10
46.345016
20
38.106945
30
20.000000
11
48.541019
21
35.267117
31
0.000000
12
46.345016
22
38.106945
32
0.000000
13
46.345016
23
38.106945
33
0.000000
0
3DFACE
8
0
10
46.345016
20
38.106945
30
20.000000
11
46.345016
21
38.106945
31
0.000000
12
43.983112
22
40.810364
32
20.000000
13
43.983112
23
40.810364
33
20.000000
0
3DFACE
8
0
10
43.983112
20
40.810364
30
20.000000
11
46.345016
21
38.106945
31
0.000000
12
43.983112
22
40.810364
32
0.000000
13
43.983112
23
40.810364
33
0.000000
0
3DFACE
8
0
10
43.983112
20
40.810364
30
20.000000
11
43.983112
21
40.810364
31
0.000000
12
41.463760
22
43.367691
32
20.000000
13
41.463760
23
43.367691
33
20.000000
0
3DFACE
8
0
10
41.463760
20
43.367691
30
20.000000
11
43.983112
21
40.810364
31
0.000000
12
41.463760
22
43.367691
32
0.000000
13
41.463760
23
43.367691
33
0.000000
0
3DFACE
8
0
10
41.463760
20
43.367691
30
20.000000
11
41.463760
21
43.367691
31
0.000000
12
38.795975
22
45.769775
32
20.000000
13
38.795975
23
45.769775
33
20.000000
0
3DFACE
8
0
10
38.795975
20
45.769775
30
20.000000
11
41.463760
21
43.367691
31
0.000000
12
38.795975
22
45.769775
32
0.000000
13
38.795975
23
45.769775
33
0.000000
0
3DFACE
8
0
10
38.795975
20
45.769775
30
20.000000
11
38.795975
21
45.769775
31
0.000000
12
35.989315
22
48.008015
32
20.000000
13
35.989315
23
48.008015
33
20.000000
0
3DFACE
8
0
10
35.989315
20
48.008015
30
20.000000
11
38.795975
21
45.769775
31
0.000000
12
35.989315
22
48.008015
32
0.000000
13
35.989315
23
48.008015
33
0.000000
0
3DFACE
8
0
10
35.989315
20
48.008015
30
20.000000
11
35.989315
21
48.008015
31
0.000000
12
33.053818
22
50.074394
32
20.000000
13
33.053818
23
50.074394
33
20.000000
0
3DFACE
8
0
10
33.053818
20
50.074394
30
20.000000
11
35.989315
21
48.008015
31
0.000000
12
33.053818
22
50.074394
32
0.000000
13
33.053818
23
50.074394
33
0.000000
0
3DFACE
8
0
10
33.053818
20
50.074394
30
20.000000
11
33.053818
21
50.074394
31
0.000000
12
30.000000
22
51.961525
32
20.000000
13
30.000000
23
51.961525
33
20.000000
0
3DFACE
8
0
10
30.000000
20
51.961525
30
20.000000
11
33.053818
21
50.074394
31
0.000000
12
30.000000
22
51.961525
32
0.000000
13
30.000000
23
51.961525
33
0.000000
0
3DFACE
8
0
10
30.000000
20
51.961525
30
20.000000
11
30.000000
21
51.961525
31
0.000000
12
26.838789
22
53.662643
32
20.000000
13
26.838789
23
53.662643
33
20.000000
0
3DFACE
8
0
10
26.838789
20
53.662643
30
20.000000
11
30.000000
21
51.961525
31
0.000000
12
26.838789
22
53.662643
32
0.000000
13
26.838789
23
53.662643
33
0.000000
0
3DFACE
8
0
10
26.838789
20
53.662643
30
20.000000
11
26.838789
21
53.662643
31
0.000000
12
23.581501
22
55.171665
32
20.000000
13
23.581501
23
55.171665
33
20.000000
0
3DFACE
8
0
10
23.581501
20
55.171665
30
20.000000
11
26.838789
21
53.662643
31
0.000000
12
23.581501
22
55.171665
32
0.000000
13
23.581501
23
55.171665
33
0.000000
0
3DFACE
8
0
10
23.581501
20
55.171665
30
20.000000
11
23.581501
21
55.171665
31
0.000000
12
20.239799
22
56.483189
32
20.000000
13
20.239799
23
56.483189
33
20.000000
0
3DFACE
8
0
10
20.239799
20
56.483189
30
20.000000
11
23.581501
21
55.171665
31
0.000000
12
20.239799
22
56.483189
32
0.000000
13
20.239799
23
56.483189
33
0.000000
0
3DFACE
8
0
10
20.239799
20
56.483189
30
20.000000
11
20.239799
21
56.483189
31
0.000000
12
16.825644
22
57.592514
32
20.000000
13
16.825644
23
57.592514
33
20.000000
0
3DFACE
8
0
10
16.825644
20
57.592514
30
20.000000
11
20.239799
21
56.483189
31
0.000000
12
16.825644
22
57.592514
32
0.000000
13
16.825644
23
57.592514
33
0.000000
0
3DFACE
8
0
10
16.825644
20
57.592514
30
20.000000
11
16.825644
21
57.592514
31
0.000000
12
13.351256
22
58.495674
32
20.000000
13
13.351256
23
58.495674
33
20.000000
0
3DFACE
8
0
10
13.351256
20
58.495674
30
20.000000
11
16.825644
21
57.592514
31
0.000000
12
13.351256
22
58.495674
32
0.000000
13
13.351256
23
58.495674
33
0.000000
0
3DFACE
8
0
10
13.351256
20
58.495674
30
20.000000
11
13.351256
21
58.495674
31
0.000000
12
9.829075
22
59.189434
32
20.000000
13
9.829075
23
59.189434
33
20.000000
0
3DFACE
8
0
10
9.829075
20
59.189434
30
20.000000
11
13.351256
21
58.495674
31
0.000000
12
9.829075
22
59.189434
32
0.000000
13
9.829075
23
59.189434
33
0.000000
0
3DFACE
8
0
10
9.829075
20
59.189434
30
20.000000
11
9.829075
21
59.189434
31
0.000000
12
6.271708
22
59.671314
32
20.000000
13
6.271708
23
59.671314
33
20.000000
0
3DFACE
8
0
10
6.271708
20
59.671314
30
20.000000
11
9.829075
21
59.189434
31
0.000000
12
6.271708
22
59.671314
32
0.000000
13
6.271708
23
59.671314
33
0.000000
0
3DFACE
8
0
10
6.271708
20
59.671314
30
20.000000
11
6.271708
21
59.671314
31
0.000000
12
2.691890
22
59.939583
32
20.000000
13
2.691890
23
59.939583
33
20.000000
0
3DFACE
8
0
10
2.691890
20
59.939583
30
20.000000
11
6.271708
21
59.671314
31
0.000000
12
2.691890
22
59.939583
32
0.000000
13
2.691890
23
59.939583
33
0.000000
0
3DFACE
8
0
10
2.691890
20
59.939583
30
20.000000
11
2.691890
21
59.939583
31
0.000000
12
-0.897564
22
59.993286
32
20.000000
13
-0.897564
23
59.993286
33
20.000000
0
3DFACE
8
0
10
-0.897564
20
59.993286
30
20.000000
11
2.691890
21
59.939583
31
0.000000
12
-0.897564
22
59.993286
32
0.000000
13
-0.897564
23
59.993286
33
0.000000
0
3DFACE
8
0
10
-0.897564
20
59.993286
30
20.000000
11
-0.897564
21
59.993286
31
0.000000
12
-4.483806
22
59.832230
32
20.000000
13
-4.483806
23
59.832230
33
20.000000
0
3DFACE
8
0
10
-4.483806
20
59.832230
30
20.000000
11
-0.897564
21
59.993286
31
0.000000
12
-4.483806
22
59.832230
32
0.000000
13
-4.483806
23
59.832230
33
0.000000
0
3DFACE
8
0
10
-4.483806
20
59.832230
30
20.000000
11
-4.483806
21
59.832230
31
0.000000
12
-8.053996
22
59.456985
32
20.000000
13
-8.053996
23
59.456985
33
20.000000
0
3DFACE
8
0
10
-8.053996
20
59.456985
30
20.000000
11
-4.483806
21
59.832230
31
0.000000
12
-8.053996
22
59.456985
32
0.000000
13
-8.053996
23
59.456985
33
0.000000
0
3DFACE
8
0
10
-8.053996
20
59.456985
30
20.000000
11
-8.053996
21
59.456985
31
0.000000
12
-11.595355
22
58.868904
32
20.000000
13
-11.595355
23
58.868904
33
20.000000
0
3DFACE
8
0
10
-11.595355
20
58.868904
30
20.000000
11
-8.053996
21
59.456985
31
0.000000
12
-11.595355
22
58.868904
32
0.000000
13
-11.595355
23
58.868904
33
0.000000
0
3DFACE
8
0
10
-11.595355
20
58.868904
30
20.000000
11
-11.595355
21
58.868904
31
0.000000
12
-15.095206
22
58.070084
32
20.000000
13
-15.095206
23
58.070084
33
20.000000
0
3DFACE
8
0
10
-15.095206
20
58.070084
30
20.000000
11
-11.595355
21
58.868904
31
0.000000
12
-15.095206
22
58.070084
32
0.000000
13
-15.095206
23
58.070084
33
0.000000
0
3DFACE
8
0
10
-15.095206
20
58.070084
30
20.000000
11
-15.095206
21
58.070084
31
0.000000
12
-18.541019
22
57.063393
32
20.000000
13
-18.541019
23
57.063393
33
20.000000
0
3DFACE
8
0
10
-18.541019
20
57.063393
30
20.000000
11
-15.095206
21
58.070084
31
0.000000
12
-18.541019
22
57.063393
32
0.000000
13
-18.541019
23
57.063393
33
0.000000
0
3DFACE
8
0
10
-18.541019
20
57.063393
30
20.000000
11
-18.541019
21
57.063393
31
0.000000
12
-21.920462
22
55.852425
32
20.000000
13
-21.920462
23
55.852425
33
20.000000
0
3DFACE
8
0
10
-21.920462
20
55.852425
30
20.000000
11
-18.541019
21
57.063393
31
0.000000
12
-21.920462
22
55.852425
32
0.000000
13
-21.920462
23
55.852425
33
0.000000
0
3DFACE
8
0
10
-21.920462
20
55.852425
30
20.000000
11
-21.920462
21
55.852425
31
0.000000
12
-25.221434
22
54.441521
32
20.000000
13
-25.221434
23
54.441521
33
20.000000
0
3DFACE
8
0
10
-25.221434
20
54.441521
30
20.000000
11
-21.920462
21
55.852425
31
0.000000
12
-25.221434
22
54.441521
32
0.000000
13
-25.221434
23
54.441521
33
0.000000
0
3DFACE
8
0
10
-25.221434
20
54.441521
30
20.000000
11
-25.221434
21
54.441521
31
0.000000
12
-28.432119
22
52.835732
32
20.000000
13
-28.432119
23
52.835732
33
20.000000
0
3DFACE
8
0
10
-28.432119
20
52.835732
30
20.000000
11
-25.221434
21
54.441521
31
0.000000
12
-28.432119
22
52.835732
32
0.000000
13
-28.432119
23
52.835732
33
0.000000
0
3DFACE
8
0
10
-28.432119
20
52.835732
30
20.000000
11
-28.432119
21
52.835732
31
0.000000
12
-31.541027
22
51.040806
32
20.000000
13
-31.541027
23
51.040806
33
20.000000
0
3DFACE
8
0
10
-31.541027
20
51.040806
30
20.000000
11
-28.432119
21
52.835732
31
0.000000
12
-31.541027
22
51.040806
32
0.000000
13
-31.541027
23
51.040806
33
0.000000
0
3DFACE
8
0
10
-31.541027
20
51.040806
30
20.000000
11
-31.541027
21
51.040806
31
0.000000
12
-34.537025
22
49.063164
32
20.000000
13
-34.537025
23
49.063164
33
20.000000
0
3DFACE
8
0
10
-34.537025
20
49.063164
30
20.000000
11
-31.541027
21
51.040806
31
0.000000
12
-34.537025
22
49.063164
32
0.000000
13
-34.537025
23
49.063164
33
0.000000
0
3DFACE
8
0
10
-34.537025
20
49.063164
30
20.000000
11
-34.537025
21
49.063164
31
0.000000
12
-37.409389
22
46.909889
32
20.000000
13
-37.409389
23
46.909889
33
20.000000
0
3DFACE
8
0
10
-37.409389
20
46.909889
30
20.000000
11
-34.537025
21
49.063164
31
0.000000
12
-37.409389
22
46.909889
32
0.000000
13
-37.409389
23
46.909889
33
0.000000
0
3DFACE
8
0
10
-37.409389
20
46.909889
30
20.000000
11
-37.409389
21
46.909889
31
0.000000
12
-40.147835
22
44.588688
32
20.000000
13
-40.147835
23
44.588688
33
20.000000
0
3DFACE
8
0
10
-40.147835
20
44.588688
30
20.000000
11
-37.409389
21
46.909889
31
0.000000
12
-40.147835
22
44.588688
32
0.000000
13
-40.147835
23
44.588688
33
0.000000
0
3DFACE
8
0
10
-40.147835
20
44.588688
30
20.000000
11
-40.147835
21
44.588688
31
0.000000
12
-42.742565
22
42.107876
32
20.000000
13
-42.742565
23
42.107876
33
20.000000
0
3DFACE
8
0
10
-42.742565
20
42.107876
30
20.000000
11
-40.147835
21
44.588688
31
0.000000
12
-42.742565
22
42.107876
32
0.000000
13
-42.742565
23
42.107876
33
0.000000
0
3DFACE
8
0
10
-42.742565
20
42.107876
30
20.000000
11
-42.742565
21
42.107876
31
0.000000
12
-45.184288
22
39.476322
32
20.000000
13
-45.184288
23
39.476322
33
20.000000
0
3DFACE
8
0
10
-45.184288
20
39.476322
30
20.000000
11
-42.742565
21
42.107876
31
0.000000
12
-45.184288
22
39.476322
32
0.000000
13
-45.184288
23
39.476322
33
0.000000
0
3DFACE
8
0
10
-45.184288
20
39.476322
30
20.000000
11
-45.184288
21
39.476322
31
0.000000
12
-47.464264
22
36.703457
32
20.000000
13
-47.464264
23
36.703457
33
20.000000
0
3DFACE
8
0
10
-47.464264
20
36.703457
30
20.000000
11
-45.184288
21
39.476322
31
0.000000
12
-47.464264
22
36.703457
32
0.000000
13
-47.464264
23
36.703457
33
0.000000
0
3DFACE
8
0
10
-47.464264
20
36.703457
30
20.000000
11
-47.464264
21
36.703457
31
0.000000
12
-49.574326
22
33.799202
32
20.000000
13
-49.574326
23
33.799202
33
20.000000
0
3DFACE
8
0
10
-49.574326
20
33.799202
30
20.000000
11
-47.464264
21
36.703457
31
0.000000
12
-49.574326
22
33.799202
32
0.000000
13
-49.574326
23
33.799202
33
0.000000
0
3DFACE
8
0
10
-49.574326
20
33.799202
30
20.000000
11
-49.574326
21
33.799202
31
0.000000
12
-51.506927
22
30.773956
32
20.000000
13
-51.506927
23
30.773956
33
20.000000
0
3DFACE
8
0
10
-51.506927
20
30.773956
30
20.000000
11
-49.574326
21
33.799202
31
0.000000
12
-51.506927
22
30.773956
32
0.000000
13
-51.506927
23
30.773956
33
0.000000
0
3DFACE
8
0
10
-51.506927
20
30.773956
30
20.000000
11
-51.506927
21
30.773956
31
0.000000
12
-53.255146
22
27.638548
32
20.000000
13
-53.255146
23
27.638548
33
20.000000
0
3DFACE
8
0
10
-53.255146
20
27.638548
30
20.000000
11
-51.506927
21
30.773956
31
0.000000
12
-53.255146
22
27.638548
32
0.000000
13
-53.255146
23
27.638548
33
0.000000
0
3DFACE
8
0
10
-53.255146
20
27.638548
30
20.000000
11
-53.255146
21
27.638548
31
0.000000
12
-54.812729
22
24.404198
32
20.000000
13
-54.812729
23
24.404198
33
20.000000
0
3DFACE
8
0
10
-54.812729
20
24.404198
30
20.000000
11
-53.255146
21
27.638548
31
0.000000
12
-54.812729
22
24.404198
32
0.000000
13
-54.812729
23
24.404198
33
0.000000
0
3DFACE
8
0
10
-54.812729
20
24.404198
30
20.000000
11
-54.812729
21
24.404198
31
0.000000
12
-56.174091
22
21.082489
32
20.000000
13
-56.174091
23
21.082489
33
20.000000
0
3DFACE
8
0
10
-56.174091
20
21.082489
30
20.000000
11
-54.812729
21
24.404198
31
0.000000
12
-56.174091
22
21.082489
32
0.000000
13
-56.174091
23
21.082489
33
0.000000
0
3DFACE
8
0
10
-56.174091
20
21.082489
30
20.000000
11
-56.174091
21
21.082489
31
0.000000
12
-57.334370
22
17.685310
32
20.000000
13
-57.334370
23
17.685310
33
20.000000
0
3DFACE
8
0
10
-57.334370
20
17.685310
30
20.000000
11
-56.174091
21
21.082489
31
0.000000
12
-57.334370
22
17.685310
32
0.000000
13
-57.334370
23
17.685310
33
0.000000
0
3DFACE
8
0
10
-57.334370
20
17.685310
30
20.000000
11
-57.334370
21
17.685310
31
0.000000
12
-58.289402
22
14.224823
32
20.000000
13
-58.289402
23
14.224823
33
20.000000
0
3DFACE
8
0
10
-58.289402
20
14.224823
30
20.000000
11
-57.334370
21
17.685310
31
0.000000
12
-58.289402
22
14.224823
32
0.000000
13
-58.289402
23
14.224823
33
0.000000
0
3DFACE
8
0
10
-58.289402
20
14.224823
30
20.000000
11
-58.289402
21
14.224823
31
0.000000
12
-59.035774
22
10.713413
32
20.000000
13
-59.035774
23
10.713413
33
20.000000
0
3DFACE
8
0
10
-59.035774
20
10.713413
30
20.000000
11
-58.289402
21
14.224823
31
0.000000
12
-59.035774
22
10.713413
32
0.000000
13
-59.035774
23
10.713413
33
0.000000
0
3DFACE
8
0
10
-59.035774
20
10.713413
30
20.000000
11
-59.035774
21
10.713413
31
0.000000
12
-59.570816
22
7.163653
32
20.000000
13
-59.570816
23
7.163653
33
20.000000
0
3DFACE
8
0
10
-59.570816
20
7.163653
30
20.000000
11
-59.035774
21
10.713413
31
0.000000
12
-59.570816
22
7.163653
32
0.000000
13
-59.570816
23
7.163653
33
0.000000
0
3DFACE
8
0
10
-59.570816
20
7.163653
30
20.000000
11
-59.570816
21
7.163653
31
0.000000
12
-59.892609
22
3.588249
32
20.000000
13
-59.892609
23
3.588249
33
20.000000
0
3DFACE
8
0
10
-59.892609
20
3.588249
30
20.000000
11
-59.570816
21
7.163653
31
0.000000
12
-59.892609
22
3.588249
32
0.000000
13
-59.892609
23
3.588249
33
0.000000
0
3DFACE
8
0
10
-59.892609
20
-3.588249
30
20.000000
11
59.973145
21
-1.794928
31
20.000000
12
-60.000000
22
-0.000000
32
20.000000
13
-60.000000
23
-0.000000
33
20.000000
0
3DFACE
8
0
10
-60.000000
20
-0.000000
30
20.000000
11
59.973145
21
-1.794928
31
20.000000
12
59.973145
22
1.794928
32
20.000000
13
59.973145
23
1.794928
33
20.000000
0
3DFACE
8
0
10
-60.000000
20
-0.000000
30
20.000000
11
59.973145
21
1.794928
31
20.000000
12
-59.892609
22
3.588249
32
20.000000
13
-59.892609
23
3.588249
33
20.000000
0
3DFACE
8
0
10
-59.892609
20
3.588249
30
20.000000
11
59.973145
21
1.794928
31
20.000000
12
59.758457
22
5.378358
32
20.000000
13
59.758457
23
5.378358
33
20.000000
0
3DFACE
8
0
10
-59.892609
20
3.588249
30
20.000000
11
59.758457
21
5.378358
31
20.000000
12
-59.570816
22
7.163653
32
20.000000
13
-59.570816
23
7.163653
33
20.000000
0
3DFACE
8
0
10
-59.570816
20
7.163653
30
20.000000
11
59.758457
21
5.378358
31
20.000000
12
59.329849
22
8.942536
32
20.000000
13
59.329849
23
8.942536
33
20.000000
0
3DFACE
8
0
10
-59.570816
20
7.163653
30
20.000000
11
59.329849
21
8.942536
31
20.000000
12
-59.035774
22
10.713413
32
20.000000
13
-59.035774
23
10.713413
33
20.000000
0
3DFACE
8
0
10
-59.035774
20
10.713413
30
20.000000
11
59.329849
21
8.942536
31
20.000000
12
58.688854
22
12.474702
32
20.000000
13
58.688854
23
12.474702
33
20.000000
0
3DFACE
8
0
10
-59.035774
20
10.713413
30
20.000000
11
58.688854
21
12.474702
31
20.000000
12
-58.289402
22
14.224823
32
20.000000
13
-58.289402
23
14.224823
33
20.000000
0
3DFACE
8
0
10
-58.289402
20
14.224823
30
20.000000
11
58.688854
21
12.474702
31
20.000000
12
57.837772
22
15.962211
32
20.000000
13
57.837772
23
15.962211
33
20.000000
0
3DFACE
8
0
10
-58.289402
20
14.224823
30
20.000000
11
57.837772
21
15.962211
31
20.000000
12
-57.334370
22
17.685310
32
20.000000
13
-57.334370
23
17.685310
33
20.000000
0
3DFACE
8
0
10
-57.334370
20
17.685310
30
20.000000
11
57.837772
21
15.962211
31
20.000000
12
56.779644
22
19.392580
32
20.000000
13
56.779644
23
19.392580
33
20.000000
0
3DFACE
8
0
10
-57.334370
20
17.685310
30
20.000000
11
56.779644
21
19.392580
31
20.000000
12
-56.174091
22
21.082489
32
20.000000
13
-56.174091
23
21.082489
33
20.000000
0
3DFACE
8
0
10
-56.174091
20
21.082489
30
20.000000
11
56.779644
21
19.392580
31
20.000000
12
55.518257
22
22.753529
32
20.000000
13
55.518257
23
22.753529
33
20.000000
0
3DFACE
8
0
10
-56.174091
20
21.082489
30
20.000000
11
55.518257
21
22.753529
31
20.000000
12
-54.812729
22
24.404198
32
20.000000
13
-54.812729
23
24.404198
33
20.000000
0
3DFACE
8
0
10
-54.812729
20
24.404198
30
20.000000
11
55.518257
21
22.753529
31
20.000000
12
54.058132
22
26.033024
32
20.000000
13
54.058132
23
26.033024
33
20.000000
0
3DFACE
8
0
10
-54.812729
20
24.404198
30
20.000000
11
54.058132
21
26.033024
31
20.000000
12
-53.255146
22
27.638548
32
20.000000
13
-53.255146
23
27.638548
33
20.000000
0
3DFACE
8
0
10
-53.255146
20
27.638548
30
20.000000
11
54.058132
21
26.033024
31
20.000000
12
52.404491
22
29.219330
32
20.000000
13
52.404491
23
29.219330
33
20.000000
0
3DFACE
8
0
10
-53.255146
20
27.638548
30
20.000000
11
52.404491
21
29.219330
31
20.000000
12
-51.506927
22
30.773956
32
20.000000
13
-51.506927
23
30.773956
33
20.000000
0
3DFACE
8
0
10
-51.506927
20
30.773956
30
20.000000
11
52.404491
21
29.219330
31
20.000000
12
50.563259
22
32.301037
32
20.000000
13
50.563259
23
32.301037
33
20.000000
0
3DFACE
8
0
10
-51.506927
20
30.773956
30
20.000000
11
50.563259
21
32.301037
31
20.000000
12
-49.574326
22
33.799202
32
20.000000
13
-49.574326
23
33.799202
33
20.000000
0
3DFACE
8
0
10
-49.574326
20
33.799202
30
20.000000
11
50.563259
21
32.301037
31
20.000000
12
48.541019
22
35.267117
32
20.000000
13
48.541019
23
35.267117
33
20.000000
0
3DFACE
8
0
10
-49.574326
20
33.799202
30
20.000000
11
48.541019
21
35.267117
31
20.000000
12
-47.464264
22
36.703457
32
20.000000
13
-47.464264
23
36.703457
33
20.000000
0
3DFACE
8
0
10
-47.464264
20
36.703457
30
20.000000
11
48.541019
21
35.267117
31
20.000000
12
46.345016
22
38.106945
32
20.000000
13
46.345016
23
38.106945
33
20.000000
0
3DFACE
8
0
10
-47.464264
20
36.703457
30
20.000000
11
46.345016
21
38.106945
31
20.000000
12
-45.184288
22
39.476322
32
20.000000
13
-45.184288
23
39.476322
33
20.000000
0
3DFACE
8
0
10
-45.184288
20
39.476322
30
20.000000
11
46.345016
21
38.106945
31
20.000000
12
43.983112
22
40.810364
32
20.000000
13
43.983112
23
40.810364
33
20.000000
0
3DFACE
8
0
10
-45.184288
20
39.476322
30
20.000000
11
43.983112
21
40.810364
31
20.000000
12
-42.742565
22
42.107876
32
20.000000
13
-42.742565
23
42.107876
33
20.000000
0
3DFACE
8
0
10
-42.742565
20
42.107876
30
20.000000
11
43.983112
21
40.810364
31
20.000000
12
41.463760
22
43.367691
32
20.000000
13
41.463760
23
43.367691
33
20.000000
0
3DFACE
8
0
10
-42.742565
20
42.107876
30
20.000000
11
41.463760
21
43.367691
31
20.000000
12
-40.147835
22
44.588688
32
20.000000
13
-40.147835
23
44.588688
33
20.000000
0
3DFACE
8
0
10
-40.147835
20
44.588688
30
20.000000
11
41.463760
21
43.367691
31
20.000000
12
38.795975
22
45.769775
32
20.000000
13
38.795975
23
45.769775
33
20.000000
0
3DFACE
8
0
10
-40.147835
20
44.588688
30
20.000000
11
38.795975
21
45.769775
31
20.000000
12
-37.409389
22
46.909889
32
20.000000
13
-37.409389
23
46.909889
33
20.000000
0
3DFACE
8
0
10
-37.409389
20
46.909889
30
20.000000
11
38.795975
21
45.769775
31
20.000000
12
35.989315
22
48.008015
32
20.000000
13
35.989315
23
48.008015
33
20.000000
0
3DFACE
8
0
10
-37.409389
20
46.909889
30
20.000000
11
35.989315
21
48.008015
31
20.000000
12
-34.537025
22
49.063164
32
20.000000
13
-34.537025
23
49.063164
33
20.000000
0
3DFACE
8
0
10
-34.537025
20
49.063164
30
20.000000
11
35.989315
21
48.008015
31
20.000000
12
33.053818
22
50.074394
32
20.000000
13
33.053818
23
50.074394
33
20.000000
0
3DFACE
8
0
10
-34.537025
20
49.063164
30
20.000000
11
33.053818
21
50.074394
31
20.000000
12
-31.541027
22
51.040806
32
20.000000
13
-31.541027
23
51.040806
33
20.000000
0
3DFACE
8
0
10
-31.541027
20
51.040806
30
20.000000
11
33.053818
21
50.074394
31
20.000000
12
30.000000
22
51.961525
32
20.000000
13
30.000000
23
51.961525
33
20.000000
0
3DFACE
8
0
10
-31.541027
20
51.040806
30
20.000000
11
30.000000
21
51.961525
31
20.000000
12
-28.432119
22
52.835732
32
20.000000
13
-28.432119
23
52.835732
33
20.000000
0
3DFACE
8
0
10
-28.432119
20
52.835732
30
20.000000
11
30.000000
21
51.961525
31
20.000000
12
26.838789
22
53.662643
32
20.000000
13
26.838789
23
53.662643
33
20.000000
0
3DFACE
8
0
10
-28.432119
20
52.835732
30
20.000000
11
26.838789
21
53.662643
31
20.000000
12
-25.221434
22
54.441521
32
20.000000
13
-25.221434
23
54.441521
33
20.000000
0
3DFACE
8
0
10
-25.221434
20
54.441521
30
20.000000
11
26.838789
21
53.662643
31
20.000000
12
23.581501
22
55.171665
32
20.000000
13
23.581501
23
55.171665
33
20.000000
0
3DFACE
8
0
10
-25.221434
20
54.441521
30
20.000000
11
23.581501
21
55.171665
31
20.000000
12
-21.920462
22
55.852425
32
20.000000
13
-21.920462
23
55.852425
33
20.000000
0
3DFACE
8
0
10
-21.920462
20
55.852425
30
20.000000
11
23.581501
21
55.171665
31
20.000000
12
20.239799
22
56.483189
32
20.000000
13
20.239799
23
56.483189
33
20.000000
0
3DFACE
8
0
10
-21.920462
20
55.852425
30
20.000000
11
20.239799
21
56.483189
31
20.000000
12
-18.541019
22
57.063393
32
20.000000
13
-18.541019
23
57.063393
33
20.000000
0
3DFACE
8
0
10
-18.541019
20
57.063393
30
20.000000
11
20.239799
21
56.483189
31
20.000000
12
16.825644
22
57.592514
32
20.000000
13
16.825644
23
57.592514
33
20.000000
0
3DFACE
8
0
10
-18.541019
20
57.063393
30
20.000000
11
16.825644
21
57.592514
31
20.000000
12
-15.095206
22
58.070084
32
20.000000
13
-15.095206
23
58.070084
33
20.000000
0
3DFACE
8
0
10
-15.095206
20
58.070084
30
20.000000
11
16.825644
21
57.592514
31
20.000000
12
13.351256
22
58.495674
32
20.000000
13
13.351256
23
58.495674
33
20.000000
0
3DFACE
8
0
10
-15.095206
20
58.070084
30
20.000000
11
13.351256
21
58.495674
31
20.000000
12
-11.595355
22
58.868904
32
20.000000
13
-11.595355
23
58.868904
33
20.000000
0
3DFACE
8
0
10
-11.595355
20
58.868904
30
20.000000
11
13.351256
21
58.495674
31
20.000000
12
9.829075
22
59.189434
32
20.000000
13
9.829075
23
59.189434
33
20.000000
0
3DFACE
8
0
10
-11.595355
20
58.868904
30
20.000000
11
9.829075
21
59.189434
31
20.000000
12
-8.053996
22
59.456985
32
20.000000
13
-8.053996
23
59.456985
33
20.000000
0
3DFACE
8
0
10
-8.053996
20
59.456985
30
20.000000
11
9.829075
21
59.189434
31
20.000000
12
6.271708
22
59.671314
32
20.000000
13
6.271708
23
59.671314
33
20.000000
0
3DFACE
8
0
10
-8.053996
20
59.456985
30
20.000000
11
6.271708
21
59.671314
31
20.000000
12
-4.483806
22
59.832230
32
20.000000
13
-4.483806
23
59.832230
33
20.000000
0
3DFACE
8
0
10
-4.483806
20
59.832230
30
20.000000
11
6.271708
21
59.671314
31
20.000000
12
2.691890
22
59.939583
32
20.000000
13
2.691890
23
59.939583
33
20.000000
0
3DFACE
8
0
10
-4.483806
20
59.832230
30
20.000000
11
2.691890
21
59.939583
31
20.000000
12
-0.897564
22
59.993286
32
20.000000
13
-0.897564
23
59.993286
33
20.000000
0
3DFACE
8
0
10
59.973145
20
-1.794928
30
20.000000
11
-59.892609
21
-3.588249
31
20.000000
12
59.758457
22
-5.378358
32
20.000000
13
59.758457
23
-5.378358
33
20.000000
0
3DFACE
8
0
10
59.758457
20
-5.378358
30
20.000000
11
-59.892609
21
-3.588249
31
20.000000
12
-59.570816
22
-7.163653
32
20.000000
13
-59.570816
23
-7.163653
33
20.000000
0
3DFACE
8
0
10
59.758457
20
-5.378358
30
20.000000
11
-59.570816
21
-7.163653
31
20.000000
12
59.329849
22
-8.942536
32
20.000000
13
59.329849
23
-8.942536
33
20.000000
0
3DFACE
8
0
10
59.329849
20
-8.942536
30
20.000000
11
-59.570816
21
-7.163653
31
20.000000
12
-59.035774
22
-10.713413
32
20.000000
13
-59.035774
23
-10.713413
33
20.000000
0
3DFACE
8
0
10
59.329849
20
-8.942536
30
20.000000
11
-59.035774
21
-10.713413
31
20.000000
12
58.688854
22
-12.474702
32
20.000000
13
58.688854
23
-12.474702
33
20.000000
0
3DFACE
8
0
10
58.688854
20
-12.474702
30
20.000000
11
-59.035774
21
-10.713413
31
20.000000
12
-58.289402
22
-14.224823
32
20.000000
13
-58.289402
23
-14.224823
33
20.000000
0
3DFACE
8
0
10
58.688854
20
-12.474702
30
20.000000
11
-58.289402
21
-14.224823
31
20.000000
12
57.837772
22
-15.962211
32
20.000000
13
57.837772
23
-15.962211
33
20.000000
0
3DFACE
8
0
10
57.837772
20
-15.962211
30
20.000000
11
-58.289402
21
-14.224823
31
20.000000
12
-57.334370
22
-17.685310
32
20.000000
13
-57.334370
23
-17.685310
33
20.000000
0
3DFACE
8
0
10
57.837772
20
-15.962211
30
20.000000
11
-57.334370
21
-17.685310
31
20.000000
12
56.779644
22
-19.392580
32
20.000000
13
56.779644
23
-19.392580
33
20.000000
0
3DFACE
8
0
10
56.779644
20
-19.392580
30
20.000000
11
-57.334370
21
-17.685310
31
20.000000
12
-56.174091
22
-21.082489
32
20.000000
13
-56.174091
23
-21.082489
33
20.000000
0
3DFACE
8
0
10
56.779644
20
-19.392580
30
20.000000
11
-56.174091
21
-21.082489
31
20.000000
12
55.518257
22
-22.753529
32
20.000000
13
55.518257
23
-22.753529
33
20.000000
0
3DFACE
8
0
10
55.518257
20
-22.753529
30
20.000000
11
-56.174091
21
-21.082489
31
20.000000
12
-54.812729
22
-24.404198
32
20.000000
13
-54.812729
23
-24.404198
33
20.000000
0
3DFACE
8
0
10
55.518257
20
-22.753529
30
20.000000
11
-54.812729
21
-24.404198
31
20.000000
12
54.058132
22
-26.033024
32
20.000000
13
54.058132
23
-26.033024
33
20.000000
0
3DFACE
8
0
10
54.058132
20
-26.033024
30
20.000000
11
-54.812729
21
-24.404198
31
20.000000
12
-53.255146
22
-27.638548
32
20.000000
13
-53.255146
23
-27.638548
33
20.000000
0
3DFACE
8
0
10
54.058132
20
-26.033024
30
20.000000
11
-53.255146
21
-27.638548
31
20.000000
12
52.404491
22
-29.219330
32
20.000000
13
52.404491
23
-29.219330
33
20.000000
0
3DFACE
8
0
10
52.404491
20
-29.219330
30
20.000000
11
-53.255146
21
-27.638548
31
20.000000
12
-51.506927
22
-30.773956
32
20.000000
13
-51.506927
23
-30.773956
33
20.000000
0
3DFACE
8
0
10
52.404491
20
-29.219330
30
20.000000
11
-51.506927
21
-30.773956
31
20.000000
12
50.563259
22
-32.301037
32
20.000000
13
50.563259
23
-32.301037
33
20.000000
0
3DFACE
8
0
10
50.563259
20
-32.301037
30
20.000000
11
-51.506927
21
-30.773956
31
20.000000
12
-49.574326
22
-33.799202
32
20.000000
13
-49.574326
23
-33.799202
33
20.000000
0
3DFACE
8
0
10
50.563259
20
-32.301037
30
20.000000
11
-49.574326
21
-33.799202
31
20.000000
12
48.541019
22
-35.267117
32
20.000000
13
48.541019
23
-35.267117
33
20.000000
0
3DFACE
8
0
10
48.541019
20
-35.267117
30
20.000000
11
-49.574326
21
-33.799202
31
20.000000
12
-47.464264
22
-36.703457
32
20.000000
13
-47.464264
23
-36.703457
33
20.000000
0
3DFACE
8
0
10
48.541019
20
-35.267117
30
20.000000
11
-47.464264
21
-36.703457
31
20.000000
12
46.345016
22
-38.106945
32
20.000000
13
46.345016
23
-38.106945
33
20.000000
0
3DFACE
8
0
10
46.345016
20
-38.106945
30
20.000000
11
-47.464264
21
-36.703457
31
20.000000
12
-45.184288
22
-39.476322
32
20.000000
13
-45.184288
23
-39.476322
33
20.000000
0
3DFACE
8
0
10
46.345016
20
-38.106945
30
20.000000
11
-45.184288
21
-39.476322
31
20.000000
12
43.983112
22
-40.810364
32
20.000000
13
43.983112
23
-40.810364
33
20.000000
0
3DFACE
8
0
10
43.983112
20
-40.810364
30
20.000000
11
-45.184288
21
-39.476322
31
20.000000
12
-42.742565
22
-42.107876
32
20.000000
13
-42.742565
23
-42.107876
33
20.000000
0
3DFACE
8
0
10
43.983112
20
-40.810364
30
20.000000
11
-42.742565
21
-42.107876
31
20.000000
12
41.463760
22
-43.367691
32
20.000000
13
41.463760
23
-43.367691
33
20.000000
0
3DFACE
8
0
10
41.463760
20
-43.367691
30
20.000000
11
-42.742565
21
-42.107876
31
20.000000
12
-40.147835
22
-44.588688
32
20.000000
13
-40.147835
23
-44.588688
33
20.000000
0
3DFACE
8
0
10
41.463760
20
-43.367691
30
20.000000
11
-40.147835
21
-44.588688
31
20.000000
12
38.795975
22
-45.769775
32
20.000000
13
38.795975
23
-45.769775
33
20.000000
0
3DFACE
8
0
10
38.795975
20
-45.769775
30
20.000000
11
-40.147835
21
-44.588688
31
20.000000
12
-37.409389
22
-46.909889
32
20.000000
13
-37.409389
23
-46.909889
33
20.000000
0
3DFACE
8
0
10
38.795975
20
-45.769775
30
20.000000
11
-37.409389
21
-46.909889
31
20.000000
12
35.989315
22
-48.008015
32
20.000000
13
35.989315
23
-48.008015
33
20.000000
0
3DFACE
8
0
10
35.989315
20
-48.008015
30
20.000000
11
-37.409389
21
-46.909889
31
20.000000
12
-34.537025
22
-49.063164
32
20.000000
13
-34.537025
23
-49.063164
33
20.000000
0
3DFACE
8
0
10
35.989315
20
-48.008015
30
20.000000
11
-34.537025
21
-49.063164
31
20.000000
12
33.053818
22
-50.074394
32
20.000000
13
33.053818
23
-50.074394
33
20.000000
0
3DFACE
8
0
10
33.053818
20
-50.074394
30
20.000000
11
-34.537025
21
-49.063164
31
20.000000
12
-31.541027
22
-51.040806
32
20.000000
13
-31.541027
23
-51.040806
33
20.000000
0
3DFACE
8
0
10
33.053818
20
-50.074394
30
20.000000
11
-31.541027
21
-51.040806
31
20.000000
12
30.000000
22
-51.961525
32
20.000000
13
30.000000
23
-51.961525
33
20.000000
0
3DFACE
8
0
10
30.000000
20
-51.961525
30
20.000000
11
-31.541027
21
-51.040806
31
20.000000
12
-28.432119
22
-52.835732
32
20.000000
13
-28.432119
23
-52.835732
33
20.000000
0
3DFACE
8
0
10
30.000000
20
-51.961525
30
20.000000
11
-28.432119
21
-52.835732
31
20.000000
12
26.838789
22
-53.662643
32
20.000000
13
26.838789
23
-53.662643
33
20.000000
0
3DFACE
8
0
10
26.838789
20
-53.662643
30
20.000000
11
-28.432119
21
-52.835732
31
20.000000
12
-25.221434
22
-54.441521
32
20.000000
13
-25.221434
23
-54.441521
33
20.000000
0
3DFACE
8
0
10
26.838789
20
-53.662643
30
20.000000
11
-25.221434
21
-54.441521
31
20.000000
12
23.581501
22
-55.171665
32
20.000000
13
23.581501
23
-55.171665
33
20.000000
0
3DFACE
8
0
10
23.581501
20
-55.171665
30
20.000000
11
-25.221434
21
-54.441521
31
20.000000
12
-21.920462
22
-55.852425
32
20.000000
13
-21.920462
23
-55.852425
33
20.000000
0
3DFACE
8
0
10
23.581501
20
-55.171665
30
20.000000
11
-21.920462
21
-55.852425
31
20.000000
12
20.239799
22
-56.483189
32
20.000000
13
20.239799
23
-56.483189
33
20.000000
0
3DFACE
8
0
10
20.239799
20
-56.483189
30
20.000000
11
-21.920462
21
-55.852425
31
20.000000
12
-18.541019
22
-57.063393
32
20.000000
13
-18.541019
23
-57.063393
33
20.000000
0
3DFACE
8
0
10
20.239799
20
-56.483189
30
20.000000
11
-18.541019
21
-57.063393
31
20.000000
12
16.825644
22
-57.592514
32
20.000000
13
16.825644
23
-57.592514
33
20.000000
0
3DFACE
8
0
10
16.825644
20
-57.592514
30
20.000000
11
-18.541019
21
-57.063393
31
20.000000
12
-15.095206
22
-58.070084
32
20.000000
13
-15.095206
23
-58.070084
33
20.000000
0
3DFACE
8
0
10
16.825644
20
-57.592514
30
20.000000
11
-15.095206
21
-58.070084
31
20.000000
12
13.351256
22
-58.495674
32
20.000000
13
13.351256
23
-58.495674
33
20.000000
0
3DFACE
8
0
10
13.351256
20
-58.495674
30
20.000000
11
-15.095206
21
-58.070084
31
20.000000
12
-11.595355
22
-58.868904
32
20.000000
13
-11.595355
23
-58.868904
33
20.000000
0
3DFACE
8
0
10
13.351256
20
-58.495674
30
20.000000
11
-11.595355
21
-58.868904
31
20.000000
12
9.829075
22
-59.189434
32
20.000000
13
9.829075
23
-59.189434
33
20.000000
0
3DFACE
8
0
10
9.829075
20
-59.189434
30
20.000000
11
-11.595355
21
-58.868904
31
20.000000
12
-8.053996
22
-59.456985
32
20.000000
13
-8.053996
23
-59.456985
33
20.000000
0
3DFACE
8
0
10
9.829075
20
-59.189434
30
20.000000
11
-8.053996
21
-59.456985
31
20.000000
12
6.271708
22
-59.671314
32
20.000000
13
6.271708
23
-59.671314
33
20.000000
0
3DFACE
8
0
10
6.271708
20
-59.671314
30
20.000000
11
-8.053996
21
-59.456985
31
20.000000
12
-4.483806
22
-59.832230
32
20.000000
13
-4.483806
23
-59.832230
33
20.000000
0
3DFACE
8
0
10
6.271708
20
-59.671314
30
20.000000
11
-4.483806
21
-59.832230
31
20.000000
12
2.691890
22
-59.939583
32
20.000000
13
2.691890
23
-59.939583
33
20.000000
0
3DFACE
8
0
10
2.691890
20
-59.939583
30
20.000000
11
-4.483806
21
-59.832230
31
20.000000
12
-0.897564
22
-59.993286
32
20.000000
13
-0.897564
23
-59.993286
33
20.000000
0
3DFACE
8
0
10
-59.892609
20
3.588249
30
0.000000
11
59.973145
21
1.794928
31
0.000000
12
-60.000000
22
-0.000000
32
0.000000
13
-60.000000
23
-0.000000
33
0.000000
0
3DFACE
8
0
10
-60.000000
20
-0.000000
30
0.000000
11
59.973145
21
1.794928
31
0.000000
12
59.973145
22
-1.794928
32
0.000000
13
59.973145
23
-1.794928
33
0.000000
0
3DFACE
8
0
10
-60.000000
20
-0.000000
30
0.000000
11
59.973145
21
-1.794928
31
0.000000
12
-59.892609
22
-3.588249
32
0.000000
13
-59.892609
23
-3.588249
33
0.000000
0
3DFACE
8
0
10
-59.892609
20
-3.588249
30
0.000000
11
59.973145
21
-1.794928
31
0.000000
12
59.758457
22
-5.378358
32
0.000000
13
59.758457
23
-5.378358
33
0.000000
0
3DFACE
8
0
10
-59.892609
20
-3.588249
30
0.000000
11
59.758457
21
-5.378358
31
0.000000
12
-59.570816
22
-7.163653
32
0.000000
13
-59.570816
23
-7.163653
33
0.000000
0
3DFACE
8
0
10
-59.570816
20
-7.163653
30
0.000000
11
59.758457
21
-5.378358
31
0.000000
12
59.329849
22
-8.942536
32
0.000000
13
59.329849
23
-8.942536
33
0.000000
0
3DFACE
8
0
10
-59.570816
20
-7.163653
30
0.000000
11
59.329849
21
-8.942536
31
0.000000
12
-59.035774
22
-10.713413
32
0.000000
13
-59.035774
23
-10.713413
33
0.000000
0
3DFACE
8
0
10
-59.035774
20
-10.713413
30
0.000000
11
59.329849
21
-8.942536
31
0.000000
12
58.688854
22
-12.474702
32
0.000000
13
58.688854
23
-12.474702
33
0.000000
0
3DFACE
8
0
10
-59.035774
20
-10.713413
30
0.000000
11
58.688854
21
-12.474702
31
0.000000
12
-58.289402
22
-14.224823
32
0.000000
13
-58.289402
23
-14.224823
33
0.000000
0
3DFACE
8
0
10
-58.289402
20
-14.224823
30
0.000000
11
58.688854
21
-12.474702
31
0.000000
12
57.837772
22
-15.962211
32
0.000000
13
57.837772
23
-15.962211
33
0.000000
0
3DFACE
8
0
10
-58.289402
20
-14.224823
30
0.000000
11
57.837772
21
-15.962211
31
0.000000
12
-57.334370
22
-17.685310
32
0.000000
13
-57.334370
23
-17.685310
33
0.000000
0
3DFACE
8
0
10
-57.334370
20
-17.685310
30
0.000000
11
57.837772
21
-15.962211
31
0.000000
12
56.779644
22
-19.392580
32
0.000000
13
56.779644
23
-19.392580
33
0.000000
0
3DFACE
8
0
10
-57.334370
20
-17.685310
30
0.000000
11
56.779644
21
-19.392580
31
0.000000
12
-56.174091
22
-21.082489
32
0.000000
13
-56.174091
23
-21.082489
33
0.000000
0
3DFACE
8
0
10
-56.174091
20
-21.082489
30
0.000000
11
56.779644
21
-19.392580
31
0.000000
12
55.518257
22
-22.753529
32
0.000000
13
55.518257
23
-22.753529
33
0.000000
0
3DFACE
8
0
10
-56.174091
20
-21.082489
30
0.000000
11
55.518257
21
-22.753529
31
0.000000
12
-54.812729
22
-24.404198
32
0.000000
13
-54.812729
23
-24.404198
33
0.000000
0
3DFACE
8
0
10
-54.812729
20
-24.404198
30
0.000000
11
55.518257
21
-22.753529
31
0.000000
12
54.058132
22
-26.033024
32
0.000000
13
54.058132
23
-26.033024
33
0.000000
0
3DFACE
8
0
10
-54.812729
20
-24.404198
30
0.000000
11
54.058132
21
-26.033024
31
0.000000
12
-53.255146
22
-27.638548
32
0.000000
13
-53.255146
23
-27.638548
33
0.000000
0
3DFACE
8
0
10
-53.255146
20
-27.638548
30
0.000000
11
54.058132
21
-26.033024
31
0.000000
12
52.404491
22
-29.219330
32
0.000000
13
52.404491
23
-29.219330
33
0.000000
0
3DFACE
8
0
10
-53.255146
20
-27.638548
30
0.000000
11
52.404491
21
-29.219330
31
0.000000
12
-51.506927
22
-30.773956
32
0.000000
13
-51.506927
23
-30.773956
33
0.000000
0
3DFACE
8
0
10
-51.506927
20
-30.773956
30
0.000000
11
52.404491
21
-29.219330
31
0.000000
12
50.563259
22
-32.301037
32
0.000000
13
50.563259
23
-32.301037
33
0.000000
0
3DFACE
8
0
10
-51.506927
20
-30.773956
30
0.000000
11
50.563259
21
-32.301037
31
0.000000
12
-49.574326
22
-33.799202
32
0.000000
13
-49.574326
23
-33.799202
33
0.000000
0
3DFACE
8
0
10
-49.574326
20
-33.799202
30
0.000000
11
50.563259
21
-32.301037
31
0.000000
12
48.541019
22
-35.267117
32
0.000000
13
48.541019
23
-35.267117
33
0.000000
0
3DFACE
8
0
10
-49.574326
20
-33.799202
30
0.000000
11
48.541019
21
-35.267117
31
0.000000
12
-47.464264
22
-36.703457
32
0.000000
13
-47.464264
23
-36.703457
33
0.000000
0
3DFACE
8
0
10
-47.464264
20
-36.703457
30
0.000000
11
48.541019
21
-35.267117
31
0.000000
12
46.345016
22
-38.106945
32
0.000000
13
46.345016
23
-38.106945
33
0.000000
0
3DFACE
8
0
10
-47.464264
20
-36.703457
30
0.000000
11
46.345016
21
-38.106945
31
0.000000
12
-45.184288
22
-39.476322
32
0.000000
13
-45.184288
23
-39.476322
33
0.000000
0
3DFACE
8
0
10
-45.184288
20
-39.476322
30
0.000000
11
46.345016
21
-38.106945
31
0.000000
12
43.983112
22
-40.810364
32
0.000000
13
43.983112
23
-40.810364
33
0.000000
0
3DFACE
8
0
10
-45.184288
20
-39.476322
30
0.000000
11
43.983112
21
-40.810364
31
0.000000
12
-42.742565
22
-42.107876
32
0.000000
13
-42.742565
23
-42.107876
33
0.000000
0
3DFACE
8
0
10
-42.742565
20
-42.107876
30
0.000000
11
43.983112
21
-40.810364
31
0.000000
12
41.463760
22
-43.367691
32
0.000000
13
41.463760
23
-43.367691
33
0.000000
0
3DFACE
8
0
10
-42.742565
20
-42.107876
30
0.000000
11
41.463760
21
-43.367691
31
0.000000
12
-40.147835
22
-44.588688
32
0.000000
13
-40.147835
23
-44.588688
33
0.000000
0
3DFACE
8
0
10
-40.147835
20
-44.588688
30
0.000000
11
41.463760
21
-43.367691
31
0.000000
12
38.795975
22
-45.769775
32
0.000000
13
38.795975
23
-45.769775
33
0.000000
0
3DFACE
8
0
10
-40.147835
20
-44.588688
30
0.000000
11
38.795975
21
-45.769775
31
0.000000
12
-37.409389
22
-46.909889
32
0.000000
13
-37.409389
23
-46.909889
33
0.000000
0
3DFACE
8
0
10
-37.409389
20
-46.909889
30
0.000000
11
38.795975
21
-45.769775
31
0.000000
12
35.989315
22
-48.008015
32
0.000000
13
35.989315
23
-48.008015
33
0.000000
0
3DFACE
8
0
10
-37.409389
20
-46.909889
30
0.000000
11
35.989315
21
-48.008015
31
0.000000
12
-34.537025
22
-49.063164
32
0.000000
13
-34.537025
23
-49.063164
33
0.000000
0
3DFACE
8
0
10
-34.537025
20
-49.063164
30
0.000000
11
35.989315
21
-48.008015
31
0.000000
12
33.053818
22
-50.074394
32
0.000000
13
33.053818
23
-50.074394
33
0.000000
0
3DFACE
8
0
10
-34.537025
20
-49.063164
30
0.000000
11
33.053818
21
-50.074394
31
0.000000
12
-31.541027
22
-51.040806
32
0.000000
13
-31.541027
23
-51.040806
33
0.000000
0
3DFACE
8
0
10
-31.541027
20
-51.040806
30
0.000000
11
33.053818
21
-50.074394
31
0.000000
12
30.000000
22
-51.961525
32
0.000000
13
30.000000
23
-51.961525
33
0.000000
0
3DFACE
8
0
10
-31.541027
20
-51.040806
30
0.000000
11
30.000000
21
-51.961525
31
0.000000
12
-28.432119
22
-52.835732
32
0.000000
13
-28.432119
23
-52.835732
33
0.000000
0
3DFACE
8
0
10
-28.432119
20
-52.835732
30
0.000000
11
30.000000
21
-51.961525
31
0.000000
12
26.838789
22
-53.662643
32
0.000000
13
26.838789
23
-53.662643
33
0.000000
0
3DFACE
8
0
10
-28.432119
20
-52.835732
30
0.000000
11
26.838789
21
-53.662643
31
0.000000
12
-25.221434
22
-54.441521
32
0.000000
13
-25.221434
23
-54.441521
33
0.000000
0
3DFACE
8
0
10
-25.221434
20
-54.441521
30
0.000000
11
26.838789
21
-53.662643
31
0.000000
12
23.581501
22
-55.171665
32
0.000000
13
23.581501
23
-55.171665
33
0.000000
0
3DFACE
8
0
10
-25.221434
20
-54.441521
30
0.000000
11
23.581501
21
-55.171665
31
0.000000
12
-21.920462
22
-55.852425
32
0.000000
13
-21.920462
23
-55.852425
33
0.000000
0
3DFACE
8
0
10
-21.920462
20
-55.852425
30
0.000000
11
23.581501
21
-55.171665
31
0.000000
12
20.239799
22
-56.483189
32
0.000000
13
20.239799
23
-56.483189
33
0.000000
0
3DFACE
8
0
10
-21.920462
20
-55.852425
30
0.000000
11
20.239799
21
-56.483189
31
0.000000
12
-18.541019
22
-57.063393
32
0.000000
13
-18.541019
23
-57.063393
33
0.000000
0
3DFACE
8
0
10
-18.541019
20
-57.063393
30
0.000000
11
20.239799
21
-56.483189
31
0.000000
12
16.825644
22
-57.592514
32
0.000000
13
16.825644
23
-57.592514
33
0.000000
0
3DFACE
8
0
10
-18.541019
20
-57.063393
30
0.000000
11
16.825644
21
-57.592514
31
0.000000
12
-15.095206
22
-58.070084
32
0.000000
13
-15.095206
23
-58.070084
33
0.000000
0
3DFACE
8
0
10
-15.095206
20
-58.070084
30
0.000000
11
16.825644
21
-57.592514
31
0.000000
12
13.351256
22
-58.495674
32
0.000000
13
13.351256
23
-58.495674
33
0.000000
0
3DFACE
8
0
10
-15.095206
20
-58.070084
30
0.000000
11
13.351256
21
-58.495674
31
0.000000
12
-11.595355
22
-58.868904
32
0.000000
13
-11.595355
23
-58.868904
33
0.000000
0
3DFACE
8
0
10
-11.595355
20
-58.868904
30
0.000000
11
13.351256
21
-58.495674
31
0.000000
12
9.829075
22
-59.189434
32
0.000000
13
9.829075
23
-59.189434
33
0.000000
0
3DFACE
8
0
10
-11.595355
20
-58.868904
30
0.000000
11
9.829075
21
-59.189434
31
0.000000
12
-8.053996
22
-59.456985
32
0.000000
13
-8.053996
23
-59.456985
33
0.000000
0
3DFACE
8
0
10
-8.053996
20
-59.456985
30
0.000000
11
9.829075
21
-59.189434
31
0.000000
12
6.271708
22
-59.671314
32
0.000000
13
6.271708
23
-59.671314
33
0.000000
0
3DFACE
8
0
10
-8.053996
20
-59.456985
30
0.000000
11
6.271708
21
-59.671314
31
0.000000
12
-4.483806
22
-59.832230
32
0.000000
13
-4.483806
23
-59.832230
33
0.000000
0
3DFACE
8
0
10
-4.483806
20
-59.832230
30
0.000000
11
6.271708
21
-59.671314
31
0.000000
12
2.691890
22
-59.939583
32
0.000000
13
2.691890
23
-59.939583
33
0.000000
0
3DFACE
8
0
10
-4.483806
20
-59.832230
30
0.000000
11
2.691890
21
-59.939583
31
0.000000
12
-0.897564
22
-59.993286
32
0.000000
13
-0.897564
23
-59.993286
33
0.000000
0
3DFACE
8
0
10
59.973145
20
1.794928
30
0.000000
11
-59.892609
21
3.588249
31
0.000000
12
59.758457
22
5.378358
32
0.000000
13
59.758457
23
5.378358
33
0.000000
0
3DFACE
8
0
10
59.758457
20
5.378358
30
0.000000
11
-59.892609
21
3.588249
31
0.000000
12
-59.570816
22
7.163653
32
0.000000
13
-59.570816
23
7.163653
33
0.000000
0
3DFACE
8
0
10
59.758457
20
5.378358
30
0.000000
11
-59.570816
21
7.163653
31
0.000000
12
59.329849
22
8.942536
32
0.000000
13
59.329849
23
8.942536
33
0.000000
0
3DFACE
8
0
10
59.329849
20
8.942536
30
0.000000
11
-59.570816
21
7.163653
31
0.000000
12
-59.035774
22
10.713413
32
0.000000
13
-59.035774
23
10.713413
33
0.000000
0
3DFACE
8
0
10
59.329849
20
8.942536
30
0.000000
11
-59.035774
21
10.713413
31
0.000000
12
58.688854
22
12.474702
32
0.000000
13
58.688854
23
12.474702
33
0.000000
0
3DFACE
8
0
10
58.688854
20
12.474702
30
0.000000
11
-59.035774
21
10.713413
31
0.000000
12
-58.289402
22
14.224823
32
0.000000
13
-58.289402
23
14.224823
33
0.000000
0
3DFACE
8
0
10
58.688854
20
12.474702
30
0.000000
11
-58.289402
21
14.224823
31
0.000000
12
57.837772
22
15.962211
32
0.000000
13
57.837772
23
15.962211
33
0.000000
0
3DFACE
8
0
10
57.837772
20
15.962211
30
0.000000
11
-58.289402
21
14.224823
31
0.000000
12
-57.334370
22
17.685310
32
0.000000
13
-57.334370
23
17.685310
33
0.000000
0
3DFACE
8
0
10
57.837772
20
15.962211
30
0.000000
11
-57.334370
21
17.685310
31
0.000000
12
56.779644
22
19.392580
32
0.000000
13
56.779644
23
19.392580
33
0.000000
0
3DFACE
8
0
10
56.779644
20
19.392580
30
0.000000
11
-57.334370
21
17.685310
31
0.000000
12
-56.174091
22
21.082489
32
0.000000
13
-56.174091
23
21.082489
33
0.000000
0
3DFACE
8
0
10
56.779644
20
19.392580
30
0.000000
11
-56.174091
21
21.082489
31
0.000000
12
55.518257
22
22.753529
32
0.000000
13
55.518257
23
22.753529
33
0.000000
0
3DFACE
8
0
10
55.518257
20
22.753529
30
0.000000
11
-56.174091
21
21.082489
31
0.000000
12
-54.812729
22
24.404198
32
0.000000
13
-54.812729
23
24.404198
33
0.000000
0
3DFACE
8
0
10
55.518257
20
22.753529
30
0.000000
11
-54.812729
21
24.404198
31
0.000000
12
54.058132
22
26.033024
32
0.000000
13
54.058132
23
26.033024
33
0.000000
0
3DFACE
8
0
10
54.058132
20
26.033024
30
0.000000
11
-54.812729
21
24.404198
31
0.000000
12
-53.255146
22
27.638548
32
0.000000
13
-53.255146
23
27.638548
33
0.000000
0
3DFACE
8
0
10
54.058132
20
26.033024
30
0.000000
11
-53.255146
21
27.638548
31
0.000000
12
52.404491
22
29.219330
32
0.000000
13
52.404491
23
29.219330
33
0.000000
0
3DFACE
8
0
10
52.404491
20
29.219330
30
0.000000
11
-53.255146
21
27.638548
31
0.000000
12
-51.506927
22
30.773956
32
0.000000
13
-51.506927
23
30.773956
33
0.000000
0
3DFACE
8
0
10
52.404491
20
29.219330
30
0.000000
11
-51.506927
21
30.773956
31
0.000000
12
50.563259
22
32.301037
32
0.000000
13
50.563259
23
32.301037
33
0.000000
0
3DFACE
8
0
10
50.563259
20
32.301037
30
0.000000
11
-51.506927
21
30.773956
31
0.000000
12
-49.574326
22
33.799202
32
0.000000
13
-49.574326
23
33.799202
33
0.000000
0
3DFACE
8
0
10
50.563259
20
32.301037
30
0.000000
11
-49.574326
21
33.799202
31
0.000000
12
48.541019
22
35.267117
32
0.000000
13
48.541019
23
35.267117
33
0.000000
0
3DFACE
8
0
10
48.541019
20
35.267117
30
0.000000
11
-49.574326
21
33.799202
31
0.000000
12
-47.464264
22
36.703457
32
0.000000
13
-47.464264
23
36.703457
33
0.000000
0
3DFACE
8
0
10
48.541019
20
35.267117
30
0.000000
11
-47.464264
21
36.703457
31
0.000000
12
46.345016
22
38.106945
32
0.000000
13
46.345016
23
38.106945
33
0.000000
0
3DFACE
8
0
10
46.345016
20
38.106945
30
0.000000
11
-47.464264
21
36.703457
31
0.000000
12
-45.184288
22
39.476322
32
0.000000
13
-45.184288
23
39.476322
33
0.000000
0
3DFACE
8
0
10
46.345016
20
38.106945
30
0.000000
11
-45.184288
21
39.476322
31
0.000000
12
43.983112
22
40.810364
32
0.000000
13
43.983112
23
40.810364
33
0.000000
0
3DFACE
8
0
10
43.983112
20
40.810364
30
0.000000
11
-45.184288
21
39.476322
31
0.000000
12
-42.742565
22
42.107876
32
0.000000
13
-42.742565
23
42.107876
33
0.000000
0
3DFACE
8
0
10
43.983112
20
40.810364
30
0.000000
11
-42.742565
21
42.107876
31
0.000000
12
41.463760
22
43.367691
32
0.000000
13
41.463760
23
43.367691
33
0.000000
0
3DFACE
8
0
10
41.463760
20
43.367691
30
0.000000
11
-42.742565
21
42.107876
31
0.000000
12
-40.147835
22
44.588688
32
0.000000
13
-40.147835
23
44.588688
33
0.000000
0
3DFACE
8
0
10
41.463760
20
43.367691
30
0.000000
11
-40.147835
21
44.588688
31
0.000000
12
38.795975
22
45.769775
32
0.000000
13
38.795975
23
45.769775
33
0.000000
0
3DFACE
8
0
10
38.795975
20
45.769775
30
0.000000
11
-40.147835
21
44.588688
31
0.000000
12
-37.409389
22
46.909889
32
0.000000
13
-37.409389
23
46.909889
33
0.000000
0
3DFACE
8
0
10
38.795975
20
45.769775
30
0.000000
11
-37.409389
21
46.909889
31
0.000000
12
35.989315
22
48.008015
32
0.000000
13
35.989315
23
48.008015
33
0.000000
0
3DFACE
8
0
10
35.989315
20
48.008015
30
0.000000
11
-37.409389
21
46.909889
31
0.000000
12
-34.537025
22
49.063164
32
0.000000
13
-34.537025
23
49.063164
33
0.000000
0
3DFACE
8
0
10
35.989315
20
48.008015
30
0.000000
11
-34.537025
21
49.063164
31
0.000000
12
33.053818
22
50.074394
32
0.000000
13
33.053818
23
50.074394
33
0.000000
0
3DFACE
8
0
10
33.053818
20
50.074394
30
0.000000
11
-34.537025
21
49.063164
31
0.000000
12
-31.541027
22
51.040806
32
0.000000
13
-31.541027
23
51.040806
33
0.000000
0
3DFACE
8
0
10
33.053818
20
50.074394
30
0.000000
11
-31.541027
21
51.040806
31
0.000000
12
30.000000
22
51.961525
32
0.000000
13
30.000000
23
51.961525
33
0.000000
0
3DFACE
8
0
10
30.000000
20
51.961525
30
0.000000
11
-31.541027
21
51.040806
31
0.000000
12
-28.432119
22
52.835732
32
0.000000
13
-28.432119
23
52.835732
33
0.000000
0
3DFACE
8
0
10
30.000000
20
51.961525
30
0.000000
11
-28.432119
21
52.835732
31
0.000000
12
26.838789
22
53.662643
32
0.000000
13
26.838789
23
53.662643
33
0.000000
0
3DFACE
8
0
10
26.838789
20
53.662643
30
0.000000
11
-28.432119
21
52.835732
31
0.000000
12
-25.221434
22
54.441521
32
0.000000
13
-25.221434
23
54.441521
33
0.000000
0
3DFACE
8
0
10
26.838789
20
53.662643
30
0.000000
11
-25.221434
21
54.441521
31
0.000000
12
23.581501
22
55.171665
32
0.000000
13
23.581501
23
55.171665
33
0.000000
0
3DFACE
8
0
10
23.581501
20
55.171665
30
0.000000
11
-25.221434
21
54.441521
31
0.000000
12
-21.920462
22
55.852425
32
0.000000
13
-21.920462
23
55.852425
33
0.000000
0
3DFACE
8
0
10
23.581501
20
55.171665
30
0.000000
11
-21.920462
21
55.852425
31
0.000000
12
20.239799
22
56.483189
32
0.000000
13
20.239799
23
56.483189
33
0.000000
0
3DFACE
8
0
10
20.239799
20
56.483189
30
0.000000
11
-21.920462
21
55.852425
31
0.000000
12
-18.541019
22
57.063393
32
0.000000
13
-18.541019
23
57.063393
33
0.000000
0
3DFACE
8
0
10
20.239799
20
56.483189
30
0.000000
11
-18.541019
21
57.063393
31
0.000000
12
16.825644
22
57.592514
32
0.000000
13
16.825644
23
57.592514
33
0.000000
0
3DFACE
8
0
10
16.825644
20
57.592514
30
0.000000
11
-18.541019
21
57.063393
31
0.000000
12
-15.095206
22
58.070084
32
0.000000
13
-15.095206
23
58.070084
33
0.000000
0
3DFACE
8
0
10
16.825644
20
57.592514
30
0.000000
11
-15.095206
21
58.070084
31
0.000000
12
13.351256
22
58.495674
32
0.000000
13
13.351256
23
58.495674
33
0.000000
0
3DFACE
8
0
10
13.351256
20
58.495674
30
0.000000
11
-15.095206
21
58.070084
31
0.000000
12
-11.595355
22
58.868904
32
0.000000
13
-11.595355
23
58.868904
33
0.000000
0
3DFACE
8
0
10
13.351256
20
58.495674
30
0.000000
11
-11.595355
21
58.868904
31
0.000000
12
9.829075
22
59.189434
32
0.000000
13
9.829075
23
59.189434
33
0.000000
0
3DFACE
8
0
10
9.829075
20
59.189434
30
0.000000
11
-11.595355
21
58.868904
31
0.000000
12
-8.053996
22
59.456985
32
0.000000
13
-8.053996
23
59.456985
33
0.000000
0
3DFACE
8
0
10
9.829075
20
59.189434
30
0.000000
11
-8.053996
21
59.456985
31
0.000000
12
6.271708
22
59.671314
32
0.000000
13
6.271708
23
59.671314
33
0.000000
0
3DFACE
8
0
10
6.271708
20
59.671314
30
0.000000
11
-8.053996
21
59.456985
31
0.000000
12
-4.483806
22
59.832230
32
0.000000
13
-4.483806
23
59.832230
33
0.000000
0
3DFACE
8
0
10
6.271708
20
59.671314
30
0.000000
11
-4.483806
21
59.832230
31
0.000000
12
2.691890
22
59.939583
32
0.000000
13
2.691890
23
59.939583
33
0.000000
0
3DFACE
8
0
10
2.691890
20
59.939583
30
0.000000
11
-4.483806
21
59.832230
31
0.000000
12
-0.897564
22
59.993286
32
0.000000
13
-0.897564
23
59.993286
33
0.000000
0
ENDSEC
0
EOF
