999
DXF created by VCGLib
0
SECTION
2
HEADER
9
$ACADVER
1
AC1009
9
$INSBASE
10
0.0
20
0.0
30
0.0
9
$EXTMIN
10
-45.000000
20
-45.000000
9
$EXTMAX
10
60.000000
20
60.000000
9
$LINMIN
10
-45.000000
20
-45.000000
9
$LINMAX
10
60.000000
20
60.000000
0
ENDSEC
0
SECTION
2
ENTITIES
0
3DFACE
8
0
10
23.068150
20
-5.000000
30
55.517639
11
23.000000
21
-5.000000
31
55.000000
12
20.000000
22
-5.000000
32
60.000000
13
20.000000
23
-5.000000
33
60.000000
0
3DFACE
8
0
10
20.000000
20
-5.000000
30
60.000000
11
23.000000
21
-5.000000
31
55.000000
12
23.068150
22
-5.000000
32
54.482361
13
23.068150
23
-5.000000
33
54.482361
0
3DFACE
8
0
10
20.000000
20
-5.000000
30
60.000000
11
23.068150
21
-5.000000
31
54.482361
12
23.068150
22
-5.000000
32
45.517639
13
23.068150
23
-5.000000
33
45.517639
0
3DFACE
8
0
10
23.068150
20
-5.000000
30
45.517639
11
23.068150
21
-5.000000
31
54.482361
12
23.267950
22
-5.000000
32
54.000000
13
23.267950
23
-5.000000
33
54.000000
0
3DFACE
8
0
10
23.068150
20
-5.000000
30
45.517639
11
23.267950
21
-5.000000
31
54.000000
12
23.267950
22
-5.000000
32
46.000000
13
23.267950
23
-5.000000
33
46.000000
0
3DFACE
8
0
10
23.267950
20
-5.000000
30
46.000000
11
23.267950
21
-5.000000
31
54.000000
12
23.585787
22
-5.000000
32
46.414215
13
23.585787
23
-5.000000
33
46.414215
0
3DFACE
8
0
10
23.585787
20
-5.000000
30
46.414215
11
23.267950
21
-5.000000
31
54.000000
12
23.585787
22
-5.000000
32
53.585789
13
23.585787
23
-5.000000
33
53.585789
0
3DFACE
8
0
10
23.585787
20
-5.000000
30
46.414215
11
23.585787
21
-5.000000
31
53.585789
12
24.000000
22
-5.000000
32
46.732052
13
24.000000
23
-5.000000
33
46.732052
0
3DFACE
8
0
10
24.000000
20
-5.000000
30
46.732052
11
23.585787
21
-5.000000
31
53.585789
12
24.000000
22
-5.000000
32
53.267948
13
24.000000
23
-5.000000
33
53.267948
0
3DFACE
8
0
10
24.000000
20
-5.000000
30
46.732052
11
24.000000
21
-5.000000
31
53.267948
12
24.482363
22
-5.000000
32
46.931850
13
24.482363
23
-5.000000
33
46.931850
0
3DFACE
8
0
10
24.482363
20
-5.000000
30
46.931850
11
24.000000
21
-5.000000
31
53.267948
12
24.482363
22
-5.000000
32
53.068150
13
24.482363
23
-5.000000
33
53.068150
0
3DFACE
8
0
10
24.482363
20
-5.000000
30
46.931850
11
24.482363
21
-5.000000
31
53.068150
12
25.000000
22
-5.000000
32
47.000000
13
25.000000
23
-5.000000
33
47.000000
0
3DFACE
8
0
10
25.000000
20
-5.000000
30
47.000000
11
24.482363
21
-5.000000
31
53.068150
12
25.000000
22
-5.000000
32
53.000000
13
25.000000
23
-5.000000
33
53.000000
0
3DFACE
8
0
10
25.000000
20
-5.000000
30
47.000000
11
25.000000
21
-5.000000
31
53.000000
12
25.517639
22
-5.000000
32
53.068150
13
25.517639
23
-5.000000
33
53.068150
0
3DFACE
8
0
10
25.000000
20
-5.000000
30
47.000000
11
25.517639
21
-5.000000
31
53.068150
12
25.517639
22
-5.000000
32
46.931850
13
25.517639
23
-5.000000
33
46.931850
0
3DFACE
8
0
10
25.517639
20
-5.000000
30
46.931850
11
25.517639
21
-5.000000
31
53.068150
12
26.000000
22
-5.000000
32
53.267948
13
26.000000
23
-5.000000
33
53.267948
0
3DFACE
8
0
10
25.517639
20
-5.000000
30
46.931850
11
26.000000
21
-5.000000
31
53.267948
12
26.000000
22
-5.000000
32
46.732052
13
26.000000
23
-5.000000
33
46.732052
0
3DFACE
8
0
10
26.000000
20
-5.000000
30
46.732052
11
26.000000
21
-5.000000
31
53.267948
12
26.414213
22
-5.000000
32
53.585789
13
26.414213
23
-5.000000
33
53.585789
0
3DFACE
8
0
10
26.000000
20
-5.000000
30
46.732052
11
26.414213
21
-5.000000
31
53.585789
12
26.414213
22
-5.000000
32
46.414215
13
26.414213
23
-5.000000
33
46.414215
0
3DFACE
8
0
10
26.414213
20
-5.000000
30
46.414215
11
26.414213
21
-5.000000
31
53.585789
12
26.732052
22
-5.000000
32
54.000000
13
26.732052
23
-5.000000
33
54.000000
0
3DFACE
8
0
10
26.414213
20
-5.000000
30
46.414215
11
26.732052
21
-5.000000
31
54.000000
12
26.732052
22
-5.000000
32
46.000000
13
26.732052
23
-5.000000
33
46.000000
0
3DFACE
8
0
10
26.732052
20
-5.000000
30
46.000000
11
26.732052
21
-5.000000
31
54.000000
12
26.931852
22
-5.000000
32
45.517639
13
26.931852
23
-5.000000
33
45.517639
0
3DFACE
8
0
10
26.931852
20
-5.000000
30
45.517639
11
26.732052
21
-5.000000
31
54.000000
12
26.931852
22
-5.000000
32
54.482361
13
26.931852
23
-5.000000
33
54.482361
0
3DFACE
8
0
10
26.931852
20
-5.000000
30
45.517639
11
26.931852
21
-5.000000
31
54.482361
12
30.000000
22
-5.000000
32
60.000000
13
30.000000
23
-5.000000
33
60.000000
0
3DFACE
8
0
10
30.000000
20
-5.000000
30
60.000000
11
26.931852
21
-5.000000
31
54.482361
12
27.000000
22
-5.000000
32
55.000000
13
27.000000
23
-5.000000
33
55.000000
0
3DFACE
8
0
10
30.000000
20
-5.000000
30
60.000000
11
27.000000
21
-5.000000
31
55.000000
12
26.931852
22
-5.000000
32
55.517639
13
26.931852
23
-5.000000
33
55.517639
0
3DFACE
8
0
10
26.931852
20
-5.000000
30
55.517639
11
26.732052
21
-5.000000
31
56.000000
12
30.000000
22
-5.000000
32
60.000000
13
30.000000
23
-5.000000
33
60.000000
0
3DFACE
8
0
10
30.000000
20
-5.000000
30
60.000000
11
26.732052
21
-5.000000
31
56.000000
12
26.414213
22
-5.000000
32
56.414215
13
26.414213
23
-5.000000
33
56.414215
0
3DFACE
8
0
10
30.000000
20
-5.000000
30
60.000000
11
26.414213
21
-5.000000
31
56.414215
12
26.000000
22
-5.000000
32
56.732052
13
26.000000
23
-5.000000
33
56.732052
0
3DFACE
8
0
10
26.000000
20
-5.000000
30
56.732052
11
25.517639
21
-5.000000
31
56.931854
12
30.000000
22
-5.000000
32
60.000000
13
30.000000
23
-5.000000
33
60.000000
0
3DFACE
8
0
10
30.000000
20
-5.000000
30
60.000000
11
25.517639
21
-5.000000
31
56.931854
12
25.000000
22
-5.000000
32
57.000000
13
25.000000
23
-5.000000
33
57.000000
0
3DFACE
8
0
10
30.000000
20
-5.000000
30
60.000000
11
25.000000
21
-5.000000
31
57.000000
12
20.000000
22
-5.000000
32
60.000000
13
20.000000
23
-5.000000
33
60.000000
0
3DFACE
8
0
10
20.000000
20
-5.000000
30
60.000000
11
25.000000
21
-5.000000
31
57.000000
12
24.482363
22
-5.000000
32
56.931854
13
24.482363
23
-5.000000
33
56.931854
0
3DFACE
8
0
10
20.000000
20
-5.000000
30
60.000000
11
24.482363
21
-5.000000
31
56.931854
12
24.000000
22
-5.000000
32
56.732052
13
24.000000
23
-5.000000
33
56.732052
0
3DFACE
8
0
10
24.000000
20
-5.000000
30
56.732052
11
23.585787
21
-5.000000
31
56.414215
12
20.000000
22
-5.000000
32
60.000000
13
20.000000
23
-5.000000
33
60.000000
0
3DFACE
8
0
10
20.000000
20
-5.000000
30
60.000000
11
23.585787
21
-5.000000
31
56.414215
12
23.267950
22
-5.000000
32
56.000000
13
23.267950
23
-5.000000
33
56.000000
0
3DFACE
8
0
10
20.000000
20
-5.000000
30
60.000000
11
23.267950
21
-5.000000
31
56.000000
12
23.068150
22
-5.000000
32
55.517639
13
23.068150
23
-5.000000
33
55.517639
0
3DFACE
8
0
10
23.068150
20
-5.000000
30
45.517639
11
23.000000
21
-5.000000
31
45.000000
12
20.000000
22
-5.000000
32
40.000000
13
20.000000
23
-5.000000
33
40.000000
0
3DFACE
8
0
10
20.000000
20
-5.000000
30
40.000000
11
23.000000
21
-5.000000
31
45.000000
12
23.068150
22
-5.000000
32
44.482361
13
23.068150
23
-5.000000
33
44.482361
0
3DFACE
8
0
10
20.000000
20
-5.000000
30
40.000000
11
23.068150
21
-5.000000
31
44.482361
12
23.267950
22
-5.000000
32
44.000000
13
23.267950
23
-5.000000
33
44.000000
0
3DFACE
8
0
10
23.267950
20
-5.000000
30
44.000000
11
23.585787
21
-5.000000
31
43.585789
12
20.000000
22
-5.000000
32
40.000000
13
20.000000
23
-5.000000
33
40.000000
0
3DFACE
8
0
10
20.000000
20
-5.000000
30
40.000000
11
23.585787
21
-5.000000
31
43.585789
12
24.000000
22
-5.000000
32
43.267948
13
24.000000
23
-5.000000
33
43.267948
0
3DFACE
8
0
10
20.000000
20
-5.000000
30
40.000000
11
24.000000
21
-5.000000
31
43.267948
12
24.482363
22
-5.000000
32
43.068150
13
24.482363
23
-5.000000
33
43.068150
0
3DFACE
8
0
10
24.482363
20
-5.000000
30
43.068150
11
25.000000
21
-5.000000
31
43.000000
12
20.000000
22
-5.000000
32
40.000000
13
20.000000
23
-5.000000
33
40.000000
0
3DFACE
8
0
10
20.000000
20
-5.000000
30
40.000000
11
25.000000
21
-5.000000
31
43.000000
12
30.000000
22
-5.000000
32
40.000000
13
30.000000
23
-5.000000
33
40.000000
0
3DFACE
8
0
10
30.000000
20
-5.000000
30
40.000000
11
25.000000
21
-5.000000
31
43.000000
12
25.517639
22
-5.000000
32
43.068150
13
25.517639
23
-5.000000
33
43.068150
0
3DFACE
8
0
10
30.000000
20
-5.000000
30
40.000000
11
25.517639
21
-5.000000
31
43.068150
12
26.000000
22
-5.000000
32
43.267948
13
26.000000
23
-5.000000
33
43.267948
0
3DFACE
8
0
10
26.000000
20
-5.000000
30
43.267948
11
26.414213
21
-5.000000
31
43.585789
12
30.000000
22
-5.000000
32
40.000000
13
30.000000
23
-5.000000
33
40.000000
0
3DFACE
8
0
10
30.000000
20
-5.000000
30
40.000000
11
26.414213
21
-5.000000
31
43.585789
12
26.732052
22
-5.000000
32
44.000000
13
26.732052
23
-5.000000
33
44.000000
0
3DFACE
8
0
10
30.000000
20
-5.000000
30
40.000000
11
26.732052
21
-5.000000
31
44.000000
12
26.931852
22
-5.000000
32
44.482361
13
26.931852
23
-5.000000
33
44.482361
0
3DFACE
8
0
10
26.931852
20
-5.000000
30
44.482361
11
27.000000
21
-5.000000
31
45.000000
12
30.000000
22
-5.000000
32
40.000000
13
30.000000
23
-5.000000
33
40.000000
0
3DFACE
8
0
10
30.000000
20
-5.000000
30
40.000000
11
27.000000
21
-5.000000
31
45.000000
12
26.931852
22
-5.000000
32
45.517639
13
26.931852
23
-5.000000
33
45.517639
0
3DFACE
8
0
10
30.000000
20
-5.000000
30
40.000000
11
26.931852
21
-5.000000
31
45.517639
12
30.000000
22
-5.000000
32
60.000000
13
30.000000
23
-5.000000
33
60.000000
0
3DFACE
8
0
10
20.000000
20
-5.000000
30
60.000000
11
23.068150
21
-5.000000
31
45.517639
12
20.000000
22
-5.000000
32
40.000000
13
20.000000
23
-5.000000
33
40.000000
0
3DFACE
8
0
10
30.000000
20
-5.000000
30
60.000000
11
20.000000
21
-5.000000
31
60.000000
12
30.000000
22
-30.000000
32
60.000000
13
30.000000
23
-30.000000
33
60.000000
0
3DFACE
8
0
10
30.000000
20
-30.000000
30
60.000000
11
20.000000
21
-5.000000
31
60.000000
12
20.000000
22
-30.000000
32
60.000000
13
20.000000
23
-30.000000
33
60.000000
0
3DFACE
8
0
10
20.000000
20
-5.000000
30
40.000000
11
20.000000
21
-30.000000
31
40.000000
12
20.000000
22
-5.000000
32
60.000000
13
20.000000
23
-5.000000
33
60.000000
0
3DFACE
8
0
10
20.000000
20
-5.000000
30
60.000000
11
20.000000
21
-30.000000
31
40.000000
12
20.000000
22
-30.000000
32
60.000000
13
20.000000
23
-30.000000
33
60.000000
0
3DFACE
8
0
10
-26.931852
20
-5.000000
30
55.517639
11
-27.000000
21
-5.000000
31
55.000000
12
-30.000000
22
-5.000000
32
60.000000
13
-30.000000
23
-5.000000
33
60.000000
0
3DFACE
8
0
10
-30.000000
20
-5.000000
30
60.000000
11
-27.000000
21
-5.000000
31
55.000000
12
-26.931852
22
-5.000000
32
54.482361
13
-26.931852
23
-5.000000
33
54.482361
0
3DFACE
8
0
10
-30.000000
20
-5.000000
30
60.000000
11
-26.931852
21
-5.000000
31
54.482361
12
-26.931852
22
-5.000000
32
45.517639
13
-26.931852
23
-5.000000
33
45.517639
0
3DFACE
8
0
10
-26.931852
20
-5.000000
30
45.517639
11
-26.931852
21
-5.000000
31
54.482361
12
-26.732052
22
-5.000000
32
54.000000
13
-26.732052
23
-5.000000
33
54.000000
0
3DFACE
8
0
10
-26.931852
20
-5.000000
30
45.517639
11
-26.732052
21
-5.000000
31
54.000000
12
-26.732052
22
-5.000000
32
46.000000
13
-26.732052
23
-5.000000
33
46.000000
0
3DFACE
8
0
10
-26.732052
20
-5.000000
30
46.000000
11
-26.732052
21
-5.000000
31
54.000000
12
-26.414213
22
-5.000000
32
46.414215
13
-26.414213
23
-5.000000
33
46.414215
0
3DFACE
8
0
10
-26.414213
20
-5.000000
30
46.414215
11
-26.732052
21
-5.000000
31
54.000000
12
-26.414213
22
-5.000000
32
53.585789
13
-26.414213
23
-5.000000
33
53.585789
0
3DFACE
8
0
10
-26.414213
20
-5.000000
30
46.414215
11
-26.414213
21
-5.000000
31
53.585789
12
-26.000000
22
-5.000000
32
46.732052
13
-26.000000
23
-5.000000
33
46.732052
0
3DFACE
8
0
10
-26.000000
20
-5.000000
30
46.732052
11
-26.414213
21
-5.000000
31
53.585789
12
-26.000000
22
-5.000000
32
53.267948
13
-26.000000
23
-5.000000
33
53.267948
0
3DFACE
8
0
10
-26.000000
20
-5.000000
30
46.732052
11
-26.000000
21
-5.000000
31
53.267948
12
-25.517639
22
-5.000000
32
46.931850
13
-25.517639
23
-5.000000
33
46.931850
0
3DFACE
8
0
10
-25.517639
20
-5.000000
30
46.931850
11
-26.000000
21
-5.000000
31
53.267948
12
-25.517639
22
-5.000000
32
53.068150
13
-25.517639
23
-5.000000
33
53.068150
0
3DFACE
8
0
10
-25.517639
20
-5.000000
30
46.931850
11
-25.517639
21
-5.000000
31
53.068150
12
-25.000000
22
-5.000000
32
47.000000
13
-25.000000
23
-5.000000
33
47.000000
0
3DFACE
8
0
10
-25.000000
20
-5.000000
30
47.000000
11
-25.517639
21
-5.000000
31
53.068150
12
-25.000000
22
-5.000000
32
53.000000
13
-25.000000
23
-5.000000
33
53.000000
0
3DFACE
8
0
10
-25.000000
20
-5.000000
30
47.000000
11
-25.000000
21
-5.000000
31
53.000000
12
-24.482363
22
-5.000000
32
53.068150
13
-24.482363
23
-5.000000
33
53.068150
0
3DFACE
8
0
10
-25.000000
20
-5.000000
30
47.000000
11
-24.482363
21
-5.000000
31
53.068150
12
-24.482363
22
-5.000000
32
46.931850
13
-24.482363
23
-5.000000
33
46.931850
0
3DFACE
8
0
10
-24.482363
20
-5.000000
30
46.931850
11
-24.482363
21
-5.000000
31
53.068150
12
-24.000000
22
-5.000000
32
53.267948
13
-24.000000
23
-5.000000
33
53.267948
0
3DFACE
8
0
10
-24.482363
20
-5.000000
30
46.931850
11
-24.000000
21
-5.000000
31
53.267948
12
-24.000000
22
-5.000000
32
46.732052
13
-24.000000
23
-5.000000
33
46.732052
0
3DFACE
8
0
10
-24.000000
20
-5.000000
30
46.732052
11
-24.000000
21
-5.000000
31
53.267948
12
-23.585787
22
-5.000000
32
53.585789
13
-23.585787
23
-5.000000
33
53.585789
0
3DFACE
8
0
10
-24.000000
20
-5.000000
30
46.732052
11
-23.585787
21
-5.000000
31
53.585789
12
-23.585787
22
-5.000000
32
46.414215
13
-23.585787
23
-5.000000
33
46.414215
0
3DFACE
8
0
10
-23.585787
20
-5.000000
30
46.414215
11
-23.585787
21
-5.000000
31
53.585789
12
-23.267950
22
-5.000000
32
54.000000
13
-23.267950
23
-5.000000
33
54.000000
0
3DFACE
8
0
10
-23.585787
20
-5.000000
30
46.414215
11
-23.267950
21
-5.000000
31
54.000000
12
-23.267950
22
-5.000000
32
46.000000
13
-23.267950
23
-5.000000
33
46.000000
0
3DFACE
8
0
10
-23.267950
20
-5.000000
30
46.000000
11
-23.267950
21
-5.000000
31
54.000000
12
-23.068150
22
-5.000000
32
45.517639
13
-23.068150
23
-5.000000
33
45.517639
0
3DFACE
8
0
10
-23.068150
20
-5.000000
30
45.517639
11
-23.267950
21
-5.000000
31
54.000000
12
-23.068150
22
-5.000000
32
54.482361
13
-23.068150
23
-5.000000
33
54.482361
0
3DFACE
8
0
10
-23.068150
20
-5.000000
30
45.517639
11
-23.068150
21
-5.000000
31
54.482361
12
-20.000000
22
-5.000000
32
60.000000
13
-20.000000
23
-5.000000
33
60.000000
0
3DFACE
8
0
10
-20.000000
20
-5.000000
30
60.000000
11
-23.068150
21
-5.000000
31
54.482361
12
-23.000000
22
-5.000000
32
55.000000
13
-23.000000
23
-5.000000
33
55.000000
0
3DFACE
8
0
10
-20.000000
20
-5.000000
30
60.000000
11
-23.000000
21
-5.000000
31
55.000000
12
-23.068150
22
-5.000000
32
55.517639
13
-23.068150
23
-5.000000
33
55.517639
0
3DFACE
8
0
10
-23.068150
20
-5.000000
30
55.517639
11
-23.267950
21
-5.000000
31
56.000000
12
-20.000000
22
-5.000000
32
60.000000
13
-20.000000
23
-5.000000
33
60.000000
0
3DFACE
8
0
10
-20.000000
20
-5.000000
30
60.000000
11
-23.267950
21
-5.000000
31
56.000000
12
-23.585787
22
-5.000000
32
56.414215
13
-23.585787
23
-5.000000
33
56.414215
0
3DFACE
8
0
10
-20.000000
20
-5.000000
30
60.000000
11
-23.585787
21
-5.000000
31
56.414215
12
-24.000000
22
-5.000000
32
56.732052
13
-24.000000
23
-5.000000
33
56.732052
0
3DFACE
8
0
10
-24.000000
20
-5.000000
30
56.732052
11
-24.482363
21
-5.000000
31
56.931854
12
-20.000000
22
-5.000000
32
60.000000
13
-20.000000
23
-5.000000
33
60.000000
0
3DFACE
8
0
10
-20.000000
20
-5.000000
30
60.000000
11
-24.482363
21
-5.000000
31
56.931854
12
-25.000000
22
-5.000000
32
57.000000
13
-25.000000
23
-5.000000
33
57.000000
0
3DFACE
8
0
10
-20.000000
20
-5.000000
30
60.000000
11
-25.000000
21
-5.000000
31
57.000000
12
-30.000000
22
-5.000000
32
60.000000
13
-30.000000
23
-5.000000
33
60.000000
0
3DFACE
8
0
10
-30.000000
20
-5.000000
30
60.000000
11
-25.000000
21
-5.000000
31
57.000000
12
-25.517639
22
-5.000000
32
56.931854
13
-25.517639
23
-5.000000
33
56.931854
0
3DFACE
8
0
10
-30.000000
20
-5.000000
30
60.000000
11
-25.517639
21
-5.000000
31
56.931854
12
-26.000000
22
-5.000000
32
56.732052
13
-26.000000
23
-5.000000
33
56.732052
0
3DFACE
8
0
10
-26.000000
20
-5.000000
30
56.732052
11
-26.414213
21
-5.000000
31
56.414215
12
-30.000000
22
-5.000000
32
60.000000
13
-30.000000
23
-5.000000
33
60.000000
0
3DFACE
8
0
10
-30.000000
20
-5.000000
30
60.000000
11
-26.414213
21
-5.000000
31
56.414215
12
-26.732052
22
-5.000000
32
56.000000
13
-26.732052
23
-5.000000
33
56.000000
0
3DFACE
8
0
10
-30.000000
20
-5.000000
30
60.000000
11
-26.732052
21
-5.000000
31
56.000000
12
-26.931852
22
-5.000000
32
55.517639
13
-26.931852
23
-5.000000
33
55.517639
0
3DFACE
8
0
10
-26.931852
20
-5.000000
30
45.517639
11
-27.000000
21
-5.000000
31
45.000000
12
-30.000000
22
-5.000000
32
40.000000
13
-30.000000
23
-5.000000
33
40.000000
0
3DFACE
8
0
10
-30.000000
20
-5.000000
30
40.000000
11
-27.000000
21
-5.000000
31
45.000000
12
-26.931852
22
-5.000000
32
44.482361
13
-26.931852
23
-5.000000
33
44.482361
0
3DFACE
8
0
10
-30.000000
20
-5.000000
30
40.000000
11
-26.931852
21
-5.000000
31
44.482361
12
-26.732052
22
-5.000000
32
44.000000
13
-26.732052
23
-5.000000
33
44.000000
0
3DFACE
8
0
10
-26.732052
20
-5.000000
30
44.000000
11
-26.414213
21
-5.000000
31
43.585789
12
-30.000000
22
-5.000000
32
40.000000
13
-30.000000
23
-5.000000
33
40.000000
0
3DFACE
8
0
10
-30.000000
20
-5.000000
30
40.000000
11
-26.414213
21
-5.000000
31
43.585789
12
-26.000000
22
-5.000000
32
43.267948
13
-26.000000
23
-5.000000
33
43.267948
0
3DFACE
8
0
10
-30.000000
20
-5.000000
30
40.000000
11
-26.000000
21
-5.000000
31
43.267948
12
-25.517639
22
-5.000000
32
43.068150
13
-25.517639
23
-5.000000
33
43.068150
0
3DFACE
8
0
10
-25.517639
20
-5.000000
30
43.068150
11
-25.000000
21
-5.000000
31
43.000000
12
-30.000000
22
-5.000000
32
40.000000
13
-30.000000
23
-5.000000
33
40.000000
0
3DFACE
8
0
10
-30.000000
20
-5.000000
30
40.000000
11
-25.000000
21
-5.000000
31
43.000000
12
-20.000000
22
-5.000000
32
40.000000
13
-20.000000
23
-5.000000
33
40.000000
0
3DFACE
8
0
10
-20.000000
20
-5.000000
30
40.000000
11
-25.000000
21
-5.000000
31
43.000000
12
-24.482363
22
-5.000000
32
43.068150
13
-24.482363
23
-5.000000
33
43.068150
0
3DFACE
8
0
10
-20.000000
20
-5.000000
30
40.000000
11
-24.482363
21
-5.000000
31
43.068150
12
-24.000000
22
-5.000000
32
43.267948
13
-24.000000
23
-5.000000
33
43.267948
0
3DFACE
8
0
10
-24.000000
20
-5.000000
30
43.267948
11
-23.585787
21
-5.000000
31
43.585789
12
-20.000000
22
-5.000000
32
40.000000
13
-20.000000
23
-5.000000
33
40.000000
0
3DFACE
8
0
10
-20.000000
20
-5.000000
30
40.000000
11
-23.585787
21
-5.000000
31
43.585789
12
-23.267950
22
-5.000000
32
44.000000
13
-23.267950
23
-5.000000
33
44.000000
0
3DFACE
8
0
10
-20.000000
20
-5.000000
30
40.000000
11
-23.267950
21
-5.000000
31
44.000000
12
-23.068150
22
-5.000000
32
44.482361
13
-23.068150
23
-5.000000
33
44.482361
0
3DFACE
8
0
10
-23.068150
20
-5.000000
30
44.482361
11
-23.000000
21
-5.000000
31
45.000000
12
-20.000000
22
-5.000000
32
40.000000
13
-20.000000
23
-5.000000
33
40.000000
0
3DFACE
8
0
10
-20.000000
20
-5.000000
30
40.000000
11
-23.000000
21
-5.000000
31
45.000000
12
-23.068150
22
-5.000000
32
45.517639
13
-23.068150
23
-5.000000
33
45.517639
0
3DFACE
8
0
10
-20.000000
20
-5.000000
30
40.000000
11
-23.068150
21
-5.000000
31
45.517639
12
-20.000000
22
-5.000000
32
60.000000
13
-20.000000
23
-5.000000
33
60.000000
0
3DFACE
8
0
10
-30.000000
20
-5.000000
30
60.000000
11
-26.931852
21
-5.000000
31
45.517639
12
-30.000000
22
-5.000000
32
40.000000
13
-30.000000
23
-5.000000
33
40.000000
0
3DFACE
8
0
10
-30.000000
20
-5.000000
30
60.000000
11
-30.000000
21
-5.000000
31
40.000000
12
-30.000000
22
-30.000006
32
60.000000
13
-30.000000
23
-30.000006
33
60.000000
0
3DFACE
8
0
10
-30.000000
20
-30.000006
30
60.000000
11
-30.000000
21
-5.000000
31
40.000000
12
-30.000000
22
-30.000006
32
10.000000
13
-30.000000
23
-30.000006
33
10.000000
0
3DFACE
8
0
10
-30.000000
20
-30.000006
30
10.000000
11
-30.000000
21
-5.000000
31
40.000000
12
-30.000000
22
30.000000
32
10.000000
13
-30.000000
23
30.000000
33
10.000000
0
3DFACE
8
0
10
-30.000000
20
30.000000
30
10.000000
11
-30.000000
21
-5.000000
31
40.000000
12
-30.000000
22
30.000000
32
40.000000
13
-30.000000
23
30.000000
33
40.000000
0
3DFACE
8
0
10
-30.000000
20
30.000000
30
40.000000
11
30.000000
21
30.000000
31
40.000000
12
-30.000000
22
30.000000
32
10.000000
13
-30.000000
23
30.000000
33
10.000000
0
3DFACE
8
0
10
-30.000000
20
30.000000
30
10.000000
11
30.000000
21
30.000000
31
40.000000
12
30.000000
22
30.000000
32
10.000000
13
30.000000
23
30.000000
33
10.000000
0
3DFACE
8
0
10
-30.000000
20
30.000000
30
10.000000
11
30.000000
21
30.000000
31
10.000000
12
-45.000000
22
30.000000
32
0.000000
13
-45.000000
23
30.000000
33
0.000000
0
3DFACE
8
0
10
-45.000000
20
30.000000
30
0.000000
11
30.000000
21
30.000000
31
10.000000
12
45.000000
22
30.000000
32
0.000000
13
45.000000
23
30.000000
33
0.000000
0
3DFACE
8
0
10
45.000000
20
30.000000
30
0.000000
11
30.000000
21
30.000000
31
10.000000
12
45.000000
22
30.000000
32
10.000000
13
45.000000
23
30.000000
33
10.000000
0
3DFACE
8
0
10
-45.000000
20
30.000000
30
0.000000
11
-45.000000
21
30.000000
31
10.000000
12
-30.000000
22
30.000000
32
10.000000
13
-30.000000
23
30.000000
33
10.000000
0
3DFACE
8
0
10
45.000000
20
-30.000006
30
0.000000
11
45.000000
21
30.000000
31
0.000000
12
45.000000
22
-30.000006
32
10.000000
13
45.000000
23
-30.000006
33
10.000000
0
3DFACE
8
0
10
45.000000
20
-30.000006
30
10.000000
11
45.000000
21
30.000000
31
0.000000
12
45.000000
22
30.000000
32
10.000000
13
45.000000
23
30.000000
33
10.000000
0
3DFACE
8
0
10
45.000000
20
30.000000
30
10.000000
11
30.000000
21
30.000000
31
10.000000
12
45.000000
22
-30.000006
32
10.000000
13
45.000000
23
-30.000006
33
10.000000
0
3DFACE
8
0
10
45.000000
20
-30.000006
30
10.000000
11
30.000000
21
30.000000
31
10.000000
12
30.000000
22
-30.000006
32
10.000000
13
30.000000
23
-30.000006
33
10.000000
0
3DFACE
8
0
10
30.000000
20
-5.000000
30
60.000000
11
30.000000
21
-30.000000
31
60.000000
12
30.000000
22
-5.000000
32
40.000000
13
30.000000
23
-5.000000
33
40.000000
0
3DFACE
8
0
10
30.000000
20
-5.000000
30
40.000000
11
30.000000
21
-30.000000
31
60.000000
12
30.000000
22
-30.000006
32
40.000000
13
30.000000
23
-30.000006
33
40.000000
0
3DFACE
8
0
10
30.000000
20
-5.000000
30
40.000000
11
30.000000
21
-30.000006
31
40.000000
12
30.000000
22
-30.000006
32
10.000000
13
30.000000
23
-30.000006
33
10.000000
0
3DFACE
8
0
10
30.000000
20
-30.000006
30
10.000000
11
30.000000
21
30.000000
31
10.000000
12
30.000000
22
-5.000000
32
40.000000
13
30.000000
23
-5.000000
33
40.000000
0
3DFACE
8
0
10
30.000000
20
-5.000000
30
40.000000
11
30.000000
21
30.000000
31
10.000000
12
30.000000
22
30.000000
32
40.000000
13
30.000000
23
30.000000
33
40.000000
0
3DFACE
8
0
10
-45.000000
20
30.000000
30
0.000000
11
-45.000000
21
-30.000006
31
0.000000
12
-45.000000
22
30.000000
32
10.000000
13
-45.000000
23
30.000000
33
10.000000
0
3DFACE
8
0
10
-45.000000
20
30.000000
30
10.000000
11
-45.000000
21
-30.000006
31
0.000000
12
-45.000000
22
-30.000006
32
10.000000
13
-45.000000
23
-30.000006
33
10.000000
0
3DFACE
8
0
10
-30.000000
20
30.000000
30
10.000000
11
-45.000000
21
30.000000
31
10.000000
12
-30.000000
22
-30.000006
32
10.000000
13
-30.000000
23
-30.000006
33
10.000000
0
3DFACE
8
0
10
-30.000000
20
-30.000006
30
10.000000
11
-45.000000
21
30.000000
31
10.000000
12
-45.000000
22
-30.000006
32
10.000000
13
-45.000000
23
-30.000006
33
10.000000
0
3DFACE
8
0
10
-26.931852
20
-5.000000
30
55.517639
11
-26.931852
21
-13.333336
31
55.517639
12
-27.000000
22
-5.000000
32
55.000000
13
-27.000000
23
-5.000000
33
55.000000
0
3DFACE
8
0
10
-27.000000
20
-5.000000
30
55.000000
11
-26.931852
21
-13.333336
31
55.517639
12
-27.000000
22
-13.333336
32
55.000000
13
-27.000000
23
-13.333336
33
55.000000
0
3DFACE
8
0
10
-27.000000
20
-5.000000
30
55.000000
11
-27.000000
21
-13.333336
31
55.000000
12
-26.931852
22
-5.000000
32
54.482361
13
-26.931852
23
-5.000000
33
54.482361
0
3DFACE
8
0
10
-26.931852
20
-5.000000
30
54.482361
11
-27.000000
21
-13.333336
31
55.000000
12
-26.931852
22
-13.333336
32
54.482361
13
-26.931852
23
-13.333336
33
54.482361
0
3DFACE
8
0
10
-26.931852
20
-5.000000
30
54.482361
11
-26.931852
21
-13.333336
31
54.482361
12
-26.732052
22
-5.000000
32
54.000000
13
-26.732052
23
-5.000000
33
54.000000
0
3DFACE
8
0
10
-26.732052
20
-5.000000
30
54.000000
11
-26.931852
21
-13.333336
31
54.482361
12
-26.732052
22
-13.333336
32
54.000000
13
-26.732052
23
-13.333336
33
54.000000
0
3DFACE
8
0
10
-26.732052
20
-5.000000
30
54.000000
11
-26.732052
21
-13.333336
31
54.000000
12
-26.414213
22
-5.000000
32
53.585789
13
-26.414213
23
-5.000000
33
53.585789
0
3DFACE
8
0
10
-26.414213
20
-5.000000
30
53.585789
11
-26.732052
21
-13.333336
31
54.000000
12
-26.414213
22
-13.333336
32
53.585789
13
-26.414213
23
-13.333336
33
53.585789
0
3DFACE
8
0
10
-26.414213
20
-5.000000
30
53.585789
11
-26.414213
21
-13.333336
31
53.585789
12
-26.000000
22
-5.000000
32
53.267948
13
-26.000000
23
-5.000000
33
53.267948
0
3DFACE
8
0
10
-26.000000
20
-5.000000
30
53.267948
11
-26.414213
21
-13.333336
31
53.585789
12
-26.000000
22
-13.333336
32
53.267948
13
-26.000000
23
-13.333336
33
53.267948
0
3DFACE
8
0
10
-26.000000
20
-5.000000
30
53.267948
11
-26.000000
21
-13.333336
31
53.267948
12
-25.517639
22
-5.000000
32
53.068150
13
-25.517639
23
-5.000000
33
53.068150
0
3DFACE
8
0
10
-25.517639
20
-5.000000
30
53.068150
11
-26.000000
21
-13.333336
31
53.267948
12
-25.517639
22
-13.333336
32
53.068150
13
-25.517639
23
-13.333336
33
53.068150
0
3DFACE
8
0
10
-25.517639
20
-5.000000
30
53.068150
11
-25.517639
21
-13.333336
31
53.068150
12
-25.000000
22
-5.000000
32
53.000000
13
-25.000000
23
-5.000000
33
53.000000
0
3DFACE
8
0
10
-25.000000
20
-5.000000
30
53.000000
11
-25.517639
21
-13.333336
31
53.068150
12
-25.000000
22
-13.333336
32
53.000000
13
-25.000000
23
-13.333336
33
53.000000
0
3DFACE
8
0
10
-25.000000
20
-5.000000
30
53.000000
11
-25.000000
21
-13.333336
31
53.000000
12
-24.482363
22
-5.000000
32
53.068150
13
-24.482363
23
-5.000000
33
53.068150
0
3DFACE
8
0
10
-24.482363
20
-5.000000
30
53.068150
11
-25.000000
21
-13.333336
31
53.000000
12
-24.482363
22
-13.333336
32
53.068150
13
-24.482363
23
-13.333336
33
53.068150
0
3DFACE
8
0
10
-24.482363
20
-5.000000
30
53.068150
11
-24.482363
21
-13.333336
31
53.068150
12
-24.000000
22
-5.000000
32
53.267948
13
-24.000000
23
-5.000000
33
53.267948
0
3DFACE
8
0
10
-24.000000
20
-5.000000
30
53.267948
11
-24.482363
21
-13.333336
31
53.068150
12
-24.000000
22
-13.333336
32
53.267948
13
-24.000000
23
-13.333336
33
53.267948
0
3DFACE
8
0
10
-24.000000
20
-5.000000
30
53.267948
11
-24.000000
21
-13.333336
31
53.267948
12
-23.585787
22
-5.000000
32
53.585789
13
-23.585787
23
-5.000000
33
53.585789
0
3DFACE
8
0
10
-23.585787
20
-5.000000
30
53.585789
11
-24.000000
21
-13.333336
31
53.267948
12
-23.585787
22
-13.333336
32
53.585789
13
-23.585787
23
-13.333336
33
53.585789
0
3DFACE
8
0
10
-23.585787
20
-5.000000
30
53.585789
11
-23.585787
21
-13.333336
31
53.585789
12
-23.267950
22
-5.000000
32
54.000000
13
-23.267950
23
-5.000000
33
54.000000
0
3DFACE
8
0
10
-23.267950
20
-5.000000
30
54.000000
11
-23.585787
21
-13.333336
31
53.585789
12
-23.267950
22
-13.333336
32
54.000000
13
-23.267950
23
-13.333336
33
54.000000
0
3DFACE
8
0
10
-23.267950
20
-5.000000
30
54.000000
11
-23.267950
21
-13.333336
31
54.000000
12
-23.068150
22
-5.000000
32
54.482361
13
-23.068150
23
-5.000000
33
54.482361
0
3DFACE
8
0
10
-23.068150
20
-5.000000
30
54.482361
11
-23.267950
21
-13.333336
31
54.000000
12
-23.068150
22
-13.333336
32
54.482361
13
-23.068150
23
-13.333336
33
54.482361
0
3DFACE
8
0
10
-23.068150
20
-5.000000
30
54.482361
11
-23.068150
21
-13.333336
31
54.482361
12
-23.000000
22
-5.000000
32
55.000000
13
-23.000000
23
-5.000000
33
55.000000
0
3DFACE
8
0
10
-23.000000
20
-5.000000
30
55.000000
11
-23.068150
21
-13.333336
31
54.482361
12
-23.000000
22
-13.333336
32
55.000000
13
-23.000000
23
-13.333336
33
55.000000
0
3DFACE
8
0
10
-23.000000
20
-5.000000
30
55.000000
11
-23.000000
21
-13.333336
31
55.000000
12
-23.068150
22
-5.000000
32
55.517639
13
-23.068150
23
-5.000000
33
55.517639
0
3DFACE
8
0
10
-23.068150
20
-5.000000
30
55.517639
11
-23.000000
21
-13.333336
31
55.000000
12
-23.068150
22
-13.333336
32
55.517639
13
-23.068150
23
-13.333336
33
55.517639
0
3DFACE
8
0
10
-23.068150
20
-5.000000
30
55.517639
11
-23.068150
21
-13.333336
31
55.517639
12
-23.267950
22
-5.000000
32
56.000000
13
-23.267950
23
-5.000000
33
56.000000
0
3DFACE
8
0
10
-23.267950
20
-5.000000
30
56.000000
11
-23.068150
21
-13.333336
31
55.517639
12
-23.267950
22
-13.333336
32
56.000000
13
-23.267950
23
-13.333336
33
56.000000
0
3DFACE
8
0
10
-23.267950
20
-5.000000
30
56.000000
11
-23.267950
21
-13.333336
31
56.000000
12
-23.585787
22
-5.000000
32
56.414215
13
-23.585787
23
-5.000000
33
56.414215
0
3DFACE
8
0
10
-23.585787
20
-5.000000
30
56.414215
11
-23.267950
21
-13.333336
31
56.000000
12
-23.585787
22
-13.333336
32
56.414215
13
-23.585787
23
-13.333336
33
56.414215
0
3DFACE
8
0
10
-23.585787
20
-5.000000
30
56.414215
11
-23.585787
21
-13.333336
31
56.414215
12
-24.000000
22
-5.000000
32
56.732052
13
-24.000000
23
-5.000000
33
56.732052
0
3DFACE
8
0
10
-24.000000
20
-5.000000
30
56.732052
11
-23.585787
21
-13.333336
31
56.414215
12
-24.000000
22
-13.333336
32
56.732052
13
-24.000000
23
-13.333336
33
56.732052
0
3DFACE
8
0
10
-24.000000
20
-5.000000
30
56.732052
11
-24.000000
21
-13.333336
31
56.732052
12
-24.482363
22
-5.000000
32
56.931854
13
-24.482363
23
-5.000000
33
56.931854
0
3DFACE
8
0
10
-24.482363
20
-5.000000
30
56.931854
11
-24.000000
21
-13.333336
31
56.732052
12
-24.482363
22
-13.333336
32
56.931854
13
-24.482363
23
-13.333336
33
56.931854
0
3DFACE
8
0
10
-24.482363
20
-5.000000
30
56.931854
11
-24.482363
21
-13.333336
31
56.931854
12
-25.000000
22
-5.000000
32
57.000000
13
-25.000000
23
-5.000000
33
57.000000
0
3DFACE
8
0
10
-25.000000
20
-5.000000
30
57.000000
11
-24.482363
21
-13.333336
31
56.931854
12
-25.000000
22
-13.333336
32
57.000000
13
-25.000000
23
-13.333336
33
57.000000
0
3DFACE
8
0
10
-25.000000
20
-5.000000
30
57.000000
11
-25.000000
21
-13.333336
31
57.000000
12
-25.517639
22
-5.000000
32
56.931854
13
-25.517639
23
-5.000000
33
56.931854
0
3DFACE
8
0
10
-25.517639
20
-5.000000
30
56.931854
11
-25.000000
21
-13.333336
31
57.000000
12
-25.517639
22
-13.333336
32
56.931854
13
-25.517639
23
-13.333336
33
56.931854
0
3DFACE
8
0
10
-25.517639
20
-5.000000
30
56.931854
11
-25.517639
21
-13.333336
31
56.931854
12
-26.000000
22
-5.000000
32
56.732052
13
-26.000000
23
-5.000000
33
56.732052
0
3DFACE
8
0
10
-26.000000
20
-5.000000
30
56.732052
11
-25.517639
21
-13.333336
31
56.931854
12
-26.000000
22
-13.333336
32
56.732052
13
-26.000000
23
-13.333336
33
56.732052
0
3DFACE
8
0
10
-26.000000
20
-5.000000
30
56.732052
11
-26.000000
21
-13.333336
31
56.732052
12
-26.414213
22
-5.000000
32
56.414215
13
-26.414213
23
-5.000000
33
56.414215
0
3DFACE
8
0
10
-26.414213
20
-5.000000
30
56.414215
11
-26.000000
21
-13.333336
31
56.732052
12
-26.414213
22
-13.333336
32
56.414215
13
-26.414213
23
-13.333336
33
56.414215
0
3DFACE
8
0
10
-26.414213
20
-5.000000
30
56.414215
11
-26.414213
21
-13.333336
31
56.414215
12
-26.732052
22
-5.000000
32
56.000000
13
-26.732052
23
-5.000000
33
56.000000
0
3DFACE
8
0
10
-26.732052
20
-5.000000
30
56.000000
11
-26.414213
21
-13.333336
31
56.414215
12
-26.732052
22
-13.333336
32
56.000000
13
-26.732052
23
-13.333336
33
56.000000
0
3DFACE
8
0
10
-26.732052
20
-5.000000
30
56.000000
11
-26.732052
21
-13.333336
31
56.000000
12
-26.931852
22
-5.000000
32
55.517639
13
-26.931852
23
-5.000000
33
55.517639
0
3DFACE
8
0
10
-26.931852
20
-5.000000
30
55.517639
11
-26.732052
21
-13.333336
31
56.000000
12
-26.931852
22
-13.333336
32
55.517639
13
-26.931852
23
-13.333336
33
55.517639
0
3DFACE
8
0
10
-26.931852
20
-30.000006
30
54.482361
11
-26.931852
21
-21.666672
31
54.482361
12
-27.000000
22
-30.000006
32
55.000000
13
-27.000000
23
-30.000006
33
55.000000
0
3DFACE
8
0
10
-27.000000
20
-30.000006
30
55.000000
11
-26.931852
21
-21.666672
31
54.482361
12
-27.000000
22
-21.666672
32
55.000000
13
-27.000000
23
-21.666672
33
55.000000
0
3DFACE
8
0
10
-27.000000
20
-30.000006
30
55.000000
11
-27.000000
21
-21.666672
31
55.000000
12
-26.931852
22
-30.000006
32
55.517639
13
-26.931852
23
-30.000006
33
55.517639
0
3DFACE
8
0
10
-26.931852
20
-30.000006
30
55.517639
11
-27.000000
21
-21.666672
31
55.000000
12
-26.931852
22
-21.666672
32
55.517639
13
-26.931852
23
-21.666672
33
55.517639
0
3DFACE
8
0
10
-26.931852
20
-30.000006
30
55.517639
11
-26.931852
21
-21.666672
31
55.517639
12
-26.732052
22
-30.000006
32
56.000000
13
-26.732052
23
-30.000006
33
56.000000
0
3DFACE
8
0
10
-26.732052
20
-30.000006
30
56.000000
11
-26.931852
21
-21.666672
31
55.517639
12
-26.732052
22
-21.666672
32
56.000000
13
-26.732052
23
-21.666672
33
56.000000
0
3DFACE
8
0
10
-26.732052
20
-30.000006
30
56.000000
11
-26.732052
21
-21.666672
31
56.000000
12
-26.414213
22
-30.000006
32
56.414215
13
-26.414213
23
-30.000006
33
56.414215
0
3DFACE
8
0
10
-26.414213
20
-30.000006
30
56.414215
11
-26.732052
21
-21.666672
31
56.000000
12
-26.414213
22
-21.666672
32
56.414215
13
-26.414213
23
-21.666672
33
56.414215
0
3DFACE
8
0
10
-26.414213
20
-30.000006
30
56.414215
11
-26.414213
21
-21.666672
31
56.414215
12
-26.000000
22
-30.000006
32
56.732052
13
-26.000000
23
-30.000006
33
56.732052
0
3DFACE
8
0
10
-26.000000
20
-30.000006
30
56.732052
11
-26.414213
21
-21.666672
31
56.414215
12
-26.000000
22
-21.666672
32
56.732052
13
-26.000000
23
-21.666672
33
56.732052
0
3DFACE
8
0
10
-26.000000
20
-30.000006
30
56.732052
11
-26.000000
21
-21.666672
31
56.732052
12
-25.517639
22
-30.000006
32
56.931854
13
-25.517639
23
-30.000006
33
56.931854
0
3DFACE
8
0
10
-25.517639
20
-30.000006
30
56.931854
11
-26.000000
21
-21.666672
31
56.732052
12
-25.517639
22
-21.666672
32
56.931854
13
-25.517639
23
-21.666672
33
56.931854
0
3DFACE
8
0
10
-25.517639
20
-30.000006
30
56.931854
11
-25.517639
21
-21.666672
31
56.931854
12
-25.000000
22
-30.000006
32
57.000000
13
-25.000000
23
-30.000006
33
57.000000
0
3DFACE
8
0
10
-25.000000
20
-30.000006
30
57.000000
11
-25.517639
21
-21.666672
31
56.931854
12
-25.000000
22
-21.666672
32
57.000000
13
-25.000000
23
-21.666672
33
57.000000
0
3DFACE
8
0
10
-25.000000
20
-30.000006
30
57.000000
11
-25.000000
21
-21.666672
31
57.000000
12
-24.482363
22
-30.000006
32
56.931854
13
-24.482363
23
-30.000006
33
56.931854
0
3DFACE
8
0
10
-24.482363
20
-30.000006
30
56.931854
11
-25.000000
21
-21.666672
31
57.000000
12
-24.482363
22
-21.666672
32
56.931854
13
-24.482363
23
-21.666672
33
56.931854
0
3DFACE
8
0
10
-24.482363
20
-30.000006
30
56.931854
11
-24.482363
21
-21.666672
31
56.931854
12
-24.000000
22
-30.000006
32
56.732052
13
-24.000000
23
-30.000006
33
56.732052
0
3DFACE
8
0
10
-24.000000
20
-30.000006
30
56.732052
11
-24.482363
21
-21.666672
31
56.931854
12
-24.000000
22
-21.666672
32
56.732052
13
-24.000000
23
-21.666672
33
56.732052
0
3DFACE
8
0
10
-24.000000
20
-30.000006
30
56.732052
11
-24.000000
21
-21.666672
31
56.732052
12
-23.585787
22
-30.000006
32
56.414215
13
-23.585787
23
-30.000006
33
56.414215
0
3DFACE
8
0
10
-23.585787
20
-30.000006
30
56.414215
11
-24.000000
21
-21.666672
31
56.732052
12
-23.585787
22
-21.666672
32
56.414215
13
-23.585787
23
-21.666672
33
56.414215
0
3DFACE
8
0
10
-23.585787
20
-30.000006
30
56.414215
11
-23.585787
21
-21.666672
31
56.414215
12
-23.267950
22
-30.000006
32
56.000000
13
-23.267950
23
-30.000006
33
56.000000
0
3DFACE
8
0
10
-23.267950
20
-30.000006
30
56.000000
11
-23.585787
21
-21.666672
31
56.414215
12
-23.267950
22
-21.666672
32
56.000000
13
-23.267950
23
-21.666672
33
56.000000
0
3DFACE
8
0
10
-23.267950
20
-30.000006
30
56.000000
11
-23.267950
21
-21.666672
31
56.000000
12
-23.068150
22
-30.000006
32
55.517639
13
-23.068150
23
-30.000006
33
55.517639
0
3DFACE
8
0
10
-23.068150
20
-30.000006
30
55.517639
11
-23.267950
21
-21.666672
31
56.000000
12
-23.068150
22
-21.666672
32
55.517639
13
-23.068150
23
-21.666672
33
55.517639
0
3DFACE
8
0
10
-23.068150
20
-30.000006
30
55.517639
11
-23.068150
21
-21.666672
31
55.517639
12
-23.000000
22
-30.000006
32
55.000000
13
-23.000000
23
-30.000006
33
55.000000
0
3DFACE
8
0
10
-23.000000
20
-30.000006
30
55.000000
11
-23.068150
21
-21.666672
31
55.517639
12
-23.000000
22
-21.666672
32
55.000000
13
-23.000000
23
-21.666672
33
55.000000
0
3DFACE
8
0
10
-23.000000
20
-30.000006
30
55.000000
11
-23.000000
21
-21.666672
31
55.000000
12
-23.068150
22
-30.000006
32
54.482361
13
-23.068150
23
-30.000006
33
54.482361
0
3DFACE
8
0
10
-23.068150
20
-30.000006
30
54.482361
11
-23.000000
21
-21.666672
31
55.000000
12
-23.068150
22
-21.666672
32
54.482361
13
-23.068150
23
-21.666672
33
54.482361
0
3DFACE
8
0
10
-23.068150
20
-30.000006
30
54.482361
11
-23.068150
21
-21.666672
31
54.482361
12
-23.267950
22
-30.000006
32
54.000000
13
-23.267950
23
-30.000006
33
54.000000
0
3DFACE
8
0
10
-23.267950
20
-30.000006
30
54.000000
11
-23.068150
21
-21.666672
31
54.482361
12
-23.267950
22
-21.666672
32
54.000000
13
-23.267950
23
-21.666672
33
54.000000
0
3DFACE
8
0
10
-23.267950
20
-30.000006
30
54.000000
11
-23.267950
21
-21.666672
31
54.000000
12
-23.585787
22
-30.000006
32
53.585789
13
-23.585787
23
-30.000006
33
53.585789
0
3DFACE
8
0
10
-23.585787
20
-30.000006
30
53.585789
11
-23.267950
21
-21.666672
31
54.000000
12
-23.585787
22
-21.666672
32
53.585789
13
-23.585787
23
-21.666672
33
53.585789
0
3DFACE
8
0
10
-23.585787
20
-30.000006
30
53.585789
11
-23.585787
21
-21.666672
31
53.585789
12
-24.000000
22
-30.000006
32
53.267948
13
-24.000000
23
-30.000006
33
53.267948
0
3DFACE
8
0
10
-24.000000
20
-30.000006
30
53.267948
11
-23.585787
21
-21.666672
31
53.585789
12
-24.000000
22
-21.666672
32
53.267948
13
-24.000000
23
-21.666672
33
53.267948
0
3DFACE
8
0
10
-24.000000
20
-30.000006
30
53.267948
11
-24.000000
21
-21.666672
31
53.267948
12
-24.482363
22
-30.000006
32
53.068150
13
-24.482363
23
-30.000006
33
53.068150
0
3DFACE
8
0
10
-24.482363
20
-30.000006
30
53.068150
11
-24.000000
21
-21.666672
31
53.267948
12
-24.482363
22
-21.666672
32
53.068150
13
-24.482363
23
-21.666672
33
53.068150
0
3DFACE
8
0
10
-24.482363
20
-30.000006
30
53.068150
11
-24.482363
21
-21.666672
31
53.068150
12
-25.000000
22
-30.000006
32
53.000000
13
-25.000000
23
-30.000006
33
53.000000
0
3DFACE
8
0
10
-25.000000
20
-30.000006
30
53.000000
11
-24.482363
21
-21.666672
31
53.068150
12
-25.000000
22
-21.666672
32
53.000000
13
-25.000000
23
-21.666672
33
53.000000
0
3DFACE
8
0
10
-25.000000
20
-30.000006
30
53.000000
11
-25.000000
21
-21.666672
31
53.000000
12
-25.517639
22
-30.000006
32
53.068150
13
-25.517639
23
-30.000006
33
53.068150
0
3DFACE
8
0
10
-25.517639
20
-30.000006
30
53.068150
11
-25.000000
21
-21.666672
31
53.000000
12
-25.517639
22
-21.666672
32
53.068150
13
-25.517639
23
-21.666672
33
53.068150
0
3DFACE
8
0
10
-25.517639
20
-30.000006
30
53.068150
11
-25.517639
21
-21.666672
31
53.068150
12
-26.000000
22
-30.000006
32
53.267948
13
-26.000000
23
-30.000006
33
53.267948
0
3DFACE
8
0
10
-26.000000
20
-30.000006
30
53.267948
11
-25.517639
21
-21.666672
31
53.068150
12
-26.000000
22
-21.666672
32
53.267948
13
-26.000000
23
-21.666672
33
53.267948
0
3DFACE
8
0
10
-26.000000
20
-30.000006
30
53.267948
11
-26.000000
21
-21.666672
31
53.267948
12
-26.414213
22
-30.000006
32
53.585789
13
-26.414213
23
-30.000006
33
53.585789
0
3DFACE
8
0
10
-26.414213
20
-30.000006
30
53.585789
11
-26.000000
21
-21.666672
31
53.267948
12
-26.414213
22
-21.666672
32
53.585789
13
-26.414213
23
-21.666672
33
53.585789
0
3DFACE
8
0
10
-26.414213
20
-30.000006
30
53.585789
11
-26.414213
21
-21.666672
31
53.585789
12
-26.732052
22
-30.000006
32
54.000000
13
-26.732052
23
-30.000006
33
54.000000
0
3DFACE
8
0
10
-26.732052
20
-30.000006
30
54.000000
11
-26.414213
21
-21.666672
31
53.585789
12
-26.732052
22
-21.666672
32
54.000000
13
-26.732052
23
-21.666672
33
54.000000
0
3DFACE
8
0
10
-26.732052
20
-30.000006
30
54.000000
11
-26.732052
21
-21.666672
31
54.000000
12
-26.931852
22
-30.000006
32
54.482361
13
-26.931852
23
-30.000006
33
54.482361
0
3DFACE
8
0
10
-26.931852
20
-30.000006
30
54.482361
11
-26.732052
21
-21.666672
31
54.000000
12
-26.931852
22
-21.666672
32
54.482361
13
-26.931852
23
-21.666672
33
54.482361
0
3DFACE
8
0
10
-27.000000
20
-13.333336
30
55.000000
11
-27.000000
21
-21.666672
31
55.000000
12
-26.931852
22
-13.333336
32
54.482361
13
-26.931852
23
-13.333336
33
54.482361
0
3DFACE
8
0
10
-26.931852
20
-13.333336
30
54.482361
11
-27.000000
21
-21.666672
31
55.000000
12
-26.931852
22
-21.666672
32
54.482361
13
-26.931852
23
-21.666672
33
54.482361
0
3DFACE
8
0
10
-26.931852
20
-13.333336
30
54.482361
11
-26.931852
21
-21.666672
31
54.482361
12
-26.732052
22
-13.333336
32
54.000000
13
-26.732052
23
-13.333336
33
54.000000
0
3DFACE
8
0
10
-26.732052
20
-13.333336
30
54.000000
11
-26.931852
21
-21.666672
31
54.482361
12
-26.732052
22
-21.666672
32
54.000000
13
-26.732052
23
-21.666672
33
54.000000
0
3DFACE
8
0
10
-26.732052
20
-13.333336
30
54.000000
11
-26.732052
21
-21.666672
31
54.000000
12
-26.414213
22
-13.333336
32
53.585789
13
-26.414213
23
-13.333336
33
53.585789
0
3DFACE
8
0
10
-26.414213
20
-13.333336
30
53.585789
11
-26.732052
21
-21.666672
31
54.000000
12
-26.414213
22
-21.666672
32
53.585789
13
-26.414213
23
-21.666672
33
53.585789
0
3DFACE
8
0
10
-26.414213
20
-13.333336
30
53.585789
11
-26.414213
21
-21.666672
31
53.585789
12
-26.000000
22
-13.333336
32
53.267948
13
-26.000000
23
-13.333336
33
53.267948
0
3DFACE
8
0
10
-26.000000
20
-13.333336
30
53.267948
11
-26.414213
21
-21.666672
31
53.585789
12
-26.000000
22
-21.666672
32
53.267948
13
-26.000000
23
-21.666672
33
53.267948
0
3DFACE
8
0
10
-26.000000
20
-13.333336
30
53.267948
11
-26.000000
21
-21.666672
31
53.267948
12
-25.517639
22
-13.333336
32
53.068150
13
-25.517639
23
-13.333336
33
53.068150
0
3DFACE
8
0
10
-25.517639
20
-13.333336
30
53.068150
11
-26.000000
21
-21.666672
31
53.267948
12
-25.517639
22
-21.666672
32
53.068150
13
-25.517639
23
-21.666672
33
53.068150
0
3DFACE
8
0
10
-25.517639
20
-13.333336
30
53.068150
11
-25.517639
21
-21.666672
31
53.068150
12
-25.000000
22
-13.333336
32
53.000000
13
-25.000000
23
-13.333336
33
53.000000
0
3DFACE
8
0
10
-25.000000
20
-13.333336
30
53.000000
11
-25.517639
21
-21.666672
31
53.068150
12
-25.000000
22
-21.666672
32
53.000000
13
-25.000000
23
-21.666672
33
53.000000
0
3DFACE
8
0
10
-25.000000
20
-13.333336
30
53.000000
11
-25.000000
21
-21.666672
31
53.000000
12
-24.482363
22
-13.333336
32
53.068150
13
-24.482363
23
-13.333336
33
53.068150
0
3DFACE
8
0
10
-24.482363
20
-13.333336
30
53.068150
11
-25.000000
21
-21.666672
31
53.000000
12
-24.482363
22
-21.666672
32
53.068150
13
-24.482363
23
-21.666672
33
53.068150
0
3DFACE
8
0
10
-24.482363
20
-13.333336
30
53.068150
11
-24.482363
21
-21.666672
31
53.068150
12
-24.000000
22
-13.333336
32
53.267948
13
-24.000000
23
-13.333336
33
53.267948
0
3DFACE
8
0
10
-24.000000
20
-13.333336
30
53.267948
11
-24.482363
21
-21.666672
31
53.068150
12
-24.000000
22
-21.666672
32
53.267948
13
-24.000000
23
-21.666672
33
53.267948
0
3DFACE
8
0
10
-24.000000
20
-13.333336
30
53.267948
11
-24.000000
21
-21.666672
31
53.267948
12
-23.585787
22
-13.333336
32
53.585789
13
-23.585787
23
-13.333336
33
53.585789
0
3DFACE
8
0
10
-23.585787
20
-13.333336
30
53.585789
11
-24.000000
21
-21.666672
31
53.267948
12
-23.585787
22
-21.666672
32
53.585789
13
-23.585787
23
-21.666672
33
53.585789
0
3DFACE
8
0
10
-23.585787
20
-13.333336
30
53.585789
11
-23.585787
21
-21.666672
31
53.585789
12
-23.267950
22
-13.333336
32
54.000000
13
-23.267950
23
-13.333336
33
54.000000
0
3DFACE
8
0
10
-23.267950
20
-13.333336
30
54.000000
11
-23.585787
21
-21.666672
31
53.585789
12
-23.267950
22
-21.666672
32
54.000000
13
-23.267950
23
-21.666672
33
54.000000
0
3DFACE
8
0
10
-23.267950
20
-13.333336
30
54.000000
11
-23.267950
21
-21.666672
31
54.000000
12
-23.068150
22
-13.333336
32
54.482361
13
-23.068150
23
-13.333336
33
54.482361
0
3DFACE
8
0
10
-23.068150
20
-13.333336
30
54.482361
11
-23.267950
21
-21.666672
31
54.000000
12
-23.068150
22
-21.666672
32
54.482361
13
-23.068150
23
-21.666672
33
54.482361
0
3DFACE
8
0
10
-23.068150
20
-13.333336
30
54.482361
11
-23.068150
21
-21.666672
31
54.482361
12
-23.000000
22
-13.333336
32
55.000000
13
-23.000000
23
-13.333336
33
55.000000
0
3DFACE
8
0
10
-23.000000
20
-13.333336
30
55.000000
11
-23.068150
21
-21.666672
31
54.482361
12
-23.000000
22
-21.666672
32
55.000000
13
-23.000000
23
-21.666672
33
55.000000
0
3DFACE
8
0
10
-23.000000
20
-13.333336
30
55.000000
11
-23.000000
21
-21.666672
31
55.000000
12
-23.068150
22
-13.333336
32
55.517639
13
-23.068150
23
-13.333336
33
55.517639
0
3DFACE
8
0
10
-23.068150
20
-13.333336
30
55.517639
11
-23.000000
21
-21.666672
31
55.000000
12
-23.068150
22
-21.666672
32
55.517639
13
-23.068150
23
-21.666672
33
55.517639
0
3DFACE
8
0
10
-23.068150
20
-13.333336
30
55.517639
11
-23.068150
21
-21.666672
31
55.517639
12
-23.267950
22
-13.333336
32
56.000000
13
-23.267950
23
-13.333336
33
56.000000
0
3DFACE
8
0
10
-23.267950
20
-13.333336
30
56.000000
11
-23.068150
21
-21.666672
31
55.517639
12
-23.267950
22
-21.666672
32
56.000000
13
-23.267950
23
-21.666672
33
56.000000
0
3DFACE
8
0
10
-23.267950
20
-13.333336
30
56.000000
11
-23.267950
21
-21.666672
31
56.000000
12
-23.585787
22
-13.333336
32
56.414215
13
-23.585787
23
-13.333336
33
56.414215
0
3DFACE
8
0
10
-23.585787
20
-13.333336
30
56.414215
11
-23.267950
21
-21.666672
31
56.000000
12
-23.585787
22
-21.666672
32
56.414215
13
-23.585787
23
-21.666672
33
56.414215
0
3DFACE
8
0
10
-23.585787
20
-13.333336
30
56.414215
11
-23.585787
21
-21.666672
31
56.414215
12
-24.000000
22
-13.333336
32
56.732052
13
-24.000000
23
-13.333336
33
56.732052
0
3DFACE
8
0
10
-24.000000
20
-13.333336
30
56.732052
11
-23.585787
21
-21.666672
31
56.414215
12
-24.000000
22
-21.666672
32
56.732052
13
-24.000000
23
-21.666672
33
56.732052
0
3DFACE
8
0
10
-24.000000
20
-13.333336
30
56.732052
11
-24.000000
21
-21.666672
31
56.732052
12
-24.482363
22
-13.333336
32
56.931854
13
-24.482363
23
-13.333336
33
56.931854
0
3DFACE
8
0
10
-24.482363
20
-13.333336
30
56.931854
11
-24.000000
21
-21.666672
31
56.732052
12
-24.482363
22
-21.666672
32
56.931854
13
-24.482363
23
-21.666672
33
56.931854
0
3DFACE
8
0
10
-24.482363
20
-13.333336
30
56.931854
11
-24.482363
21
-21.666672
31
56.931854
12
-25.000000
22
-13.333336
32
57.000000
13
-25.000000
23
-13.333336
33
57.000000
0
3DFACE
8
0
10
-25.000000
20
-13.333336
30
57.000000
11
-24.482363
21
-21.666672
31
56.931854
12
-25.000000
22
-21.666672
32
57.000000
13
-25.000000
23
-21.666672
33
57.000000
0
3DFACE
8
0
10
-25.000000
20
-13.333336
30
57.000000
11
-25.000000
21
-21.666672
31
57.000000
12
-25.517639
22
-13.333336
32
56.931854
13
-25.517639
23
-13.333336
33
56.931854
0
3DFACE
8
0
10
-25.517639
20
-13.333336
30
56.931854
11
-25.000000
21
-21.666672
31
57.000000
12
-25.517639
22
-21.666672
32
56.931854
13
-25.517639
23
-21.666672
33
56.931854
0
3DFACE
8
0
10
-25.517639
20
-13.333336
30
56.931854
11
-25.517639
21
-21.666672
31
56.931854
12
-26.000000
22
-13.333336
32
56.732052
13
-26.000000
23
-13.333336
33
56.732052
0
3DFACE
8
0
10
-26.000000
20
-13.333336
30
56.732052
11
-25.517639
21
-21.666672
31
56.931854
12
-26.000000
22
-21.666672
32
56.732052
13
-26.000000
23
-21.666672
33
56.732052
0
3DFACE
8
0
10
-26.000000
20
-13.333336
30
56.732052
11
-26.000000
21
-21.666672
31
56.732052
12
-26.414213
22
-13.333336
32
56.414215
13
-26.414213
23
-13.333336
33
56.414215
0
3DFACE
8
0
10
-26.414213
20
-13.333336
30
56.414215
11
-26.000000
21
-21.666672
31
56.732052
12
-26.414213
22
-21.666672
32
56.414215
13
-26.414213
23
-21.666672
33
56.414215
0
3DFACE
8
0
10
-26.414213
20
-13.333336
30
56.414215
11
-26.414213
21
-21.666672
31
56.414215
12
-26.732052
22
-13.333336
32
56.000000
13
-26.732052
23
-13.333336
33
56.000000
0
3DFACE
8
0
10
-26.732052
20
-13.333336
30
56.000000
11
-26.414213
21
-21.666672
31
56.414215
12
-26.732052
22
-21.666672
32
56.000000
13
-26.732052
23
-21.666672
33
56.000000
0
3DFACE
8
0
10
-26.732052
20
-13.333336
30
56.000000
11
-26.732052
21
-21.666672
31
56.000000
12
-26.931852
22
-13.333336
32
55.517639
13
-26.931852
23
-13.333336
33
55.517639
0
3DFACE
8
0
10
-26.931852
20
-13.333336
30
55.517639
11
-26.732052
21
-21.666672
31
56.000000
12
-26.931852
22
-21.666672
32
55.517639
13
-26.931852
23
-21.666672
33
55.517639
0
3DFACE
8
0
10
-26.931852
20
-13.333336
30
55.517639
11
-26.931852
21
-21.666672
31
55.517639
12
-27.000000
22
-13.333336
32
55.000000
13
-27.000000
23
-13.333336
33
55.000000
0
3DFACE
8
0
10
-27.000000
20
-13.333336
30
55.000000
11
-26.931852
21
-21.666672
31
55.517639
12
-27.000000
22
-21.666672
32
55.000000
13
-27.000000
23
-21.666672
33
55.000000
0
3DFACE
8
0
10
23.068150
20
-5.000000
30
55.517639
11
23.068150
21
-13.333336
31
55.517639
12
23.000000
22
-5.000000
32
55.000000
13
23.000000
23
-5.000000
33
55.000000
0
3DFACE
8
0
10
23.000000
20
-5.000000
30
55.000000
11
23.068150
21
-13.333336
31
55.517639
12
23.000000
22
-13.333336
32
55.000000
13
23.000000
23
-13.333336
33
55.000000
0
3DFACE
8
0
10
23.000000
20
-5.000000
30
55.000000
11
23.000000
21
-13.333336
31
55.000000
12
23.068150
22
-5.000000
32
54.482361
13
23.068150
23
-5.000000
33
54.482361
0
3DFACE
8
0
10
23.068150
20
-5.000000
30
54.482361
11
23.000000
21
-13.333336
31
55.000000
12
23.068150
22
-13.333336
32
54.482361
13
23.068150
23
-13.333336
33
54.482361
0
3DFACE
8
0
10
23.068150
20
-5.000000
30
54.482361
11
23.068150
21
-13.333336
31
54.482361
12
23.267950
22
-5.000000
32
54.000000
13
23.267950
23
-5.000000
33
54.000000
0
3DFACE
8
0
10
23.267950
20
-5.000000
30
54.000000
11
23.068150
21
-13.333336
31
54.482361
12
23.267950
22
-13.333336
32
54.000000
13
23.267950
23
-13.333336
33
54.000000
0
3DFACE
8
0
10
23.267950
20
-5.000000
30
54.000000
11
23.267950
21
-13.333336
31
54.000000
12
23.585787
22
-5.000000
32
53.585789
13
23.585787
23
-5.000000
33
53.585789
0
3DFACE
8
0
10
23.585787
20
-5.000000
30
53.585789
11
23.267950
21
-13.333336
31
54.000000
12
23.585787
22
-13.333336
32
53.585789
13
23.585787
23
-13.333336
33
53.585789
0
3DFACE
8
0
10
23.585787
20
-5.000000
30
53.585789
11
23.585787
21
-13.333336
31
53.585789
12
24.000000
22
-5.000000
32
53.267948
13
24.000000
23
-5.000000
33
53.267948
0
3DFACE
8
0
10
24.000000
20
-5.000000
30
53.267948
11
23.585787
21
-13.333336
31
53.585789
12
24.000000
22
-13.333336
32
53.267948
13
24.000000
23
-13.333336
33
53.267948
0
3DFACE
8
0
10
24.000000
20
-5.000000
30
53.267948
11
24.000000
21
-13.333336
31
53.267948
12
24.482363
22
-5.000000
32
53.068150
13
24.482363
23
-5.000000
33
53.068150
0
3DFACE
8
0
10
24.482363
20
-5.000000
30
53.068150
11
24.000000
21
-13.333336
31
53.267948
12
24.482363
22
-13.333336
32
53.068150
13
24.482363
23
-13.333336
33
53.068150
0
3DFACE
8
0
10
24.482363
20
-5.000000
30
53.068150
11
24.482363
21
-13.333336
31
53.068150
12
25.000000
22
-5.000000
32
53.000000
13
25.000000
23
-5.000000
33
53.000000
0
3DFACE
8
0
10
25.000000
20
-5.000000
30
53.000000
11
24.482363
21
-13.333336
31
53.068150
12
25.000000
22
-13.333336
32
53.000000
13
25.000000
23
-13.333336
33
53.000000
0
3DFACE
8
0
10
25.000000
20
-5.000000
30
53.000000
11
25.000000
21
-13.333336
31
53.000000
12
25.517639
22
-5.000000
32
53.068150
13
25.517639
23
-5.000000
33
53.068150
0
3DFACE
8
0
10
25.517639
20
-5.000000
30
53.068150
11
25.000000
21
-13.333336
31
53.000000
12
25.517639
22
-13.333336
32
53.068150
13
25.517639
23
-13.333336
33
53.068150
0
3DFACE
8
0
10
25.517639
20
-5.000000
30
53.068150
11
25.517639
21
-13.333336
31
53.068150
12
26.000000
22
-5.000000
32
53.267948
13
26.000000
23
-5.000000
33
53.267948
0
3DFACE
8
0
10
26.000000
20
-5.000000
30
53.267948
11
25.517639
21
-13.333336
31
53.068150
12
26.000000
22
-13.333336
32
53.267948
13
26.000000
23
-13.333336
33
53.267948
0
3DFACE
8
0
10
26.000000
20
-5.000000
30
53.267948
11
26.000000
21
-13.333336
31
53.267948
12
26.414213
22
-5.000000
32
53.585789
13
26.414213
23
-5.000000
33
53.585789
0
3DFACE
8
0
10
26.414213
20
-5.000000
30
53.585789
11
26.000000
21
-13.333336
31
53.267948
12
26.414213
22
-13.333336
32
53.585789
13
26.414213
23
-13.333336
33
53.585789
0
3DFACE
8
0
10
26.414213
20
-5.000000
30
53.585789
11
26.414213
21
-13.333336
31
53.585789
12
26.732052
22
-5.000000
32
54.000000
13
26.732052
23
-5.000000
33
54.000000
0
3DFACE
8
0
10
26.732052
20
-5.000000
30
54.000000
11
26.414213
21
-13.333336
31
53.585789
12
26.732052
22
-13.333336
32
54.000000
13
26.732052
23
-13.333336
33
54.000000
0
3DFACE
8
0
10
26.732052
20
-5.000000
30
54.000000
11
26.732052
21
-13.333336
31
54.000000
12
26.931852
22
-5.000000
32
54.482361
13
26.931852
23
-5.000000
33
54.482361
0
3DFACE
8
0
10
26.931852
20
-5.000000
30
54.482361
11
26.732052
21
-13.333336
31
54.000000
12
26.931852
22
-13.333336
32
54.482361
13
26.931852
23
-13.333336
33
54.482361
0
3DFACE
8
0
10
26.931852
20
-5.000000
30
54.482361
11
26.931852
21
-13.333336
31
54.482361
12
27.000000
22
-5.000000
32
55.000000
13
27.000000
23
-5.000000
33
55.000000
0
3DFACE
8
0
10
27.000000
20
-5.000000
30
55.000000
11
26.931852
21
-13.333336
31
54.482361
12
27.000000
22
-13.333336
32
55.000000
13
27.000000
23
-13.333336
33
55.000000
0
3DFACE
8
0
10
27.000000
20
-5.000000
30
55.000000
11
27.000000
21
-13.333336
31
55.000000
12
26.931852
22
-5.000000
32
55.517639
13
26.931852
23
-5.000000
33
55.517639
0
3DFACE
8
0
10
26.931852
20
-5.000000
30
55.517639
11
27.000000
21
-13.333336
31
55.000000
12
26.931852
22
-13.333336
32
55.517639
13
26.931852
23
-13.333336
33
55.517639
0
3DFACE
8
0
10
26.931852
20
-5.000000
30
55.517639
11
26.931852
21
-13.333336
31
55.517639
12
26.732052
22
-5.000000
32
56.000000
13
26.732052
23
-5.000000
33
56.000000
0
3DFACE
8
0
10
26.732052
20
-5.000000
30
56.000000
11
26.931852
21
-13.333336
31
55.517639
12
26.732052
22
-13.333336
32
56.000000
13
26.732052
23
-13.333336
33
56.000000
0
3DFACE
8
0
10
26.732052
20
-5.000000
30
56.000000
11
26.732052
21
-13.333336
31
56.000000
12
26.414213
22
-5.000000
32
56.414215
13
26.414213
23
-5.000000
33
56.414215
0
3DFACE
8
0
10
26.414213
20
-5.000000
30
56.414215
11
26.732052
21
-13.333336
31
56.000000
12
26.414213
22
-13.333336
32
56.414215
13
26.414213
23
-13.333336
33
56.414215
0
3DFACE
8
0
10
26.414213
20
-5.000000
30
56.414215
11
26.414213
21
-13.333336
31
56.414215
12
26.000000
22
-5.000000
32
56.732052
13
26.000000
23
-5.000000
33
56.732052
0
3DFACE
8
0
10
26.000000
20
-5.000000
30
56.732052
11
26.414213
21
-13.333336
31
56.414215
12
26.000000
22
-13.333336
32
56.732052
13
26.000000
23
-13.333336
33
56.732052
0
3DFACE
8
0
10
26.000000
20
-5.000000
30
56.732052
11
26.000000
21
-13.333336
31
56.732052
12
25.517639
22
-5.000000
32
56.931854
13
25.517639
23
-5.000000
33
56.931854
0
3DFACE
8
0
10
25.517639
20
-5.000000
30
56.931854
11
26.000000
21
-13.333336
31
56.732052
12
25.517639
22
-13.333336
32
56.931854
13
25.517639
23
-13.333336
33
56.931854
0
3DFACE
8
0
10
25.517639
20
-5.000000
30
56.931854
11
25.517639
21
-13.333336
31
56.931854
12
25.000000
22
-5.000000
32
57.000000
13
25.000000
23
-5.000000
33
57.000000
0
3DFACE
8
0
10
25.000000
20
-5.000000
30
57.000000
11
25.517639
21
-13.333336
31
56.931854
12
25.000000
22
-13.333336
32
57.000000
13
25.000000
23
-13.333336
33
57.000000
0
3DFACE
8
0
10
25.000000
20
-5.000000
30
57.000000
11
25.000000
21
-13.333336
31
57.000000
12
24.482363
22
-5.000000
32
56.931854
13
24.482363
23
-5.000000
33
56.931854
0
3DFACE
8
0
10
24.482363
20
-5.000000
30
56.931854
11
25.000000
21
-13.333336
31
57.000000
12
24.482363
22
-13.333336
32
56.931854
13
24.482363
23
-13.333336
33
56.931854
0
3DFACE
8
0
10
24.482363
20
-5.000000
30
56.931854
11
24.482363
21
-13.333336
31
56.931854
12
24.000000
22
-5.000000
32
56.732052
13
24.000000
23
-5.000000
33
56.732052
0
3DFACE
8
0
10
24.000000
20
-5.000000
30
56.732052
11
24.482363
21
-13.333336
31
56.931854
12
24.000000
22
-13.333336
32
56.732052
13
24.000000
23
-13.333336
33
56.732052
0
3DFACE
8
0
10
24.000000
20
-5.000000
30
56.732052
11
24.000000
21
-13.333336
31
56.732052
12
23.585787
22
-5.000000
32
56.414215
13
23.585787
23
-5.000000
33
56.414215
0
3DFACE
8
0
10
23.585787
20
-5.000000
30
56.414215
11
24.000000
21
-13.333336
31
56.732052
12
23.585787
22
-13.333336
32
56.414215
13
23.585787
23
-13.333336
33
56.414215
0
3DFACE
8
0
10
23.585787
20
-5.000000
30
56.414215
11
23.585787
21
-13.333336
31
56.414215
12
23.267950
22
-5.000000
32
56.000000
13
23.267950
23
-5.000000
33
56.000000
0
3DFACE
8
0
10
23.267950
20
-5.000000
30
56.000000
11
23.585787
21
-13.333336
31
56.414215
12
23.267950
22
-13.333336
32
56.000000
13
23.267950
23
-13.333336
33
56.000000
0
3DFACE
8
0
10
23.267950
20
-5.000000
30
56.000000
11
23.267950
21
-13.333336
31
56.000000
12
23.068150
22
-5.000000
32
55.517639
13
23.068150
23
-5.000000
33
55.517639
0
3DFACE
8
0
10
23.068150
20
-5.000000
30
55.517639
11
23.267950
21
-13.333336
31
56.000000
12
23.068150
22
-13.333336
32
55.517639
13
23.068150
23
-13.333336
33
55.517639
0
3DFACE
8
0
10
23.068150
20
-30.000006
30
54.482361
11
23.068150
21
-21.666672
31
54.482361
12
23.000000
22
-30.000006
32
55.000000
13
23.000000
23
-30.000006
33
55.000000
0
3DFACE
8
0
10
23.000000
20
-30.000006
30
55.000000
11
23.068150
21
-21.666672
31
54.482361
12
23.000000
22
-21.666672
32
55.000000
13
23.000000
23
-21.666672
33
55.000000
0
3DFACE
8
0
10
23.000000
20
-30.000006
30
55.000000
11
23.000000
21
-21.666672
31
55.000000
12
23.068150
22
-30.000006
32
55.517639
13
23.068150
23
-30.000006
33
55.517639
0
3DFACE
8
0
10
23.068150
20
-30.000006
30
55.517639
11
23.000000
21
-21.666672
31
55.000000
12
23.068150
22
-21.666672
32
55.517639
13
23.068150
23
-21.666672
33
55.517639
0
3DFACE
8
0
10
23.068150
20
-30.000006
30
55.517639
11
23.068150
21
-21.666672
31
55.517639
12
23.267950
22
-30.000006
32
56.000000
13
23.267950
23
-30.000006
33
56.000000
0
3DFACE
8
0
10
23.267950
20
-30.000006
30
56.000000
11
23.068150
21
-21.666672
31
55.517639
12
23.267950
22
-21.666672
32
56.000000
13
23.267950
23
-21.666672
33
56.000000
0
3DFACE
8
0
10
23.267950
20
-30.000006
30
56.000000
11
23.267950
21
-21.666672
31
56.000000
12
23.585787
22
-30.000006
32
56.414215
13
23.585787
23
-30.000006
33
56.414215
0
3DFACE
8
0
10
23.585787
20
-30.000006
30
56.414215
11
23.267950
21
-21.666672
31
56.000000
12
23.585787
22
-21.666672
32
56.414215
13
23.585787
23
-21.666672
33
56.414215
0
3DFACE
8
0
10
23.585787
20
-30.000006
30
56.414215
11
23.585787
21
-21.666672
31
56.414215
12
24.000000
22
-30.000006
32
56.732052
13
24.000000
23
-30.000006
33
56.732052
0
3DFACE
8
0
10
24.000000
20
-30.000006
30
56.732052
11
23.585787
21
-21.666672
31
56.414215
12
24.000000
22
-21.666672
32
56.732052
13
24.000000
23
-21.666672
33
56.732052
0
3DFACE
8
0
10
24.000000
20
-30.000006
30
56.732052
11
24.000000
21
-21.666672
31
56.732052
12
24.482363
22
-30.000006
32
56.931854
13
24.482363
23
-30.000006
33
56.931854
0
3DFACE
8
0
10
24.482363
20
-30.000006
30
56.931854
11
24.000000
21
-21.666672
31
56.732052
12
24.482363
22
-21.666672
32
56.931854
13
24.482363
23
-21.666672
33
56.931854
0
3DFACE
8
0
10
24.482363
20
-30.000006
30
56.931854
11
24.482363
21
-21.666672
31
56.931854
12
25.000000
22
-30.000006
32
57.000000
13
25.000000
23
-30.000006
33
57.000000
0
3DFACE
8
0
10
25.000000
20
-30.000006
30
57.000000
11
24.482363
21
-21.666672
31
56.931854
12
25.000000
22
-21.666672
32
57.000000
13
25.000000
23
-21.666672
33
57.000000
0
3DFACE
8
0
10
25.000000
20
-30.000006
30
57.000000
11
25.000000
21
-21.666672
31
57.000000
12
25.517639
22
-30.000006
32
56.931854
13
25.517639
23
-30.000006
33
56.931854
0
3DFACE
8
0
10
25.517639
20
-30.000006
30
56.931854
11
25.000000
21
-21.666672
31
57.000000
12
25.517639
22
-21.666672
32
56.931854
13
25.517639
23
-21.666672
33
56.931854
0
3DFACE
8
0
10
25.517639
20
-30.000006
30
56.931854
11
25.517639
21
-21.666672
31
56.931854
12
26.000000
22
-30.000006
32
56.732052
13
26.000000
23
-30.000006
33
56.732052
0
3DFACE
8
0
10
26.000000
20
-30.000006
30
56.732052
11
25.517639
21
-21.666672
31
56.931854
12
26.000000
22
-21.666672
32
56.732052
13
26.000000
23
-21.666672
33
56.732052
0
3DFACE
8
0
10
26.000000
20
-30.000006
30
56.732052
11
26.000000
21
-21.666672
31
56.732052
12
26.414213
22
-30.000006
32
56.414215
13
26.414213
23
-30.000006
33
56.414215
0
3DFACE
8
0
10
26.414213
20
-30.000006
30
56.414215
11
26.000000
21
-21.666672
31
56.732052
12
26.414213
22
-21.666672
32
56.414215
13
26.414213
23
-21.666672
33
56.414215
0
3DFACE
8
0
10
26.414213
20
-30.000006
30
56.414215
11
26.414213
21
-21.666672
31
56.414215
12
26.732052
22
-30.000006
32
56.000000
13
26.732052
23
-30.000006
33
56.000000
0
3DFACE
8
0
10
26.732052
20
-30.000006
30
56.000000
11
26.414213
21
-21.666672
31
56.414215
12
26.732052
22
-21.666672
32
56.000000
13
26.732052
23
-21.666672
33
56.000000
0
3DFACE
8
0
10
26.732052
20
-30.000006
30
56.000000
11
26.732052
21
-21.666672
31
56.000000
12
26.931852
22
-30.000006
32
55.517639
13
26.931852
23
-30.000006
33
55.517639
0
3DFACE
8
0
10
26.931852
20
-30.000006
30
55.517639
11
26.732052
21
-21.666672
31
56.000000
12
26.931852
22
-21.666672
32
55.517639
13
26.931852
23
-21.666672
33
55.517639
0
3DFACE
8
0
10
26.931852
20
-30.000006
30
55.517639
11
26.931852
21
-21.666672
31
55.517639
12
27.000000
22
-30.000006
32
55.000000
13
27.000000
23
-30.000006
33
55.000000
0
3DFACE
8
0
10
27.000000
20
-30.000006
30
55.000000
11
26.931852
21
-21.666672
31
55.517639
12
27.000000
22
-21.666672
32
55.000000
13
27.000000
23
-21.666672
33
55.000000
0
3DFACE
8
0
10
27.000000
20
-30.000006
30
55.000000
11
27.000000
21
-21.666672
31
55.000000
12
26.931852
22
-30.000006
32
54.482361
13
26.931852
23
-30.000006
33
54.482361
0
3DFACE
8
0
10
26.931852
20
-30.000006
30
54.482361
11
27.000000
21
-21.666672
31
55.000000
12
26.931852
22
-21.666672
32
54.482361
13
26.931852
23
-21.666672
33
54.482361
0
3DFACE
8
0
10
26.931852
20
-30.000006
30
54.482361
11
26.931852
21
-21.666672
31
54.482361
12
26.732052
22
-30.000006
32
54.000000
13
26.732052
23
-30.000006
33
54.000000
0
3DFACE
8
0
10
26.732052
20
-30.000006
30
54.000000
11
26.931852
21
-21.666672
31
54.482361
12
26.732052
22
-21.666672
32
54.000000
13
26.732052
23
-21.666672
33
54.000000
0
3DFACE
8
0
10
26.732052
20
-30.000006
30
54.000000
11
26.732052
21
-21.666672
31
54.000000
12
26.414213
22
-30.000006
32
53.585789
13
26.414213
23
-30.000006
33
53.585789
0
3DFACE
8
0
10
26.414213
20
-30.000006
30
53.585789
11
26.732052
21
-21.666672
31
54.000000
12
26.414213
22
-21.666672
32
53.585789
13
26.414213
23
-21.666672
33
53.585789
0
3DFACE
8
0
10
26.414213
20
-30.000006
30
53.585789
11
26.414213
21
-21.666672
31
53.585789
12
26.000000
22
-30.000006
32
53.267948
13
26.000000
23
-30.000006
33
53.267948
0
3DFACE
8
0
10
26.000000
20
-30.000006
30
53.267948
11
26.414213
21
-21.666672
31
53.585789
12
26.000000
22
-21.666672
32
53.267948
13
26.000000
23
-21.666672
33
53.267948
0
3DFACE
8
0
10
26.000000
20
-30.000006
30
53.267948
11
26.000000
21
-21.666672
31
53.267948
12
25.517639
22
-30.000006
32
53.068150
13
25.517639
23
-30.000006
33
53.068150
0
3DFACE
8
0
10
25.517639
20
-30.000006
30
53.068150
11
26.000000
21
-21.666672
31
53.267948
12
25.517639
22
-21.666672
32
53.068150
13
25.517639
23
-21.666672
33
53.068150
0
3DFACE
8
0
10
25.517639
20
-30.000006
30
53.068150
11
25.517639
21
-21.666672
31
53.068150
12
25.000000
22
-30.000006
32
53.000000
13
25.000000
23
-30.000006
33
53.000000
0
3DFACE
8
0
10
25.000000
20
-30.000006
30
53.000000
11
25.517639
21
-21.666672
31
53.068150
12
25.000000
22
-21.666672
32
53.000000
13
25.000000
23
-21.666672
33
53.000000
0
3DFACE
8
0
10
25.000000
20
-30.000006
30
53.000000
11
25.000000
21
-21.666672
31
53.000000
12
24.482363
22
-30.000006
32
53.068150
13
24.482363
23
-30.000006
33
53.068150
0
3DFACE
8
0
10
24.482363
20
-30.000006
30
53.068150
11
25.000000
21
-21.666672
31
53.000000
12
24.482363
22
-21.666672
32
53.068150
13
24.482363
23
-21.666672
33
53.068150
0
3DFACE
8
0
10
24.482363
20
-30.000006
30
53.068150
11
24.482363
21
-21.666672
31
53.068150
12
24.000000
22
-30.000006
32
53.267948
13
24.000000
23
-30.000006
33
53.267948
0
3DFACE
8
0
10
24.000000
20
-30.000006
30
53.267948
11
24.482363
21
-21.666672
31
53.068150
12
24.000000
22
-21.666672
32
53.267948
13
24.000000
23
-21.666672
33
53.267948
0
3DFACE
8
0
10
24.000000
20
-30.000006
30
53.267948
11
24.000000
21
-21.666672
31
53.267948
12
23.585787
22
-30.000006
32
53.585789
13
23.585787
23
-30.000006
33
53.585789
0
3DFACE
8
0
10
23.585787
20
-30.000006
30
53.585789
11
24.000000
21
-21.666672
31
53.267948
12
23.585787
22
-21.666672
32
53.585789
13
23.585787
23
-21.666672
33
53.585789
0
3DFACE
8
0
10
23.585787
20
-30.000006
30
53.585789
11
23.585787
21
-21.666672
31
53.585789
12
23.267950
22
-30.000006
32
54.000000
13
23.267950
23
-30.000006
33
54.000000
0
3DFACE
8
0
10
23.267950
20
-30.000006
30
54.000000
11
23.585787
21
-21.666672
31
53.585789
12
23.267950
22
-21.666672
32
54.000000
13
23.267950
23
-21.666672
33
54.000000
0
3DFACE
8
0
10
23.267950
20
-30.000006
30
54.000000
11
23.267950
21
-21.666672
31
54.000000
12
23.068150
22
-30.000006
32
54.482361
13
23.068150
23
-30.000006
33
54.482361
0
3DFACE
8
0
10
23.068150
20
-30.000006
30
54.482361
11
23.267950
21
-21.666672
31
54.000000
12
23.068150
22
-21.666672
32
54.482361
13
23.068150
23
-21.666672
33
54.482361
0
3DFACE
8
0
10
23.000000
20
-13.333336
30
55.000000
11
23.000000
21
-21.666672
31
55.000000
12
23.068150
22
-13.333336
32
54.482361
13
23.068150
23
-13.333336
33
54.482361
0
3DFACE
8
0
10
23.068150
20
-13.333336
30
54.482361
11
23.000000
21
-21.666672
31
55.000000
12
23.068150
22
-21.666672
32
54.482361
13
23.068150
23
-21.666672
33
54.482361
0
3DFACE
8
0
10
23.068150
20
-13.333336
30
54.482361
11
23.068150
21
-21.666672
31
54.482361
12
23.267950
22
-13.333336
32
54.000000
13
23.267950
23
-13.333336
33
54.000000
0
3DFACE
8
0
10
23.267950
20
-13.333336
30
54.000000
11
23.068150
21
-21.666672
31
54.482361
12
23.267950
22
-21.666672
32
54.000000
13
23.267950
23
-21.666672
33
54.000000
0
3DFACE
8
0
10
23.267950
20
-13.333336
30
54.000000
11
23.267950
21
-21.666672
31
54.000000
12
23.585787
22
-13.333336
32
53.585789
13
23.585787
23
-13.333336
33
53.585789
0
3DFACE
8
0
10
23.585787
20
-13.333336
30
53.585789
11
23.267950
21
-21.666672
31
54.000000
12
23.585787
22
-21.666672
32
53.585789
13
23.585787
23
-21.666672
33
53.585789
0
3DFACE
8
0
10
23.585787
20
-13.333336
30
53.585789
11
23.585787
21
-21.666672
31
53.585789
12
24.000000
22
-13.333336
32
53.267948
13
24.000000
23
-13.333336
33
53.267948
0
3DFACE
8
0
10
24.000000
20
-13.333336
30
53.267948
11
23.585787
21
-21.666672
31
53.585789
12
24.000000
22
-21.666672
32
53.267948
13
24.000000
23
-21.666672
33
53.267948
0
3DFACE
8
0
10
24.000000
20
-13.333336
30
53.267948
11
24.000000
21
-21.666672
31
53.267948
12
24.482363
22
-13.333336
32
53.068150
13
24.482363
23
-13.333336
33
53.068150
0
3DFACE
8
0
10
24.482363
20
-13.333336
30
53.068150
11
24.000000
21
-21.666672
31
53.267948
12
24.482363
22
-21.666672
32
53.068150
13
24.482363
23
-21.666672
33
53.068150
0
3DFACE
8
0
10
24.482363
20
-13.333336
30
53.068150
11
24.482363
21
-21.666672
31
53.068150
12
25.000000
22
-13.333336
32
53.000000
13
25.000000
23
-13.333336
33
53.000000
0
3DFACE
8
0
10
25.000000
20
-13.333336
30
53.000000
11
24.482363
21
-21.666672
31
53.068150
12
25.000000
22
-21.666672
32
53.000000
13
25.000000
23
-21.666672
33
53.000000
0
3DFACE
8
0
10
25.000000
20
-13.333336
30
53.000000
11
25.000000
21
-21.666672
31
53.000000
12
25.517639
22
-13.333336
32
53.068150
13
25.517639
23
-13.333336
33
53.068150
0
3DFACE
8
0
10
25.517639
20
-13.333336
30
53.068150
11
25.000000
21
-21.666672
31
53.000000
12
25.517639
22
-21.666672
32
53.068150
13
25.517639
23
-21.666672
33
53.068150
0
3DFACE
8
0
10
25.517639
20
-13.333336
30
53.068150
11
25.517639
21
-21.666672
31
53.068150
12
26.000000
22
-13.333336
32
53.267948
13
26.000000
23
-13.333336
33
53.267948
0
3DFACE
8
0
10
26.000000
20
-13.333336
30
53.267948
11
25.517639
21
-21.666672
31
53.068150
12
26.000000
22
-21.666672
32
53.267948
13
26.000000
23
-21.666672
33
53.267948
0
3DFACE
8
0
10
26.000000
20
-13.333336
30
53.267948
11
26.000000
21
-21.666672
31
53.267948
12
26.414213
22
-13.333336
32
53.585789
13
26.414213
23
-13.333336
33
53.585789
0
3DFACE
8
0
10
26.414213
20
-13.333336
30
53.585789
11
26.000000
21
-21.666672
31
53.267948
12
26.414213
22
-21.666672
32
53.585789
13
26.414213
23
-21.666672
33
53.585789
0
3DFACE
8
0
10
26.414213
20
-13.333336
30
53.585789
11
26.414213
21
-21.666672
31
53.585789
12
26.732052
22
-13.333336
32
54.000000
13
26.732052
23
-13.333336
33
54.000000
0
3DFACE
8
0
10
26.732052
20
-13.333336
30
54.000000
11
26.414213
21
-21.666672
31
53.585789
12
26.732052
22
-21.666672
32
54.000000
13
26.732052
23
-21.666672
33
54.000000
0
3DFACE
8
0
10
26.732052
20
-13.333336
30
54.000000
11
26.732052
21
-21.666672
31
54.000000
12
26.931852
22
-13.333336
32
54.482361
13
26.931852
23
-13.333336
33
54.482361
0
3DFACE
8
0
10
26.931852
20
-13.333336
30
54.482361
11
26.732052
21
-21.666672
31
54.000000
12
26.931852
22
-21.666672
32
54.482361
13
26.931852
23
-21.666672
33
54.482361
0
3DFACE
8
0
10
26.931852
20
-13.333336
30
54.482361
11
26.931852
21
-21.666672
31
54.482361
12
27.000000
22
-13.333336
32
55.000000
13
27.000000
23
-13.333336
33
55.000000
0
3DFACE
8
0
10
27.000000
20
-13.333336
30
55.000000
11
26.931852
21
-21.666672
31
54.482361
12
27.000000
22
-21.666672
32
55.000000
13
27.000000
23
-21.666672
33
55.000000
0
3DFACE
8
0
10
27.000000
20
-13.333336
30
55.000000
11
27.000000
21
-21.666672
31
55.000000
12
26.931852
22
-13.333336
32
55.517639
13
26.931852
23
-13.333336
33
55.517639
0
3DFACE
8
0
10
26.931852
20
-13.333336
30
55.517639
11
27.000000
21
-21.666672
31
55.000000
12
26.931852
22
-21.666672
32
55.517639
13
26.931852
23
-21.666672
33
55.517639
0
3DFACE
8
0
10
26.931852
20
-13.333336
30
55.517639
11
26.931852
21
-21.666672
31
55.517639
12
26.732052
22
-13.333336
32
56.000000
13
26.732052
23
-13.333336
33
56.000000
0
3DFACE
8
0
10
26.732052
20
-13.333336
30
56.000000
11
26.931852
21
-21.666672
31
55.517639
12
26.732052
22
-21.666672
32
56.000000
13
26.732052
23
-21.666672
33
56.000000
0
3DFACE
8
0
10
26.732052
20
-13.333336
30
56.000000
11
26.732052
21
-21.666672
31
56.000000
12
26.414213
22
-13.333336
32
56.414215
13
26.414213
23
-13.333336
33
56.414215
0
3DFACE
8
0
10
26.414213
20
-13.333336
30
56.414215
11
26.732052
21
-21.666672
31
56.000000
12
26.414213
22
-21.666672
32
56.414215
13
26.414213
23
-21.666672
33
56.414215
0
3DFACE
8
0
10
26.414213
20
-13.333336
30
56.414215
11
26.414213
21
-21.666672
31
56.414215
12
26.000000
22
-13.333336
32
56.732052
13
26.000000
23
-13.333336
33
56.732052
0
3DFACE
8
0
10
26.000000
20
-13.333336
30
56.732052
11
26.414213
21
-21.666672
31
56.414215
12
26.000000
22
-21.666672
32
56.732052
13
26.000000
23
-21.666672
33
56.732052
0
3DFACE
8
0
10
26.000000
20
-13.333336
30
56.732052
11
26.000000
21
-21.666672
31
56.732052
12
25.517639
22
-13.333336
32
56.931854
13
25.517639
23
-13.333336
33
56.931854
0
3DFACE
8
0
10
25.517639
20
-13.333336
30
56.931854
11
26.000000
21
-21.666672
31
56.732052
12
25.517639
22
-21.666672
32
56.931854
13
25.517639
23
-21.666672
33
56.931854
0
3DFACE
8
0
10
25.517639
20
-13.333336
30
56.931854
11
25.517639
21
-21.666672
31
56.931854
12
25.000000
22
-13.333336
32
57.000000
13
25.000000
23
-13.333336
33
57.000000
0
3DFACE
8
0
10
25.000000
20
-13.333336
30
57.000000
11
25.517639
21
-21.666672
31
56.931854
12
25.000000
22
-21.666672
32
57.000000
13
25.000000
23
-21.666672
33
57.000000
0
3DFACE
8
0
10
25.000000
20
-13.333336
30
57.000000
11
25.000000
21
-21.666672
31
57.000000
12
24.482363
22
-13.333336
32
56.931854
13
24.482363
23
-13.333336
33
56.931854
0
3DFACE
8
0
10
24.482363
20
-13.333336
30
56.931854
11
25.000000
21
-21.666672
31
57.000000
12
24.482363
22
-21.666672
32
56.931854
13
24.482363
23
-21.666672
33
56.931854
0
3DFACE
8
0
10
24.482363
20
-13.333336
30
56.931854
11
24.482363
21
-21.666672
31
56.931854
12
24.000000
22
-13.333336
32
56.732052
13
24.000000
23
-13.333336
33
56.732052
0
3DFACE
8
0
10
24.000000
20
-13.333336
30
56.732052
11
24.482363
21
-21.666672
31
56.931854
12
24.000000
22
-21.666672
32
56.732052
13
24.000000
23
-21.666672
33
56.732052
0
3DFACE
8
0
10
24.000000
20
-13.333336
30
56.732052
11
24.000000
21
-21.666672
31
56.732052
12
23.585787
22
-13.333336
32
56.414215
13
23.585787
23
-13.333336
33
56.414215
0
3DFACE
8
0
10
23.585787
20
-13.333336
30
56.414215
11
24.000000
21
-21.666672
31
56.732052
12
23.585787
22
-21.666672
32
56.414215
13
23.585787
23
-21.666672
33
56.414215
0
3DFACE
8
0
10
23.585787
20
-13.333336
30
56.414215
11
23.585787
21
-21.666672
31
56.414215
12
23.267950
22
-13.333336
32
56.000000
13
23.267950
23
-13.333336
33
56.000000
0
3DFACE
8
0
10
23.267950
20
-13.333336
30
56.000000
11
23.585787
21
-21.666672
31
56.414215
12
23.267950
22
-21.666672
32
56.000000
13
23.267950
23
-21.666672
33
56.000000
0
3DFACE
8
0
10
23.267950
20
-13.333336
30
56.000000
11
23.267950
21
-21.666672
31
56.000000
12
23.068150
22
-13.333336
32
55.517639
13
23.068150
23
-13.333336
33
55.517639
0
3DFACE
8
0
10
23.068150
20
-13.333336
30
55.517639
11
23.267950
21
-21.666672
31
56.000000
12
23.068150
22
-21.666672
32
55.517639
13
23.068150
23
-21.666672
33
55.517639
0
3DFACE
8
0
10
23.068150
20
-13.333336
30
55.517639
11
23.068150
21
-21.666672
31
55.517639
12
23.000000
22
-13.333336
32
55.000000
13
23.000000
23
-13.333336
33
55.000000
0
3DFACE
8
0
10
23.000000
20
-13.333336
30
55.000000
11
23.068150
21
-21.666672
31
55.517639
12
23.000000
22
-21.666672
32
55.000000
13
23.000000
23
-21.666672
33
55.000000
0
3DFACE
8
0
10
-26.931852
20
-5.000000
30
45.517639
11
-26.931852
21
-13.333336
31
45.517639
12
-27.000000
22
-5.000000
32
45.000000
13
-27.000000
23
-5.000000
33
45.000000
0
3DFACE
8
0
10
-27.000000
20
-5.000000
30
45.000000
11
-26.931852
21
-13.333336
31
45.517639
12
-27.000000
22
-13.333336
32
45.000000
13
-27.000000
23
-13.333336
33
45.000000
0
3DFACE
8
0
10
-27.000000
20
-5.000000
30
45.000000
11
-27.000000
21
-13.333336
31
45.000000
12
-26.931852
22
-5.000000
32
44.482361
13
-26.931852
23
-5.000000
33
44.482361
0
3DFACE
8
0
10
-26.931852
20
-5.000000
30
44.482361
11
-27.000000
21
-13.333336
31
45.000000
12
-26.931852
22
-13.333336
32
44.482361
13
-26.931852
23
-13.333336
33
44.482361
0
3DFACE
8
0
10
-26.931852
20
-5.000000
30
44.482361
11
-26.931852
21
-13.333336
31
44.482361
12
-26.732052
22
-5.000000
32
44.000000
13
-26.732052
23
-5.000000
33
44.000000
0
3DFACE
8
0
10
-26.732052
20
-5.000000
30
44.000000
11
-26.931852
21
-13.333336
31
44.482361
12
-26.732052
22
-13.333336
32
44.000000
13
-26.732052
23
-13.333336
33
44.000000
0
3DFACE
8
0
10
-26.732052
20
-5.000000
30
44.000000
11
-26.732052
21
-13.333336
31
44.000000
12
-26.414213
22
-5.000000
32
43.585789
13
-26.414213
23
-5.000000
33
43.585789
0
3DFACE
8
0
10
-26.414213
20
-5.000000
30
43.585789
11
-26.732052
21
-13.333336
31
44.000000
12
-26.414213
22
-13.333336
32
43.585789
13
-26.414213
23
-13.333336
33
43.585789
0
3DFACE
8
0
10
-26.414213
20
-5.000000
30
43.585789
11
-26.414213
21
-13.333336
31
43.585789
12
-26.000000
22
-5.000000
32
43.267948
13
-26.000000
23
-5.000000
33
43.267948
0
3DFACE
8
0
10
-26.000000
20
-5.000000
30
43.267948
11
-26.414213
21
-13.333336
31
43.585789
12
-26.000000
22
-13.333336
32
43.267948
13
-26.000000
23
-13.333336
33
43.267948
0
3DFACE
8
0
10
-26.000000
20
-5.000000
30
43.267948
11
-26.000000
21
-13.333336
31
43.267948
12
-25.517639
22
-5.000000
32
43.068150
13
-25.517639
23
-5.000000
33
43.068150
0
3DFACE
8
0
10
-25.517639
20
-5.000000
30
43.068150
11
-26.000000
21
-13.333336
31
43.267948
12
-25.517639
22
-13.333336
32
43.068150
13
-25.517639
23
-13.333336
33
43.068150
0
3DFACE
8
0
10
-25.517639
20
-5.000000
30
43.068150
11
-25.517639
21
-13.333336
31
43.068150
12
-25.000000
22
-5.000000
32
43.000000
13
-25.000000
23
-5.000000
33
43.000000
0
3DFACE
8
0
10
-25.000000
20
-5.000000
30
43.000000
11
-25.517639
21
-13.333336
31
43.068150
12
-25.000000
22
-13.333336
32
43.000000
13
-25.000000
23
-13.333336
33
43.000000
0
3DFACE
8
0
10
-25.000000
20
-5.000000
30
43.000000
11
-25.000000
21
-13.333336
31
43.000000
12
-24.482363
22
-5.000000
32
43.068150
13
-24.482363
23
-5.000000
33
43.068150
0
3DFACE
8
0
10
-24.482363
20
-5.000000
30
43.068150
11
-25.000000
21
-13.333336
31
43.000000
12
-24.482363
22
-13.333336
32
43.068150
13
-24.482363
23
-13.333336
33
43.068150
0
3DFACE
8
0
10
-24.482363
20
-5.000000
30
43.068150
11
-24.482363
21
-13.333336
31
43.068150
12
-24.000000
22
-5.000000
32
43.267948
13
-24.000000
23
-5.000000
33
43.267948
0
3DFACE
8
0
10
-24.000000
20
-5.000000
30
43.267948
11
-24.482363
21
-13.333336
31
43.068150
12
-24.000000
22
-13.333336
32
43.267948
13
-24.000000
23
-13.333336
33
43.267948
0
3DFACE
8
0
10
-24.000000
20
-5.000000
30
43.267948
11
-24.000000
21
-13.333336
31
43.267948
12
-23.585787
22
-5.000000
32
43.585789
13
-23.585787
23
-5.000000
33
43.585789
0
3DFACE
8
0
10
-23.585787
20
-5.000000
30
43.585789
11
-24.000000
21
-13.333336
31
43.267948
12
-23.585787
22
-13.333336
32
43.585789
13
-23.585787
23
-13.333336
33
43.585789
0
3DFACE
8
0
10
-23.585787
20
-5.000000
30
43.585789
11
-23.585787
21
-13.333336
31
43.585789
12
-23.267950
22
-5.000000
32
44.000000
13
-23.267950
23
-5.000000
33
44.000000
0
3DFACE
8
0
10
-23.267950
20
-5.000000
30
44.000000
11
-23.585787
21
-13.333336
31
43.585789
12
-23.267950
22
-13.333336
32
44.000000
13
-23.267950
23
-13.333336
33
44.000000
0
3DFACE
8
0
10
-23.267950
20
-5.000000
30
44.000000
11
-23.267950
21
-13.333336
31
44.000000
12
-23.068150
22
-5.000000
32
44.482361
13
-23.068150
23
-5.000000
33
44.482361
0
3DFACE
8
0
10
-23.068150
20
-5.000000
30
44.482361
11
-23.267950
21
-13.333336
31
44.000000
12
-23.068150
22
-13.333336
32
44.482361
13
-23.068150
23
-13.333336
33
44.482361
0
3DFACE
8
0
10
-23.068150
20
-5.000000
30
44.482361
11
-23.068150
21
-13.333336
31
44.482361
12
-23.000000
22
-5.000000
32
45.000000
13
-23.000000
23
-5.000000
33
45.000000
0
3DFACE
8
0
10
-23.000000
20
-5.000000
30
45.000000
11
-23.068150
21
-13.333336
31
44.482361
12
-23.000000
22
-13.333336
32
45.000000
13
-23.000000
23
-13.333336
33
45.000000
0
3DFACE
8
0
10
-23.000000
20
-5.000000
30
45.000000
11
-23.000000
21
-13.333336
31
45.000000
12
-23.068150
22
-5.000000
32
45.517639
13
-23.068150
23
-5.000000
33
45.517639
0
3DFACE
8
0
10
-23.068150
20
-5.000000
30
45.517639
11
-23.000000
21
-13.333336
31
45.000000
12
-23.068150
22
-13.333336
32
45.517639
13
-23.068150
23
-13.333336
33
45.517639
0
3DFACE
8
0
10
-23.068150
20
-5.000000
30
45.517639
11
-23.068150
21
-13.333336
31
45.517639
12
-23.267950
22
-5.000000
32
46.000000
13
-23.267950
23
-5.000000
33
46.000000
0
3DFACE
8
0
10
-23.267950
20
-5.000000
30
46.000000
11
-23.068150
21
-13.333336
31
45.517639
12
-23.267950
22
-13.333336
32
46.000000
13
-23.267950
23
-13.333336
33
46.000000
0
3DFACE
8
0
10
-23.267950
20
-5.000000
30
46.000000
11
-23.267950
21
-13.333336
31
46.000000
12
-23.585787
22
-5.000000
32
46.414215
13
-23.585787
23
-5.000000
33
46.414215
0
3DFACE
8
0
10
-23.585787
20
-5.000000
30
46.414215
11
-23.267950
21
-13.333336
31
46.000000
12
-23.585787
22
-13.333336
32
46.414215
13
-23.585787
23
-13.333336
33
46.414215
0
3DFACE
8
0
10
-23.585787
20
-5.000000
30
46.414215
11
-23.585787
21
-13.333336
31
46.414215
12
-24.000000
22
-5.000000
32
46.732052
13
-24.000000
23
-5.000000
33
46.732052
0
3DFACE
8
0
10
-24.000000
20
-5.000000
30
46.732052
11
-23.585787
21
-13.333336
31
46.414215
12
-24.000000
22
-13.333336
32
46.732052
13
-24.000000
23
-13.333336
33
46.732052
0
3DFACE
8
0
10
-24.000000
20
-5.000000
30
46.732052
11
-24.000000
21
-13.333336
31
46.732052
12
-24.482363
22
-5.000000
32
46.931850
13
-24.482363
23
-5.000000
33
46.931850
0
3DFACE
8
0
10
-24.482363
20
-5.000000
30
46.931850
11
-24.000000
21
-13.333336
31
46.732052
12
-24.482363
22
-13.333336
32
46.931850
13
-24.482363
23
-13.333336
33
46.931850
0
3DFACE
8
0
10
-24.482363
20
-5.000000
30
46.931850
11
-24.482363
21
-13.333336
31
46.931850
12
-25.000000
22
-5.000000
32
47.000000
13
-25.000000
23
-5.000000
33
47.000000
0
3DFACE
8
0
10
-25.000000
20
-5.000000
30
47.000000
11
-24.482363
21
-13.333336
31
46.931850
12
-25.000000
22
-13.333336
32
47.000000
13
-25.000000
23
-13.333336
33
47.000000
0
3DFACE
8
0
10
-25.000000
20
-5.000000
30
47.000000
11
-25.000000
21
-13.333336
31
47.000000
12
-25.517639
22
-5.000000
32
46.931850
13
-25.517639
23
-5.000000
33
46.931850
0
3DFACE
8
0
10
-25.517639
20
-5.000000
30
46.931850
11
-25.000000
21
-13.333336
31
47.000000
12
-25.517639
22
-13.333336
32
46.931850
13
-25.517639
23
-13.333336
33
46.931850
0
3DFACE
8
0
10
-25.517639
20
-5.000000
30
46.931850
11
-25.517639
21
-13.333336
31
46.931850
12
-26.000000
22
-5.000000
32
46.732052
13
-26.000000
23
-5.000000
33
46.732052
0
3DFACE
8
0
10
-26.000000
20
-5.000000
30
46.732052
11
-25.517639
21
-13.333336
31
46.931850
12
-26.000000
22
-13.333336
32
46.732052
13
-26.000000
23
-13.333336
33
46.732052
0
3DFACE
8
0
10
-26.000000
20
-5.000000
30
46.732052
11
-26.000000
21
-13.333336
31
46.732052
12
-26.414213
22
-5.000000
32
46.414215
13
-26.414213
23
-5.000000
33
46.414215
0
3DFACE
8
0
10
-26.414213
20
-5.000000
30
46.414215
11
-26.000000
21
-13.333336
31
46.732052
12
-26.414213
22
-13.333336
32
46.414215
13
-26.414213
23
-13.333336
33
46.414215
0
3DFACE
8
0
10
-26.414213
20
-5.000000
30
46.414215
11
-26.414213
21
-13.333336
31
46.414215
12
-26.732052
22
-5.000000
32
46.000000
13
-26.732052
23
-5.000000
33
46.000000
0
3DFACE
8
0
10
-26.732052
20
-5.000000
30
46.000000
11
-26.414213
21
-13.333336
31
46.414215
12
-26.732052
22
-13.333336
32
46.000000
13
-26.732052
23
-13.333336
33
46.000000
0
3DFACE
8
0
10
-26.732052
20
-5.000000
30
46.000000
11
-26.732052
21
-13.333336
31
46.000000
12
-26.931852
22
-5.000000
32
45.517639
13
-26.931852
23
-5.000000
33
45.517639
0
3DFACE
8
0
10
-26.931852
20
-5.000000
30
45.517639
11
-26.732052
21
-13.333336
31
46.000000
12
-26.931852
22
-13.333336
32
45.517639
13
-26.931852
23
-13.333336
33
45.517639
0
3DFACE
8
0
10
-26.931852
20
-30.000006
30
44.482361
11
-26.931852
21
-21.666672
31
44.482361
12
-27.000000
22
-30.000006
32
45.000000
13
-27.000000
23
-30.000006
33
45.000000
0
3DFACE
8
0
10
-27.000000
20
-30.000006
30
45.000000
11
-26.931852
21
-21.666672
31
44.482361
12
-27.000000
22
-21.666672
32
45.000000
13
-27.000000
23
-21.666672
33
45.000000
0
3DFACE
8
0
10
-27.000000
20
-30.000006
30
45.000000
11
-27.000000
21
-21.666672
31
45.000000
12
-26.931852
22
-30.000006
32
45.517639
13
-26.931852
23
-30.000006
33
45.517639
0
3DFACE
8
0
10
-26.931852
20
-30.000006
30
45.517639
11
-27.000000
21
-21.666672
31
45.000000
12
-26.931852
22
-21.666672
32
45.517639
13
-26.931852
23
-21.666672
33
45.517639
0
3DFACE
8
0
10
-26.931852
20
-30.000006
30
45.517639
11
-26.931852
21
-21.666672
31
45.517639
12
-26.732052
22
-30.000006
32
46.000000
13
-26.732052
23
-30.000006
33
46.000000
0
3DFACE
8
0
10
-26.732052
20
-30.000006
30
46.000000
11
-26.931852
21
-21.666672
31
45.517639
12
-26.732052
22
-21.666672
32
46.000000
13
-26.732052
23
-21.666672
33
46.000000
0
3DFACE
8
0
10
-26.732052
20
-30.000006
30
46.000000
11
-26.732052
21
-21.666672
31
46.000000
12
-26.414213
22
-30.000006
32
46.414215
13
-26.414213
23
-30.000006
33
46.414215
0
3DFACE
8
0
10
-26.414213
20
-30.000006
30
46.414215
11
-26.732052
21
-21.666672
31
46.000000
12
-26.414213
22
-21.666672
32
46.414215
13
-26.414213
23
-21.666672
33
46.414215
0
3DFACE
8
0
10
-26.414213
20
-30.000006
30
46.414215
11
-26.414213
21
-21.666672
31
46.414215
12
-26.000000
22
-30.000006
32
46.732052
13
-26.000000
23
-30.000006
33
46.732052
0
3DFACE
8
0
10
-26.000000
20
-30.000006
30
46.732052
11
-26.414213
21
-21.666672
31
46.414215
12
-26.000000
22
-21.666672
32
46.732052
13
-26.000000
23
-21.666672
33
46.732052
0
3DFACE
8
0
10
-26.000000
20
-30.000006
30
46.732052
11
-26.000000
21
-21.666672
31
46.732052
12
-25.517639
22
-30.000006
32
46.931850
13
-25.517639
23
-30.000006
33
46.931850
0
3DFACE
8
0
10
-25.517639
20
-30.000006
30
46.931850
11
-26.000000
21
-21.666672
31
46.732052
12
-25.517639
22
-21.666672
32
46.931850
13
-25.517639
23
-21.666672
33
46.931850
0
3DFACE
8
0
10
-25.517639
20
-30.000006
30
46.931850
11
-25.517639
21
-21.666672
31
46.931850
12
-25.000000
22
-30.000006
32
47.000000
13
-25.000000
23
-30.000006
33
47.000000
0
3DFACE
8
0
10
-25.000000
20
-30.000006
30
47.000000
11
-25.517639
21
-21.666672
31
46.931850
12
-25.000000
22
-21.666672
32
47.000000
13
-25.000000
23
-21.666672
33
47.000000
0
3DFACE
8
0
10
-25.000000
20
-30.000006
30
47.000000
11
-25.000000
21
-21.666672
31
47.000000
12
-24.482363
22
-30.000006
32
46.931850
13
-24.482363
23
-30.000006
33
46.931850
0
3DFACE
8
0
10
-24.482363
20
-30.000006
30
46.931850
11
-25.000000
21
-21.666672
31
47.000000
12
-24.482363
22
-21.666672
32
46.931850
13
-24.482363
23
-21.666672
33
46.931850
0
3DFACE
8
0
10
-24.482363
20
-30.000006
30
46.931850
11
-24.482363
21
-21.666672
31
46.931850
12
-24.000000
22
-30.000006
32
46.732052
13
-24.000000
23
-30.000006
33
46.732052
0
3DFACE
8
0
10
-24.000000
20
-30.000006
30
46.732052
11
-24.482363
21
-21.666672
31
46.931850
12
-24.000000
22
-21.666672
32
46.732052
13
-24.000000
23
-21.666672
33
46.732052
0
3DFACE
8
0
10
-24.000000
20
-30.000006
30
46.732052
11
-24.000000
21
-21.666672
31
46.732052
12
-23.585787
22
-30.000006
32
46.414215
13
-23.585787
23
-30.000006
33
46.414215
0
3DFACE
8
0
10
-23.585787
20
-30.000006
30
46.414215
11
-24.000000
21
-21.666672
31
46.732052
12
-23.585787
22
-21.666672
32
46.414215
13
-23.585787
23
-21.666672
33
46.414215
0
3DFACE
8
0
10
-23.585787
20
-30.000006
30
46.414215
11
-23.585787
21
-21.666672
31
46.414215
12
-23.267950
22
-30.000006
32
46.000000
13
-23.267950
23
-30.000006
33
46.000000
0
3DFACE
8
0
10
-23.267950
20
-30.000006
30
46.000000
11
-23.585787
21
-21.666672
31
46.414215
12
-23.267950
22
-21.666672
32
46.000000
13
-23.267950
23
-21.666672
33
46.000000
0
3DFACE
8
0
10
-23.267950
20
-30.000006
30
46.000000
11
-23.267950
21
-21.666672
31
46.000000
12
-23.068150
22
-30.000006
32
45.517639
13
-23.068150
23
-30.000006
33
45.517639
0
3DFACE
8
0
10
-23.068150
20
-30.000006
30
45.517639
11
-23.267950
21
-21.666672
31
46.000000
12
-23.068150
22
-21.666672
32
45.517639
13
-23.068150
23
-21.666672
33
45.517639
0
3DFACE
8
0
10
-23.068150
20
-30.000006
30
45.517639
11
-23.068150
21
-21.666672
31
45.517639
12
-23.000000
22
-30.000006
32
45.000000
13
-23.000000
23
-30.000006
33
45.000000
0
3DFACE
8
0
10
-23.000000
20
-30.000006
30
45.000000
11
-23.068150
21
-21.666672
31
45.517639
12
-23.000000
22
-21.666672
32
45.000000
13
-23.000000
23
-21.666672
33
45.000000
0
3DFACE
8
0
10
-23.000000
20
-30.000006
30
45.000000
11
-23.000000
21
-21.666672
31
45.000000
12
-23.068150
22
-30.000006
32
44.482361
13
-23.068150
23
-30.000006
33
44.482361
0
3DFACE
8
0
10
-23.068150
20
-30.000006
30
44.482361
11
-23.000000
21
-21.666672
31
45.000000
12
-23.068150
22
-21.666672
32
44.482361
13
-23.068150
23
-21.666672
33
44.482361
0
3DFACE
8
0
10
-23.068150
20
-30.000006
30
44.482361
11
-23.068150
21
-21.666672
31
44.482361
12
-23.267950
22
-30.000006
32
44.000000
13
-23.267950
23
-30.000006
33
44.000000
0
3DFACE
8
0
10
-23.267950
20
-30.000006
30
44.000000
11
-23.068150
21
-21.666672
31
44.482361
12
-23.267950
22
-21.666672
32
44.000000
13
-23.267950
23
-21.666672
33
44.000000
0
3DFACE
8
0
10
-23.267950
20
-30.000006
30
44.000000
11
-23.267950
21
-21.666672
31
44.000000
12
-23.585787
22
-30.000006
32
43.585789
13
-23.585787
23
-30.000006
33
43.585789
0
3DFACE
8
0
10
-23.585787
20
-30.000006
30
43.585789
11
-23.267950
21
-21.666672
31
44.000000
12
-23.585787
22
-21.666672
32
43.585789
13
-23.585787
23
-21.666672
33
43.585789
0
3DFACE
8
0
10
-23.585787
20
-30.000006
30
43.585789
11
-23.585787
21
-21.666672
31
43.585789
12
-24.000000
22
-30.000006
32
43.267948
13
-24.000000
23
-30.000006
33
43.267948
0
3DFACE
8
0
10
-24.000000
20
-30.000006
30
43.267948
11
-23.585787
21
-21.666672
31
43.585789
12
-24.000000
22
-21.666672
32
43.267948
13
-24.000000
23
-21.666672
33
43.267948
0
3DFACE
8
0
10
-24.000000
20
-30.000006
30
43.267948
11
-24.000000
21
-21.666672
31
43.267948
12
-24.482363
22
-30.000006
32
43.068150
13
-24.482363
23
-30.000006
33
43.068150
0
3DFACE
8
0
10
-24.482363
20
-30.000006
30
43.068150
11
-24.000000
21
-21.666672
31
43.267948
12
-24.482363
22
-21.666672
32
43.068150
13
-24.482363
23
-21.666672
33
43.068150
0
3DFACE
8
0
10
-24.482363
20
-30.000006
30
43.068150
11
-24.482363
21
-21.666672
31
43.068150
12
-25.000000
22
-30.000006
32
43.000000
13
-25.000000
23
-30.000006
33
43.000000
0
3DFACE
8
0
10
-25.000000
20
-30.000006
30
43.000000
11
-24.482363
21
-21.666672
31
43.068150
12
-25.000000
22
-21.666672
32
43.000000
13
-25.000000
23
-21.666672
33
43.000000
0
3DFACE
8
0
10
-25.000000
20
-30.000006
30
43.000000
11
-25.000000
21
-21.666672
31
43.000000
12
-25.517639
22
-30.000006
32
43.068150
13
-25.517639
23
-30.000006
33
43.068150
0
3DFACE
8
0
10
-25.517639
20
-30.000006
30
43.068150
11
-25.000000
21
-21.666672
31
43.000000
12
-25.517639
22
-21.666672
32
43.068150
13
-25.517639
23
-21.666672
33
43.068150
0
3DFACE
8
0
10
-25.517639
20
-30.000006
30
43.068150
11
-25.517639
21
-21.666672
31
43.068150
12
-26.000000
22
-30.000006
32
43.267948
13
-26.000000
23
-30.000006
33
43.267948
0
3DFACE
8
0
10
-26.000000
20
-30.000006
30
43.267948
11
-25.517639
21
-21.666672
31
43.068150
12
-26.000000
22
-21.666672
32
43.267948
13
-26.000000
23
-21.666672
33
43.267948
0
3DFACE
8
0
10
-26.000000
20
-30.000006
30
43.267948
11
-26.000000
21
-21.666672
31
43.267948
12
-26.414213
22
-30.000006
32
43.585789
13
-26.414213
23
-30.000006
33
43.585789
0
3DFACE
8
0
10
-26.414213
20
-30.000006
30
43.585789
11
-26.000000
21
-21.666672
31
43.267948
12
-26.414213
22
-21.666672
32
43.585789
13
-26.414213
23
-21.666672
33
43.585789
0
3DFACE
8
0
10
-26.414213
20
-30.000006
30
43.585789
11
-26.414213
21
-21.666672
31
43.585789
12
-26.732052
22
-30.000006
32
44.000000
13
-26.732052
23
-30.000006
33
44.000000
0
3DFACE
8
0
10
-26.732052
20
-30.000006
30
44.000000
11
-26.414213
21
-21.666672
31
43.585789
12
-26.732052
22
-21.666672
32
44.000000
13
-26.732052
23
-21.666672
33
44.000000
0
3DFACE
8
0
10
-26.732052
20
-30.000006
30
44.000000
11
-26.732052
21
-21.666672
31
44.000000
12
-26.931852
22
-30.000006
32
44.482361
13
-26.931852
23
-30.000006
33
44.482361
0
3DFACE
8
0
10
-26.931852
20
-30.000006
30
44.482361
11
-26.732052
21
-21.666672
31
44.000000
12
-26.931852
22
-21.666672
32
44.482361
13
-26.931852
23
-21.666672
33
44.482361
0
3DFACE
8
0
10
-27.000000
20
-13.333336
30
45.000000
11
-27.000000
21
-21.666672
31
45.000000
12
-26.931852
22
-13.333336
32
44.482361
13
-26.931852
23
-13.333336
33
44.482361
0
3DFACE
8
0
10
-26.931852
20
-13.333336
30
44.482361
11
-27.000000
21
-21.666672
31
45.000000
12
-26.931852
22
-21.666672
32
44.482361
13
-26.931852
23
-21.666672
33
44.482361
0
3DFACE
8
0
10
-26.931852
20
-13.333336
30
44.482361
11
-26.931852
21
-21.666672
31
44.482361
12
-26.732052
22
-13.333336
32
44.000000
13
-26.732052
23
-13.333336
33
44.000000
0
3DFACE
8
0
10
-26.732052
20
-13.333336
30
44.000000
11
-26.931852
21
-21.666672
31
44.482361
12
-26.732052
22
-21.666672
32
44.000000
13
-26.732052
23
-21.666672
33
44.000000
0
3DFACE
8
0
10
-26.732052
20
-13.333336
30
44.000000
11
-26.732052
21
-21.666672
31
44.000000
12
-26.414213
22
-13.333336
32
43.585789
13
-26.414213
23
-13.333336
33
43.585789
0
3DFACE
8
0
10
-26.414213
20
-13.333336
30
43.585789
11
-26.732052
21
-21.666672
31
44.000000
12
-26.414213
22
-21.666672
32
43.585789
13
-26.414213
23
-21.666672
33
43.585789
0
3DFACE
8
0
10
-26.414213
20
-13.333336
30
43.585789
11
-26.414213
21
-21.666672
31
43.585789
12
-26.000000
22
-13.333336
32
43.267948
13
-26.000000
23
-13.333336
33
43.267948
0
3DFACE
8
0
10
-26.000000
20
-13.333336
30
43.267948
11
-26.414213
21
-21.666672
31
43.585789
12
-26.000000
22
-21.666672
32
43.267948
13
-26.000000
23
-21.666672
33
43.267948
0
3DFACE
8
0
10
-26.000000
20
-13.333336
30
43.267948
11
-26.000000
21
-21.666672
31
43.267948
12
-25.517639
22
-13.333336
32
43.068150
13
-25.517639
23
-13.333336
33
43.068150
0
3DFACE
8
0
10
-25.517639
20
-13.333336
30
43.068150
11
-26.000000
21
-21.666672
31
43.267948
12
-25.517639
22
-21.666672
32
43.068150
13
-25.517639
23
-21.666672
33
43.068150
0
3DFACE
8
0
10
-25.517639
20
-13.333336
30
43.068150
11
-25.517639
21
-21.666672
31
43.068150
12
-25.000000
22
-13.333336
32
43.000000
13
-25.000000
23
-13.333336
33
43.000000
0
3DFACE
8
0
10
-25.000000
20
-13.333336
30
43.000000
11
-25.517639
21
-21.666672
31
43.068150
12
-25.000000
22
-21.666672
32
43.000000
13
-25.000000
23
-21.666672
33
43.000000
0
3DFACE
8
0
10
-25.000000
20
-13.333336
30
43.000000
11
-25.000000
21
-21.666672
31
43.000000
12
-24.482363
22
-13.333336
32
43.068150
13
-24.482363
23
-13.333336
33
43.068150
0
3DFACE
8
0
10
-24.482363
20
-13.333336
30
43.068150
11
-25.000000
21
-21.666672
31
43.000000
12
-24.482363
22
-21.666672
32
43.068150
13
-24.482363
23
-21.666672
33
43.068150
0
3DFACE
8
0
10
-24.482363
20
-13.333336
30
43.068150
11
-24.482363
21
-21.666672
31
43.068150
12
-24.000000
22
-13.333336
32
43.267948
13
-24.000000
23
-13.333336
33
43.267948
0
3DFACE
8
0
10
-24.000000
20
-13.333336
30
43.267948
11
-24.482363
21
-21.666672
31
43.068150
12
-24.000000
22
-21.666672
32
43.267948
13
-24.000000
23
-21.666672
33
43.267948
0
3DFACE
8
0
10
-24.000000
20
-13.333336
30
43.267948
11
-24.000000
21
-21.666672
31
43.267948
12
-23.585787
22
-13.333336
32
43.585789
13
-23.585787
23
-13.333336
33
43.585789
0
3DFACE
8
0
10
-23.585787
20
-13.333336
30
43.585789
11
-24.000000
21
-21.666672
31
43.267948
12
-23.585787
22
-21.666672
32
43.585789
13
-23.585787
23
-21.666672
33
43.585789
0
3DFACE
8
0
10
-23.585787
20
-13.333336
30
43.585789
11
-23.585787
21
-21.666672
31
43.585789
12
-23.267950
22
-13.333336
32
44.000000
13
-23.267950
23
-13.333336
33
44.000000
0
3DFACE
8
0
10
-23.267950
20
-13.333336
30
44.000000
11
-23.585787
21
-21.666672
31
43.585789
12
-23.267950
22
-21.666672
32
44.000000
13
-23.267950
23
-21.666672
33
44.000000
0
3DFACE
8
0
10
-23.267950
20
-13.333336
30
44.000000
11
-23.267950
21
-21.666672
31
44.000000
12
-23.068150
22
-13.333336
32
44.482361
13
-23.068150
23
-13.333336
33
44.482361
0
3DFACE
8
0
10
-23.068150
20
-13.333336
30
44.482361
11
-23.267950
21
-21.666672
31
44.000000
12
-23.068150
22
-21.666672
32
44.482361
13
-23.068150
23
-21.666672
33
44.482361
0
3DFACE
8
0
10
-23.068150
20
-13.333336
30
44.482361
11
-23.068150
21
-21.666672
31
44.482361
12
-23.000000
22
-13.333336
32
45.000000
13
-23.000000
23
-13.333336
33
45.000000
0
3DFACE
8
0
10
-23.000000
20
-13.333336
30
45.000000
11
-23.068150
21
-21.666672
31
44.482361
12
-23.000000
22
-21.666672
32
45.000000
13
-23.000000
23
-21.666672
33
45.000000
0
3DFACE
8
0
10
-23.000000
20
-13.333336
30
45.000000
11
-23.000000
21
-21.666672
31
45.000000
12
-23.068150
22
-13.333336
32
45.517639
13
-23.068150
23
-13.333336
33
45.517639
0
3DFACE
8
0
10
-23.068150
20
-13.333336
30
45.517639
11
-23.000000
21
-21.666672
31
45.000000
12
-23.068150
22
-21.666672
32
45.517639
13
-23.068150
23
-21.666672
33
45.517639
0
3DFACE
8
0
10
-23.068150
20
-13.333336
30
45.517639
11
-23.068150
21
-21.666672
31
45.517639
12
-23.267950
22
-13.333336
32
46.000000
13
-23.267950
23
-13.333336
33
46.000000
0
3DFACE
8
0
10
-23.267950
20
-13.333336
30
46.000000
11
-23.068150
21
-21.666672
31
45.517639
12
-23.267950
22
-21.666672
32
46.000000
13
-23.267950
23
-21.666672
33
46.000000
0
3DFACE
8
0
10
-23.267950
20
-13.333336
30
46.000000
11
-23.267950
21
-21.666672
31
46.000000
12
-23.585787
22
-13.333336
32
46.414215
13
-23.585787
23
-13.333336
33
46.414215
0
3DFACE
8
0
10
-23.585787
20
-13.333336
30
46.414215
11
-23.267950
21
-21.666672
31
46.000000
12
-23.585787
22
-21.666672
32
46.414215
13
-23.585787
23
-21.666672
33
46.414215
0
3DFACE
8
0
10
-23.585787
20
-13.333336
30
46.414215
11
-23.585787
21
-21.666672
31
46.414215
12
-24.000000
22
-13.333336
32
46.732052
13
-24.000000
23
-13.333336
33
46.732052
0
3DFACE
8
0
10
-24.000000
20
-13.333336
30
46.732052
11
-23.585787
21
-21.666672
31
46.414215
12
-24.000000
22
-21.666672
32
46.732052
13
-24.000000
23
-21.666672
33
46.732052
0
3DFACE
8
0
10
-24.000000
20
-13.333336
30
46.732052
11
-24.000000
21
-21.666672
31
46.732052
12
-24.482363
22
-13.333336
32
46.931850
13
-24.482363
23
-13.333336
33
46.931850
0
3DFACE
8
0
10
-24.482363
20
-13.333336
30
46.931850
11
-24.000000
21
-21.666672
31
46.732052
12
-24.482363
22
-21.666672
32
46.931850
13
-24.482363
23
-21.666672
33
46.931850
0
3DFACE
8
0
10
-24.482363
20
-13.333336
30
46.931850
11
-24.482363
21
-21.666672
31
46.931850
12
-25.000000
22
-13.333336
32
47.000000
13
-25.000000
23
-13.333336
33
47.000000
0
3DFACE
8
0
10
-25.000000
20
-13.333336
30
47.000000
11
-24.482363
21
-21.666672
31
46.931850
12
-25.000000
22
-21.666672
32
47.000000
13
-25.000000
23
-21.666672
33
47.000000
0
3DFACE
8
0
10
-25.000000
20
-13.333336
30
47.000000
11
-25.000000
21
-21.666672
31
47.000000
12
-25.517639
22
-13.333336
32
46.931850
13
-25.517639
23
-13.333336
33
46.931850
0
3DFACE
8
0
10
-25.517639
20
-13.333336
30
46.931850
11
-25.000000
21
-21.666672
31
47.000000
12
-25.517639
22
-21.666672
32
46.931850
13
-25.517639
23
-21.666672
33
46.931850
0
3DFACE
8
0
10
-25.517639
20
-13.333336
30
46.931850
11
-25.517639
21
-21.666672
31
46.931850
12
-26.000000
22
-13.333336
32
46.732052
13
-26.000000
23
-13.333336
33
46.732052
0
3DFACE
8
0
10
-26.000000
20
-13.333336
30
46.732052
11
-25.517639
21
-21.666672
31
46.931850
12
-26.000000
22
-21.666672
32
46.732052
13
-26.000000
23
-21.666672
33
46.732052
0
3DFACE
8
0
10
-26.000000
20
-13.333336
30
46.732052
11
-26.000000
21
-21.666672
31
46.732052
12
-26.414213
22
-13.333336
32
46.414215
13
-26.414213
23
-13.333336
33
46.414215
0
3DFACE
8
0
10
-26.414213
20
-13.333336
30
46.414215
11
-26.000000
21
-21.666672
31
46.732052
12
-26.414213
22
-21.666672
32
46.414215
13
-26.414213
23
-21.666672
33
46.414215
0
3DFACE
8
0
10
-26.414213
20
-13.333336
30
46.414215
11
-26.414213
21
-21.666672
31
46.414215
12
-26.732052
22
-13.333336
32
46.000000
13
-26.732052
23
-13.333336
33
46.000000
0
3DFACE
8
0
10
-26.732052
20
-13.333336
30
46.000000
11
-26.414213
21
-21.666672
31
46.414215
12
-26.732052
22
-21.666672
32
46.000000
13
-26.732052
23
-21.666672
33
46.000000
0
3DFACE
8
0
10
-26.732052
20
-13.333336
30
46.000000
11
-26.732052
21
-21.666672
31
46.000000
12
-26.931852
22
-13.333336
32
45.517639
13
-26.931852
23
-13.333336
33
45.517639
0
3DFACE
8
0
10
-26.931852
20
-13.333336
30
45.517639
11
-26.732052
21
-21.666672
31
46.000000
12
-26.931852
22
-21.666672
32
45.517639
13
-26.931852
23
-21.666672
33
45.517639
0
3DFACE
8
0
10
-26.931852
20
-13.333336
30
45.517639
11
-26.931852
21
-21.666672
31
45.517639
12
-27.000000
22
-13.333336
32
45.000000
13
-27.000000
23
-13.333336
33
45.000000
0
3DFACE
8
0
10
-27.000000
20
-13.333336
30
45.000000
11
-26.931852
21
-21.666672
31
45.517639
12
-27.000000
22
-21.666672
32
45.000000
13
-27.000000
23
-21.666672
33
45.000000
0
3DFACE
8
0
10
23.068150
20
-5.000000
30
45.517639
11
23.068150
21
-13.333336
31
45.517639
12
23.000000
22
-5.000000
32
45.000000
13
23.000000
23
-5.000000
33
45.000000
0
3DFACE
8
0
10
23.000000
20
-5.000000
30
45.000000
11
23.068150
21
-13.333336
31
45.517639
12
23.000000
22
-13.333336
32
45.000000
13
23.000000
23
-13.333336
33
45.000000
0
3DFACE
8
0
10
23.000000
20
-5.000000
30
45.000000
11
23.000000
21
-13.333336
31
45.000000
12
23.068150
22
-5.000000
32
44.482361
13
23.068150
23
-5.000000
33
44.482361
0
3DFACE
8
0
10
23.068150
20
-5.000000
30
44.482361
11
23.000000
21
-13.333336
31
45.000000
12
23.068150
22
-13.333336
32
44.482361
13
23.068150
23
-13.333336
33
44.482361
0
3DFACE
8
0
10
23.068150
20
-5.000000
30
44.482361
11
23.068150
21
-13.333336
31
44.482361
12
23.267950
22
-5.000000
32
44.000000
13
23.267950
23
-5.000000
33
44.000000
0
3DFACE
8
0
10
23.267950
20
-5.000000
30
44.000000
11
23.068150
21
-13.333336
31
44.482361
12
23.267950
22
-13.333336
32
44.000000
13
23.267950
23
-13.333336
33
44.000000
0
3DFACE
8
0
10
23.267950
20
-5.000000
30
44.000000
11
23.267950
21
-13.333336
31
44.000000
12
23.585787
22
-5.000000
32
43.585789
13
23.585787
23
-5.000000
33
43.585789
0
3DFACE
8
0
10
23.585787
20
-5.000000
30
43.585789
11
23.267950
21
-13.333336
31
44.000000
12
23.585787
22
-13.333336
32
43.585789
13
23.585787
23
-13.333336
33
43.585789
0
3DFACE
8
0
10
23.585787
20
-5.000000
30
43.585789
11
23.585787
21
-13.333336
31
43.585789
12
24.000000
22
-5.000000
32
43.267948
13
24.000000
23
-5.000000
33
43.267948
0
3DFACE
8
0
10
24.000000
20
-5.000000
30
43.267948
11
23.585787
21
-13.333336
31
43.585789
12
24.000000
22
-13.333336
32
43.267948
13
24.000000
23
-13.333336
33
43.267948
0
3DFACE
8
0
10
24.000000
20
-5.000000
30
43.267948
11
24.000000
21
-13.333336
31
43.267948
12
24.482363
22
-5.000000
32
43.068150
13
24.482363
23
-5.000000
33
43.068150
0
3DFACE
8
0
10
24.482363
20
-5.000000
30
43.068150
11
24.000000
21
-13.333336
31
43.267948
12
24.482363
22
-13.333336
32
43.068150
13
24.482363
23
-13.333336
33
43.068150
0
3DFACE
8
0
10
24.482363
20
-5.000000
30
43.068150
11
24.482363
21
-13.333336
31
43.068150
12
25.000000
22
-5.000000
32
43.000000
13
25.000000
23
-5.000000
33
43.000000
0
3DFACE
8
0
10
25.000000
20
-5.000000
30
43.000000
11
24.482363
21
-13.333336
31
43.068150
12
25.000000
22
-13.333336
32
43.000000
13
25.000000
23
-13.333336
33
43.000000
0
3DFACE
8
0
10
25.000000
20
-5.000000
30
43.000000
11
25.000000
21
-13.333336
31
43.000000
12
25.517639
22
-5.000000
32
43.068150
13
25.517639
23
-5.000000
33
43.068150
0
3DFACE
8
0
10
25.517639
20
-5.000000
30
43.068150
11
25.000000
21
-13.333336
31
43.000000
12
25.517639
22
-13.333336
32
43.068150
13
25.517639
23
-13.333336
33
43.068150
0
3DFACE
8
0
10
25.517639
20
-5.000000
30
43.068150
11
25.517639
21
-13.333336
31
43.068150
12
26.000000
22
-5.000000
32
43.267948
13
26.000000
23
-5.000000
33
43.267948
0
3DFACE
8
0
10
26.000000
20
-5.000000
30
43.267948
11
25.517639
21
-13.333336
31
43.068150
12
26.000000
22
-13.333336
32
43.267948
13
26.000000
23
-13.333336
33
43.267948
0
3DFACE
8
0
10
26.000000
20
-5.000000
30
43.267948
11
26.000000
21
-13.333336
31
43.267948
12
26.414213
22
-5.000000
32
43.585789
13
26.414213
23
-5.000000
33
43.585789
0
3DFACE
8
0
10
26.414213
20
-5.000000
30
43.585789
11
26.000000
21
-13.333336
31
43.267948
12
26.414213
22
-13.333336
32
43.585789
13
26.414213
23
-13.333336
33
43.585789
0
3DFACE
8
0
10
26.414213
20
-5.000000
30
43.585789
11
26.414213
21
-13.333336
31
43.585789
12
26.732052
22
-5.000000
32
44.000000
13
26.732052
23
-5.000000
33
44.000000
0
3DFACE
8
0
10
26.732052
20
-5.000000
30
44.000000
11
26.414213
21
-13.333336
31
43.585789
12
26.732052
22
-13.333336
32
44.000000
13
26.732052
23
-13.333336
33
44.000000
0
3DFACE
8
0
10
26.732052
20
-5.000000
30
44.000000
11
26.732052
21
-13.333336
31
44.000000
12
26.931852
22
-5.000000
32
44.482361
13
26.931852
23
-5.000000
33
44.482361
0
3DFACE
8
0
10
26.931852
20
-5.000000
30
44.482361
11
26.732052
21
-13.333336
31
44.000000
12
26.931852
22
-13.333336
32
44.482361
13
26.931852
23
-13.333336
33
44.482361
0
3DFACE
8
0
10
26.931852
20
-5.000000
30
44.482361
11
26.931852
21
-13.333336
31
44.482361
12
27.000000
22
-5.000000
32
45.000000
13
27.000000
23
-5.000000
33
45.000000
0
3DFACE
8
0
10
27.000000
20
-5.000000
30
45.000000
11
26.931852
21
-13.333336
31
44.482361
12
27.000000
22
-13.333336
32
45.000000
13
27.000000
23
-13.333336
33
45.000000
0
3DFACE
8
0
10
27.000000
20
-5.000000
30
45.000000
11
27.000000
21
-13.333336
31
45.000000
12
26.931852
22
-5.000000
32
45.517639
13
26.931852
23
-5.000000
33
45.517639
0
3DFACE
8
0
10
26.931852
20
-5.000000
30
45.517639
11
27.000000
21
-13.333336
31
45.000000
12
26.931852
22
-13.333336
32
45.517639
13
26.931852
23
-13.333336
33
45.517639
0
3DFACE
8
0
10
26.931852
20
-5.000000
30
45.517639
11
26.931852
21
-13.333336
31
45.517639
12
26.732052
22
-5.000000
32
46.000000
13
26.732052
23
-5.000000
33
46.000000
0
3DFACE
8
0
10
26.732052
20
-5.000000
30
46.000000
11
26.931852
21
-13.333336
31
45.517639
12
26.732052
22
-13.333336
32
46.000000
13
26.732052
23
-13.333336
33
46.000000
0
3DFACE
8
0
10
26.732052
20
-5.000000
30
46.000000
11
26.732052
21
-13.333336
31
46.000000
12
26.414213
22
-5.000000
32
46.414215
13
26.414213
23
-5.000000
33
46.414215
0
3DFACE
8
0
10
26.414213
20
-5.000000
30
46.414215
11
26.732052
21
-13.333336
31
46.000000
12
26.414213
22
-13.333336
32
46.414215
13
26.414213
23
-13.333336
33
46.414215
0
3DFACE
8
0
10
26.414213
20
-5.000000
30
46.414215
11
26.414213
21
-13.333336
31
46.414215
12
26.000000
22
-5.000000
32
46.732052
13
26.000000
23
-5.000000
33
46.732052
0
3DFACE
8
0
10
26.000000
20
-5.000000
30
46.732052
11
26.414213
21
-13.333336
31
46.414215
12
26.000000
22
-13.333336
32
46.732052
13
26.000000
23
-13.333336
33
46.732052
0
3DFACE
8
0
10
26.000000
20
-5.000000
30
46.732052
11
26.000000
21
-13.333336
31
46.732052
12
25.517639
22
-5.000000
32
46.931850
13
25.517639
23
-5.000000
33
46.931850
0
3DFACE
8
0
10
25.517639
20
-5.000000
30
46.931850
11
26.000000
21
-13.333336
31
46.732052
12
25.517639
22
-13.333336
32
46.931850
13
25.517639
23
-13.333336
33
46.931850
0
3DFACE
8
0
10
25.517639
20
-5.000000
30
46.931850
11
25.517639
21
-13.333336
31
46.931850
12
25.000000
22
-5.000000
32
47.000000
13
25.000000
23
-5.000000
33
47.000000
0
3DFACE
8
0
10
25.000000
20
-5.000000
30
47.000000
11
25.517639
21
-13.333336
31
46.931850
12
25.000000
22
-13.333336
32
47.000000
13
25.000000
23
-13.333336
33
47.000000
0
3DFACE
8
0
10
25.000000
20
-5.000000
30
47.000000
11
25.000000
21
-13.333336
31
47.000000
12
24.482363
22
-5.000000
32
46.931850
13
24.482363
23
-5.000000
33
46.931850
0
3DFACE
8
0
10
24.482363
20
-5.000000
30
46.931850
11
25.000000
21
-13.333336
31
47.000000
12
24.482363
22
-13.333336
32
46.931850
13
24.482363
23
-13.333336
33
46.931850
0
3DFACE
8
0
10
24.482363
20
-5.000000
30
46.931850
11
24.482363
21
-13.333336
31
46.931850
12
24.000000
22
-5.000000
32
46.732052
13
24.000000
23
-5.000000
33
46.732052
0
3DFACE
8
0
10
24.000000
20
-5.000000
30
46.732052
11
24.482363
21
-13.333336
31
46.931850
12
24.000000
22
-13.333336
32
46.732052
13
24.000000
23
-13.333336
33
46.732052
0
3DFACE
8
0
10
24.000000
20
-5.000000
30
46.732052
11
24.000000
21
-13.333336
31
46.732052
12
23.585787
22
-5.000000
32
46.414215
13
23.585787
23
-5.000000
33
46.414215
0
3DFACE
8
0
10
23.585787
20
-5.000000
30
46.414215
11
24.000000
21
-13.333336
31
46.732052
12
23.585787
22
-13.333336
32
46.414215
13
23.585787
23
-13.333336
33
46.414215
0
3DFACE
8
0
10
23.585787
20
-5.000000
30
46.414215
11
23.585787
21
-13.333336
31
46.414215
12
23.267950
22
-5.000000
32
46.000000
13
23.267950
23
-5.000000
33
46.000000
0
3DFACE
8
0
10
23.267950
20
-5.000000
30
46.000000
11
23.585787
21
-13.333336
31
46.414215
12
23.267950
22
-13.333336
32
46.000000
13
23.267950
23
-13.333336
33
46.000000
0
3DFACE
8
0
10
23.267950
20
-5.000000
30
46.000000
11
23.267950
21
-13.333336
31
46.000000
12
23.068150
22
-5.000000
32
45.517639
13
23.068150
23
-5.000000
33
45.517639
0
3DFACE
8
0
10
23.068150
20
-5.000000
30
45.517639
11
23.267950
21
-13.333336
31
46.000000
12
23.068150
22
-13.333336
32
45.517639
13
23.068150
23
-13.333336
33
45.517639
0
3DFACE
8
0
10
23.068150
20
-30.000006
30
44.482361
11
23.068150
21
-21.666672
31
44.482361
12
23.000000
22
-30.000006
32
45.000000
13
23.000000
23
-30.000006
33
45.000000
0
3DFACE
8
0
10
23.000000
20
-30.000006
30
45.000000
11
23.068150
21
-21.666672
31
44.482361
12
23.000000
22
-21.666672
32
45.000000
13
23.000000
23
-21.666672
33
45.000000
0
3DFACE
8
0
10
23.000000
20
-30.000006
30
45.000000
11
23.000000
21
-21.666672
31
45.000000
12
23.068150
22
-30.000006
32
45.517639
13
23.068150
23
-30.000006
33
45.517639
0
3DFACE
8
0
10
23.068150
20
-30.000006
30
45.517639
11
23.000000
21
-21.666672
31
45.000000
12
23.068150
22
-21.666672
32
45.517639
13
23.068150
23
-21.666672
33
45.517639
0
3DFACE
8
0
10
23.068150
20
-30.000006
30
45.517639
11
23.068150
21
-21.666672
31
45.517639
12
23.267950
22
-30.000006
32
46.000000
13
23.267950
23
-30.000006
33
46.000000
0
3DFACE
8
0
10
23.267950
20
-30.000006
30
46.000000
11
23.068150
21
-21.666672
31
45.517639
12
23.267950
22
-21.666672
32
46.000000
13
23.267950
23
-21.666672
33
46.000000
0
3DFACE
8
0
10
23.267950
20
-30.000006
30
46.000000
11
23.267950
21
-21.666672
31
46.000000
12
23.585787
22
-30.000006
32
46.414215
13
23.585787
23
-30.000006
33
46.414215
0
3DFACE
8
0
10
23.585787
20
-30.000006
30
46.414215
11
23.267950
21
-21.666672
31
46.000000
12
23.585787
22
-21.666672
32
46.414215
13
23.585787
23
-21.666672
33
46.414215
0
3DFACE
8
0
10
23.585787
20
-30.000006
30
46.414215
11
23.585787
21
-21.666672
31
46.414215
12
24.000000
22
-30.000006
32
46.732052
13
24.000000
23
-30.000006
33
46.732052
0
3DFACE
8
0
10
24.000000
20
-30.000006
30
46.732052
11
23.585787
21
-21.666672
31
46.414215
12
24.000000
22
-21.666672
32
46.732052
13
24.000000
23
-21.666672
33
46.732052
0
3DFACE
8
0
10
24.000000
20
-30.000006
30
46.732052
11
24.000000
21
-21.666672
31
46.732052
12
24.482363
22
-30.000006
32
46.931850
13
24.482363
23
-30.000006
33
46.931850
0
3DFACE
8
0
10
24.482363
20
-30.000006
30
46.931850
11
24.000000
21
-21.666672
31
46.732052
12
24.482363
22
-21.666672
32
46.931850
13
24.482363
23
-21.666672
33
46.931850
0
3DFACE
8
0
10
24.482363
20
-30.000006
30
46.931850
11
24.482363
21
-21.666672
31
46.931850
12
25.000000
22
-30.000006
32
47.000000
13
25.000000
23
-30.000006
33
47.000000
0
3DFACE
8
0
10
25.000000
20
-30.000006
30
47.000000
11
24.482363
21
-21.666672
31
46.931850
12
25.000000
22
-21.666672
32
47.000000
13
25.000000
23
-21.666672
33
47.000000
0
3DFACE
8
0
10
25.000000
20
-30.000006
30
47.000000
11
25.000000
21
-21.666672
31
47.000000
12
25.517639
22
-30.000006
32
46.931850
13
25.517639
23
-30.000006
33
46.931850
0
3DFACE
8
0
10
25.517639
20
-30.000006
30
46.931850
11
25.000000
21
-21.666672
31
47.000000
12
25.517639
22
-21.666672
32
46.931850
13
25.517639
23
-21.666672
33
46.931850
0
3DFACE
8
0
10
25.517639
20
-30.000006
30
46.931850
11
25.517639
21
-21.666672
31
46.931850
12
26.000000
22
-30.000006
32
46.732052
13
26.000000
23
-30.000006
33
46.732052
0
3DFACE
8
0
10
26.000000
20
-30.000006
30
46.732052
11
25.517639
21
-21.666672
31
46.931850
12
26.000000
22
-21.666672
32
46.732052
13
26.000000
23
-21.666672
33
46.732052
0
3DFACE
8
0
10
26.000000
20
-30.000006
30
46.732052
11
26.000000
21
-21.666672
31
46.732052
12
26.414213
22
-30.000006
32
46.414215
13
26.414213
23
-30.000006
33
46.414215
0
3DFACE
8
0
10
26.414213
20
-30.000006
30
46.414215
11
26.000000
21
-21.666672
31
46.732052
12
26.414213
22
-21.666672
32
46.414215
13
26.414213
23
-21.666672
33
46.414215
0
3DFACE
8
0
10
26.414213
20
-30.000006
30
46.414215
11
26.414213
21
-21.666672
31
46.414215
12
26.732052
22
-30.000006
32
46.000000
13
26.732052
23
-30.000006
33
46.000000
0
3DFACE
8
0
10
26.732052
20
-30.000006
30
46.000000
11
26.414213
21
-21.666672
31
46.414215
12
26.732052
22
-21.666672
32
46.000000
13
26.732052
23
-21.666672
33
46.000000
0
3DFACE
8
0
10
26.732052
20
-30.000006
30
46.000000
11
26.732052
21
-21.666672
31
46.000000
12
26.931852
22
-30.000006
32
45.517639
13
26.931852
23
-30.000006
33
45.517639
0
3DFACE
8
0
10
26.931852
20
-30.000006
30
45.517639
11
26.732052
21
-21.666672
31
46.000000
12
26.931852
22
-21.666672
32
45.517639
13
26.931852
23
-21.666672
33
45.517639
0
3DFACE
8
0
10
26.931852
20
-30.000006
30
45.517639
11
26.931852
21
-21.666672
31
45.517639
12
27.000000
22
-30.000006
32
45.000000
13
27.000000
23
-30.000006
33
45.000000
0
3DFACE
8
0
10
27.000000
20
-30.000006
30
45.000000
11
26.931852
21
-21.666672
31
45.517639
12
27.000000
22
-21.666672
32
45.000000
13
27.000000
23
-21.666672
33
45.000000
0
3DFACE
8
0
10
27.000000
20
-30.000006
30
45.000000
11
27.000000
21
-21.666672
31
45.000000
12
26.931852
22
-30.000006
32
44.482361
13
26.931852
23
-30.000006
33
44.482361
0
3DFACE
8
0
10
26.931852
20
-30.000006
30
44.482361
11
27.000000
21
-21.666672
31
45.000000
12
26.931852
22
-21.666672
32
44.482361
13
26.931852
23
-21.666672
33
44.482361
0
3DFACE
8
0
10
26.931852
20
-30.000006
30
44.482361
11
26.931852
21
-21.666672
31
44.482361
12
26.732052
22
-30.000006
32
44.000000
13
26.732052
23
-30.000006
33
44.000000
0
3DFACE
8
0
10
26.732052
20
-30.000006
30
44.000000
11
26.931852
21
-21.666672
31
44.482361
12
26.732052
22
-21.666672
32
44.000000
13
26.732052
23
-21.666672
33
44.000000
0
3DFACE
8
0
10
26.732052
20
-30.000006
30
44.000000
11
26.732052
21
-21.666672
31
44.000000
12
26.414213
22
-30.000006
32
43.585789
13
26.414213
23
-30.000006
33
43.585789
0
3DFACE
8
0
10
26.414213
20
-30.000006
30
43.585789
11
26.732052
21
-21.666672
31
44.000000
12
26.414213
22
-21.666672
32
43.585789
13
26.414213
23
-21.666672
33
43.585789
0
3DFACE
8
0
10
26.414213
20
-30.000006
30
43.585789
11
26.414213
21
-21.666672
31
43.585789
12
26.000000
22
-30.000006
32
43.267948
13
26.000000
23
-30.000006
33
43.267948
0
3DFACE
8
0
10
26.000000
20
-30.000006
30
43.267948
11
26.414213
21
-21.666672
31
43.585789
12
26.000000
22
-21.666672
32
43.267948
13
26.000000
23
-21.666672
33
43.267948
0
3DFACE
8
0
10
26.000000
20
-30.000006
30
43.267948
11
26.000000
21
-21.666672
31
43.267948
12
25.517639
22
-30.000006
32
43.068150
13
25.517639
23
-30.000006
33
43.068150
0
3DFACE
8
0
10
25.517639
20
-30.000006
30
43.068150
11
26.000000
21
-21.666672
31
43.267948
12
25.517639
22
-21.666672
32
43.068150
13
25.517639
23
-21.666672
33
43.068150
0
3DFACE
8
0
10
25.517639
20
-30.000006
30
43.068150
11
25.517639
21
-21.666672
31
43.068150
12
25.000000
22
-30.000006
32
43.000000
13
25.000000
23
-30.000006
33
43.000000
0
3DFACE
8
0
10
25.000000
20
-30.000006
30
43.000000
11
25.517639
21
-21.666672
31
43.068150
12
25.000000
22
-21.666672
32
43.000000
13
25.000000
23
-21.666672
33
43.000000
0
3DFACE
8
0
10
25.000000
20
-30.000006
30
43.000000
11
25.000000
21
-21.666672
31
43.000000
12
24.482363
22
-30.000006
32
43.068150
13
24.482363
23
-30.000006
33
43.068150
0
3DFACE
8
0
10
24.482363
20
-30.000006
30
43.068150
11
25.000000
21
-21.666672
31
43.000000
12
24.482363
22
-21.666672
32
43.068150
13
24.482363
23
-21.666672
33
43.068150
0
3DFACE
8
0
10
24.482363
20
-30.000006
30
43.068150
11
24.482363
21
-21.666672
31
43.068150
12
24.000000
22
-30.000006
32
43.267948
13
24.000000
23
-30.000006
33
43.267948
0
3DFACE
8
0
10
24.000000
20
-30.000006
30
43.267948
11
24.482363
21
-21.666672
31
43.068150
12
24.000000
22
-21.666672
32
43.267948
13
24.000000
23
-21.666672
33
43.267948
0
3DFACE
8
0
10
24.000000
20
-30.000006
30
43.267948
11
24.000000
21
-21.666672
31
43.267948
12
23.585787
22
-30.000006
32
43.585789
13
23.585787
23
-30.000006
33
43.585789
0
3DFACE
8
0
10
23.585787
20
-30.000006
30
43.585789
11
24.000000
21
-21.666672
31
43.267948
12
23.585787
22
-21.666672
32
43.585789
13
23.585787
23
-21.666672
33
43.585789
0
3DFACE
8
0
10
23.585787
20
-30.000006
30
43.585789
11
23.585787
21
-21.666672
31
43.585789
12
23.267950
22
-30.000006
32
44.000000
13
23.267950
23
-30.000006
33
44.000000
0
3DFACE
8
0
10
23.267950
20
-30.000006
30
44.000000
11
23.585787
21
-21.666672
31
43.585789
12
23.267950
22
-21.666672
32
44.000000
13
23.267950
23
-21.666672
33
44.000000
0
3DFACE
8
0
10
23.267950
20
-30.000006
30
44.000000
11
23.267950
21
-21.666672
31
44.000000
12
23.068150
22
-30.000006
32
44.482361
13
23.068150
23
-30.000006
33
44.482361
0
3DFACE
8
0
10
23.068150
20
-30.000006
30
44.482361
11
23.267950
21
-21.666672
31
44.000000
12
23.068150
22
-21.666672
32
44.482361
13
23.068150
23
-21.666672
33
44.482361
0
3DFACE
8
0
10
23.000000
20
-13.333336
30
45.000000
11
23.000000
21
-21.666672
31
45.000000
12
23.068150
22
-13.333336
32
44.482361
13
23.068150
23
-13.333336
33
44.482361
0
3DFACE
8
0
10
23.068150
20
-13.333336
30
44.482361
11
23.000000
21
-21.666672
31
45.000000
12
23.068150
22
-21.666672
32
44.482361
13
23.068150
23
-21.666672
33
44.482361
0
3DFACE
8
0
10
23.068150
20
-13.333336
30
44.482361
11
23.068150
21
-21.666672
31
44.482361
12
23.267950
22
-13.333336
32
44.000000
13
23.267950
23
-13.333336
33
44.000000
0
3DFACE
8
0
10
23.267950
20
-13.333336
30
44.000000
11
23.068150
21
-21.666672
31
44.482361
12
23.267950
22
-21.666672
32
44.000000
13
23.267950
23
-21.666672
33
44.000000
0
3DFACE
8
0
10
23.267950
20
-13.333336
30
44.000000
11
23.267950
21
-21.666672
31
44.000000
12
23.585787
22
-13.333336
32
43.585789
13
23.585787
23
-13.333336
33
43.585789
0
3DFACE
8
0
10
23.585787
20
-13.333336
30
43.585789
11
23.267950
21
-21.666672
31
44.000000
12
23.585787
22
-21.666672
32
43.585789
13
23.585787
23
-21.666672
33
43.585789
0
3DFACE
8
0
10
23.585787
20
-13.333336
30
43.585789
11
23.585787
21
-21.666672
31
43.585789
12
24.000000
22
-13.333336
32
43.267948
13
24.000000
23
-13.333336
33
43.267948
0
3DFACE
8
0
10
24.000000
20
-13.333336
30
43.267948
11
23.585787
21
-21.666672
31
43.585789
12
24.000000
22
-21.666672
32
43.267948
13
24.000000
23
-21.666672
33
43.267948
0
3DFACE
8
0
10
24.000000
20
-13.333336
30
43.267948
11
24.000000
21
-21.666672
31
43.267948
12
24.482363
22
-13.333336
32
43.068150
13
24.482363
23
-13.333336
33
43.068150
0
3DFACE
8
0
10
24.482363
20
-13.333336
30
43.068150
11
24.000000
21
-21.666672
31
43.267948
12
24.482363
22
-21.666672
32
43.068150
13
24.482363
23
-21.666672
33
43.068150
0
3DFACE
8
0
10
24.482363
20
-13.333336
30
43.068150
11
24.482363
21
-21.666672
31
43.068150
12
25.000000
22
-13.333336
32
43.000000
13
25.000000
23
-13.333336
33
43.000000
0
3DFACE
8
0
10
25.000000
20
-13.333336
30
43.000000
11
24.482363
21
-21.666672
31
43.068150
12
25.000000
22
-21.666672
32
43.000000
13
25.000000
23
-21.666672
33
43.000000
0
3DFACE
8
0
10
25.000000
20
-13.333336
30
43.000000
11
25.000000
21
-21.666672
31
43.000000
12
25.517639
22
-13.333336
32
43.068150
13
25.517639
23
-13.333336
33
43.068150
0
3DFACE
8
0
10
25.517639
20
-13.333336
30
43.068150
11
25.000000
21
-21.666672
31
43.000000
12
25.517639
22
-21.666672
32
43.068150
13
25.517639
23
-21.666672
33
43.068150
0
3DFACE
8
0
10
25.517639
20
-13.333336
30
43.068150
11
25.517639
21
-21.666672
31
43.068150
12
26.000000
22
-13.333336
32
43.267948
13
26.000000
23
-13.333336
33
43.267948
0
3DFACE
8
0
10
26.000000
20
-13.333336
30
43.267948
11
25.517639
21
-21.666672
31
43.068150
12
26.000000
22
-21.666672
32
43.267948
13
26.000000
23
-21.666672
33
43.267948
0
3DFACE
8
0
10
26.000000
20
-13.333336
30
43.267948
11
26.000000
21
-21.666672
31
43.267948
12
26.414213
22
-13.333336
32
43.585789
13
26.414213
23
-13.333336
33
43.585789
0
3DFACE
8
0
10
26.414213
20
-13.333336
30
43.585789
11
26.000000
21
-21.666672
31
43.267948
12
26.414213
22
-21.666672
32
43.585789
13
26.414213
23
-21.666672
33
43.585789
0
3DFACE
8
0
10
26.414213
20
-13.333336
30
43.585789
11
26.414213
21
-21.666672
31
43.585789
12
26.732052
22
-13.333336
32
44.000000
13
26.732052
23
-13.333336
33
44.000000
0
3DFACE
8
0
10
26.732052
20
-13.333336
30
44.000000
11
26.414213
21
-21.666672
31
43.585789
12
26.732052
22
-21.666672
32
44.000000
13
26.732052
23
-21.666672
33
44.000000
0
3DFACE
8
0
10
26.732052
20
-13.333336
30
44.000000
11
26.732052
21
-21.666672
31
44.000000
12
26.931852
22
-13.333336
32
44.482361
13
26.931852
23
-13.333336
33
44.482361
0
3DFACE
8
0
10
26.931852
20
-13.333336
30
44.482361
11
26.732052
21
-21.666672
31
44.000000
12
26.931852
22
-21.666672
32
44.482361
13
26.931852
23
-21.666672
33
44.482361
0
3DFACE
8
0
10
26.931852
20
-13.333336
30
44.482361
11
26.931852
21
-21.666672
31
44.482361
12
27.000000
22
-13.333336
32
45.000000
13
27.000000
23
-13.333336
33
45.000000
0
3DFACE
8
0
10
27.000000
20
-13.333336
30
45.000000
11
26.931852
21
-21.666672
31
44.482361
12
27.000000
22
-21.666672
32
45.000000
13
27.000000
23
-21.666672
33
45.000000
0
3DFACE
8
0
10
27.000000
20
-13.333336
30
45.000000
11
27.000000
21
-21.666672
31
45.000000
12
26.931852
22
-13.333336
32
45.517639
13
26.931852
23
-13.333336
33
45.517639
0
3DFACE
8
0
10
26.931852
20
-13.333336
30
45.517639
11
27.000000
21
-21.666672
31
45.000000
12
26.931852
22
-21.666672
32
45.517639
13
26.931852
23
-21.666672
33
45.517639
0
3DFACE
8
0
10
26.931852
20
-13.333336
30
45.517639
11
26.931852
21
-21.666672
31
45.517639
12
26.732052
22
-13.333336
32
46.000000
13
26.732052
23
-13.333336
33
46.000000
0
3DFACE
8
0
10
26.732052
20
-13.333336
30
46.000000
11
26.931852
21
-21.666672
31
45.517639
12
26.732052
22
-21.666672
32
46.000000
13
26.732052
23
-21.666672
33
46.000000
0
3DFACE
8
0
10
26.732052
20
-13.333336
30
46.000000
11
26.732052
21
-21.666672
31
46.000000
12
26.414213
22
-13.333336
32
46.414215
13
26.414213
23
-13.333336
33
46.414215
0
3DFACE
8
0
10
26.414213
20
-13.333336
30
46.414215
11
26.732052
21
-21.666672
31
46.000000
12
26.414213
22
-21.666672
32
46.414215
13
26.414213
23
-21.666672
33
46.414215
0
3DFACE
8
0
10
26.414213
20
-13.333336
30
46.414215
11
26.414213
21
-21.666672
31
46.414215
12
26.000000
22
-13.333336
32
46.732052
13
26.000000
23
-13.333336
33
46.732052
0
3DFACE
8
0
10
26.000000
20
-13.333336
30
46.732052
11
26.414213
21
-21.666672
31
46.414215
12
26.000000
22
-21.666672
32
46.732052
13
26.000000
23
-21.666672
33
46.732052
0
3DFACE
8
0
10
26.000000
20
-13.333336
30
46.732052
11
26.000000
21
-21.666672
31
46.732052
12
25.517639
22
-13.333336
32
46.931850
13
25.517639
23
-13.333336
33
46.931850
0
3DFACE
8
0
10
25.517639
20
-13.333336
30
46.931850
11
26.000000
21
-21.666672
31
46.732052
12
25.517639
22
-21.666672
32
46.931850
13
25.517639
23
-21.666672
33
46.931850
0
3DFACE
8
0
10
25.517639
20
-13.333336
30
46.931850
11
25.517639
21
-21.666672
31
46.931850
12
25.000000
22
-13.333336
32
47.000000
13
25.000000
23
-13.333336
33
47.000000
0
3DFACE
8
0
10
25.000000
20
-13.333336
30
47.000000
11
25.517639
21
-21.666672
31
46.931850
12
25.000000
22
-21.666672
32
47.000000
13
25.000000
23
-21.666672
33
47.000000
0
3DFACE
8
0
10
25.000000
20
-13.333336
30
47.000000
11
25.000000
21
-21.666672
31
47.000000
12
24.482363
22
-13.333336
32
46.931850
13
24.482363
23
-13.333336
33
46.931850
0
3DFACE
8
0
10
24.482363
20
-13.333336
30
46.931850
11
25.000000
21
-21.666672
31
47.000000
12
24.482363
22
-21.666672
32
46.931850
13
24.482363
23
-21.666672
33
46.931850
0
3DFACE
8
0
10
24.482363
20
-13.333336
30
46.931850
11
24.482363
21
-21.666672
31
46.931850
12
24.000000
22
-13.333336
32
46.732052
13
24.000000
23
-13.333336
33
46.732052
0
3DFACE
8
0
10
24.000000
20
-13.333336
30
46.732052
11
24.482363
21
-21.666672
31
46.931850
12
24.000000
22
-21.666672
32
46.732052
13
24.000000
23
-21.666672
33
46.732052
0
3DFACE
8
0
10
24.000000
20
-13.333336
30
46.732052
11
24.000000
21
-21.666672
31
46.732052
12
23.585787
22
-13.333336
32
46.414215
13
23.585787
23
-13.333336
33
46.414215
0
3DFACE
8
0
10
23.585787
20
-13.333336
30
46.414215
11
24.000000
21
-21.666672
31
46.732052
12
23.585787
22
-21.666672
32
46.414215
13
23.585787
23
-21.666672
33
46.414215
0
3DFACE
8
0
10
23.585787
20
-13.333336
30
46.414215
11
23.585787
21
-21.666672
31
46.414215
12
23.267950
22
-13.333336
32
46.000000
13
23.267950
23
-13.333336
33
46.000000
0
3DFACE
8
0
10
23.267950
20
-13.333336
30
46.000000
11
23.585787
21
-21.666672
31
46.414215
12
23.267950
22
-21.666672
32
46.000000
13
23.267950
23
-21.666672
33
46.000000
0
3DFACE
8
0
10
23.267950
20
-13.333336
30
46.000000
11
23.267950
21
-21.666672
31
46.000000
12
23.068150
22
-13.333336
32
45.517639
13
23.068150
23
-13.333336
33
45.517639
0
3DFACE
8
0
10
23.068150
20
-13.333336
30
45.517639
11
23.267950
21
-21.666672
31
46.000000
12
23.068150
22
-21.666672
32
45.517639
13
23.068150
23
-21.666672
33
45.517639
0
3DFACE
8
0
10
23.068150
20
-13.333336
30
45.517639
11
23.068150
21
-21.666672
31
45.517639
12
23.000000
22
-13.333336
32
45.000000
13
23.000000
23
-13.333336
33
45.000000
0
3DFACE
8
0
10
23.000000
20
-13.333336
30
45.000000
11
23.068150
21
-21.666672
31
45.517639
12
23.000000
22
-21.666672
32
45.000000
13
23.000000
23
-21.666672
33
45.000000
0
3DFACE
8
0
10
-20.000000
20
-5.000000
30
60.000000
11
-20.000000
21
-30.000006
31
60.000000
12
-20.000000
22
-5.000000
32
40.000000
13
-20.000000
23
-5.000000
33
40.000000
0
3DFACE
8
0
10
-20.000000
20
-5.000000
30
40.000000
11
-20.000000
21
-30.000006
31
60.000000
12
-20.000000
22
-30.000006
32
40.000000
13
-20.000000
23
-30.000006
33
40.000000
0
3DFACE
8
0
10
-20.000000
20
-5.000000
30
60.000000
11
-30.000000
21
-5.000000
31
60.000000
12
-20.000000
22
-30.000006
32
60.000000
13
-20.000000
23
-30.000006
33
60.000000
0
3DFACE
8
0
10
-20.000000
20
-30.000006
30
60.000000
11
-30.000000
21
-5.000000
31
60.000000
12
-30.000000
22
-30.000006
32
60.000000
13
-30.000000
23
-30.000006
33
60.000000
0
3DFACE
8
0
10
-20.000000
20
-30.000006
30
40.000000
11
20.000000
21
-30.000000
31
40.000000
12
-20.000000
22
-5.000000
32
40.000000
13
-20.000000
23
-5.000000
33
40.000000
0
3DFACE
8
0
10
-20.000000
20
-5.000000
30
40.000000
11
20.000000
21
-30.000000
31
40.000000
12
20.000000
22
-5.000000
32
40.000000
13
20.000000
23
-5.000000
33
40.000000
0
3DFACE
8
0
10
-20.000000
20
-5.000000
30
40.000000
11
20.000000
21
-5.000000
31
40.000000
12
-30.000000
22
30.000000
32
40.000000
13
-30.000000
23
30.000000
33
40.000000
0
3DFACE
8
0
10
-30.000000
20
30.000000
30
40.000000
11
20.000000
21
-5.000000
31
40.000000
12
30.000000
22
30.000000
32
40.000000
13
30.000000
23
30.000000
33
40.000000
0
3DFACE
8
0
10
30.000000
20
30.000000
30
40.000000
11
20.000000
21
-5.000000
31
40.000000
12
30.000000
22
-5.000000
32
40.000000
13
30.000000
23
-5.000000
33
40.000000
0
3DFACE
8
0
10
-30.000000
20
30.000000
30
40.000000
11
-30.000000
21
-5.000000
31
40.000000
12
-20.000000
22
-5.000000
32
40.000000
13
-20.000000
23
-5.000000
33
40.000000
0
3DFACE
8
0
10
-26.931852
20
-30.000006
30
54.482361
11
-27.000000
21
-30.000006
31
55.000000
12
-30.000000
22
-30.000006
32
60.000000
13
-30.000000
23
-30.000006
33
60.000000
0
3DFACE
8
0
10
-30.000000
20
-30.000006
30
60.000000
11
-27.000000
21
-30.000006
31
55.000000
12
-26.931852
22
-30.000006
32
55.517639
13
-26.931852
23
-30.000006
33
55.517639
0
3DFACE
8
0
10
-30.000000
20
-30.000006
30
60.000000
11
-26.931852
21
-30.000006
31
55.517639
12
-26.732052
22
-30.000006
32
56.000000
13
-26.732052
23
-30.000006
33
56.000000
0
3DFACE
8
0
10
-26.732052
20
-30.000006
30
56.000000
11
-26.414213
21
-30.000006
31
56.414215
12
-30.000000
22
-30.000006
32
60.000000
13
-30.000000
23
-30.000006
33
60.000000
0
3DFACE
8
0
10
-30.000000
20
-30.000006
30
60.000000
11
-26.414213
21
-30.000006
31
56.414215
12
-26.000000
22
-30.000006
32
56.732052
13
-26.000000
23
-30.000006
33
56.732052
0
3DFACE
8
0
10
-30.000000
20
-30.000006
30
60.000000
11
-26.000000
21
-30.000006
31
56.732052
12
-25.517639
22
-30.000006
32
56.931854
13
-25.517639
23
-30.000006
33
56.931854
0
3DFACE
8
0
10
-25.517639
20
-30.000006
30
56.931854
11
-25.000000
21
-30.000006
31
57.000000
12
-30.000000
22
-30.000006
32
60.000000
13
-30.000000
23
-30.000006
33
60.000000
0
3DFACE
8
0
10
-30.000000
20
-30.000006
30
60.000000
11
-25.000000
21
-30.000006
31
57.000000
12
-20.000000
22
-30.000006
32
60.000000
13
-20.000000
23
-30.000006
33
60.000000
0
3DFACE
8
0
10
-20.000000
20
-30.000006
30
60.000000
11
-25.000000
21
-30.000006
31
57.000000
12
-24.482363
22
-30.000006
32
56.931854
13
-24.482363
23
-30.000006
33
56.931854
0
3DFACE
8
0
10
-20.000000
20
-30.000006
30
60.000000
11
-24.482363
21
-30.000006
31
56.931854
12
-24.000000
22
-30.000006
32
56.732052
13
-24.000000
23
-30.000006
33
56.732052
0
3DFACE
8
0
10
-24.000000
20
-30.000006
30
56.732052
11
-23.585787
21
-30.000006
31
56.414215
12
-20.000000
22
-30.000006
32
60.000000
13
-20.000000
23
-30.000006
33
60.000000
0
3DFACE
8
0
10
-20.000000
20
-30.000006
30
60.000000
11
-23.585787
21
-30.000006
31
56.414215
12
-23.267950
22
-30.000006
32
56.000000
13
-23.267950
23
-30.000006
33
56.000000
0
3DFACE
8
0
10
-20.000000
20
-30.000006
30
60.000000
11
-23.267950
21
-30.000006
31
56.000000
12
-23.068150
22
-30.000006
32
55.517639
13
-23.068150
23
-30.000006
33
55.517639
0
3DFACE
8
0
10
-23.068150
20
-30.000006
30
55.517639
11
-23.000000
21
-30.000006
31
55.000000
12
-20.000000
22
-30.000006
32
60.000000
13
-20.000000
23
-30.000006
33
60.000000
0
3DFACE
8
0
10
-20.000000
20
-30.000006
30
60.000000
11
-23.000000
21
-30.000006
31
55.000000
12
-23.068150
22
-30.000006
32
54.482361
13
-23.068150
23
-30.000006
33
54.482361
0
3DFACE
8
0
10
-20.000000
20
-30.000006
30
60.000000
11
-23.068150
21
-30.000006
31
54.482361
12
-23.068150
22
-30.000006
32
45.517639
13
-23.068150
23
-30.000006
33
45.517639
0
3DFACE
8
0
10
-23.068150
20
-30.000006
30
45.517639
11
-23.068150
21
-30.000006
31
54.482361
12
-23.267950
22
-30.000006
32
46.000000
13
-23.267950
23
-30.000006
33
46.000000
0
3DFACE
8
0
10
-23.267950
20
-30.000006
30
46.000000
11
-23.068150
21
-30.000006
31
54.482361
12
-23.267950
22
-30.000006
32
54.000000
13
-23.267950
23
-30.000006
33
54.000000
0
3DFACE
8
0
10
-23.267950
20
-30.000006
30
46.000000
11
-23.267950
21
-30.000006
31
54.000000
12
-23.585787
22
-30.000006
32
53.585789
13
-23.585787
23
-30.000006
33
53.585789
0
3DFACE
8
0
10
-23.267950
20
-30.000006
30
46.000000
11
-23.585787
21
-30.000006
31
53.585789
12
-23.585787
22
-30.000006
32
46.414215
13
-23.585787
23
-30.000006
33
46.414215
0
3DFACE
8
0
10
-23.585787
20
-30.000006
30
46.414215
11
-23.585787
21
-30.000006
31
53.585789
12
-24.000000
22
-30.000006
32
53.267948
13
-24.000000
23
-30.000006
33
53.267948
0
3DFACE
8
0
10
-23.585787
20
-30.000006
30
46.414215
11
-24.000000
21
-30.000006
31
53.267948
12
-24.000000
22
-30.000006
32
46.732052
13
-24.000000
23
-30.000006
33
46.732052
0
3DFACE
8
0
10
-24.000000
20
-30.000006
30
46.732052
11
-24.000000
21
-30.000006
31
53.267948
12
-24.482363
22
-30.000006
32
53.068150
13
-24.482363
23
-30.000006
33
53.068150
0
3DFACE
8
0
10
-24.000000
20
-30.000006
30
46.732052
11
-24.482363
21
-30.000006
31
53.068150
12
-24.482363
22
-30.000006
32
46.931850
13
-24.482363
23
-30.000006
33
46.931850
0
3DFACE
8
0
10
-24.482363
20
-30.000006
30
46.931850
11
-24.482363
21
-30.000006
31
53.068150
12
-25.000000
22
-30.000006
32
53.000000
13
-25.000000
23
-30.000006
33
53.000000
0
3DFACE
8
0
10
-24.482363
20
-30.000006
30
46.931850
11
-25.000000
21
-30.000006
31
53.000000
12
-25.000000
22
-30.000006
32
47.000000
13
-25.000000
23
-30.000006
33
47.000000
0
3DFACE
8
0
10
-25.000000
20
-30.000006
30
47.000000
11
-25.000000
21
-30.000006
31
53.000000
12
-25.517639
22
-30.000006
32
46.931850
13
-25.517639
23
-30.000006
33
46.931850
0
3DFACE
8
0
10
-25.517639
20
-30.000006
30
46.931850
11
-25.000000
21
-30.000006
31
53.000000
12
-25.517639
22
-30.000006
32
53.068150
13
-25.517639
23
-30.000006
33
53.068150
0
3DFACE
8
0
10
-25.517639
20
-30.000006
30
46.931850
11
-25.517639
21
-30.000006
31
53.068150
12
-26.000000
22
-30.000006
32
46.732052
13
-26.000000
23
-30.000006
33
46.732052
0
3DFACE
8
0
10
-26.000000
20
-30.000006
30
46.732052
11
-25.517639
21
-30.000006
31
53.068150
12
-26.000000
22
-30.000006
32
53.267948
13
-26.000000
23
-30.000006
33
53.267948
0
3DFACE
8
0
10
-26.000000
20
-30.000006
30
46.732052
11
-26.000000
21
-30.000006
31
53.267948
12
-26.414213
22
-30.000006
32
46.414215
13
-26.414213
23
-30.000006
33
46.414215
0
3DFACE
8
0
10
-26.414213
20
-30.000006
30
46.414215
11
-26.000000
21
-30.000006
31
53.267948
12
-26.414213
22
-30.000006
32
53.585789
13
-26.414213
23
-30.000006
33
53.585789
0
3DFACE
8
0
10
-26.414213
20
-30.000006
30
46.414215
11
-26.414213
21
-30.000006
31
53.585789
12
-26.732052
22
-30.000006
32
46.000000
13
-26.732052
23
-30.000006
33
46.000000
0
3DFACE
8
0
10
-26.732052
20
-30.000006
30
46.000000
11
-26.414213
21
-30.000006
31
53.585789
12
-26.732052
22
-30.000006
32
54.000000
13
-26.732052
23
-30.000006
33
54.000000
0
3DFACE
8
0
10
-26.732052
20
-30.000006
30
46.000000
11
-26.732052
21
-30.000006
31
54.000000
12
-26.931852
22
-30.000006
32
45.517639
13
-26.931852
23
-30.000006
33
45.517639
0
3DFACE
8
0
10
-26.931852
20
-30.000006
30
45.517639
11
-26.732052
21
-30.000006
31
54.000000
12
-26.931852
22
-30.000006
32
54.482361
13
-26.931852
23
-30.000006
33
54.482361
0
3DFACE
8
0
10
-26.931852
20
-30.000006
30
45.517639
11
-26.931852
21
-30.000006
31
54.482361
12
-30.000000
22
-30.000006
32
60.000000
13
-30.000000
23
-30.000006
33
60.000000
0
3DFACE
8
0
10
23.068150
20
-30.000006
30
54.482361
11
23.000000
21
-30.000006
31
55.000000
12
20.000000
22
-30.000000
32
60.000000
13
20.000000
23
-30.000000
33
60.000000
0
3DFACE
8
0
10
20.000000
20
-30.000000
30
60.000000
11
23.000000
21
-30.000006
31
55.000000
12
23.068150
22
-30.000006
32
55.517639
13
23.068150
23
-30.000006
33
55.517639
0
3DFACE
8
0
10
20.000000
20
-30.000000
30
60.000000
11
23.068150
21
-30.000006
31
55.517639
12
23.267950
22
-30.000006
32
56.000000
13
23.267950
23
-30.000006
33
56.000000
0
3DFACE
8
0
10
23.267950
20
-30.000006
30
56.000000
11
23.585787
21
-30.000006
31
56.414215
12
20.000000
22
-30.000000
32
60.000000
13
20.000000
23
-30.000000
33
60.000000
0
3DFACE
8
0
10
20.000000
20
-30.000000
30
60.000000
11
23.585787
21
-30.000006
31
56.414215
12
24.000000
22
-30.000006
32
56.732052
13
24.000000
23
-30.000006
33
56.732052
0
3DFACE
8
0
10
20.000000
20
-30.000000
30
60.000000
11
24.000000
21
-30.000006
31
56.732052
12
24.482363
22
-30.000006
32
56.931854
13
24.482363
23
-30.000006
33
56.931854
0
3DFACE
8
0
10
24.482363
20
-30.000006
30
56.931854
11
25.000000
21
-30.000006
31
57.000000
12
20.000000
22
-30.000000
32
60.000000
13
20.000000
23
-30.000000
33
60.000000
0
3DFACE
8
0
10
20.000000
20
-30.000000
30
60.000000
11
25.000000
21
-30.000006
31
57.000000
12
30.000000
22
-30.000000
32
60.000000
13
30.000000
23
-30.000000
33
60.000000
0
3DFACE
8
0
10
30.000000
20
-30.000000
30
60.000000
11
25.000000
21
-30.000006
31
57.000000
12
25.517639
22
-30.000006
32
56.931854
13
25.517639
23
-30.000006
33
56.931854
0
3DFACE
8
0
10
30.000000
20
-30.000000
30
60.000000
11
25.517639
21
-30.000006
31
56.931854
12
26.000000
22
-30.000006
32
56.732052
13
26.000000
23
-30.000006
33
56.732052
0
3DFACE
8
0
10
26.000000
20
-30.000006
30
56.732052
11
26.414213
21
-30.000006
31
56.414215
12
30.000000
22
-30.000000
32
60.000000
13
30.000000
23
-30.000000
33
60.000000
0
3DFACE
8
0
10
30.000000
20
-30.000000
30
60.000000
11
26.414213
21
-30.000006
31
56.414215
12
26.732052
22
-30.000006
32
56.000000
13
26.732052
23
-30.000006
33
56.000000
0
3DFACE
8
0
10
30.000000
20
-30.000000
30
60.000000
11
26.732052
21
-30.000006
31
56.000000
12
26.931852
22
-30.000006
32
55.517639
13
26.931852
23
-30.000006
33
55.517639
0
3DFACE
8
0
10
26.931852
20
-30.000006
30
55.517639
11
27.000000
21
-30.000006
31
55.000000
12
30.000000
22
-30.000000
32
60.000000
13
30.000000
23
-30.000000
33
60.000000
0
3DFACE
8
0
10
30.000000
20
-30.000000
30
60.000000
11
27.000000
21
-30.000006
31
55.000000
12
26.931852
22
-30.000006
32
54.482361
13
26.931852
23
-30.000006
33
54.482361
0
3DFACE
8
0
10
30.000000
20
-30.000000
30
60.000000
11
26.931852
21
-30.000006
31
54.482361
12
26.931852
22
-30.000006
32
45.517639
13
26.931852
23
-30.000006
33
45.517639
0
3DFACE
8
0
10
26.931852
20
-30.000006
30
45.517639
11
26.931852
21
-30.000006
31
54.482361
12
26.732052
22
-30.000006
32
46.000000
13
26.732052
23
-30.000006
33
46.000000
0
3DFACE
8
0
10
26.732052
20
-30.000006
30
46.000000
11
26.931852
21
-30.000006
31
54.482361
12
26.732052
22
-30.000006
32
54.000000
13
26.732052
23
-30.000006
33
54.000000
0
3DFACE
8
0
10
26.732052
20
-30.000006
30
46.000000
11
26.732052
21
-30.000006
31
54.000000
12
26.414213
22
-30.000006
32
53.585789
13
26.414213
23
-30.000006
33
53.585789
0
3DFACE
8
0
10
26.732052
20
-30.000006
30
46.000000
11
26.414213
21
-30.000006
31
53.585789
12
26.414213
22
-30.000006
32
46.414215
13
26.414213
23
-30.000006
33
46.414215
0
3DFACE
8
0
10
26.414213
20
-30.000006
30
46.414215
11
26.414213
21
-30.000006
31
53.585789
12
26.000000
22
-30.000006
32
53.267948
13
26.000000
23
-30.000006
33
53.267948
0
3DFACE
8
0
10
26.414213
20
-30.000006
30
46.414215
11
26.000000
21
-30.000006
31
53.267948
12
26.000000
22
-30.000006
32
46.732052
13
26.000000
23
-30.000006
33
46.732052
0
3DFACE
8
0
10
26.000000
20
-30.000006
30
46.732052
11
26.000000
21
-30.000006
31
53.267948
12
25.517639
22
-30.000006
32
53.068150
13
25.517639
23
-30.000006
33
53.068150
0
3DFACE
8
0
10
26.000000
20
-30.000006
30
46.732052
11
25.517639
21
-30.000006
31
53.068150
12
25.517639
22
-30.000006
32
46.931850
13
25.517639
23
-30.000006
33
46.931850
0
3DFACE
8
0
10
25.517639
20
-30.000006
30
46.931850
11
25.517639
21
-30.000006
31
53.068150
12
25.000000
22
-30.000006
32
53.000000
13
25.000000
23
-30.000006
33
53.000000
0
3DFACE
8
0
10
25.517639
20
-30.000006
30
46.931850
11
25.000000
21
-30.000006
31
53.000000
12
25.000000
22
-30.000006
32
47.000000
13
25.000000
23
-30.000006
33
47.000000
0
3DFACE
8
0
10
25.000000
20
-30.000006
30
47.000000
11
25.000000
21
-30.000006
31
53.000000
12
24.482363
22
-30.000006
32
46.931850
13
24.482363
23
-30.000006
33
46.931850
0
3DFACE
8
0
10
24.482363
20
-30.000006
30
46.931850
11
25.000000
21
-30.000006
31
53.000000
12
24.482363
22
-30.000006
32
53.068150
13
24.482363
23
-30.000006
33
53.068150
0
3DFACE
8
0
10
24.482363
20
-30.000006
30
46.931850
11
24.482363
21
-30.000006
31
53.068150
12
24.000000
22
-30.000006
32
46.732052
13
24.000000
23
-30.000006
33
46.732052
0
3DFACE
8
0
10
24.000000
20
-30.000006
30
46.732052
11
24.482363
21
-30.000006
31
53.068150
12
24.000000
22
-30.000006
32
53.267948
13
24.000000
23
-30.000006
33
53.267948
0
3DFACE
8
0
10
24.000000
20
-30.000006
30
46.732052
11
24.000000
21
-30.000006
31
53.267948
12
23.585787
22
-30.000006
32
46.414215
13
23.585787
23
-30.000006
33
46.414215
0
3DFACE
8
0
10
23.585787
20
-30.000006
30
46.414215
11
24.000000
21
-30.000006
31
53.267948
12
23.585787
22
-30.000006
32
53.585789
13
23.585787
23
-30.000006
33
53.585789
0
3DFACE
8
0
10
23.585787
20
-30.000006
30
46.414215
11
23.585787
21
-30.000006
31
53.585789
12
23.267950
22
-30.000006
32
46.000000
13
23.267950
23
-30.000006
33
46.000000
0
3DFACE
8
0
10
23.267950
20
-30.000006
30
46.000000
11
23.585787
21
-30.000006
31
53.585789
12
23.267950
22
-30.000006
32
54.000000
13
23.267950
23
-30.000006
33
54.000000
0
3DFACE
8
0
10
23.267950
20
-30.000006
30
46.000000
11
23.267950
21
-30.000006
31
54.000000
12
23.068150
22
-30.000006
32
54.482361
13
23.068150
23
-30.000006
33
54.482361
0
3DFACE
8
0
10
-26.931852
20
-30.000006
30
45.517639
11
-30.000000
21
-30.000006
31
60.000000
12
-27.000000
22
-30.000006
32
45.000000
13
-27.000000
23
-30.000006
33
45.000000
0
3DFACE
8
0
10
-27.000000
20
-30.000006
30
45.000000
11
-30.000000
21
-30.000006
31
60.000000
12
-30.000000
22
-30.000006
32
10.000000
13
-30.000000
23
-30.000006
33
10.000000
0
3DFACE
8
0
10
-27.000000
20
-30.000006
30
45.000000
11
-30.000000
21
-30.000006
31
10.000000
12
-26.931852
22
-30.000006
32
44.482361
13
-26.931852
23
-30.000006
33
44.482361
0
3DFACE
8
0
10
-26.931852
20
-30.000006
30
44.482361
11
-30.000000
21
-30.000006
31
10.000000
12
-26.732052
22
-30.000006
32
44.000000
13
-26.732052
23
-30.000006
33
44.000000
0
3DFACE
8
0
10
-26.732052
20
-30.000006
30
44.000000
11
-30.000000
21
-30.000006
31
10.000000
12
-26.414213
22
-30.000006
32
43.585789
13
-26.414213
23
-30.000006
33
43.585789
0
3DFACE
8
0
10
-26.414213
20
-30.000006
30
43.585789
11
-30.000000
21
-30.000006
31
10.000000
12
-26.000000
22
-30.000006
32
43.267948
13
-26.000000
23
-30.000006
33
43.267948
0
3DFACE
8
0
10
-26.000000
20
-30.000006
30
43.267948
11
-30.000000
21
-30.000006
31
10.000000
12
-25.517639
22
-30.000006
32
43.068150
13
-25.517639
23
-30.000006
33
43.068150
0
3DFACE
8
0
10
-25.517639
20
-30.000006
30
43.068150
11
-30.000000
21
-30.000006
31
10.000000
12
-20.000000
22
-30.000006
32
40.000000
13
-20.000000
23
-30.000006
33
40.000000
0
3DFACE
8
0
10
-25.517639
20
-30.000006
30
43.068150
11
-20.000000
21
-30.000006
31
40.000000
12
-25.000000
22
-30.000006
32
43.000000
13
-25.000000
23
-30.000006
33
43.000000
0
3DFACE
8
0
10
-25.000000
20
-30.000006
30
43.000000
11
-20.000000
21
-30.000006
31
40.000000
12
-24.482363
22
-30.000006
32
43.068150
13
-24.482363
23
-30.000006
33
43.068150
0
3DFACE
8
0
10
-24.482363
20
-30.000006
30
43.068150
11
-20.000000
21
-30.000006
31
40.000000
12
-24.000000
22
-30.000006
32
43.267948
13
-24.000000
23
-30.000006
33
43.267948
0
3DFACE
8
0
10
-24.000000
20
-30.000006
30
43.267948
11
-20.000000
21
-30.000006
31
40.000000
12
-23.585787
22
-30.000006
32
43.585789
13
-23.585787
23
-30.000006
33
43.585789
0
3DFACE
8
0
10
-23.585787
20
-30.000006
30
43.585789
11
-20.000000
21
-30.000006
31
40.000000
12
-23.267950
22
-30.000006
32
44.000000
13
-23.267950
23
-30.000006
33
44.000000
0
3DFACE
8
0
10
-23.267950
20
-30.000006
30
44.000000
11
-20.000000
21
-30.000006
31
40.000000
12
-23.068150
22
-30.000006
32
44.482361
13
-23.068150
23
-30.000006
33
44.482361
0
3DFACE
8
0
10
-23.068150
20
-30.000006
30
44.482361
11
-20.000000
21
-30.000006
31
40.000000
12
-23.000000
22
-30.000006
32
45.000000
13
-23.000000
23
-30.000006
33
45.000000
0
3DFACE
8
0
10
-23.000000
20
-30.000006
30
45.000000
11
-20.000000
21
-30.000006
31
40.000000
12
-23.068150
22
-30.000006
32
45.517639
13
-23.068150
23
-30.000006
33
45.517639
0
3DFACE
8
0
10
-23.068150
20
-30.000006
30
45.517639
11
-20.000000
21
-30.000006
31
40.000000
12
-20.000000
22
-30.000006
32
60.000000
13
-20.000000
23
-30.000006
33
60.000000
0
3DFACE
8
0
10
23.068150
20
-30.000006
30
44.482361
11
23.000000
21
-30.000006
31
45.000000
12
20.000000
22
-30.000000
32
40.000000
13
20.000000
23
-30.000000
33
40.000000
0
3DFACE
8
0
10
20.000000
20
-30.000000
30
40.000000
11
23.000000
21
-30.000006
31
45.000000
12
23.068150
22
-30.000006
32
45.517639
13
23.068150
23
-30.000006
33
45.517639
0
3DFACE
8
0
10
20.000000
20
-30.000000
30
40.000000
11
23.068150
21
-30.000006
31
45.517639
12
20.000000
22
-30.000000
32
60.000000
13
20.000000
23
-30.000000
33
60.000000
0
3DFACE
8
0
10
20.000000
20
-30.000000
30
60.000000
11
23.068150
21
-30.000006
31
45.517639
12
23.068150
22
-30.000006
32
54.482361
13
23.068150
23
-30.000006
33
54.482361
0
3DFACE
8
0
10
23.068150
20
-30.000006
30
45.517639
11
23.267950
21
-30.000006
31
46.000000
12
23.068150
22
-30.000006
32
54.482361
13
23.068150
23
-30.000006
33
54.482361
0
3DFACE
8
0
10
30.000000
20
-30.000000
30
60.000000
11
26.931852
21
-30.000006
31
45.517639
12
30.000000
22
-30.000006
32
40.000000
13
30.000000
23
-30.000006
33
40.000000
0
3DFACE
8
0
10
30.000000
20
-30.000006
30
40.000000
11
26.931852
21
-30.000006
31
45.517639
12
27.000000
22
-30.000006
32
45.000000
13
27.000000
23
-30.000006
33
45.000000
0
3DFACE
8
0
10
30.000000
20
-30.000006
30
40.000000
11
27.000000
21
-30.000006
31
45.000000
12
26.931852
22
-30.000006
32
44.482361
13
26.931852
23
-30.000006
33
44.482361
0
3DFACE
8
0
10
26.931852
20
-30.000006
30
44.482361
11
26.732052
21
-30.000006
31
44.000000
12
30.000000
22
-30.000006
32
40.000000
13
30.000000
23
-30.000006
33
40.000000
0
3DFACE
8
0
10
30.000000
20
-30.000006
30
40.000000
11
26.732052
21
-30.000006
31
44.000000
12
26.414213
22
-30.000006
32
43.585789
13
26.414213
23
-30.000006
33
43.585789
0
3DFACE
8
0
10
30.000000
20
-30.000006
30
40.000000
11
26.414213
21
-30.000006
31
43.585789
12
26.000000
22
-30.000006
32
43.267948
13
26.000000
23
-30.000006
33
43.267948
0
3DFACE
8
0
10
26.000000
20
-30.000006
30
43.267948
11
25.517639
21
-30.000006
31
43.068150
12
30.000000
22
-30.000006
32
40.000000
13
30.000000
23
-30.000006
33
40.000000
0
3DFACE
8
0
10
30.000000
20
-30.000006
30
40.000000
11
25.517639
21
-30.000006
31
43.068150
12
25.000000
22
-30.000006
32
43.000000
13
25.000000
23
-30.000006
33
43.000000
0
3DFACE
8
0
10
30.000000
20
-30.000006
30
40.000000
11
25.000000
21
-30.000006
31
43.000000
12
20.000000
22
-30.000000
32
40.000000
13
20.000000
23
-30.000000
33
40.000000
0
3DFACE
8
0
10
20.000000
20
-30.000000
30
40.000000
11
25.000000
21
-30.000006
31
43.000000
12
24.482363
22
-30.000006
32
43.068150
13
24.482363
23
-30.000006
33
43.068150
0
3DFACE
8
0
10
20.000000
20
-30.000000
30
40.000000
11
24.482363
21
-30.000006
31
43.068150
12
24.000000
22
-30.000006
32
43.267948
13
24.000000
23
-30.000006
33
43.267948
0
3DFACE
8
0
10
24.000000
20
-30.000006
30
43.267948
11
23.585787
21
-30.000006
31
43.585789
12
20.000000
22
-30.000000
32
40.000000
13
20.000000
23
-30.000000
33
40.000000
0
3DFACE
8
0
10
20.000000
20
-30.000000
30
40.000000
11
23.585787
21
-30.000006
31
43.585789
12
23.267950
22
-30.000006
32
44.000000
13
23.267950
23
-30.000006
33
44.000000
0
3DFACE
8
0
10
20.000000
20
-30.000000
30
40.000000
11
23.267950
21
-30.000006
31
44.000000
12
23.068150
22
-30.000006
32
44.482361
13
23.068150
23
-30.000006
33
44.482361
0
3DFACE
8
0
10
-45.000000
20
-30.000006
30
10.000000
11
-45.000000
21
-30.000006
31
0.000000
12
-30.000000
22
-30.000006
32
10.000000
13
-30.000000
23
-30.000006
33
10.000000
0
3DFACE
8
0
10
-30.000000
20
-30.000006
30
10.000000
11
-45.000000
21
-30.000006
31
0.000000
12
45.000000
22
-30.000006
32
0.000000
13
45.000000
23
-30.000006
33
0.000000
0
3DFACE
8
0
10
-30.000000
20
-30.000006
30
10.000000
11
45.000000
21
-30.000006
31
0.000000
12
30.000000
22
-30.000006
32
10.000000
13
30.000000
23
-30.000006
33
10.000000
0
3DFACE
8
0
10
30.000000
20
-30.000006
30
10.000000
11
45.000000
21
-30.000006
31
0.000000
12
45.000000
22
-30.000006
32
10.000000
13
45.000000
23
-30.000006
33
10.000000
0
3DFACE
8
0
10
30.000000
20
-30.000006
30
40.000000
11
20.000000
21
-30.000000
31
40.000000
12
30.000000
22
-30.000006
32
10.000000
13
30.000000
23
-30.000006
33
10.000000
0
3DFACE
8
0
10
30.000000
20
-30.000006
30
10.000000
11
20.000000
21
-30.000000
31
40.000000
12
-20.000000
22
-30.000006
32
40.000000
13
-20.000000
23
-30.000006
33
40.000000
0
3DFACE
8
0
10
30.000000
20
-30.000006
30
10.000000
11
-20.000000
21
-30.000006
31
40.000000
12
-30.000000
22
-30.000006
32
10.000000
13
-30.000000
23
-30.000006
33
10.000000
0
3DFACE
8
0
10
45.000000
20
-30.000006
30
0.000000
11
-45.000000
21
-30.000006
31
0.000000
12
45.000000
22
30.000000
32
0.000000
13
45.000000
23
30.000000
33
0.000000
0
3DFACE
8
0
10
45.000000
20
30.000000
30
0.000000
11
-45.000000
21
-30.000006
31
0.000000
12
-45.000000
22
30.000000
32
0.000000
13
-45.000000
23
30.000000
33
0.000000
0
ENDSEC
0
EOF
