999
DXF created by VCGLib
0
SECTION
2
HEADER
9
$ACADVER
1
AC1009
9
$INSBASE
10
0.0
20
0.0
30
0.0
9
$EXTMIN
10
-49.886658
20
-49.886658
9
$EXTMAX
10
50.113342
20
50.113342
9
$LINMIN
10
-49.886658
20
-49.886658
9
$LINMAX
10
50.113342
20
50.113342
0
ENDSEC
0
SECTION
2
ENTITIES
0
3DFACE
8
0
10
-21.312759
20
9.973279
30
0.000000
11
-21.312759
21
9.973279
31
10.000000
12
-21.312759
22
10.000000
32
0.000000
13
-21.312759
23
10.000000
33
0.000000
0
3DFACE
8
0
10
-21.312759
20
10.000000
30
0.000000
11
-21.312759
21
9.973279
31
10.000000
12
-21.312759
22
10.000000
32
10.000000
13
-21.312759
23
10.000000
33
10.000000
0
3DFACE
8
0
10
-30.000000
20
-10.026721
30
0.000000
11
-30.000000
21
10.000000
31
0.000000
12
-30.000000
22
-10.026721
32
10.000000
13
-30.000000
23
-10.026721
33
10.000000
0
3DFACE
8
0
10
-30.000000
20
-10.026721
30
10.000000
11
-30.000000
21
10.000000
31
0.000000
12
-30.000000
22
10.000000
32
10.000000
13
-30.000000
23
10.000000
33
10.000000
0
3DFACE
8
0
10
-30.000000
20
10.000000
30
0.000000
11
-21.312759
21
10.000000
31
0.000000
12
-30.000000
22
10.000000
32
10.000000
13
-30.000000
23
10.000000
33
10.000000
0
3DFACE
8
0
10
-30.000000
20
10.000000
30
10.000000
11
-21.312759
21
10.000000
31
0.000000
12
-21.312759
22
10.000000
32
10.000000
13
-21.312759
23
10.000000
33
10.000000
0
3DFACE
8
0
10
-24.034075
20
-5.258819
30
10.000000
11
-24.000000
21
-5.000000
31
10.000000
12
-21.312759
22
-10.026721
32
10.000000
13
-21.312759
23
-10.026721
33
10.000000
0
3DFACE
8
0
10
-21.312759
20
-10.026721
30
10.000000
11
-24.000000
21
-5.000000
31
10.000000
12
-24.034075
22
-4.741181
32
10.000000
13
-24.034075
23
-4.741181
33
10.000000
0
3DFACE
8
0
10
-21.312759
20
-10.026721
30
10.000000
11
-24.034075
21
-4.741181
31
10.000000
12
-21.312759
22
9.973279
32
10.000000
13
-21.312759
23
9.973279
33
10.000000
0
3DFACE
8
0
10
-21.312759
20
9.973279
30
10.000000
11
-24.034075
21
-4.741181
31
10.000000
12
-24.034075
22
4.741181
32
10.000000
13
-24.034075
23
4.741181
33
10.000000
0
3DFACE
8
0
10
-21.312759
20
9.973279
30
10.000000
11
-24.034075
21
4.741181
31
10.000000
12
-24.000000
22
5.000000
32
10.000000
13
-24.000000
23
5.000000
33
10.000000
0
3DFACE
8
0
10
-24.034075
20
-4.741181
30
10.000000
11
-24.133974
21
-4.500000
31
10.000000
12
-24.034075
22
4.741181
32
10.000000
13
-24.034075
23
4.741181
33
10.000000
0
3DFACE
8
0
10
-24.034075
20
4.741181
30
10.000000
11
-24.133974
21
-4.500000
31
10.000000
12
-24.133974
22
4.500000
32
10.000000
13
-24.133974
23
4.500000
33
10.000000
0
3DFACE
8
0
10
-24.133974
20
4.500000
30
10.000000
11
-24.133974
21
-4.500000
31
10.000000
12
-24.292894
22
4.292893
32
10.000000
13
-24.292894
23
4.292893
33
10.000000
0
3DFACE
8
0
10
-24.292894
20
4.292893
30
10.000000
11
-24.133974
21
-4.500000
31
10.000000
12
-24.292894
22
-4.292893
32
10.000000
13
-24.292894
23
-4.292893
33
10.000000
0
3DFACE
8
0
10
-24.292894
20
4.292893
30
10.000000
11
-24.292894
21
-4.292893
31
10.000000
12
-24.500000
22
4.133975
32
10.000000
13
-24.500000
23
4.133975
33
10.000000
0
3DFACE
8
0
10
-24.500000
20
4.133975
30
10.000000
11
-24.292894
21
-4.292893
31
10.000000
12
-24.500000
22
-4.133975
32
10.000000
13
-24.500000
23
-4.133975
33
10.000000
0
3DFACE
8
0
10
-24.500000
20
4.133975
30
10.000000
11
-24.500000
21
-4.133975
31
10.000000
12
-24.741180
22
4.034074
32
10.000000
13
-24.741180
23
4.034074
33
10.000000
0
3DFACE
8
0
10
-24.741180
20
4.034074
30
10.000000
11
-24.500000
21
-4.133975
31
10.000000
12
-24.741180
22
-4.034074
32
10.000000
13
-24.741180
23
-4.034074
33
10.000000
0
3DFACE
8
0
10
-24.741180
20
4.034074
30
10.000000
11
-24.741180
21
-4.034074
31
10.000000
12
-25.000000
22
4.000000
32
10.000000
13
-25.000000
23
4.000000
33
10.000000
0
3DFACE
8
0
10
-25.000000
20
4.000000
30
10.000000
11
-24.741180
21
-4.034074
31
10.000000
12
-25.000000
22
-4.000000
32
10.000000
13
-25.000000
23
-4.000000
33
10.000000
0
3DFACE
8
0
10
-25.000000
20
4.000000
30
10.000000
11
-25.000000
21
-4.000000
31
10.000000
12
-25.258820
22
-4.034074
32
10.000000
13
-25.258820
23
-4.034074
33
10.000000
0
3DFACE
8
0
10
-25.000000
20
4.000000
30
10.000000
11
-25.258820
21
-4.034074
31
10.000000
12
-25.258820
22
4.034074
32
10.000000
13
-25.258820
23
4.034074
33
10.000000
0
3DFACE
8
0
10
-25.258820
20
4.034074
30
10.000000
11
-25.258820
21
-4.034074
31
10.000000
12
-25.500000
22
-4.133975
32
10.000000
13
-25.500000
23
-4.133975
33
10.000000
0
3DFACE
8
0
10
-25.258820
20
4.034074
30
10.000000
11
-25.500000
21
-4.133975
31
10.000000
12
-25.500000
22
4.133975
32
10.000000
13
-25.500000
23
4.133975
33
10.000000
0
3DFACE
8
0
10
-25.500000
20
4.133975
30
10.000000
11
-25.500000
21
-4.133975
31
10.000000
12
-25.707108
22
-4.292893
32
10.000000
13
-25.707108
23
-4.292893
33
10.000000
0
3DFACE
8
0
10
-25.500000
20
4.133975
30
10.000000
11
-25.707108
21
-4.292893
31
10.000000
12
-25.707108
22
4.292893
32
10.000000
13
-25.707108
23
4.292893
33
10.000000
0
3DFACE
8
0
10
-25.707108
20
4.292893
30
10.000000
11
-25.707108
21
-4.292893
31
10.000000
12
-25.866026
22
-4.500000
32
10.000000
13
-25.866026
23
-4.500000
33
10.000000
0
3DFACE
8
0
10
-25.707108
20
4.292893
30
10.000000
11
-25.866026
21
-4.500000
31
10.000000
12
-25.866026
22
4.500000
32
10.000000
13
-25.866026
23
4.500000
33
10.000000
0
3DFACE
8
0
10
-25.866026
20
4.500000
30
10.000000
11
-25.866026
21
-4.500000
31
10.000000
12
-25.965927
22
4.741181
32
10.000000
13
-25.965927
23
4.741181
33
10.000000
0
3DFACE
8
0
10
-25.965927
20
4.741181
30
10.000000
11
-25.866026
21
-4.500000
31
10.000000
12
-25.965927
22
-4.741181
32
10.000000
13
-25.965927
23
-4.741181
33
10.000000
0
3DFACE
8
0
10
-25.965927
20
4.741181
30
10.000000
11
-25.965927
21
-4.741181
31
10.000000
12
-30.000000
22
10.000000
32
10.000000
13
-30.000000
23
10.000000
33
10.000000
0
3DFACE
8
0
10
-30.000000
20
10.000000
30
10.000000
11
-25.965927
21
-4.741181
31
10.000000
12
-30.000000
22
-10.026721
32
10.000000
13
-30.000000
23
-10.026721
33
10.000000
0
3DFACE
8
0
10
-30.000000
20
-10.026721
30
10.000000
11
-25.965927
21
-4.741181
31
10.000000
12
-26.000000
22
-5.000000
32
10.000000
13
-26.000000
23
-5.000000
33
10.000000
0
3DFACE
8
0
10
-30.000000
20
-10.026721
30
10.000000
11
-26.000000
21
-5.000000
31
10.000000
12
-25.965927
22
-5.258819
32
10.000000
13
-25.965927
23
-5.258819
33
10.000000
0
3DFACE
8
0
10
-25.965927
20
-5.258819
30
10.000000
11
-25.866026
21
-5.500000
31
10.000000
12
-30.000000
22
-10.026721
32
10.000000
13
-30.000000
23
-10.026721
33
10.000000
0
3DFACE
8
0
10
-30.000000
20
-10.026721
30
10.000000
11
-25.866026
21
-5.500000
31
10.000000
12
-25.707108
22
-5.707107
32
10.000000
13
-25.707108
23
-5.707107
33
10.000000
0
3DFACE
8
0
10
-30.000000
20
-10.026721
30
10.000000
11
-25.707108
21
-5.707107
31
10.000000
12
-25.500000
22
-5.866025
32
10.000000
13
-25.500000
23
-5.866025
33
10.000000
0
3DFACE
8
0
10
-25.500000
20
-5.866025
30
10.000000
11
-25.258820
21
-5.965926
31
10.000000
12
-30.000000
22
-10.026721
32
10.000000
13
-30.000000
23
-10.026721
33
10.000000
0
3DFACE
8
0
10
-30.000000
20
-10.026721
30
10.000000
11
-25.258820
21
-5.965926
31
10.000000
12
-21.312759
22
-10.026721
32
10.000000
13
-21.312759
23
-10.026721
33
10.000000
0
3DFACE
8
0
10
-21.312759
20
-10.026721
30
10.000000
11
-25.258820
21
-5.965926
31
10.000000
12
-25.000000
22
-6.000000
32
10.000000
13
-25.000000
23
-6.000000
33
10.000000
0
3DFACE
8
0
10
-21.312759
20
-10.026721
30
10.000000
11
-25.000000
21
-6.000000
31
10.000000
12
-24.741180
22
-5.965926
32
10.000000
13
-24.741180
23
-5.965926
33
10.000000
0
3DFACE
8
0
10
-24.741180
20
-5.965926
30
10.000000
11
-24.500000
21
-5.866025
31
10.000000
12
-21.312759
22
-10.026721
32
10.000000
13
-21.312759
23
-10.026721
33
10.000000
0
3DFACE
8
0
10
-21.312759
20
-10.026721
30
10.000000
11
-24.500000
21
-5.866025
31
10.000000
12
-24.292894
22
-5.707107
32
10.000000
13
-24.292894
23
-5.707107
33
10.000000
0
3DFACE
8
0
10
-21.312759
20
-10.026721
30
10.000000
11
-24.292894
21
-5.707107
31
10.000000
12
-24.133974
22
-5.500000
32
10.000000
13
-24.133974
23
-5.500000
33
10.000000
0
3DFACE
8
0
10
-24.133974
20
-5.500000
30
10.000000
11
-24.034075
21
-5.258819
31
10.000000
12
-21.312759
22
-10.026721
32
10.000000
13
-21.312759
23
-10.026721
33
10.000000
0
3DFACE
8
0
10
-24.000000
20
5.000000
30
10.000000
11
-24.034075
21
5.258819
31
10.000000
12
-21.312759
22
9.973279
32
10.000000
13
-21.312759
23
9.973279
33
10.000000
0
3DFACE
8
0
10
-21.312759
20
9.973279
30
10.000000
11
-24.034075
21
5.258819
31
10.000000
12
-24.133974
22
5.500000
32
10.000000
13
-24.133974
23
5.500000
33
10.000000
0
3DFACE
8
0
10
-21.312759
20
9.973279
30
10.000000
11
-24.133974
21
5.500000
31
10.000000
12
-24.292894
22
5.707107
32
10.000000
13
-24.292894
23
5.707107
33
10.000000
0
3DFACE
8
0
10
-21.312759
20
9.973279
30
10.000000
11
-24.292894
21
5.707107
31
10.000000
12
-21.312759
22
10.000000
32
10.000000
13
-21.312759
23
10.000000
33
10.000000
0
3DFACE
8
0
10
-21.312759
20
10.000000
30
10.000000
11
-24.292894
21
5.707107
31
10.000000
12
-24.500000
22
5.866025
32
10.000000
13
-24.500000
23
5.866025
33
10.000000
0
3DFACE
8
0
10
-21.312759
20
10.000000
30
10.000000
11
-24.500000
21
5.866025
31
10.000000
12
-24.741180
22
5.965926
32
10.000000
13
-24.741180
23
5.965926
33
10.000000
0
3DFACE
8
0
10
-24.741180
20
5.965926
30
10.000000
11
-25.000000
21
6.000000
31
10.000000
12
-21.312759
22
10.000000
32
10.000000
13
-21.312759
23
10.000000
33
10.000000
0
3DFACE
8
0
10
-21.312759
20
10.000000
30
10.000000
11
-25.000000
21
6.000000
31
10.000000
12
-25.258820
22
5.965926
32
10.000000
13
-25.258820
23
5.965926
33
10.000000
0
3DFACE
8
0
10
-21.312759
20
10.000000
30
10.000000
11
-25.258820
21
5.965926
31
10.000000
12
-30.000000
22
10.000000
32
10.000000
13
-30.000000
23
10.000000
33
10.000000
0
3DFACE
8
0
10
-30.000000
20
10.000000
30
10.000000
11
-25.258820
21
5.965926
31
10.000000
12
-25.500000
22
5.866025
32
10.000000
13
-25.500000
23
5.866025
33
10.000000
0
3DFACE
8
0
10
-30.000000
20
10.000000
30
10.000000
11
-25.500000
21
5.866025
31
10.000000
12
-25.707108
22
5.707107
32
10.000000
13
-25.707108
23
5.707107
33
10.000000
0
3DFACE
8
0
10
-25.707108
20
5.707107
30
10.000000
11
-25.866026
21
5.500000
31
10.000000
12
-30.000000
22
10.000000
32
10.000000
13
-30.000000
23
10.000000
33
10.000000
0
3DFACE
8
0
10
-30.000000
20
10.000000
30
10.000000
11
-25.866026
21
5.500000
31
10.000000
12
-25.965927
22
5.258819
32
10.000000
13
-25.965927
23
5.258819
33
10.000000
0
3DFACE
8
0
10
-30.000000
20
10.000000
30
10.000000
11
-25.965927
21
5.258819
31
10.000000
12
-26.000000
22
5.000000
32
10.000000
13
-26.000000
23
5.000000
33
10.000000
0
3DFACE
8
0
10
-26.000000
20
5.000000
30
10.000000
11
-25.965927
21
4.741181
31
10.000000
12
-30.000000
22
10.000000
32
10.000000
13
-30.000000
23
10.000000
33
10.000000
0
3DFACE
8
0
10
21.187241
20
9.973279
30
0.000000
11
-21.312759
21
9.973279
31
0.000000
12
21.187241
22
10.000000
32
0.000000
13
21.187241
23
10.000000
33
0.000000
0
3DFACE
8
0
10
21.187241
20
10.000000
30
0.000000
11
-21.312759
21
9.973279
31
0.000000
12
-21.312759
22
10.000000
32
0.000000
13
-21.312759
23
10.000000
33
0.000000
0
3DFACE
8
0
10
21.187241
20
10.000000
30
0.000000
11
-21.312759
21
10.000000
31
0.000000
12
-49.886658
22
25.000000
32
0.000000
13
-49.886658
23
25.000000
33
0.000000
0
3DFACE
8
0
10
-49.886658
20
25.000000
30
0.000000
11
-21.312759
21
10.000000
31
0.000000
12
-30.000000
22
10.000000
32
0.000000
13
-30.000000
23
10.000000
33
0.000000
0
3DFACE
8
0
10
-49.886658
20
25.000000
30
0.000000
11
-30.000000
21
10.000000
31
0.000000
12
-49.886658
22
-25.000000
32
0.000000
13
-49.886658
23
-25.000000
33
0.000000
0
3DFACE
8
0
10
-49.886658
20
-25.000000
30
0.000000
11
-30.000000
21
10.000000
31
0.000000
12
-30.000000
22
-10.026721
32
0.000000
13
-30.000000
23
-10.026721
33
0.000000
0
3DFACE
8
0
10
-49.886658
20
-25.000000
30
0.000000
11
-30.000000
21
-10.026721
31
0.000000
12
30.000000
22
-10.026721
32
0.000000
13
30.000000
23
-10.026721
33
0.000000
0
3DFACE
8
0
10
-49.886658
20
-25.000000
30
0.000000
11
30.000000
21
-10.026721
31
0.000000
12
50.113342
22
-25.000000
32
0.000000
13
50.113342
23
-25.000000
33
0.000000
0
3DFACE
8
0
10
50.113342
20
-25.000000
30
0.000000
11
30.000000
21
-10.026721
31
0.000000
12
30.000000
22
10.000000
32
0.000000
13
30.000000
23
10.000000
33
0.000000
0
3DFACE
8
0
10
50.113342
20
-25.000000
30
0.000000
11
30.000000
21
10.000000
31
0.000000
12
50.113342
22
25.000000
32
0.000000
13
50.113342
23
25.000000
33
0.000000
0
3DFACE
8
0
10
50.113342
20
25.000000
30
0.000000
11
30.000000
21
10.000000
31
0.000000
12
21.187241
22
10.000000
32
0.000000
13
21.187241
23
10.000000
33
0.000000
0
3DFACE
8
0
10
50.113342
20
25.000000
30
0.000000
11
21.187241
21
10.000000
31
0.000000
12
-49.886658
22
25.000000
32
0.000000
13
-49.886658
23
25.000000
33
0.000000
0
3DFACE
8
0
10
30.000000
20
10.000000
30
0.000000
11
30.000000
21
-10.026721
31
0.000000
12
30.000000
22
10.000000
32
10.000000
13
30.000000
23
10.000000
33
10.000000
0
3DFACE
8
0
10
30.000000
20
10.000000
30
10.000000
11
30.000000
21
-10.026721
31
0.000000
12
30.000000
22
-10.026721
32
10.000000
13
30.000000
23
-10.026721
33
10.000000
0
3DFACE
8
0
10
21.187241
20
9.973279
30
10.000000
11
21.187241
21
9.973279
31
0.000000
12
21.187241
22
10.000000
32
10.000000
13
21.187241
23
10.000000
33
10.000000
0
3DFACE
8
0
10
21.187241
20
10.000000
30
10.000000
11
21.187241
21
9.973279
31
0.000000
12
21.187241
22
10.000000
32
0.000000
13
21.187241
23
10.000000
33
0.000000
0
3DFACE
8
0
10
21.187241
20
10.000000
30
0.000000
11
30.000000
21
10.000000
31
0.000000
12
21.187241
22
10.000000
32
10.000000
13
21.187241
23
10.000000
33
10.000000
0
3DFACE
8
0
10
21.187241
20
10.000000
30
10.000000
11
30.000000
21
10.000000
31
0.000000
12
30.000000
22
10.000000
32
10.000000
13
30.000000
23
10.000000
33
10.000000
0
3DFACE
8
0
10
25.965927
20
4.741181
30
10.000000
11
26.000000
21
5.000000
31
10.000000
12
30.000000
22
10.000000
32
10.000000
13
30.000000
23
10.000000
33
10.000000
0
3DFACE
8
0
10
30.000000
20
10.000000
30
10.000000
11
26.000000
21
5.000000
31
10.000000
12
25.965927
22
5.258819
32
10.000000
13
25.965927
23
5.258819
33
10.000000
0
3DFACE
8
0
10
30.000000
20
10.000000
30
10.000000
11
25.965927
21
5.258819
31
10.000000
12
25.866026
22
5.500000
32
10.000000
13
25.866026
23
5.500000
33
10.000000
0
3DFACE
8
0
10
25.866026
20
5.500000
30
10.000000
11
25.707108
21
5.707107
31
10.000000
12
30.000000
22
10.000000
32
10.000000
13
30.000000
23
10.000000
33
10.000000
0
3DFACE
8
0
10
30.000000
20
10.000000
30
10.000000
11
25.707108
21
5.707107
31
10.000000
12
25.500000
22
5.866025
32
10.000000
13
25.500000
23
5.866025
33
10.000000
0
3DFACE
8
0
10
30.000000
20
10.000000
30
10.000000
11
25.500000
21
5.866025
31
10.000000
12
25.258820
22
5.965926
32
10.000000
13
25.258820
23
5.965926
33
10.000000
0
3DFACE
8
0
10
30.000000
20
10.000000
30
10.000000
11
25.258820
21
5.965926
31
10.000000
12
21.187241
22
10.000000
32
10.000000
13
21.187241
23
10.000000
33
10.000000
0
3DFACE
8
0
10
21.187241
20
10.000000
30
10.000000
11
25.258820
21
5.965926
31
10.000000
12
25.000000
22
6.000000
32
10.000000
13
25.000000
23
6.000000
33
10.000000
0
3DFACE
8
0
10
21.187241
20
10.000000
30
10.000000
11
25.000000
21
6.000000
31
10.000000
12
24.741180
22
5.965926
32
10.000000
13
24.741180
23
5.965926
33
10.000000
0
3DFACE
8
0
10
24.741180
20
5.965926
30
10.000000
11
24.500000
21
5.866025
31
10.000000
12
21.187241
22
10.000000
32
10.000000
13
21.187241
23
10.000000
33
10.000000
0
3DFACE
8
0
10
21.187241
20
10.000000
30
10.000000
11
24.500000
21
5.866025
31
10.000000
12
24.292894
22
5.707107
32
10.000000
13
24.292894
23
5.707107
33
10.000000
0
3DFACE
8
0
10
21.187241
20
10.000000
30
10.000000
11
24.292894
21
5.707107
31
10.000000
12
21.187241
22
9.973279
32
10.000000
13
21.187241
23
9.973279
33
10.000000
0
3DFACE
8
0
10
21.187241
20
9.973279
30
10.000000
11
24.292894
21
5.707107
31
10.000000
12
24.133974
22
5.500000
32
10.000000
13
24.133974
23
5.500000
33
10.000000
0
3DFACE
8
0
10
21.187241
20
9.973279
30
10.000000
11
24.133974
21
5.500000
31
10.000000
12
24.034075
22
5.258819
32
10.000000
13
24.034075
23
5.258819
33
10.000000
0
3DFACE
8
0
10
24.034075
20
5.258819
30
10.000000
11
24.000000
21
5.000000
31
10.000000
12
21.187241
22
9.973279
32
10.000000
13
21.187241
23
9.973279
33
10.000000
0
3DFACE
8
0
10
21.187241
20
9.973279
30
10.000000
11
24.000000
21
5.000000
31
10.000000
12
24.034075
22
4.741181
32
10.000000
13
24.034075
23
4.741181
33
10.000000
0
3DFACE
8
0
10
21.187241
20
9.973279
30
10.000000
11
24.034075
21
4.741181
31
10.000000
12
24.034075
22
-4.741181
32
10.000000
13
24.034075
23
-4.741181
33
10.000000
0
3DFACE
8
0
10
24.034075
20
-4.741181
30
10.000000
11
24.034075
21
4.741181
31
10.000000
12
24.133974
22
-4.500000
32
10.000000
13
24.133974
23
-4.500000
33
10.000000
0
3DFACE
8
0
10
24.133974
20
-4.500000
30
10.000000
11
24.034075
21
4.741181
31
10.000000
12
24.133974
22
4.500000
32
10.000000
13
24.133974
23
4.500000
33
10.000000
0
3DFACE
8
0
10
24.133974
20
-4.500000
30
10.000000
11
24.133974
21
4.500000
31
10.000000
12
24.292894
22
4.292893
32
10.000000
13
24.292894
23
4.292893
33
10.000000
0
3DFACE
8
0
10
24.133974
20
-4.500000
30
10.000000
11
24.292894
21
4.292893
31
10.000000
12
24.292894
22
-4.292893
32
10.000000
13
24.292894
23
-4.292893
33
10.000000
0
3DFACE
8
0
10
24.292894
20
-4.292893
30
10.000000
11
24.292894
21
4.292893
31
10.000000
12
24.500000
22
4.133975
32
10.000000
13
24.500000
23
4.133975
33
10.000000
0
3DFACE
8
0
10
24.292894
20
-4.292893
30
10.000000
11
24.500000
21
4.133975
31
10.000000
12
24.500000
22
-4.133975
32
10.000000
13
24.500000
23
-4.133975
33
10.000000
0
3DFACE
8
0
10
24.500000
20
-4.133975
30
10.000000
11
24.500000
21
4.133975
31
10.000000
12
24.741180
22
4.034074
32
10.000000
13
24.741180
23
4.034074
33
10.000000
0
3DFACE
8
0
10
24.500000
20
-4.133975
30
10.000000
11
24.741180
21
4.034074
31
10.000000
12
24.741180
22
-4.034074
32
10.000000
13
24.741180
23
-4.034074
33
10.000000
0
3DFACE
8
0
10
24.741180
20
-4.034074
30
10.000000
11
24.741180
21
4.034074
31
10.000000
12
25.000000
22
4.000000
32
10.000000
13
25.000000
23
4.000000
33
10.000000
0
3DFACE
8
0
10
24.741180
20
-4.034074
30
10.000000
11
25.000000
21
4.000000
31
10.000000
12
25.000000
22
-4.000000
32
10.000000
13
25.000000
23
-4.000000
33
10.000000
0
3DFACE
8
0
10
25.000000
20
-4.000000
30
10.000000
11
25.000000
21
4.000000
31
10.000000
12
25.258820
22
-4.034074
32
10.000000
13
25.258820
23
-4.034074
33
10.000000
0
3DFACE
8
0
10
25.258820
20
-4.034074
30
10.000000
11
25.000000
21
4.000000
31
10.000000
12
25.258820
22
4.034074
32
10.000000
13
25.258820
23
4.034074
33
10.000000
0
3DFACE
8
0
10
25.258820
20
-4.034074
30
10.000000
11
25.258820
21
4.034074
31
10.000000
12
25.500000
22
-4.133975
32
10.000000
13
25.500000
23
-4.133975
33
10.000000
0
3DFACE
8
0
10
25.500000
20
-4.133975
30
10.000000
11
25.258820
21
4.034074
31
10.000000
12
25.500000
22
4.133975
32
10.000000
13
25.500000
23
4.133975
33
10.000000
0
3DFACE
8
0
10
25.500000
20
-4.133975
30
10.000000
11
25.500000
21
4.133975
31
10.000000
12
25.707108
22
-4.292893
32
10.000000
13
25.707108
23
-4.292893
33
10.000000
0
3DFACE
8
0
10
25.707108
20
-4.292893
30
10.000000
11
25.500000
21
4.133975
31
10.000000
12
25.707108
22
4.292893
32
10.000000
13
25.707108
23
4.292893
33
10.000000
0
3DFACE
8
0
10
25.707108
20
-4.292893
30
10.000000
11
25.707108
21
4.292893
31
10.000000
12
25.866026
22
-4.500000
32
10.000000
13
25.866026
23
-4.500000
33
10.000000
0
3DFACE
8
0
10
25.866026
20
-4.500000
30
10.000000
11
25.707108
21
4.292893
31
10.000000
12
25.866026
22
4.500000
32
10.000000
13
25.866026
23
4.500000
33
10.000000
0
3DFACE
8
0
10
25.866026
20
-4.500000
30
10.000000
11
25.866026
21
4.500000
31
10.000000
12
25.965927
22
4.741181
32
10.000000
13
25.965927
23
4.741181
33
10.000000
0
3DFACE
8
0
10
25.965927
20
-5.258819
30
10.000000
11
26.000000
21
-5.000000
31
10.000000
12
30.000000
22
-10.026721
32
10.000000
13
30.000000
23
-10.026721
33
10.000000
0
3DFACE
8
0
10
30.000000
20
-10.026721
30
10.000000
11
26.000000
21
-5.000000
31
10.000000
12
25.965927
22
-4.741181
32
10.000000
13
25.965927
23
-4.741181
33
10.000000
0
3DFACE
8
0
10
30.000000
20
-10.026721
30
10.000000
11
25.965927
21
-4.741181
31
10.000000
12
30.000000
22
10.000000
32
10.000000
13
30.000000
23
10.000000
33
10.000000
0
3DFACE
8
0
10
30.000000
20
10.000000
30
10.000000
11
25.965927
21
-4.741181
31
10.000000
12
25.965927
22
4.741181
32
10.000000
13
25.965927
23
4.741181
33
10.000000
0
3DFACE
8
0
10
25.965927
20
-4.741181
30
10.000000
11
25.866026
21
-4.500000
31
10.000000
12
25.965927
22
4.741181
32
10.000000
13
25.965927
23
4.741181
33
10.000000
0
3DFACE
8
0
10
21.187241
20
9.973279
30
10.000000
11
24.034075
21
-4.741181
31
10.000000
12
21.187241
22
-10.026721
32
10.000000
13
21.187241
23
-10.026721
33
10.000000
0
3DFACE
8
0
10
21.187241
20
-10.026721
30
10.000000
11
24.034075
21
-4.741181
31
10.000000
12
24.000000
22
-5.000000
32
10.000000
13
24.000000
23
-5.000000
33
10.000000
0
3DFACE
8
0
10
21.187241
20
-10.026721
30
10.000000
11
24.000000
21
-5.000000
31
10.000000
12
24.034075
22
-5.258819
32
10.000000
13
24.034075
23
-5.258819
33
10.000000
0
3DFACE
8
0
10
24.034075
20
-5.258819
30
10.000000
11
24.133974
21
-5.500000
31
10.000000
12
21.187241
22
-10.026721
32
10.000000
13
21.187241
23
-10.026721
33
10.000000
0
3DFACE
8
0
10
21.187241
20
-10.026721
30
10.000000
11
24.133974
21
-5.500000
31
10.000000
12
24.292894
22
-5.707107
32
10.000000
13
24.292894
23
-5.707107
33
10.000000
0
3DFACE
8
0
10
21.187241
20
-10.026721
30
10.000000
11
24.292894
21
-5.707107
31
10.000000
12
24.500000
22
-5.866025
32
10.000000
13
24.500000
23
-5.866025
33
10.000000
0
3DFACE
8
0
10
24.500000
20
-5.866025
30
10.000000
11
24.741180
21
-5.965926
31
10.000000
12
21.187241
22
-10.026721
32
10.000000
13
21.187241
23
-10.026721
33
10.000000
0
3DFACE
8
0
10
21.187241
20
-10.026721
30
10.000000
11
24.741180
21
-5.965926
31
10.000000
12
25.000000
22
-6.000000
32
10.000000
13
25.000000
23
-6.000000
33
10.000000
0
3DFACE
8
0
10
21.187241
20
-10.026721
30
10.000000
11
25.000000
21
-6.000000
31
10.000000
12
25.258820
22
-5.965926
32
10.000000
13
25.258820
23
-5.965926
33
10.000000
0
3DFACE
8
0
10
21.187241
20
-10.026721
30
10.000000
11
25.258820
21
-5.965926
31
10.000000
12
30.000000
22
-10.026721
32
10.000000
13
30.000000
23
-10.026721
33
10.000000
0
3DFACE
8
0
10
30.000000
20
-10.026721
30
10.000000
11
25.258820
21
-5.965926
31
10.000000
12
25.500000
22
-5.866025
32
10.000000
13
25.500000
23
-5.866025
33
10.000000
0
3DFACE
8
0
10
30.000000
20
-10.026721
30
10.000000
11
25.500000
21
-5.866025
31
10.000000
12
25.707108
22
-5.707107
32
10.000000
13
25.707108
23
-5.707107
33
10.000000
0
3DFACE
8
0
10
25.707108
20
-5.707107
30
10.000000
11
25.866026
21
-5.500000
31
10.000000
12
30.000000
22
-10.026721
32
10.000000
13
30.000000
23
-10.026721
33
10.000000
0
3DFACE
8
0
10
30.000000
20
-10.026721
30
10.000000
11
25.866026
21
-5.500000
31
10.000000
12
25.965927
22
-5.258819
32
10.000000
13
25.965927
23
-5.258819
33
10.000000
0
3DFACE
8
0
10
-24.034075
20
-5.258819
30
10.000000
11
-24.034075
21
-5.258819
31
15.000000
12
-24.000000
22
-5.000000
32
10.000000
13
-24.000000
23
-5.000000
33
10.000000
0
3DFACE
8
0
10
-24.000000
20
-5.000000
30
10.000000
11
-24.034075
21
-5.258819
31
15.000000
12
-24.000000
22
-5.000000
32
15.000000
13
-24.000000
23
-5.000000
33
15.000000
0
3DFACE
8
0
10
-24.000000
20
-5.000000
30
10.000000
11
-24.000000
21
-5.000000
31
15.000000
12
-24.034075
22
-4.741181
32
10.000000
13
-24.034075
23
-4.741181
33
10.000000
0
3DFACE
8
0
10
-24.034075
20
-4.741181
30
10.000000
11
-24.000000
21
-5.000000
31
15.000000
12
-24.034075
22
-4.741181
32
15.000000
13
-24.034075
23
-4.741181
33
15.000000
0
3DFACE
8
0
10
-24.034075
20
-4.741181
30
10.000000
11
-24.034075
21
-4.741181
31
15.000000
12
-24.133974
22
-4.500000
32
10.000000
13
-24.133974
23
-4.500000
33
10.000000
0
3DFACE
8
0
10
-24.133974
20
-4.500000
30
10.000000
11
-24.034075
21
-4.741181
31
15.000000
12
-24.133974
22
-4.500000
32
15.000000
13
-24.133974
23
-4.500000
33
15.000000
0
3DFACE
8
0
10
-24.133974
20
-4.500000
30
10.000000
11
-24.133974
21
-4.500000
31
15.000000
12
-24.292894
22
-4.292893
32
10.000000
13
-24.292894
23
-4.292893
33
10.000000
0
3DFACE
8
0
10
-24.292894
20
-4.292893
30
10.000000
11
-24.133974
21
-4.500000
31
15.000000
12
-24.292894
22
-4.292893
32
15.000000
13
-24.292894
23
-4.292893
33
15.000000
0
3DFACE
8
0
10
-24.292894
20
-4.292893
30
10.000000
11
-24.292894
21
-4.292893
31
15.000000
12
-24.500000
22
-4.133975
32
10.000000
13
-24.500000
23
-4.133975
33
10.000000
0
3DFACE
8
0
10
-24.500000
20
-4.133975
30
10.000000
11
-24.292894
21
-4.292893
31
15.000000
12
-24.500000
22
-4.133975
32
15.000000
13
-24.500000
23
-4.133975
33
15.000000
0
3DFACE
8
0
10
-24.500000
20
-4.133975
30
10.000000
11
-24.500000
21
-4.133975
31
15.000000
12
-24.741180
22
-4.034074
32
10.000000
13
-24.741180
23
-4.034074
33
10.000000
0
3DFACE
8
0
10
-24.741180
20
-4.034074
30
10.000000
11
-24.500000
21
-4.133975
31
15.000000
12
-24.741180
22
-4.034074
32
15.000000
13
-24.741180
23
-4.034074
33
15.000000
0
3DFACE
8
0
10
-24.741180
20
-4.034074
30
10.000000
11
-24.741180
21
-4.034074
31
15.000000
12
-25.000000
22
-4.000000
32
10.000000
13
-25.000000
23
-4.000000
33
10.000000
0
3DFACE
8
0
10
-25.000000
20
-4.000000
30
10.000000
11
-24.741180
21
-4.034074
31
15.000000
12
-25.000000
22
-4.000000
32
15.000000
13
-25.000000
23
-4.000000
33
15.000000
0
3DFACE
8
0
10
-25.000000
20
-4.000000
30
10.000000
11
-25.000000
21
-4.000000
31
15.000000
12
-25.258820
22
-4.034074
32
10.000000
13
-25.258820
23
-4.034074
33
10.000000
0
3DFACE
8
0
10
-25.258820
20
-4.034074
30
10.000000
11
-25.000000
21
-4.000000
31
15.000000
12
-25.258820
22
-4.034074
32
15.000000
13
-25.258820
23
-4.034074
33
15.000000
0
3DFACE
8
0
10
-25.258820
20
-4.034074
30
10.000000
11
-25.258820
21
-4.034074
31
15.000000
12
-25.500000
22
-4.133975
32
10.000000
13
-25.500000
23
-4.133975
33
10.000000
0
3DFACE
8
0
10
-25.500000
20
-4.133975
30
10.000000
11
-25.258820
21
-4.034074
31
15.000000
12
-25.500000
22
-4.133975
32
15.000000
13
-25.500000
23
-4.133975
33
15.000000
0
3DFACE
8
0
10
-25.500000
20
-4.133975
30
10.000000
11
-25.500000
21
-4.133975
31
15.000000
12
-25.707108
22
-4.292893
32
10.000000
13
-25.707108
23
-4.292893
33
10.000000
0
3DFACE
8
0
10
-25.707108
20
-4.292893
30
10.000000
11
-25.500000
21
-4.133975
31
15.000000
12
-25.707108
22
-4.292893
32
15.000000
13
-25.707108
23
-4.292893
33
15.000000
0
3DFACE
8
0
10
-25.707108
20
-4.292893
30
10.000000
11
-25.707108
21
-4.292893
31
15.000000
12
-25.866026
22
-4.500000
32
10.000000
13
-25.866026
23
-4.500000
33
10.000000
0
3DFACE
8
0
10
-25.866026
20
-4.500000
30
10.000000
11
-25.707108
21
-4.292893
31
15.000000
12
-25.866026
22
-4.500000
32
15.000000
13
-25.866026
23
-4.500000
33
15.000000
0
3DFACE
8
0
10
-25.866026
20
-4.500000
30
10.000000
11
-25.866026
21
-4.500000
31
15.000000
12
-25.965927
22
-4.741181
32
10.000000
13
-25.965927
23
-4.741181
33
10.000000
0
3DFACE
8
0
10
-25.965927
20
-4.741181
30
10.000000
11
-25.866026
21
-4.500000
31
15.000000
12
-25.965927
22
-4.741181
32
15.000000
13
-25.965927
23
-4.741181
33
15.000000
0
3DFACE
8
0
10
-25.965927
20
-4.741181
30
10.000000
11
-25.965927
21
-4.741181
31
15.000000
12
-26.000000
22
-5.000000
32
10.000000
13
-26.000000
23
-5.000000
33
10.000000
0
3DFACE
8
0
10
-26.000000
20
-5.000000
30
10.000000
11
-25.965927
21
-4.741181
31
15.000000
12
-26.000000
22
-5.000000
32
15.000000
13
-26.000000
23
-5.000000
33
15.000000
0
3DFACE
8
0
10
-26.000000
20
-5.000000
30
10.000000
11
-26.000000
21
-5.000000
31
15.000000
12
-25.965927
22
-5.258819
32
10.000000
13
-25.965927
23
-5.258819
33
10.000000
0
3DFACE
8
0
10
-25.965927
20
-5.258819
30
10.000000
11
-26.000000
21
-5.000000
31
15.000000
12
-25.965927
22
-5.258819
32
15.000000
13
-25.965927
23
-5.258819
33
15.000000
0
3DFACE
8
0
10
-25.965927
20
-5.258819
30
10.000000
11
-25.965927
21
-5.258819
31
15.000000
12
-25.866026
22
-5.500000
32
10.000000
13
-25.866026
23
-5.500000
33
10.000000
0
3DFACE
8
0
10
-25.866026
20
-5.500000
30
10.000000
11
-25.965927
21
-5.258819
31
15.000000
12
-25.866026
22
-5.500000
32
15.000000
13
-25.866026
23
-5.500000
33
15.000000
0
3DFACE
8
0
10
-25.866026
20
-5.500000
30
10.000000
11
-25.866026
21
-5.500000
31
15.000000
12
-25.707108
22
-5.707107
32
10.000000
13
-25.707108
23
-5.707107
33
10.000000
0
3DFACE
8
0
10
-25.707108
20
-5.707107
30
10.000000
11
-25.866026
21
-5.500000
31
15.000000
12
-25.707108
22
-5.707107
32
15.000000
13
-25.707108
23
-5.707107
33
15.000000
0
3DFACE
8
0
10
-25.707108
20
-5.707107
30
10.000000
11
-25.707108
21
-5.707107
31
15.000000
12
-25.500000
22
-5.866025
32
10.000000
13
-25.500000
23
-5.866025
33
10.000000
0
3DFACE
8
0
10
-25.500000
20
-5.866025
30
10.000000
11
-25.707108
21
-5.707107
31
15.000000
12
-25.500000
22
-5.866025
32
15.000000
13
-25.500000
23
-5.866025
33
15.000000
0
3DFACE
8
0
10
-25.500000
20
-5.866025
30
10.000000
11
-25.500000
21
-5.866025
31
15.000000
12
-25.258820
22
-5.965926
32
10.000000
13
-25.258820
23
-5.965926
33
10.000000
0
3DFACE
8
0
10
-25.258820
20
-5.965926
30
10.000000
11
-25.500000
21
-5.866025
31
15.000000
12
-25.258820
22
-5.965926
32
15.000000
13
-25.258820
23
-5.965926
33
15.000000
0
3DFACE
8
0
10
-25.258820
20
-5.965926
30
10.000000
11
-25.258820
21
-5.965926
31
15.000000
12
-25.000000
22
-6.000000
32
10.000000
13
-25.000000
23
-6.000000
33
10.000000
0
3DFACE
8
0
10
-25.000000
20
-6.000000
30
10.000000
11
-25.258820
21
-5.965926
31
15.000000
12
-25.000000
22
-6.000000
32
15.000000
13
-25.000000
23
-6.000000
33
15.000000
0
3DFACE
8
0
10
-25.000000
20
-6.000000
30
10.000000
11
-25.000000
21
-6.000000
31
15.000000
12
-24.741180
22
-5.965926
32
10.000000
13
-24.741180
23
-5.965926
33
10.000000
0
3DFACE
8
0
10
-24.741180
20
-5.965926
30
10.000000
11
-25.000000
21
-6.000000
31
15.000000
12
-24.741180
22
-5.965926
32
15.000000
13
-24.741180
23
-5.965926
33
15.000000
0
3DFACE
8
0
10
-24.741180
20
-5.965926
30
10.000000
11
-24.741180
21
-5.965926
31
15.000000
12
-24.500000
22
-5.866025
32
10.000000
13
-24.500000
23
-5.866025
33
10.000000
0
3DFACE
8
0
10
-24.500000
20
-5.866025
30
10.000000
11
-24.741180
21
-5.965926
31
15.000000
12
-24.500000
22
-5.866025
32
15.000000
13
-24.500000
23
-5.866025
33
15.000000
0
3DFACE
8
0
10
-24.500000
20
-5.866025
30
10.000000
11
-24.500000
21
-5.866025
31
15.000000
12
-24.292894
22
-5.707107
32
10.000000
13
-24.292894
23
-5.707107
33
10.000000
0
3DFACE
8
0
10
-24.292894
20
-5.707107
30
10.000000
11
-24.500000
21
-5.866025
31
15.000000
12
-24.292894
22
-5.707107
32
15.000000
13
-24.292894
23
-5.707107
33
15.000000
0
3DFACE
8
0
10
-24.292894
20
-5.707107
30
10.000000
11
-24.292894
21
-5.707107
31
15.000000
12
-24.133974
22
-5.500000
32
10.000000
13
-24.133974
23
-5.500000
33
10.000000
0
3DFACE
8
0
10
-24.133974
20
-5.500000
30
10.000000
11
-24.292894
21
-5.707107
31
15.000000
12
-24.133974
22
-5.500000
32
15.000000
13
-24.133974
23
-5.500000
33
15.000000
0
3DFACE
8
0
10
-24.133974
20
-5.500000
30
10.000000
11
-24.133974
21
-5.500000
31
15.000000
12
-24.034075
22
-5.258819
32
10.000000
13
-24.034075
23
-5.258819
33
10.000000
0
3DFACE
8
0
10
-24.034075
20
-5.258819
30
10.000000
11
-24.133974
21
-5.500000
31
15.000000
12
-24.034075
22
-5.258819
32
15.000000
13
-24.034075
23
-5.258819
33
15.000000
0
3DFACE
8
0
10
-24.034075
20
-4.741181
30
30.000000
11
-24.034075
21
-4.741181
31
25.000000
12
-24.000000
22
-5.000000
32
30.000000
13
-24.000000
23
-5.000000
33
30.000000
0
3DFACE
8
0
10
-24.000000
20
-5.000000
30
30.000000
11
-24.034075
21
-4.741181
31
25.000000
12
-24.000000
22
-5.000000
32
25.000000
13
-24.000000
23
-5.000000
33
25.000000
0
3DFACE
8
0
10
-24.000000
20
-5.000000
30
30.000000
11
-24.000000
21
-5.000000
31
25.000000
12
-24.034075
22
-5.258819
32
30.000000
13
-24.034075
23
-5.258819
33
30.000000
0
3DFACE
8
0
10
-24.034075
20
-5.258819
30
30.000000
11
-24.000000
21
-5.000000
31
25.000000
12
-24.034075
22
-5.258819
32
25.000000
13
-24.034075
23
-5.258819
33
25.000000
0
3DFACE
8
0
10
-24.034075
20
-5.258819
30
30.000000
11
-24.034075
21
-5.258819
31
25.000000
12
-24.133974
22
-5.500000
32
30.000000
13
-24.133974
23
-5.500000
33
30.000000
0
3DFACE
8
0
10
-24.133974
20
-5.500000
30
30.000000
11
-24.034075
21
-5.258819
31
25.000000
12
-24.133974
22
-5.500000
32
25.000000
13
-24.133974
23
-5.500000
33
25.000000
0
3DFACE
8
0
10
-24.133974
20
-5.500000
30
30.000000
11
-24.133974
21
-5.500000
31
25.000000
12
-24.292894
22
-5.707107
32
30.000000
13
-24.292894
23
-5.707107
33
30.000000
0
3DFACE
8
0
10
-24.292894
20
-5.707107
30
30.000000
11
-24.133974
21
-5.500000
31
25.000000
12
-24.292894
22
-5.707107
32
25.000000
13
-24.292894
23
-5.707107
33
25.000000
0
3DFACE
8
0
10
-24.292894
20
-5.707107
30
30.000000
11
-24.292894
21
-5.707107
31
25.000000
12
-24.500000
22
-5.866025
32
30.000000
13
-24.500000
23
-5.866025
33
30.000000
0
3DFACE
8
0
10
-24.500000
20
-5.866025
30
30.000000
11
-24.292894
21
-5.707107
31
25.000000
12
-24.500000
22
-5.866025
32
25.000000
13
-24.500000
23
-5.866025
33
25.000000
0
3DFACE
8
0
10
-24.500000
20
-5.866025
30
30.000000
11
-24.500000
21
-5.866025
31
25.000000
12
-24.741180
22
-5.965926
32
30.000000
13
-24.741180
23
-5.965926
33
30.000000
0
3DFACE
8
0
10
-24.741180
20
-5.965926
30
30.000000
11
-24.500000
21
-5.866025
31
25.000000
12
-24.741180
22
-5.965926
32
25.000000
13
-24.741180
23
-5.965926
33
25.000000
0
3DFACE
8
0
10
-24.741180
20
-5.965926
30
30.000000
11
-24.741180
21
-5.965926
31
25.000000
12
-25.000000
22
-6.000000
32
30.000000
13
-25.000000
23
-6.000000
33
30.000000
0
3DFACE
8
0
10
-25.000000
20
-6.000000
30
30.000000
11
-24.741180
21
-5.965926
31
25.000000
12
-25.000000
22
-6.000000
32
25.000000
13
-25.000000
23
-6.000000
33
25.000000
0
3DFACE
8
0
10
-25.000000
20
-6.000000
30
30.000000
11
-25.000000
21
-6.000000
31
25.000000
12
-25.258820
22
-5.965926
32
30.000000
13
-25.258820
23
-5.965926
33
30.000000
0
3DFACE
8
0
10
-25.258820
20
-5.965926
30
30.000000
11
-25.000000
21
-6.000000
31
25.000000
12
-25.258820
22
-5.965926
32
25.000000
13
-25.258820
23
-5.965926
33
25.000000
0
3DFACE
8
0
10
-25.258820
20
-5.965926
30
30.000000
11
-25.258820
21
-5.965926
31
25.000000
12
-25.500000
22
-5.866025
32
30.000000
13
-25.500000
23
-5.866025
33
30.000000
0
3DFACE
8
0
10
-25.500000
20
-5.866025
30
30.000000
11
-25.258820
21
-5.965926
31
25.000000
12
-25.500000
22
-5.866025
32
25.000000
13
-25.500000
23
-5.866025
33
25.000000
0
3DFACE
8
0
10
-25.500000
20
-5.866025
30
30.000000
11
-25.500000
21
-5.866025
31
25.000000
12
-25.707108
22
-5.707107
32
30.000000
13
-25.707108
23
-5.707107
33
30.000000
0
3DFACE
8
0
10
-25.707108
20
-5.707107
30
30.000000
11
-25.500000
21
-5.866025
31
25.000000
12
-25.707108
22
-5.707107
32
25.000000
13
-25.707108
23
-5.707107
33
25.000000
0
3DFACE
8
0
10
-25.707108
20
-5.707107
30
30.000000
11
-25.707108
21
-5.707107
31
25.000000
12
-25.866026
22
-5.500000
32
30.000000
13
-25.866026
23
-5.500000
33
30.000000
0
3DFACE
8
0
10
-25.866026
20
-5.500000
30
30.000000
11
-25.707108
21
-5.707107
31
25.000000
12
-25.866026
22
-5.500000
32
25.000000
13
-25.866026
23
-5.500000
33
25.000000
0
3DFACE
8
0
10
-25.866026
20
-5.500000
30
30.000000
11
-25.866026
21
-5.500000
31
25.000000
12
-25.965927
22
-5.258819
32
30.000000
13
-25.965927
23
-5.258819
33
30.000000
0
3DFACE
8
0
10
-25.965927
20
-5.258819
30
30.000000
11
-25.866026
21
-5.500000
31
25.000000
12
-25.965927
22
-5.258819
32
25.000000
13
-25.965927
23
-5.258819
33
25.000000
0
3DFACE
8
0
10
-25.965927
20
-5.258819
30
30.000000
11
-25.965927
21
-5.258819
31
25.000000
12
-26.000000
22
-5.000000
32
30.000000
13
-26.000000
23
-5.000000
33
30.000000
0
3DFACE
8
0
10
-26.000000
20
-5.000000
30
30.000000
11
-25.965927
21
-5.258819
31
25.000000
12
-26.000000
22
-5.000000
32
25.000000
13
-26.000000
23
-5.000000
33
25.000000
0
3DFACE
8
0
10
-26.000000
20
-5.000000
30
30.000000
11
-26.000000
21
-5.000000
31
25.000000
12
-25.965927
22
-4.741181
32
30.000000
13
-25.965927
23
-4.741181
33
30.000000
0
3DFACE
8
0
10
-25.965927
20
-4.741181
30
30.000000
11
-26.000000
21
-5.000000
31
25.000000
12
-25.965927
22
-4.741181
32
25.000000
13
-25.965927
23
-4.741181
33
25.000000
0
3DFACE
8
0
10
-25.965927
20
-4.741181
30
30.000000
11
-25.965927
21
-4.741181
31
25.000000
12
-25.866026
22
-4.500000
32
30.000000
13
-25.866026
23
-4.500000
33
30.000000
0
3DFACE
8
0
10
-25.866026
20
-4.500000
30
30.000000
11
-25.965927
21
-4.741181
31
25.000000
12
-25.866026
22
-4.500000
32
25.000000
13
-25.866026
23
-4.500000
33
25.000000
0
3DFACE
8
0
10
-25.866026
20
-4.500000
30
30.000000
11
-25.866026
21
-4.500000
31
25.000000
12
-25.707108
22
-4.292893
32
30.000000
13
-25.707108
23
-4.292893
33
30.000000
0
3DFACE
8
0
10
-25.707108
20
-4.292893
30
30.000000
11
-25.866026
21
-4.500000
31
25.000000
12
-25.707108
22
-4.292893
32
25.000000
13
-25.707108
23
-4.292893
33
25.000000
0
3DFACE
8
0
10
-25.707108
20
-4.292893
30
30.000000
11
-25.707108
21
-4.292893
31
25.000000
12
-25.500000
22
-4.133975
32
30.000000
13
-25.500000
23
-4.133975
33
30.000000
0
3DFACE
8
0
10
-25.500000
20
-4.133975
30
30.000000
11
-25.707108
21
-4.292893
31
25.000000
12
-25.500000
22
-4.133975
32
25.000000
13
-25.500000
23
-4.133975
33
25.000000
0
3DFACE
8
0
10
-25.500000
20
-4.133975
30
30.000000
11
-25.500000
21
-4.133975
31
25.000000
12
-25.258820
22
-4.034074
32
30.000000
13
-25.258820
23
-4.034074
33
30.000000
0
3DFACE
8
0
10
-25.258820
20
-4.034074
30
30.000000
11
-25.500000
21
-4.133975
31
25.000000
12
-25.258820
22
-4.034074
32
25.000000
13
-25.258820
23
-4.034074
33
25.000000
0
3DFACE
8
0
10
-25.258820
20
-4.034074
30
30.000000
11
-25.258820
21
-4.034074
31
25.000000
12
-25.000000
22
-4.000000
32
30.000000
13
-25.000000
23
-4.000000
33
30.000000
0
3DFACE
8
0
10
-25.000000
20
-4.000000
30
30.000000
11
-25.258820
21
-4.034074
31
25.000000
12
-25.000000
22
-4.000000
32
25.000000
13
-25.000000
23
-4.000000
33
25.000000
0
3DFACE
8
0
10
-25.000000
20
-4.000000
30
30.000000
11
-25.000000
21
-4.000000
31
25.000000
12
-24.741180
22
-4.034074
32
30.000000
13
-24.741180
23
-4.034074
33
30.000000
0
3DFACE
8
0
10
-24.741180
20
-4.034074
30
30.000000
11
-25.000000
21
-4.000000
31
25.000000
12
-24.741180
22
-4.034074
32
25.000000
13
-24.741180
23
-4.034074
33
25.000000
0
3DFACE
8
0
10
-24.741180
20
-4.034074
30
30.000000
11
-24.741180
21
-4.034074
31
25.000000
12
-24.500000
22
-4.133975
32
30.000000
13
-24.500000
23
-4.133975
33
30.000000
0
3DFACE
8
0
10
-24.500000
20
-4.133975
30
30.000000
11
-24.741180
21
-4.034074
31
25.000000
12
-24.500000
22
-4.133975
32
25.000000
13
-24.500000
23
-4.133975
33
25.000000
0
3DFACE
8
0
10
-24.500000
20
-4.133975
30
30.000000
11
-24.500000
21
-4.133975
31
25.000000
12
-24.292894
22
-4.292893
32
30.000000
13
-24.292894
23
-4.292893
33
30.000000
0
3DFACE
8
0
10
-24.292894
20
-4.292893
30
30.000000
11
-24.500000
21
-4.133975
31
25.000000
12
-24.292894
22
-4.292893
32
25.000000
13
-24.292894
23
-4.292893
33
25.000000
0
3DFACE
8
0
10
-24.292894
20
-4.292893
30
30.000000
11
-24.292894
21
-4.292893
31
25.000000
12
-24.133974
22
-4.500000
32
30.000000
13
-24.133974
23
-4.500000
33
30.000000
0
3DFACE
8
0
10
-24.133974
20
-4.500000
30
30.000000
11
-24.292894
21
-4.292893
31
25.000000
12
-24.133974
22
-4.500000
32
25.000000
13
-24.133974
23
-4.500000
33
25.000000
0
3DFACE
8
0
10
-24.133974
20
-4.500000
30
30.000000
11
-24.133974
21
-4.500000
31
25.000000
12
-24.034075
22
-4.741181
32
30.000000
13
-24.034075
23
-4.741181
33
30.000000
0
3DFACE
8
0
10
-24.034075
20
-4.741181
30
30.000000
11
-24.133974
21
-4.500000
31
25.000000
12
-24.034075
22
-4.741181
32
25.000000
13
-24.034075
23
-4.741181
33
25.000000
0
3DFACE
8
0
10
-24.000000
20
-5.000000
30
15.000000
11
-24.000000
21
-5.000000
31
20.000000
12
-24.034075
22
-4.741181
32
15.000000
13
-24.034075
23
-4.741181
33
15.000000
0
3DFACE
8
0
10
-24.034075
20
-4.741181
30
15.000000
11
-24.000000
21
-5.000000
31
20.000000
12
-24.034075
22
-4.741181
32
20.000000
13
-24.034075
23
-4.741181
33
20.000000
0
3DFACE
8
0
10
-24.034075
20
-4.741181
30
15.000000
11
-24.034075
21
-4.741181
31
20.000000
12
-24.133974
22
-4.500000
32
15.000000
13
-24.133974
23
-4.500000
33
15.000000
0
3DFACE
8
0
10
-24.133974
20
-4.500000
30
15.000000
11
-24.034075
21
-4.741181
31
20.000000
12
-24.133974
22
-4.500000
32
20.000000
13
-24.133974
23
-4.500000
33
20.000000
0
3DFACE
8
0
10
-24.133974
20
-4.500000
30
15.000000
11
-24.133974
21
-4.500000
31
20.000000
12
-24.292894
22
-4.292893
32
15.000000
13
-24.292894
23
-4.292893
33
15.000000
0
3DFACE
8
0
10
-24.292894
20
-4.292893
30
15.000000
11
-24.133974
21
-4.500000
31
20.000000
12
-24.292894
22
-4.292893
32
20.000000
13
-24.292894
23
-4.292893
33
20.000000
0
3DFACE
8
0
10
-24.292894
20
-4.292893
30
15.000000
11
-24.292894
21
-4.292893
31
20.000000
12
-24.500000
22
-4.133975
32
15.000000
13
-24.500000
23
-4.133975
33
15.000000
0
3DFACE
8
0
10
-24.500000
20
-4.133975
30
15.000000
11
-24.292894
21
-4.292893
31
20.000000
12
-24.500000
22
-4.133975
32
20.000000
13
-24.500000
23
-4.133975
33
20.000000
0
3DFACE
8
0
10
-24.500000
20
-4.133975
30
15.000000
11
-24.500000
21
-4.133975
31
20.000000
12
-24.741180
22
-4.034074
32
15.000000
13
-24.741180
23
-4.034074
33
15.000000
0
3DFACE
8
0
10
-24.741180
20
-4.034074
30
15.000000
11
-24.500000
21
-4.133975
31
20.000000
12
-24.741180
22
-4.034074
32
20.000000
13
-24.741180
23
-4.034074
33
20.000000
0
3DFACE
8
0
10
-24.741180
20
-4.034074
30
15.000000
11
-24.741180
21
-4.034074
31
20.000000
12
-25.000000
22
-4.000000
32
15.000000
13
-25.000000
23
-4.000000
33
15.000000
0
3DFACE
8
0
10
-25.000000
20
-4.000000
30
15.000000
11
-24.741180
21
-4.034074
31
20.000000
12
-25.000000
22
-4.000000
32
20.000000
13
-25.000000
23
-4.000000
33
20.000000
0
3DFACE
8
0
10
-25.000000
20
-4.000000
30
15.000000
11
-25.000000
21
-4.000000
31
20.000000
12
-25.258820
22
-4.034074
32
15.000000
13
-25.258820
23
-4.034074
33
15.000000
0
3DFACE
8
0
10
-25.258820
20
-4.034074
30
15.000000
11
-25.000000
21
-4.000000
31
20.000000
12
-25.258820
22
-4.034074
32
20.000000
13
-25.258820
23
-4.034074
33
20.000000
0
3DFACE
8
0
10
-25.258820
20
-4.034074
30
15.000000
11
-25.258820
21
-4.034074
31
20.000000
12
-25.500000
22
-4.133975
32
15.000000
13
-25.500000
23
-4.133975
33
15.000000
0
3DFACE
8
0
10
-25.500000
20
-4.133975
30
15.000000
11
-25.258820
21
-4.034074
31
20.000000
12
-25.500000
22
-4.133975
32
20.000000
13
-25.500000
23
-4.133975
33
20.000000
0
3DFACE
8
0
10
-25.500000
20
-4.133975
30
15.000000
11
-25.500000
21
-4.133975
31
20.000000
12
-25.707108
22
-4.292893
32
15.000000
13
-25.707108
23
-4.292893
33
15.000000
0
3DFACE
8
0
10
-25.707108
20
-4.292893
30
15.000000
11
-25.500000
21
-4.133975
31
20.000000
12
-25.707108
22
-4.292893
32
20.000000
13
-25.707108
23
-4.292893
33
20.000000
0
3DFACE
8
0
10
-25.707108
20
-4.292893
30
15.000000
11
-25.707108
21
-4.292893
31
20.000000
12
-25.866026
22
-4.500000
32
15.000000
13
-25.866026
23
-4.500000
33
15.000000
0
3DFACE
8
0
10
-25.866026
20
-4.500000
30
15.000000
11
-25.707108
21
-4.292893
31
20.000000
12
-25.866026
22
-4.500000
32
20.000000
13
-25.866026
23
-4.500000
33
20.000000
0
3DFACE
8
0
10
-25.866026
20
-4.500000
30
15.000000
11
-25.866026
21
-4.500000
31
20.000000
12
-25.965927
22
-4.741181
32
15.000000
13
-25.965927
23
-4.741181
33
15.000000
0
3DFACE
8
0
10
-25.965927
20
-4.741181
30
15.000000
11
-25.866026
21
-4.500000
31
20.000000
12
-25.965927
22
-4.741181
32
20.000000
13
-25.965927
23
-4.741181
33
20.000000
0
3DFACE
8
0
10
-25.965927
20
-4.741181
30
15.000000
11
-25.965927
21
-4.741181
31
20.000000
12
-26.000000
22
-5.000000
32
15.000000
13
-26.000000
23
-5.000000
33
15.000000
0
3DFACE
8
0
10
-26.000000
20
-5.000000
30
15.000000
11
-25.965927
21
-4.741181
31
20.000000
12
-26.000000
22
-5.000000
32
20.000000
13
-26.000000
23
-5.000000
33
20.000000
0
3DFACE
8
0
10
-26.000000
20
-5.000000
30
15.000000
11
-26.000000
21
-5.000000
31
20.000000
12
-25.965927
22
-5.258819
32
15.000000
13
-25.965927
23
-5.258819
33
15.000000
0
3DFACE
8
0
10
-25.965927
20
-5.258819
30
15.000000
11
-26.000000
21
-5.000000
31
20.000000
12
-25.965927
22
-5.258819
32
20.000000
13
-25.965927
23
-5.258819
33
20.000000
0
3DFACE
8
0
10
-25.965927
20
-5.258819
30
15.000000
11
-25.965927
21
-5.258819
31
20.000000
12
-25.866026
22
-5.500000
32
15.000000
13
-25.866026
23
-5.500000
33
15.000000
0
3DFACE
8
0
10
-25.866026
20
-5.500000
30
15.000000
11
-25.965927
21
-5.258819
31
20.000000
12
-25.866026
22
-5.500000
32
20.000000
13
-25.866026
23
-5.500000
33
20.000000
0
3DFACE
8
0
10
-25.866026
20
-5.500000
30
15.000000
11
-25.866026
21
-5.500000
31
20.000000
12
-25.707108
22
-5.707107
32
15.000000
13
-25.707108
23
-5.707107
33
15.000000
0
3DFACE
8
0
10
-25.707108
20
-5.707107
30
15.000000
11
-25.866026
21
-5.500000
31
20.000000
12
-25.707108
22
-5.707107
32
20.000000
13
-25.707108
23
-5.707107
33
20.000000
0
3DFACE
8
0
10
-25.707108
20
-5.707107
30
15.000000
11
-25.707108
21
-5.707107
31
20.000000
12
-25.500000
22
-5.866025
32
15.000000
13
-25.500000
23
-5.866025
33
15.000000
0
3DFACE
8
0
10
-25.500000
20
-5.866025
30
15.000000
11
-25.707108
21
-5.707107
31
20.000000
12
-25.500000
22
-5.866025
32
20.000000
13
-25.500000
23
-5.866025
33
20.000000
0
3DFACE
8
0
10
-25.500000
20
-5.866025
30
15.000000
11
-25.500000
21
-5.866025
31
20.000000
12
-25.258820
22
-5.965926
32
15.000000
13
-25.258820
23
-5.965926
33
15.000000
0
3DFACE
8
0
10
-25.258820
20
-5.965926
30
15.000000
11
-25.500000
21
-5.866025
31
20.000000
12
-25.258820
22
-5.965926
32
20.000000
13
-25.258820
23
-5.965926
33
20.000000
0
3DFACE
8
0
10
-25.258820
20
-5.965926
30
15.000000
11
-25.258820
21
-5.965926
31
20.000000
12
-25.000000
22
-6.000000
32
15.000000
13
-25.000000
23
-6.000000
33
15.000000
0
3DFACE
8
0
10
-25.000000
20
-6.000000
30
15.000000
11
-25.258820
21
-5.965926
31
20.000000
12
-25.000000
22
-6.000000
32
20.000000
13
-25.000000
23
-6.000000
33
20.000000
0
3DFACE
8
0
10
-25.000000
20
-6.000000
30
15.000000
11
-25.000000
21
-6.000000
31
20.000000
12
-24.741180
22
-5.965926
32
15.000000
13
-24.741180
23
-5.965926
33
15.000000
0
3DFACE
8
0
10
-24.741180
20
-5.965926
30
15.000000
11
-25.000000
21
-6.000000
31
20.000000
12
-24.741180
22
-5.965926
32
20.000000
13
-24.741180
23
-5.965926
33
20.000000
0
3DFACE
8
0
10
-24.741180
20
-5.965926
30
15.000000
11
-24.741180
21
-5.965926
31
20.000000
12
-24.500000
22
-5.866025
32
15.000000
13
-24.500000
23
-5.866025
33
15.000000
0
3DFACE
8
0
10
-24.500000
20
-5.866025
30
15.000000
11
-24.741180
21
-5.965926
31
20.000000
12
-24.500000
22
-5.866025
32
20.000000
13
-24.500000
23
-5.866025
33
20.000000
0
3DFACE
8
0
10
-24.500000
20
-5.866025
30
15.000000
11
-24.500000
21
-5.866025
31
20.000000
12
-24.292894
22
-5.707107
32
15.000000
13
-24.292894
23
-5.707107
33
15.000000
0
3DFACE
8
0
10
-24.292894
20
-5.707107
30
15.000000
11
-24.500000
21
-5.866025
31
20.000000
12
-24.292894
22
-5.707107
32
20.000000
13
-24.292894
23
-5.707107
33
20.000000
0
3DFACE
8
0
10
-24.292894
20
-5.707107
30
15.000000
11
-24.292894
21
-5.707107
31
20.000000
12
-24.133974
22
-5.500000
32
15.000000
13
-24.133974
23
-5.500000
33
15.000000
0
3DFACE
8
0
10
-24.133974
20
-5.500000
30
15.000000
11
-24.292894
21
-5.707107
31
20.000000
12
-24.133974
22
-5.500000
32
20.000000
13
-24.133974
23
-5.500000
33
20.000000
0
3DFACE
8
0
10
-24.133974
20
-5.500000
30
15.000000
11
-24.133974
21
-5.500000
31
20.000000
12
-24.034075
22
-5.258819
32
15.000000
13
-24.034075
23
-5.258819
33
15.000000
0
3DFACE
8
0
10
-24.034075
20
-5.258819
30
15.000000
11
-24.133974
21
-5.500000
31
20.000000
12
-24.034075
22
-5.258819
32
20.000000
13
-24.034075
23
-5.258819
33
20.000000
0
3DFACE
8
0
10
-24.034075
20
-5.258819
30
15.000000
11
-24.034075
21
-5.258819
31
20.000000
12
-24.000000
22
-5.000000
32
15.000000
13
-24.000000
23
-5.000000
33
15.000000
0
3DFACE
8
0
10
-24.000000
20
-5.000000
30
15.000000
11
-24.034075
21
-5.258819
31
20.000000
12
-24.000000
22
-5.000000
32
20.000000
13
-24.000000
23
-5.000000
33
20.000000
0
3DFACE
8
0
10
-24.000000
20
-5.000000
30
20.000000
11
-24.000000
21
-5.000000
31
25.000000
12
-24.034075
22
-4.741181
32
20.000000
13
-24.034075
23
-4.741181
33
20.000000
0
3DFACE
8
0
10
-24.034075
20
-4.741181
30
20.000000
11
-24.000000
21
-5.000000
31
25.000000
12
-24.034075
22
-4.741181
32
25.000000
13
-24.034075
23
-4.741181
33
25.000000
0
3DFACE
8
0
10
-24.034075
20
-4.741181
30
20.000000
11
-24.034075
21
-4.741181
31
25.000000
12
-24.133974
22
-4.500000
32
20.000000
13
-24.133974
23
-4.500000
33
20.000000
0
3DFACE
8
0
10
-24.133974
20
-4.500000
30
20.000000
11
-24.034075
21
-4.741181
31
25.000000
12
-24.133974
22
-4.500000
32
25.000000
13
-24.133974
23
-4.500000
33
25.000000
0
3DFACE
8
0
10
-24.133974
20
-4.500000
30
20.000000
11
-24.133974
21
-4.500000
31
25.000000
12
-24.292894
22
-4.292893
32
20.000000
13
-24.292894
23
-4.292893
33
20.000000
0
3DFACE
8
0
10
-24.292894
20
-4.292893
30
20.000000
11
-24.133974
21
-4.500000
31
25.000000
12
-24.292894
22
-4.292893
32
25.000000
13
-24.292894
23
-4.292893
33
25.000000
0
3DFACE
8
0
10
-24.292894
20
-4.292893
30
20.000000
11
-24.292894
21
-4.292893
31
25.000000
12
-24.500000
22
-4.133975
32
20.000000
13
-24.500000
23
-4.133975
33
20.000000
0
3DFACE
8
0
10
-24.500000
20
-4.133975
30
20.000000
11
-24.292894
21
-4.292893
31
25.000000
12
-24.500000
22
-4.133975
32
25.000000
13
-24.500000
23
-4.133975
33
25.000000
0
3DFACE
8
0
10
-24.500000
20
-4.133975
30
20.000000
11
-24.500000
21
-4.133975
31
25.000000
12
-24.741180
22
-4.034074
32
20.000000
13
-24.741180
23
-4.034074
33
20.000000
0
3DFACE
8
0
10
-24.741180
20
-4.034074
30
20.000000
11
-24.500000
21
-4.133975
31
25.000000
12
-24.741180
22
-4.034074
32
25.000000
13
-24.741180
23
-4.034074
33
25.000000
0
3DFACE
8
0
10
-24.741180
20
-4.034074
30
20.000000
11
-24.741180
21
-4.034074
31
25.000000
12
-25.000000
22
-4.000000
32
20.000000
13
-25.000000
23
-4.000000
33
20.000000
0
3DFACE
8
0
10
-25.000000
20
-4.000000
30
20.000000
11
-24.741180
21
-4.034074
31
25.000000
12
-25.000000
22
-4.000000
32
25.000000
13
-25.000000
23
-4.000000
33
25.000000
0
3DFACE
8
0
10
-25.000000
20
-4.000000
30
20.000000
11
-25.000000
21
-4.000000
31
25.000000
12
-25.258820
22
-4.034074
32
20.000000
13
-25.258820
23
-4.034074
33
20.000000
0
3DFACE
8
0
10
-25.258820
20
-4.034074
30
20.000000
11
-25.000000
21
-4.000000
31
25.000000
12
-25.258820
22
-4.034074
32
25.000000
13
-25.258820
23
-4.034074
33
25.000000
0
3DFACE
8
0
10
-25.258820
20
-4.034074
30
20.000000
11
-25.258820
21
-4.034074
31
25.000000
12
-25.500000
22
-4.133975
32
20.000000
13
-25.500000
23
-4.133975
33
20.000000
0
3DFACE
8
0
10
-25.500000
20
-4.133975
30
20.000000
11
-25.258820
21
-4.034074
31
25.000000
12
-25.500000
22
-4.133975
32
25.000000
13
-25.500000
23
-4.133975
33
25.000000
0
3DFACE
8
0
10
-25.500000
20
-4.133975
30
20.000000
11
-25.500000
21
-4.133975
31
25.000000
12
-25.707108
22
-4.292893
32
20.000000
13
-25.707108
23
-4.292893
33
20.000000
0
3DFACE
8
0
10
-25.707108
20
-4.292893
30
20.000000
11
-25.500000
21
-4.133975
31
25.000000
12
-25.707108
22
-4.292893
32
25.000000
13
-25.707108
23
-4.292893
33
25.000000
0
3DFACE
8
0
10
-25.707108
20
-4.292893
30
20.000000
11
-25.707108
21
-4.292893
31
25.000000
12
-25.866026
22
-4.500000
32
20.000000
13
-25.866026
23
-4.500000
33
20.000000
0
3DFACE
8
0
10
-25.866026
20
-4.500000
30
20.000000
11
-25.707108
21
-4.292893
31
25.000000
12
-25.866026
22
-4.500000
32
25.000000
13
-25.866026
23
-4.500000
33
25.000000
0
3DFACE
8
0
10
-25.866026
20
-4.500000
30
20.000000
11
-25.866026
21
-4.500000
31
25.000000
12
-25.965927
22
-4.741181
32
20.000000
13
-25.965927
23
-4.741181
33
20.000000
0
3DFACE
8
0
10
-25.965927
20
-4.741181
30
20.000000
11
-25.866026
21
-4.500000
31
25.000000
12
-25.965927
22
-4.741181
32
25.000000
13
-25.965927
23
-4.741181
33
25.000000
0
3DFACE
8
0
10
-25.965927
20
-4.741181
30
20.000000
11
-25.965927
21
-4.741181
31
25.000000
12
-26.000000
22
-5.000000
32
20.000000
13
-26.000000
23
-5.000000
33
20.000000
0
3DFACE
8
0
10
-26.000000
20
-5.000000
30
20.000000
11
-25.965927
21
-4.741181
31
25.000000
12
-26.000000
22
-5.000000
32
25.000000
13
-26.000000
23
-5.000000
33
25.000000
0
3DFACE
8
0
10
-26.000000
20
-5.000000
30
20.000000
11
-26.000000
21
-5.000000
31
25.000000
12
-25.965927
22
-5.258819
32
20.000000
13
-25.965927
23
-5.258819
33
20.000000
0
3DFACE
8
0
10
-25.965927
20
-5.258819
30
20.000000
11
-26.000000
21
-5.000000
31
25.000000
12
-25.965927
22
-5.258819
32
25.000000
13
-25.965927
23
-5.258819
33
25.000000
0
3DFACE
8
0
10
-25.965927
20
-5.258819
30
20.000000
11
-25.965927
21
-5.258819
31
25.000000
12
-25.866026
22
-5.500000
32
20.000000
13
-25.866026
23
-5.500000
33
20.000000
0
3DFACE
8
0
10
-25.866026
20
-5.500000
30
20.000000
11
-25.965927
21
-5.258819
31
25.000000
12
-25.866026
22
-5.500000
32
25.000000
13
-25.866026
23
-5.500000
33
25.000000
0
3DFACE
8
0
10
-25.866026
20
-5.500000
30
20.000000
11
-25.866026
21
-5.500000
31
25.000000
12
-25.707108
22
-5.707107
32
20.000000
13
-25.707108
23
-5.707107
33
20.000000
0
3DFACE
8
0
10
-25.707108
20
-5.707107
30
20.000000
11
-25.866026
21
-5.500000
31
25.000000
12
-25.707108
22
-5.707107
32
25.000000
13
-25.707108
23
-5.707107
33
25.000000
0
3DFACE
8
0
10
-25.707108
20
-5.707107
30
20.000000
11
-25.707108
21
-5.707107
31
25.000000
12
-25.500000
22
-5.866025
32
20.000000
13
-25.500000
23
-5.866025
33
20.000000
0
3DFACE
8
0
10
-25.500000
20
-5.866025
30
20.000000
11
-25.707108
21
-5.707107
31
25.000000
12
-25.500000
22
-5.866025
32
25.000000
13
-25.500000
23
-5.866025
33
25.000000
0
3DFACE
8
0
10
-25.500000
20
-5.866025
30
20.000000
11
-25.500000
21
-5.866025
31
25.000000
12
-25.258820
22
-5.965926
32
20.000000
13
-25.258820
23
-5.965926
33
20.000000
0
3DFACE
8
0
10
-25.258820
20
-5.965926
30
20.000000
11
-25.500000
21
-5.866025
31
25.000000
12
-25.258820
22
-5.965926
32
25.000000
13
-25.258820
23
-5.965926
33
25.000000
0
3DFACE
8
0
10
-25.258820
20
-5.965926
30
20.000000
11
-25.258820
21
-5.965926
31
25.000000
12
-25.000000
22
-6.000000
32
20.000000
13
-25.000000
23
-6.000000
33
20.000000
0
3DFACE
8
0
10
-25.000000
20
-6.000000
30
20.000000
11
-25.258820
21
-5.965926
31
25.000000
12
-25.000000
22
-6.000000
32
25.000000
13
-25.000000
23
-6.000000
33
25.000000
0
3DFACE
8
0
10
-25.000000
20
-6.000000
30
20.000000
11
-25.000000
21
-6.000000
31
25.000000
12
-24.741180
22
-5.965926
32
20.000000
13
-24.741180
23
-5.965926
33
20.000000
0
3DFACE
8
0
10
-24.741180
20
-5.965926
30
20.000000
11
-25.000000
21
-6.000000
31
25.000000
12
-24.741180
22
-5.965926
32
25.000000
13
-24.741180
23
-5.965926
33
25.000000
0
3DFACE
8
0
10
-24.741180
20
-5.965926
30
20.000000
11
-24.741180
21
-5.965926
31
25.000000
12
-24.500000
22
-5.866025
32
20.000000
13
-24.500000
23
-5.866025
33
20.000000
0
3DFACE
8
0
10
-24.500000
20
-5.866025
30
20.000000
11
-24.741180
21
-5.965926
31
25.000000
12
-24.500000
22
-5.866025
32
25.000000
13
-24.500000
23
-5.866025
33
25.000000
0
3DFACE
8
0
10
-24.500000
20
-5.866025
30
20.000000
11
-24.500000
21
-5.866025
31
25.000000
12
-24.292894
22
-5.707107
32
20.000000
13
-24.292894
23
-5.707107
33
20.000000
0
3DFACE
8
0
10
-24.292894
20
-5.707107
30
20.000000
11
-24.500000
21
-5.866025
31
25.000000
12
-24.292894
22
-5.707107
32
25.000000
13
-24.292894
23
-5.707107
33
25.000000
0
3DFACE
8
0
10
-24.292894
20
-5.707107
30
20.000000
11
-24.292894
21
-5.707107
31
25.000000
12
-24.133974
22
-5.500000
32
20.000000
13
-24.133974
23
-5.500000
33
20.000000
0
3DFACE
8
0
10
-24.133974
20
-5.500000
30
20.000000
11
-24.292894
21
-5.707107
31
25.000000
12
-24.133974
22
-5.500000
32
25.000000
13
-24.133974
23
-5.500000
33
25.000000
0
3DFACE
8
0
10
-24.133974
20
-5.500000
30
20.000000
11
-24.133974
21
-5.500000
31
25.000000
12
-24.034075
22
-5.258819
32
20.000000
13
-24.034075
23
-5.258819
33
20.000000
0
3DFACE
8
0
10
-24.034075
20
-5.258819
30
20.000000
11
-24.133974
21
-5.500000
31
25.000000
12
-24.034075
22
-5.258819
32
25.000000
13
-24.034075
23
-5.258819
33
25.000000
0
3DFACE
8
0
10
-24.034075
20
-5.258819
30
20.000000
11
-24.034075
21
-5.258819
31
25.000000
12
-24.000000
22
-5.000000
32
20.000000
13
-24.000000
23
-5.000000
33
20.000000
0
3DFACE
8
0
10
-24.000000
20
-5.000000
30
20.000000
11
-24.034075
21
-5.258819
31
25.000000
12
-24.000000
22
-5.000000
32
25.000000
13
-24.000000
23
-5.000000
33
25.000000
0
3DFACE
8
0
10
25.965927
20
4.741181
30
10.000000
11
25.965927
21
4.741181
31
15.000000
12
26.000000
22
5.000000
32
10.000000
13
26.000000
23
5.000000
33
10.000000
0
3DFACE
8
0
10
26.000000
20
5.000000
30
10.000000
11
25.965927
21
4.741181
31
15.000000
12
26.000000
22
5.000000
32
15.000000
13
26.000000
23
5.000000
33
15.000000
0
3DFACE
8
0
10
26.000000
20
5.000000
30
10.000000
11
26.000000
21
5.000000
31
15.000000
12
25.965927
22
5.258819
32
10.000000
13
25.965927
23
5.258819
33
10.000000
0
3DFACE
8
0
10
25.965927
20
5.258819
30
10.000000
11
26.000000
21
5.000000
31
15.000000
12
25.965927
22
5.258819
32
15.000000
13
25.965927
23
5.258819
33
15.000000
0
3DFACE
8
0
10
25.965927
20
5.258819
30
10.000000
11
25.965927
21
5.258819
31
15.000000
12
25.866026
22
5.500000
32
10.000000
13
25.866026
23
5.500000
33
10.000000
0
3DFACE
8
0
10
25.866026
20
5.500000
30
10.000000
11
25.965927
21
5.258819
31
15.000000
12
25.866026
22
5.500000
32
15.000000
13
25.866026
23
5.500000
33
15.000000
0
3DFACE
8
0
10
25.866026
20
5.500000
30
10.000000
11
25.866026
21
5.500000
31
15.000000
12
25.707108
22
5.707107
32
10.000000
13
25.707108
23
5.707107
33
10.000000
0
3DFACE
8
0
10
25.707108
20
5.707107
30
10.000000
11
25.866026
21
5.500000
31
15.000000
12
25.707108
22
5.707107
32
15.000000
13
25.707108
23
5.707107
33
15.000000
0
3DFACE
8
0
10
25.707108
20
5.707107
30
10.000000
11
25.707108
21
5.707107
31
15.000000
12
25.500000
22
5.866025
32
10.000000
13
25.500000
23
5.866025
33
10.000000
0
3DFACE
8
0
10
25.500000
20
5.866025
30
10.000000
11
25.707108
21
5.707107
31
15.000000
12
25.500000
22
5.866025
32
15.000000
13
25.500000
23
5.866025
33
15.000000
0
3DFACE
8
0
10
25.500000
20
5.866025
30
10.000000
11
25.500000
21
5.866025
31
15.000000
12
25.258820
22
5.965926
32
10.000000
13
25.258820
23
5.965926
33
10.000000
0
3DFACE
8
0
10
25.258820
20
5.965926
30
10.000000
11
25.500000
21
5.866025
31
15.000000
12
25.258820
22
5.965926
32
15.000000
13
25.258820
23
5.965926
33
15.000000
0
3DFACE
8
0
10
25.258820
20
5.965926
30
10.000000
11
25.258820
21
5.965926
31
15.000000
12
25.000000
22
6.000000
32
10.000000
13
25.000000
23
6.000000
33
10.000000
0
3DFACE
8
0
10
25.000000
20
6.000000
30
10.000000
11
25.258820
21
5.965926
31
15.000000
12
25.000000
22
6.000000
32
15.000000
13
25.000000
23
6.000000
33
15.000000
0
3DFACE
8
0
10
25.000000
20
6.000000
30
10.000000
11
25.000000
21
6.000000
31
15.000000
12
24.741180
22
5.965926
32
10.000000
13
24.741180
23
5.965926
33
10.000000
0
3DFACE
8
0
10
24.741180
20
5.965926
30
10.000000
11
25.000000
21
6.000000
31
15.000000
12
24.741180
22
5.965926
32
15.000000
13
24.741180
23
5.965926
33
15.000000
0
3DFACE
8
0
10
24.741180
20
5.965926
30
10.000000
11
24.741180
21
5.965926
31
15.000000
12
24.500000
22
5.866025
32
10.000000
13
24.500000
23
5.866025
33
10.000000
0
3DFACE
8
0
10
24.500000
20
5.866025
30
10.000000
11
24.741180
21
5.965926
31
15.000000
12
24.500000
22
5.866025
32
15.000000
13
24.500000
23
5.866025
33
15.000000
0
3DFACE
8
0
10
24.500000
20
5.866025
30
10.000000
11
24.500000
21
5.866025
31
15.000000
12
24.292894
22
5.707107
32
10.000000
13
24.292894
23
5.707107
33
10.000000
0
3DFACE
8
0
10
24.292894
20
5.707107
30
10.000000
11
24.500000
21
5.866025
31
15.000000
12
24.292894
22
5.707107
32
15.000000
13
24.292894
23
5.707107
33
15.000000
0
3DFACE
8
0
10
24.292894
20
5.707107
30
10.000000
11
24.292894
21
5.707107
31
15.000000
12
24.133974
22
5.500000
32
10.000000
13
24.133974
23
5.500000
33
10.000000
0
3DFACE
8
0
10
24.133974
20
5.500000
30
10.000000
11
24.292894
21
5.707107
31
15.000000
12
24.133974
22
5.500000
32
15.000000
13
24.133974
23
5.500000
33
15.000000
0
3DFACE
8
0
10
24.133974
20
5.500000
30
10.000000
11
24.133974
21
5.500000
31
15.000000
12
24.034075
22
5.258819
32
10.000000
13
24.034075
23
5.258819
33
10.000000
0
3DFACE
8
0
10
24.034075
20
5.258819
30
10.000000
11
24.133974
21
5.500000
31
15.000000
12
24.034075
22
5.258819
32
15.000000
13
24.034075
23
5.258819
33
15.000000
0
3DFACE
8
0
10
24.034075
20
5.258819
30
10.000000
11
24.034075
21
5.258819
31
15.000000
12
24.000000
22
5.000000
32
10.000000
13
24.000000
23
5.000000
33
10.000000
0
3DFACE
8
0
10
24.000000
20
5.000000
30
10.000000
11
24.034075
21
5.258819
31
15.000000
12
24.000000
22
5.000000
32
15.000000
13
24.000000
23
5.000000
33
15.000000
0
3DFACE
8
0
10
24.000000
20
5.000000
30
10.000000
11
24.000000
21
5.000000
31
15.000000
12
24.034075
22
4.741181
32
10.000000
13
24.034075
23
4.741181
33
10.000000
0
3DFACE
8
0
10
24.034075
20
4.741181
30
10.000000
11
24.000000
21
5.000000
31
15.000000
12
24.034075
22
4.741181
32
15.000000
13
24.034075
23
4.741181
33
15.000000
0
3DFACE
8
0
10
24.034075
20
4.741181
30
10.000000
11
24.034075
21
4.741181
31
15.000000
12
24.133974
22
4.500000
32
10.000000
13
24.133974
23
4.500000
33
10.000000
0
3DFACE
8
0
10
24.133974
20
4.500000
30
10.000000
11
24.034075
21
4.741181
31
15.000000
12
24.133974
22
4.500000
32
15.000000
13
24.133974
23
4.500000
33
15.000000
0
3DFACE
8
0
10
24.133974
20
4.500000
30
10.000000
11
24.133974
21
4.500000
31
15.000000
12
24.292894
22
4.292893
32
10.000000
13
24.292894
23
4.292893
33
10.000000
0
3DFACE
8
0
10
24.292894
20
4.292893
30
10.000000
11
24.133974
21
4.500000
31
15.000000
12
24.292894
22
4.292893
32
15.000000
13
24.292894
23
4.292893
33
15.000000
0
3DFACE
8
0
10
24.292894
20
4.292893
30
10.000000
11
24.292894
21
4.292893
31
15.000000
12
24.500000
22
4.133975
32
10.000000
13
24.500000
23
4.133975
33
10.000000
0
3DFACE
8
0
10
24.500000
20
4.133975
30
10.000000
11
24.292894
21
4.292893
31
15.000000
12
24.500000
22
4.133975
32
15.000000
13
24.500000
23
4.133975
33
15.000000
0
3DFACE
8
0
10
24.500000
20
4.133975
30
10.000000
11
24.500000
21
4.133975
31
15.000000
12
24.741180
22
4.034074
32
10.000000
13
24.741180
23
4.034074
33
10.000000
0
3DFACE
8
0
10
24.741180
20
4.034074
30
10.000000
11
24.500000
21
4.133975
31
15.000000
12
24.741180
22
4.034074
32
15.000000
13
24.741180
23
4.034074
33
15.000000
0
3DFACE
8
0
10
24.741180
20
4.034074
30
10.000000
11
24.741180
21
4.034074
31
15.000000
12
25.000000
22
4.000000
32
10.000000
13
25.000000
23
4.000000
33
10.000000
0
3DFACE
8
0
10
25.000000
20
4.000000
30
10.000000
11
24.741180
21
4.034074
31
15.000000
12
25.000000
22
4.000000
32
15.000000
13
25.000000
23
4.000000
33
15.000000
0
3DFACE
8
0
10
25.000000
20
4.000000
30
10.000000
11
25.000000
21
4.000000
31
15.000000
12
25.258820
22
4.034074
32
10.000000
13
25.258820
23
4.034074
33
10.000000
0
3DFACE
8
0
10
25.258820
20
4.034074
30
10.000000
11
25.000000
21
4.000000
31
15.000000
12
25.258820
22
4.034074
32
15.000000
13
25.258820
23
4.034074
33
15.000000
0
3DFACE
8
0
10
25.258820
20
4.034074
30
10.000000
11
25.258820
21
4.034074
31
15.000000
12
25.500000
22
4.133975
32
10.000000
13
25.500000
23
4.133975
33
10.000000
0
3DFACE
8
0
10
25.500000
20
4.133975
30
10.000000
11
25.258820
21
4.034074
31
15.000000
12
25.500000
22
4.133975
32
15.000000
13
25.500000
23
4.133975
33
15.000000
0
3DFACE
8
0
10
25.500000
20
4.133975
30
10.000000
11
25.500000
21
4.133975
31
15.000000
12
25.707108
22
4.292893
32
10.000000
13
25.707108
23
4.292893
33
10.000000
0
3DFACE
8
0
10
25.707108
20
4.292893
30
10.000000
11
25.500000
21
4.133975
31
15.000000
12
25.707108
22
4.292893
32
15.000000
13
25.707108
23
4.292893
33
15.000000
0
3DFACE
8
0
10
25.707108
20
4.292893
30
10.000000
11
25.707108
21
4.292893
31
15.000000
12
25.866026
22
4.500000
32
10.000000
13
25.866026
23
4.500000
33
10.000000
0
3DFACE
8
0
10
25.866026
20
4.500000
30
10.000000
11
25.707108
21
4.292893
31
15.000000
12
25.866026
22
4.500000
32
15.000000
13
25.866026
23
4.500000
33
15.000000
0
3DFACE
8
0
10
25.866026
20
4.500000
30
10.000000
11
25.866026
21
4.500000
31
15.000000
12
25.965927
22
4.741181
32
10.000000
13
25.965927
23
4.741181
33
10.000000
0
3DFACE
8
0
10
25.965927
20
4.741181
30
10.000000
11
25.866026
21
4.500000
31
15.000000
12
25.965927
22
4.741181
32
15.000000
13
25.965927
23
4.741181
33
15.000000
0
3DFACE
8
0
10
25.965927
20
5.258819
30
30.000000
11
25.965927
21
5.258819
31
25.000000
12
26.000000
22
5.000000
32
30.000000
13
26.000000
23
5.000000
33
30.000000
0
3DFACE
8
0
10
26.000000
20
5.000000
30
30.000000
11
25.965927
21
5.258819
31
25.000000
12
26.000000
22
5.000000
32
25.000000
13
26.000000
23
5.000000
33
25.000000
0
3DFACE
8
0
10
26.000000
20
5.000000
30
30.000000
11
26.000000
21
5.000000
31
25.000000
12
25.965927
22
4.741181
32
30.000000
13
25.965927
23
4.741181
33
30.000000
0
3DFACE
8
0
10
25.965927
20
4.741181
30
30.000000
11
26.000000
21
5.000000
31
25.000000
12
25.965927
22
4.741181
32
25.000000
13
25.965927
23
4.741181
33
25.000000
0
3DFACE
8
0
10
25.965927
20
4.741181
30
30.000000
11
25.965927
21
4.741181
31
25.000000
12
25.866026
22
4.500000
32
30.000000
13
25.866026
23
4.500000
33
30.000000
0
3DFACE
8
0
10
25.866026
20
4.500000
30
30.000000
11
25.965927
21
4.741181
31
25.000000
12
25.866026
22
4.500000
32
25.000000
13
25.866026
23
4.500000
33
25.000000
0
3DFACE
8
0
10
25.866026
20
4.500000
30
30.000000
11
25.866026
21
4.500000
31
25.000000
12
25.707108
22
4.292893
32
30.000000
13
25.707108
23
4.292893
33
30.000000
0
3DFACE
8
0
10
25.707108
20
4.292893
30
30.000000
11
25.866026
21
4.500000
31
25.000000
12
25.707108
22
4.292893
32
25.000000
13
25.707108
23
4.292893
33
25.000000
0
3DFACE
8
0
10
25.707108
20
4.292893
30
30.000000
11
25.707108
21
4.292893
31
25.000000
12
25.500000
22
4.133975
32
30.000000
13
25.500000
23
4.133975
33
30.000000
0
3DFACE
8
0
10
25.500000
20
4.133975
30
30.000000
11
25.707108
21
4.292893
31
25.000000
12
25.500000
22
4.133975
32
25.000000
13
25.500000
23
4.133975
33
25.000000
0
3DFACE
8
0
10
25.500000
20
4.133975
30
30.000000
11
25.500000
21
4.133975
31
25.000000
12
25.258820
22
4.034074
32
30.000000
13
25.258820
23
4.034074
33
30.000000
0
3DFACE
8
0
10
25.258820
20
4.034074
30
30.000000
11
25.500000
21
4.133975
31
25.000000
12
25.258820
22
4.034074
32
25.000000
13
25.258820
23
4.034074
33
25.000000
0
3DFACE
8
0
10
25.258820
20
4.034074
30
30.000000
11
25.258820
21
4.034074
31
25.000000
12
25.000000
22
4.000000
32
30.000000
13
25.000000
23
4.000000
33
30.000000
0
3DFACE
8
0
10
25.000000
20
4.000000
30
30.000000
11
25.258820
21
4.034074
31
25.000000
12
25.000000
22
4.000000
32
25.000000
13
25.000000
23
4.000000
33
25.000000
0
3DFACE
8
0
10
25.000000
20
4.000000
30
30.000000
11
25.000000
21
4.000000
31
25.000000
12
24.741180
22
4.034074
32
30.000000
13
24.741180
23
4.034074
33
30.000000
0
3DFACE
8
0
10
24.741180
20
4.034074
30
30.000000
11
25.000000
21
4.000000
31
25.000000
12
24.741180
22
4.034074
32
25.000000
13
24.741180
23
4.034074
33
25.000000
0
3DFACE
8
0
10
24.741180
20
4.034074
30
30.000000
11
24.741180
21
4.034074
31
25.000000
12
24.500000
22
4.133975
32
30.000000
13
24.500000
23
4.133975
33
30.000000
0
3DFACE
8
0
10
24.500000
20
4.133975
30
30.000000
11
24.741180
21
4.034074
31
25.000000
12
24.500000
22
4.133975
32
25.000000
13
24.500000
23
4.133975
33
25.000000
0
3DFACE
8
0
10
24.500000
20
4.133975
30
30.000000
11
24.500000
21
4.133975
31
25.000000
12
24.292894
22
4.292893
32
30.000000
13
24.292894
23
4.292893
33
30.000000
0
3DFACE
8
0
10
24.292894
20
4.292893
30
30.000000
11
24.500000
21
4.133975
31
25.000000
12
24.292894
22
4.292893
32
25.000000
13
24.292894
23
4.292893
33
25.000000
0
3DFACE
8
0
10
24.292894
20
4.292893
30
30.000000
11
24.292894
21
4.292893
31
25.000000
12
24.133974
22
4.500000
32
30.000000
13
24.133974
23
4.500000
33
30.000000
0
3DFACE
8
0
10
24.133974
20
4.500000
30
30.000000
11
24.292894
21
4.292893
31
25.000000
12
24.133974
22
4.500000
32
25.000000
13
24.133974
23
4.500000
33
25.000000
0
3DFACE
8
0
10
24.133974
20
4.500000
30
30.000000
11
24.133974
21
4.500000
31
25.000000
12
24.034075
22
4.741181
32
30.000000
13
24.034075
23
4.741181
33
30.000000
0
3DFACE
8
0
10
24.034075
20
4.741181
30
30.000000
11
24.133974
21
4.500000
31
25.000000
12
24.034075
22
4.741181
32
25.000000
13
24.034075
23
4.741181
33
25.000000
0
3DFACE
8
0
10
24.034075
20
4.741181
30
30.000000
11
24.034075
21
4.741181
31
25.000000
12
24.000000
22
5.000000
32
30.000000
13
24.000000
23
5.000000
33
30.000000
0
3DFACE
8
0
10
24.000000
20
5.000000
30
30.000000
11
24.034075
21
4.741181
31
25.000000
12
24.000000
22
5.000000
32
25.000000
13
24.000000
23
5.000000
33
25.000000
0
3DFACE
8
0
10
24.000000
20
5.000000
30
30.000000
11
24.000000
21
5.000000
31
25.000000
12
24.034075
22
5.258819
32
30.000000
13
24.034075
23
5.258819
33
30.000000
0
3DFACE
8
0
10
24.034075
20
5.258819
30
30.000000
11
24.000000
21
5.000000
31
25.000000
12
24.034075
22
5.258819
32
25.000000
13
24.034075
23
5.258819
33
25.000000
0
3DFACE
8
0
10
24.034075
20
5.258819
30
30.000000
11
24.034075
21
5.258819
31
25.000000
12
24.133974
22
5.500000
32
30.000000
13
24.133974
23
5.500000
33
30.000000
0
3DFACE
8
0
10
24.133974
20
5.500000
30
30.000000
11
24.034075
21
5.258819
31
25.000000
12
24.133974
22
5.500000
32
25.000000
13
24.133974
23
5.500000
33
25.000000
0
3DFACE
8
0
10
24.133974
20
5.500000
30
30.000000
11
24.133974
21
5.500000
31
25.000000
12
24.292894
22
5.707107
32
30.000000
13
24.292894
23
5.707107
33
30.000000
0
3DFACE
8
0
10
24.292894
20
5.707107
30
30.000000
11
24.133974
21
5.500000
31
25.000000
12
24.292894
22
5.707107
32
25.000000
13
24.292894
23
5.707107
33
25.000000
0
3DFACE
8
0
10
24.292894
20
5.707107
30
30.000000
11
24.292894
21
5.707107
31
25.000000
12
24.500000
22
5.866025
32
30.000000
13
24.500000
23
5.866025
33
30.000000
0
3DFACE
8
0
10
24.500000
20
5.866025
30
30.000000
11
24.292894
21
5.707107
31
25.000000
12
24.500000
22
5.866025
32
25.000000
13
24.500000
23
5.866025
33
25.000000
0
3DFACE
8
0
10
24.500000
20
5.866025
30
30.000000
11
24.500000
21
5.866025
31
25.000000
12
24.741180
22
5.965926
32
30.000000
13
24.741180
23
5.965926
33
30.000000
0
3DFACE
8
0
10
24.741180
20
5.965926
30
30.000000
11
24.500000
21
5.866025
31
25.000000
12
24.741180
22
5.965926
32
25.000000
13
24.741180
23
5.965926
33
25.000000
0
3DFACE
8
0
10
24.741180
20
5.965926
30
30.000000
11
24.741180
21
5.965926
31
25.000000
12
25.000000
22
6.000000
32
30.000000
13
25.000000
23
6.000000
33
30.000000
0
3DFACE
8
0
10
25.000000
20
6.000000
30
30.000000
11
24.741180
21
5.965926
31
25.000000
12
25.000000
22
6.000000
32
25.000000
13
25.000000
23
6.000000
33
25.000000
0
3DFACE
8
0
10
25.000000
20
6.000000
30
30.000000
11
25.000000
21
6.000000
31
25.000000
12
25.258820
22
5.965926
32
30.000000
13
25.258820
23
5.965926
33
30.000000
0
3DFACE
8
0
10
25.258820
20
5.965926
30
30.000000
11
25.000000
21
6.000000
31
25.000000
12
25.258820
22
5.965926
32
25.000000
13
25.258820
23
5.965926
33
25.000000
0
3DFACE
8
0
10
25.258820
20
5.965926
30
30.000000
11
25.258820
21
5.965926
31
25.000000
12
25.500000
22
5.866025
32
30.000000
13
25.500000
23
5.866025
33
30.000000
0
3DFACE
8
0
10
25.500000
20
5.866025
30
30.000000
11
25.258820
21
5.965926
31
25.000000
12
25.500000
22
5.866025
32
25.000000
13
25.500000
23
5.866025
33
25.000000
0
3DFACE
8
0
10
25.500000
20
5.866025
30
30.000000
11
25.500000
21
5.866025
31
25.000000
12
25.707108
22
5.707107
32
30.000000
13
25.707108
23
5.707107
33
30.000000
0
3DFACE
8
0
10
25.707108
20
5.707107
30
30.000000
11
25.500000
21
5.866025
31
25.000000
12
25.707108
22
5.707107
32
25.000000
13
25.707108
23
5.707107
33
25.000000
0
3DFACE
8
0
10
25.707108
20
5.707107
30
30.000000
11
25.707108
21
5.707107
31
25.000000
12
25.866026
22
5.500000
32
30.000000
13
25.866026
23
5.500000
33
30.000000
0
3DFACE
8
0
10
25.866026
20
5.500000
30
30.000000
11
25.707108
21
5.707107
31
25.000000
12
25.866026
22
5.500000
32
25.000000
13
25.866026
23
5.500000
33
25.000000
0
3DFACE
8
0
10
25.866026
20
5.500000
30
30.000000
11
25.866026
21
5.500000
31
25.000000
12
25.965927
22
5.258819
32
30.000000
13
25.965927
23
5.258819
33
30.000000
0
3DFACE
8
0
10
25.965927
20
5.258819
30
30.000000
11
25.866026
21
5.500000
31
25.000000
12
25.965927
22
5.258819
32
25.000000
13
25.965927
23
5.258819
33
25.000000
0
3DFACE
8
0
10
26.000000
20
5.000000
30
15.000000
11
26.000000
21
5.000000
31
20.000000
12
25.965927
22
5.258819
32
15.000000
13
25.965927
23
5.258819
33
15.000000
0
3DFACE
8
0
10
25.965927
20
5.258819
30
15.000000
11
26.000000
21
5.000000
31
20.000000
12
25.965927
22
5.258819
32
20.000000
13
25.965927
23
5.258819
33
20.000000
0
3DFACE
8
0
10
25.965927
20
5.258819
30
15.000000
11
25.965927
21
5.258819
31
20.000000
12
25.866026
22
5.500000
32
15.000000
13
25.866026
23
5.500000
33
15.000000
0
3DFACE
8
0
10
25.866026
20
5.500000
30
15.000000
11
25.965927
21
5.258819
31
20.000000
12
25.866026
22
5.500000
32
20.000000
13
25.866026
23
5.500000
33
20.000000
0
3DFACE
8
0
10
25.866026
20
5.500000
30
15.000000
11
25.866026
21
5.500000
31
20.000000
12
25.707108
22
5.707107
32
15.000000
13
25.707108
23
5.707107
33
15.000000
0
3DFACE
8
0
10
25.707108
20
5.707107
30
15.000000
11
25.866026
21
5.500000
31
20.000000
12
25.707108
22
5.707107
32
20.000000
13
25.707108
23
5.707107
33
20.000000
0
3DFACE
8
0
10
25.707108
20
5.707107
30
15.000000
11
25.707108
21
5.707107
31
20.000000
12
25.500000
22
5.866025
32
15.000000
13
25.500000
23
5.866025
33
15.000000
0
3DFACE
8
0
10
25.500000
20
5.866025
30
15.000000
11
25.707108
21
5.707107
31
20.000000
12
25.500000
22
5.866025
32
20.000000
13
25.500000
23
5.866025
33
20.000000
0
3DFACE
8
0
10
25.500000
20
5.866025
30
15.000000
11
25.500000
21
5.866025
31
20.000000
12
25.258820
22
5.965926
32
15.000000
13
25.258820
23
5.965926
33
15.000000
0
3DFACE
8
0
10
25.258820
20
5.965926
30
15.000000
11
25.500000
21
5.866025
31
20.000000
12
25.258820
22
5.965926
32
20.000000
13
25.258820
23
5.965926
33
20.000000
0
3DFACE
8
0
10
25.258820
20
5.965926
30
15.000000
11
25.258820
21
5.965926
31
20.000000
12
25.000000
22
6.000000
32
15.000000
13
25.000000
23
6.000000
33
15.000000
0
3DFACE
8
0
10
25.000000
20
6.000000
30
15.000000
11
25.258820
21
5.965926
31
20.000000
12
25.000000
22
6.000000
32
20.000000
13
25.000000
23
6.000000
33
20.000000
0
3DFACE
8
0
10
25.000000
20
6.000000
30
15.000000
11
25.000000
21
6.000000
31
20.000000
12
24.741180
22
5.965926
32
15.000000
13
24.741180
23
5.965926
33
15.000000
0
3DFACE
8
0
10
24.741180
20
5.965926
30
15.000000
11
25.000000
21
6.000000
31
20.000000
12
24.741180
22
5.965926
32
20.000000
13
24.741180
23
5.965926
33
20.000000
0
3DFACE
8
0
10
24.741180
20
5.965926
30
15.000000
11
24.741180
21
5.965926
31
20.000000
12
24.500000
22
5.866025
32
15.000000
13
24.500000
23
5.866025
33
15.000000
0
3DFACE
8
0
10
24.500000
20
5.866025
30
15.000000
11
24.741180
21
5.965926
31
20.000000
12
24.500000
22
5.866025
32
20.000000
13
24.500000
23
5.866025
33
20.000000
0
3DFACE
8
0
10
24.500000
20
5.866025
30
15.000000
11
24.500000
21
5.866025
31
20.000000
12
24.292894
22
5.707107
32
15.000000
13
24.292894
23
5.707107
33
15.000000
0
3DFACE
8
0
10
24.292894
20
5.707107
30
15.000000
11
24.500000
21
5.866025
31
20.000000
12
24.292894
22
5.707107
32
20.000000
13
24.292894
23
5.707107
33
20.000000
0
3DFACE
8
0
10
24.292894
20
5.707107
30
15.000000
11
24.292894
21
5.707107
31
20.000000
12
24.133974
22
5.500000
32
15.000000
13
24.133974
23
5.500000
33
15.000000
0
3DFACE
8
0
10
24.133974
20
5.500000
30
15.000000
11
24.292894
21
5.707107
31
20.000000
12
24.133974
22
5.500000
32
20.000000
13
24.133974
23
5.500000
33
20.000000
0
3DFACE
8
0
10
24.133974
20
5.500000
30
15.000000
11
24.133974
21
5.500000
31
20.000000
12
24.034075
22
5.258819
32
15.000000
13
24.034075
23
5.258819
33
15.000000
0
3DFACE
8
0
10
24.034075
20
5.258819
30
15.000000
11
24.133974
21
5.500000
31
20.000000
12
24.034075
22
5.258819
32
20.000000
13
24.034075
23
5.258819
33
20.000000
0
3DFACE
8
0
10
24.034075
20
5.258819
30
15.000000
11
24.034075
21
5.258819
31
20.000000
12
24.000000
22
5.000000
32
15.000000
13
24.000000
23
5.000000
33
15.000000
0
3DFACE
8
0
10
24.000000
20
5.000000
30
15.000000
11
24.034075
21
5.258819
31
20.000000
12
24.000000
22
5.000000
32
20.000000
13
24.000000
23
5.000000
33
20.000000
0
3DFACE
8
0
10
24.000000
20
5.000000
30
15.000000
11
24.000000
21
5.000000
31
20.000000
12
24.034075
22
4.741181
32
15.000000
13
24.034075
23
4.741181
33
15.000000
0
3DFACE
8
0
10
24.034075
20
4.741181
30
15.000000
11
24.000000
21
5.000000
31
20.000000
12
24.034075
22
4.741181
32
20.000000
13
24.034075
23
4.741181
33
20.000000
0
3DFACE
8
0
10
24.034075
20
4.741181
30
15.000000
11
24.034075
21
4.741181
31
20.000000
12
24.133974
22
4.500000
32
15.000000
13
24.133974
23
4.500000
33
15.000000
0
3DFACE
8
0
10
24.133974
20
4.500000
30
15.000000
11
24.034075
21
4.741181
31
20.000000
12
24.133974
22
4.500000
32
20.000000
13
24.133974
23
4.500000
33
20.000000
0
3DFACE
8
0
10
24.133974
20
4.500000
30
15.000000
11
24.133974
21
4.500000
31
20.000000
12
24.292894
22
4.292893
32
15.000000
13
24.292894
23
4.292893
33
15.000000
0
3DFACE
8
0
10
24.292894
20
4.292893
30
15.000000
11
24.133974
21
4.500000
31
20.000000
12
24.292894
22
4.292893
32
20.000000
13
24.292894
23
4.292893
33
20.000000
0
3DFACE
8
0
10
24.292894
20
4.292893
30
15.000000
11
24.292894
21
4.292893
31
20.000000
12
24.500000
22
4.133975
32
15.000000
13
24.500000
23
4.133975
33
15.000000
0
3DFACE
8
0
10
24.500000
20
4.133975
30
15.000000
11
24.292894
21
4.292893
31
20.000000
12
24.500000
22
4.133975
32
20.000000
13
24.500000
23
4.133975
33
20.000000
0
3DFACE
8
0
10
24.500000
20
4.133975
30
15.000000
11
24.500000
21
4.133975
31
20.000000
12
24.741180
22
4.034074
32
15.000000
13
24.741180
23
4.034074
33
15.000000
0
3DFACE
8
0
10
24.741180
20
4.034074
30
15.000000
11
24.500000
21
4.133975
31
20.000000
12
24.741180
22
4.034074
32
20.000000
13
24.741180
23
4.034074
33
20.000000
0
3DFACE
8
0
10
24.741180
20
4.034074
30
15.000000
11
24.741180
21
4.034074
31
20.000000
12
25.000000
22
4.000000
32
15.000000
13
25.000000
23
4.000000
33
15.000000
0
3DFACE
8
0
10
25.000000
20
4.000000
30
15.000000
11
24.741180
21
4.034074
31
20.000000
12
25.000000
22
4.000000
32
20.000000
13
25.000000
23
4.000000
33
20.000000
0
3DFACE
8
0
10
25.000000
20
4.000000
30
15.000000
11
25.000000
21
4.000000
31
20.000000
12
25.258820
22
4.034074
32
15.000000
13
25.258820
23
4.034074
33
15.000000
0
3DFACE
8
0
10
25.258820
20
4.034074
30
15.000000
11
25.000000
21
4.000000
31
20.000000
12
25.258820
22
4.034074
32
20.000000
13
25.258820
23
4.034074
33
20.000000
0
3DFACE
8
0
10
25.258820
20
4.034074
30
15.000000
11
25.258820
21
4.034074
31
20.000000
12
25.500000
22
4.133975
32
15.000000
13
25.500000
23
4.133975
33
15.000000
0
3DFACE
8
0
10
25.500000
20
4.133975
30
15.000000
11
25.258820
21
4.034074
31
20.000000
12
25.500000
22
4.133975
32
20.000000
13
25.500000
23
4.133975
33
20.000000
0
3DFACE
8
0
10
25.500000
20
4.133975
30
15.000000
11
25.500000
21
4.133975
31
20.000000
12
25.707108
22
4.292893
32
15.000000
13
25.707108
23
4.292893
33
15.000000
0
3DFACE
8
0
10
25.707108
20
4.292893
30
15.000000
11
25.500000
21
4.133975
31
20.000000
12
25.707108
22
4.292893
32
20.000000
13
25.707108
23
4.292893
33
20.000000
0
3DFACE
8
0
10
25.707108
20
4.292893
30
15.000000
11
25.707108
21
4.292893
31
20.000000
12
25.866026
22
4.500000
32
15.000000
13
25.866026
23
4.500000
33
15.000000
0
3DFACE
8
0
10
25.866026
20
4.500000
30
15.000000
11
25.707108
21
4.292893
31
20.000000
12
25.866026
22
4.500000
32
20.000000
13
25.866026
23
4.500000
33
20.000000
0
3DFACE
8
0
10
25.866026
20
4.500000
30
15.000000
11
25.866026
21
4.500000
31
20.000000
12
25.965927
22
4.741181
32
15.000000
13
25.965927
23
4.741181
33
15.000000
0
3DFACE
8
0
10
25.965927
20
4.741181
30
15.000000
11
25.866026
21
4.500000
31
20.000000
12
25.965927
22
4.741181
32
20.000000
13
25.965927
23
4.741181
33
20.000000
0
3DFACE
8
0
10
25.965927
20
4.741181
30
15.000000
11
25.965927
21
4.741181
31
20.000000
12
26.000000
22
5.000000
32
15.000000
13
26.000000
23
5.000000
33
15.000000
0
3DFACE
8
0
10
26.000000
20
5.000000
30
15.000000
11
25.965927
21
4.741181
31
20.000000
12
26.000000
22
5.000000
32
20.000000
13
26.000000
23
5.000000
33
20.000000
0
3DFACE
8
0
10
26.000000
20
5.000000
30
20.000000
11
26.000000
21
5.000000
31
25.000000
12
25.965927
22
5.258819
32
20.000000
13
25.965927
23
5.258819
33
20.000000
0
3DFACE
8
0
10
25.965927
20
5.258819
30
20.000000
11
26.000000
21
5.000000
31
25.000000
12
25.965927
22
5.258819
32
25.000000
13
25.965927
23
5.258819
33
25.000000
0
3DFACE
8
0
10
25.965927
20
5.258819
30
20.000000
11
25.965927
21
5.258819
31
25.000000
12
25.866026
22
5.500000
32
20.000000
13
25.866026
23
5.500000
33
20.000000
0
3DFACE
8
0
10
25.866026
20
5.500000
30
20.000000
11
25.965927
21
5.258819
31
25.000000
12
25.866026
22
5.500000
32
25.000000
13
25.866026
23
5.500000
33
25.000000
0
3DFACE
8
0
10
25.866026
20
5.500000
30
20.000000
11
25.866026
21
5.500000
31
25.000000
12
25.707108
22
5.707107
32
20.000000
13
25.707108
23
5.707107
33
20.000000
0
3DFACE
8
0
10
25.707108
20
5.707107
30
20.000000
11
25.866026
21
5.500000
31
25.000000
12
25.707108
22
5.707107
32
25.000000
13
25.707108
23
5.707107
33
25.000000
0
3DFACE
8
0
10
25.707108
20
5.707107
30
20.000000
11
25.707108
21
5.707107
31
25.000000
12
25.500000
22
5.866025
32
20.000000
13
25.500000
23
5.866025
33
20.000000
0
3DFACE
8
0
10
25.500000
20
5.866025
30
20.000000
11
25.707108
21
5.707107
31
25.000000
12
25.500000
22
5.866025
32
25.000000
13
25.500000
23
5.866025
33
25.000000
0
3DFACE
8
0
10
25.500000
20
5.866025
30
20.000000
11
25.500000
21
5.866025
31
25.000000
12
25.258820
22
5.965926
32
20.000000
13
25.258820
23
5.965926
33
20.000000
0
3DFACE
8
0
10
25.258820
20
5.965926
30
20.000000
11
25.500000
21
5.866025
31
25.000000
12
25.258820
22
5.965926
32
25.000000
13
25.258820
23
5.965926
33
25.000000
0
3DFACE
8
0
10
25.258820
20
5.965926
30
20.000000
11
25.258820
21
5.965926
31
25.000000
12
25.000000
22
6.000000
32
20.000000
13
25.000000
23
6.000000
33
20.000000
0
3DFACE
8
0
10
25.000000
20
6.000000
30
20.000000
11
25.258820
21
5.965926
31
25.000000
12
25.000000
22
6.000000
32
25.000000
13
25.000000
23
6.000000
33
25.000000
0
3DFACE
8
0
10
25.000000
20
6.000000
30
20.000000
11
25.000000
21
6.000000
31
25.000000
12
24.741180
22
5.965926
32
20.000000
13
24.741180
23
5.965926
33
20.000000
0
3DFACE
8
0
10
24.741180
20
5.965926
30
20.000000
11
25.000000
21
6.000000
31
25.000000
12
24.741180
22
5.965926
32
25.000000
13
24.741180
23
5.965926
33
25.000000
0
3DFACE
8
0
10
24.741180
20
5.965926
30
20.000000
11
24.741180
21
5.965926
31
25.000000
12
24.500000
22
5.866025
32
20.000000
13
24.500000
23
5.866025
33
20.000000
0
3DFACE
8
0
10
24.500000
20
5.866025
30
20.000000
11
24.741180
21
5.965926
31
25.000000
12
24.500000
22
5.866025
32
25.000000
13
24.500000
23
5.866025
33
25.000000
0
3DFACE
8
0
10
24.500000
20
5.866025
30
20.000000
11
24.500000
21
5.866025
31
25.000000
12
24.292894
22
5.707107
32
20.000000
13
24.292894
23
5.707107
33
20.000000
0
3DFACE
8
0
10
24.292894
20
5.707107
30
20.000000
11
24.500000
21
5.866025
31
25.000000
12
24.292894
22
5.707107
32
25.000000
13
24.292894
23
5.707107
33
25.000000
0
3DFACE
8
0
10
24.292894
20
5.707107
30
20.000000
11
24.292894
21
5.707107
31
25.000000
12
24.133974
22
5.500000
32
20.000000
13
24.133974
23
5.500000
33
20.000000
0
3DFACE
8
0
10
24.133974
20
5.500000
30
20.000000
11
24.292894
21
5.707107
31
25.000000
12
24.133974
22
5.500000
32
25.000000
13
24.133974
23
5.500000
33
25.000000
0
3DFACE
8
0
10
24.133974
20
5.500000
30
20.000000
11
24.133974
21
5.500000
31
25.000000
12
24.034075
22
5.258819
32
20.000000
13
24.034075
23
5.258819
33
20.000000
0
3DFACE
8
0
10
24.034075
20
5.258819
30
20.000000
11
24.133974
21
5.500000
31
25.000000
12
24.034075
22
5.258819
32
25.000000
13
24.034075
23
5.258819
33
25.000000
0
3DFACE
8
0
10
24.034075
20
5.258819
30
20.000000
11
24.034075
21
5.258819
31
25.000000
12
24.000000
22
5.000000
32
20.000000
13
24.000000
23
5.000000
33
20.000000
0
3DFACE
8
0
10
24.000000
20
5.000000
30
20.000000
11
24.034075
21
5.258819
31
25.000000
12
24.000000
22
5.000000
32
25.000000
13
24.000000
23
5.000000
33
25.000000
0
3DFACE
8
0
10
24.000000
20
5.000000
30
20.000000
11
24.000000
21
5.000000
31
25.000000
12
24.034075
22
4.741181
32
20.000000
13
24.034075
23
4.741181
33
20.000000
0
3DFACE
8
0
10
24.034075
20
4.741181
30
20.000000
11
24.000000
21
5.000000
31
25.000000
12
24.034075
22
4.741181
32
25.000000
13
24.034075
23
4.741181
33
25.000000
0
3DFACE
8
0
10
24.034075
20
4.741181
30
20.000000
11
24.034075
21
4.741181
31
25.000000
12
24.133974
22
4.500000
32
20.000000
13
24.133974
23
4.500000
33
20.000000
0
3DFACE
8
0
10
24.133974
20
4.500000
30
20.000000
11
24.034075
21
4.741181
31
25.000000
12
24.133974
22
4.500000
32
25.000000
13
24.133974
23
4.500000
33
25.000000
0
3DFACE
8
0
10
24.133974
20
4.500000
30
20.000000
11
24.133974
21
4.500000
31
25.000000
12
24.292894
22
4.292893
32
20.000000
13
24.292894
23
4.292893
33
20.000000
0
3DFACE
8
0
10
24.292894
20
4.292893
30
20.000000
11
24.133974
21
4.500000
31
25.000000
12
24.292894
22
4.292893
32
25.000000
13
24.292894
23
4.292893
33
25.000000
0
3DFACE
8
0
10
24.292894
20
4.292893
30
20.000000
11
24.292894
21
4.292893
31
25.000000
12
24.500000
22
4.133975
32
20.000000
13
24.500000
23
4.133975
33
20.000000
0
3DFACE
8
0
10
24.500000
20
4.133975
30
20.000000
11
24.292894
21
4.292893
31
25.000000
12
24.500000
22
4.133975
32
25.000000
13
24.500000
23
4.133975
33
25.000000
0
3DFACE
8
0
10
24.500000
20
4.133975
30
20.000000
11
24.500000
21
4.133975
31
25.000000
12
24.741180
22
4.034074
32
20.000000
13
24.741180
23
4.034074
33
20.000000
0
3DFACE
8
0
10
24.741180
20
4.034074
30
20.000000
11
24.500000
21
4.133975
31
25.000000
12
24.741180
22
4.034074
32
25.000000
13
24.741180
23
4.034074
33
25.000000
0
3DFACE
8
0
10
24.741180
20
4.034074
30
20.000000
11
24.741180
21
4.034074
31
25.000000
12
25.000000
22
4.000000
32
20.000000
13
25.000000
23
4.000000
33
20.000000
0
3DFACE
8
0
10
25.000000
20
4.000000
30
20.000000
11
24.741180
21
4.034074
31
25.000000
12
25.000000
22
4.000000
32
25.000000
13
25.000000
23
4.000000
33
25.000000
0
3DFACE
8
0
10
25.000000
20
4.000000
30
20.000000
11
25.000000
21
4.000000
31
25.000000
12
25.258820
22
4.034074
32
20.000000
13
25.258820
23
4.034074
33
20.000000
0
3DFACE
8
0
10
25.258820
20
4.034074
30
20.000000
11
25.000000
21
4.000000
31
25.000000
12
25.258820
22
4.034074
32
25.000000
13
25.258820
23
4.034074
33
25.000000
0
3DFACE
8
0
10
25.258820
20
4.034074
30
20.000000
11
25.258820
21
4.034074
31
25.000000
12
25.500000
22
4.133975
32
20.000000
13
25.500000
23
4.133975
33
20.000000
0
3DFACE
8
0
10
25.500000
20
4.133975
30
20.000000
11
25.258820
21
4.034074
31
25.000000
12
25.500000
22
4.133975
32
25.000000
13
25.500000
23
4.133975
33
25.000000
0
3DFACE
8
0
10
25.500000
20
4.133975
30
20.000000
11
25.500000
21
4.133975
31
25.000000
12
25.707108
22
4.292893
32
20.000000
13
25.707108
23
4.292893
33
20.000000
0
3DFACE
8
0
10
25.707108
20
4.292893
30
20.000000
11
25.500000
21
4.133975
31
25.000000
12
25.707108
22
4.292893
32
25.000000
13
25.707108
23
4.292893
33
25.000000
0
3DFACE
8
0
10
25.707108
20
4.292893
30
20.000000
11
25.707108
21
4.292893
31
25.000000
12
25.866026
22
4.500000
32
20.000000
13
25.866026
23
4.500000
33
20.000000
0
3DFACE
8
0
10
25.866026
20
4.500000
30
20.000000
11
25.707108
21
4.292893
31
25.000000
12
25.866026
22
4.500000
32
25.000000
13
25.866026
23
4.500000
33
25.000000
0
3DFACE
8
0
10
25.866026
20
4.500000
30
20.000000
11
25.866026
21
4.500000
31
25.000000
12
25.965927
22
4.741181
32
20.000000
13
25.965927
23
4.741181
33
20.000000
0
3DFACE
8
0
10
25.965927
20
4.741181
30
20.000000
11
25.866026
21
4.500000
31
25.000000
12
25.965927
22
4.741181
32
25.000000
13
25.965927
23
4.741181
33
25.000000
0
3DFACE
8
0
10
25.965927
20
4.741181
30
20.000000
11
25.965927
21
4.741181
31
25.000000
12
26.000000
22
5.000000
32
20.000000
13
26.000000
23
5.000000
33
20.000000
0
3DFACE
8
0
10
26.000000
20
5.000000
30
20.000000
11
25.965927
21
4.741181
31
25.000000
12
26.000000
22
5.000000
32
25.000000
13
26.000000
23
5.000000
33
25.000000
0
3DFACE
8
0
10
-24.034075
20
4.741181
30
10.000000
11
-24.034075
21
4.741181
31
15.000000
12
-24.000000
22
5.000000
32
10.000000
13
-24.000000
23
5.000000
33
10.000000
0
3DFACE
8
0
10
-24.000000
20
5.000000
30
10.000000
11
-24.034075
21
4.741181
31
15.000000
12
-24.000000
22
5.000000
32
15.000000
13
-24.000000
23
5.000000
33
15.000000
0
3DFACE
8
0
10
-24.000000
20
5.000000
30
10.000000
11
-24.000000
21
5.000000
31
15.000000
12
-24.034075
22
5.258819
32
10.000000
13
-24.034075
23
5.258819
33
10.000000
0
3DFACE
8
0
10
-24.034075
20
5.258819
30
10.000000
11
-24.000000
21
5.000000
31
15.000000
12
-24.034075
22
5.258819
32
15.000000
13
-24.034075
23
5.258819
33
15.000000
0
3DFACE
8
0
10
-24.034075
20
5.258819
30
10.000000
11
-24.034075
21
5.258819
31
15.000000
12
-24.133974
22
5.500000
32
10.000000
13
-24.133974
23
5.500000
33
10.000000
0
3DFACE
8
0
10
-24.133974
20
5.500000
30
10.000000
11
-24.034075
21
5.258819
31
15.000000
12
-24.133974
22
5.500000
32
15.000000
13
-24.133974
23
5.500000
33
15.000000
0
3DFACE
8
0
10
-24.133974
20
5.500000
30
10.000000
11
-24.133974
21
5.500000
31
15.000000
12
-24.292894
22
5.707107
32
10.000000
13
-24.292894
23
5.707107
33
10.000000
0
3DFACE
8
0
10
-24.292894
20
5.707107
30
10.000000
11
-24.133974
21
5.500000
31
15.000000
12
-24.292894
22
5.707107
32
15.000000
13
-24.292894
23
5.707107
33
15.000000
0
3DFACE
8
0
10
-24.292894
20
5.707107
30
10.000000
11
-24.292894
21
5.707107
31
15.000000
12
-24.500000
22
5.866025
32
10.000000
13
-24.500000
23
5.866025
33
10.000000
0
3DFACE
8
0
10
-24.500000
20
5.866025
30
10.000000
11
-24.292894
21
5.707107
31
15.000000
12
-24.500000
22
5.866025
32
15.000000
13
-24.500000
23
5.866025
33
15.000000
0
3DFACE
8
0
10
-24.500000
20
5.866025
30
10.000000
11
-24.500000
21
5.866025
31
15.000000
12
-24.741180
22
5.965926
32
10.000000
13
-24.741180
23
5.965926
33
10.000000
0
3DFACE
8
0
10
-24.741180
20
5.965926
30
10.000000
11
-24.500000
21
5.866025
31
15.000000
12
-24.741180
22
5.965926
32
15.000000
13
-24.741180
23
5.965926
33
15.000000
0
3DFACE
8
0
10
-24.741180
20
5.965926
30
10.000000
11
-24.741180
21
5.965926
31
15.000000
12
-25.000000
22
6.000000
32
10.000000
13
-25.000000
23
6.000000
33
10.000000
0
3DFACE
8
0
10
-25.000000
20
6.000000
30
10.000000
11
-24.741180
21
5.965926
31
15.000000
12
-25.000000
22
6.000000
32
15.000000
13
-25.000000
23
6.000000
33
15.000000
0
3DFACE
8
0
10
-25.000000
20
6.000000
30
10.000000
11
-25.000000
21
6.000000
31
15.000000
12
-25.258820
22
5.965926
32
10.000000
13
-25.258820
23
5.965926
33
10.000000
0
3DFACE
8
0
10
-25.258820
20
5.965926
30
10.000000
11
-25.000000
21
6.000000
31
15.000000
12
-25.258820
22
5.965926
32
15.000000
13
-25.258820
23
5.965926
33
15.000000
0
3DFACE
8
0
10
-25.258820
20
5.965926
30
10.000000
11
-25.258820
21
5.965926
31
15.000000
12
-25.500000
22
5.866025
32
10.000000
13
-25.500000
23
5.866025
33
10.000000
0
3DFACE
8
0
10
-25.500000
20
5.866025
30
10.000000
11
-25.258820
21
5.965926
31
15.000000
12
-25.500000
22
5.866025
32
15.000000
13
-25.500000
23
5.866025
33
15.000000
0
3DFACE
8
0
10
-25.500000
20
5.866025
30
10.000000
11
-25.500000
21
5.866025
31
15.000000
12
-25.707108
22
5.707107
32
10.000000
13
-25.707108
23
5.707107
33
10.000000
0
3DFACE
8
0
10
-25.707108
20
5.707107
30
10.000000
11
-25.500000
21
5.866025
31
15.000000
12
-25.707108
22
5.707107
32
15.000000
13
-25.707108
23
5.707107
33
15.000000
0
3DFACE
8
0
10
-25.707108
20
5.707107
30
10.000000
11
-25.707108
21
5.707107
31
15.000000
12
-25.866026
22
5.500000
32
10.000000
13
-25.866026
23
5.500000
33
10.000000
0
3DFACE
8
0
10
-25.866026
20
5.500000
30
10.000000
11
-25.707108
21
5.707107
31
15.000000
12
-25.866026
22
5.500000
32
15.000000
13
-25.866026
23
5.500000
33
15.000000
0
3DFACE
8
0
10
-25.866026
20
5.500000
30
10.000000
11
-25.866026
21
5.500000
31
15.000000
12
-25.965927
22
5.258819
32
10.000000
13
-25.965927
23
5.258819
33
10.000000
0
3DFACE
8
0
10
-25.965927
20
5.258819
30
10.000000
11
-25.866026
21
5.500000
31
15.000000
12
-25.965927
22
5.258819
32
15.000000
13
-25.965927
23
5.258819
33
15.000000
0
3DFACE
8
0
10
-25.965927
20
5.258819
30
10.000000
11
-25.965927
21
5.258819
31
15.000000
12
-26.000000
22
5.000000
32
10.000000
13
-26.000000
23
5.000000
33
10.000000
0
3DFACE
8
0
10
-26.000000
20
5.000000
30
10.000000
11
-25.965927
21
5.258819
31
15.000000
12
-26.000000
22
5.000000
32
15.000000
13
-26.000000
23
5.000000
33
15.000000
0
3DFACE
8
0
10
-26.000000
20
5.000000
30
10.000000
11
-26.000000
21
5.000000
31
15.000000
12
-25.965927
22
4.741181
32
10.000000
13
-25.965927
23
4.741181
33
10.000000
0
3DFACE
8
0
10
-25.965927
20
4.741181
30
10.000000
11
-26.000000
21
5.000000
31
15.000000
12
-25.965927
22
4.741181
32
15.000000
13
-25.965927
23
4.741181
33
15.000000
0
3DFACE
8
0
10
-25.965927
20
4.741181
30
10.000000
11
-25.965927
21
4.741181
31
15.000000
12
-25.866026
22
4.500000
32
10.000000
13
-25.866026
23
4.500000
33
10.000000
0
3DFACE
8
0
10
-25.866026
20
4.500000
30
10.000000
11
-25.965927
21
4.741181
31
15.000000
12
-25.866026
22
4.500000
32
15.000000
13
-25.866026
23
4.500000
33
15.000000
0
3DFACE
8
0
10
-25.866026
20
4.500000
30
10.000000
11
-25.866026
21
4.500000
31
15.000000
12
-25.707108
22
4.292893
32
10.000000
13
-25.707108
23
4.292893
33
10.000000
0
3DFACE
8
0
10
-25.707108
20
4.292893
30
10.000000
11
-25.866026
21
4.500000
31
15.000000
12
-25.707108
22
4.292893
32
15.000000
13
-25.707108
23
4.292893
33
15.000000
0
3DFACE
8
0
10
-25.707108
20
4.292893
30
10.000000
11
-25.707108
21
4.292893
31
15.000000
12
-25.500000
22
4.133975
32
10.000000
13
-25.500000
23
4.133975
33
10.000000
0
3DFACE
8
0
10
-25.500000
20
4.133975
30
10.000000
11
-25.707108
21
4.292893
31
15.000000
12
-25.500000
22
4.133975
32
15.000000
13
-25.500000
23
4.133975
33
15.000000
0
3DFACE
8
0
10
-25.500000
20
4.133975
30
10.000000
11
-25.500000
21
4.133975
31
15.000000
12
-25.258820
22
4.034074
32
10.000000
13
-25.258820
23
4.034074
33
10.000000
0
3DFACE
8
0
10
-25.258820
20
4.034074
30
10.000000
11
-25.500000
21
4.133975
31
15.000000
12
-25.258820
22
4.034074
32
15.000000
13
-25.258820
23
4.034074
33
15.000000
0
3DFACE
8
0
10
-25.258820
20
4.034074
30
10.000000
11
-25.258820
21
4.034074
31
15.000000
12
-25.000000
22
4.000000
32
10.000000
13
-25.000000
23
4.000000
33
10.000000
0
3DFACE
8
0
10
-25.000000
20
4.000000
30
10.000000
11
-25.258820
21
4.034074
31
15.000000
12
-25.000000
22
4.000000
32
15.000000
13
-25.000000
23
4.000000
33
15.000000
0
3DFACE
8
0
10
-25.000000
20
4.000000
30
10.000000
11
-25.000000
21
4.000000
31
15.000000
12
-24.741180
22
4.034074
32
10.000000
13
-24.741180
23
4.034074
33
10.000000
0
3DFACE
8
0
10
-24.741180
20
4.034074
30
10.000000
11
-25.000000
21
4.000000
31
15.000000
12
-24.741180
22
4.034074
32
15.000000
13
-24.741180
23
4.034074
33
15.000000
0
3DFACE
8
0
10
-24.741180
20
4.034074
30
10.000000
11
-24.741180
21
4.034074
31
15.000000
12
-24.500000
22
4.133975
32
10.000000
13
-24.500000
23
4.133975
33
10.000000
0
3DFACE
8
0
10
-24.500000
20
4.133975
30
10.000000
11
-24.741180
21
4.034074
31
15.000000
12
-24.500000
22
4.133975
32
15.000000
13
-24.500000
23
4.133975
33
15.000000
0
3DFACE
8
0
10
-24.500000
20
4.133975
30
10.000000
11
-24.500000
21
4.133975
31
15.000000
12
-24.292894
22
4.292893
32
10.000000
13
-24.292894
23
4.292893
33
10.000000
0
3DFACE
8
0
10
-24.292894
20
4.292893
30
10.000000
11
-24.500000
21
4.133975
31
15.000000
12
-24.292894
22
4.292893
32
15.000000
13
-24.292894
23
4.292893
33
15.000000
0
3DFACE
8
0
10
-24.292894
20
4.292893
30
10.000000
11
-24.292894
21
4.292893
31
15.000000
12
-24.133974
22
4.500000
32
10.000000
13
-24.133974
23
4.500000
33
10.000000
0
3DFACE
8
0
10
-24.133974
20
4.500000
30
10.000000
11
-24.292894
21
4.292893
31
15.000000
12
-24.133974
22
4.500000
32
15.000000
13
-24.133974
23
4.500000
33
15.000000
0
3DFACE
8
0
10
-24.133974
20
4.500000
30
10.000000
11
-24.133974
21
4.500000
31
15.000000
12
-24.034075
22
4.741181
32
10.000000
13
-24.034075
23
4.741181
33
10.000000
0
3DFACE
8
0
10
-24.034075
20
4.741181
30
10.000000
11
-24.133974
21
4.500000
31
15.000000
12
-24.034075
22
4.741181
32
15.000000
13
-24.034075
23
4.741181
33
15.000000
0
3DFACE
8
0
10
-24.034075
20
5.258819
30
30.000000
11
-24.034075
21
5.258819
31
25.000000
12
-24.000000
22
5.000000
32
30.000000
13
-24.000000
23
5.000000
33
30.000000
0
3DFACE
8
0
10
-24.000000
20
5.000000
30
30.000000
11
-24.034075
21
5.258819
31
25.000000
12
-24.000000
22
5.000000
32
25.000000
13
-24.000000
23
5.000000
33
25.000000
0
3DFACE
8
0
10
-24.000000
20
5.000000
30
30.000000
11
-24.000000
21
5.000000
31
25.000000
12
-24.034075
22
4.741181
32
30.000000
13
-24.034075
23
4.741181
33
30.000000
0
3DFACE
8
0
10
-24.034075
20
4.741181
30
30.000000
11
-24.000000
21
5.000000
31
25.000000
12
-24.034075
22
4.741181
32
25.000000
13
-24.034075
23
4.741181
33
25.000000
0
3DFACE
8
0
10
-24.034075
20
4.741181
30
30.000000
11
-24.034075
21
4.741181
31
25.000000
12
-24.133974
22
4.500000
32
30.000000
13
-24.133974
23
4.500000
33
30.000000
0
3DFACE
8
0
10
-24.133974
20
4.500000
30
30.000000
11
-24.034075
21
4.741181
31
25.000000
12
-24.133974
22
4.500000
32
25.000000
13
-24.133974
23
4.500000
33
25.000000
0
3DFACE
8
0
10
-24.133974
20
4.500000
30
30.000000
11
-24.133974
21
4.500000
31
25.000000
12
-24.292894
22
4.292893
32
30.000000
13
-24.292894
23
4.292893
33
30.000000
0
3DFACE
8
0
10
-24.292894
20
4.292893
30
30.000000
11
-24.133974
21
4.500000
31
25.000000
12
-24.292894
22
4.292893
32
25.000000
13
-24.292894
23
4.292893
33
25.000000
0
3DFACE
8
0
10
-24.292894
20
4.292893
30
30.000000
11
-24.292894
21
4.292893
31
25.000000
12
-24.500000
22
4.133975
32
30.000000
13
-24.500000
23
4.133975
33
30.000000
0
3DFACE
8
0
10
-24.500000
20
4.133975
30
30.000000
11
-24.292894
21
4.292893
31
25.000000
12
-24.500000
22
4.133975
32
25.000000
13
-24.500000
23
4.133975
33
25.000000
0
3DFACE
8
0
10
-24.500000
20
4.133975
30
30.000000
11
-24.500000
21
4.133975
31
25.000000
12
-24.741180
22
4.034074
32
30.000000
13
-24.741180
23
4.034074
33
30.000000
0
3DFACE
8
0
10
-24.741180
20
4.034074
30
30.000000
11
-24.500000
21
4.133975
31
25.000000
12
-24.741180
22
4.034074
32
25.000000
13
-24.741180
23
4.034074
33
25.000000
0
3DFACE
8
0
10
-24.741180
20
4.034074
30
30.000000
11
-24.741180
21
4.034074
31
25.000000
12
-25.000000
22
4.000000
32
30.000000
13
-25.000000
23
4.000000
33
30.000000
0
3DFACE
8
0
10
-25.000000
20
4.000000
30
30.000000
11
-24.741180
21
4.034074
31
25.000000
12
-25.000000
22
4.000000
32
25.000000
13
-25.000000
23
4.000000
33
25.000000
0
3DFACE
8
0
10
-25.000000
20
4.000000
30
30.000000
11
-25.000000
21
4.000000
31
25.000000
12
-25.258820
22
4.034074
32
30.000000
13
-25.258820
23
4.034074
33
30.000000
0
3DFACE
8
0
10
-25.258820
20
4.034074
30
30.000000
11
-25.000000
21
4.000000
31
25.000000
12
-25.258820
22
4.034074
32
25.000000
13
-25.258820
23
4.034074
33
25.000000
0
3DFACE
8
0
10
-25.258820
20
4.034074
30
30.000000
11
-25.258820
21
4.034074
31
25.000000
12
-25.500000
22
4.133975
32
30.000000
13
-25.500000
23
4.133975
33
30.000000
0
3DFACE
8
0
10
-25.500000
20
4.133975
30
30.000000
11
-25.258820
21
4.034074
31
25.000000
12
-25.500000
22
4.133975
32
25.000000
13
-25.500000
23
4.133975
33
25.000000
0
3DFACE
8
0
10
-25.500000
20
4.133975
30
30.000000
11
-25.500000
21
4.133975
31
25.000000
12
-25.707108
22
4.292893
32
30.000000
13
-25.707108
23
4.292893
33
30.000000
0
3DFACE
8
0
10
-25.707108
20
4.292893
30
30.000000
11
-25.500000
21
4.133975
31
25.000000
12
-25.707108
22
4.292893
32
25.000000
13
-25.707108
23
4.292893
33
25.000000
0
3DFACE
8
0
10
-25.707108
20
4.292893
30
30.000000
11
-25.707108
21
4.292893
31
25.000000
12
-25.866026
22
4.500000
32
30.000000
13
-25.866026
23
4.500000
33
30.000000
0
3DFACE
8
0
10
-25.866026
20
4.500000
30
30.000000
11
-25.707108
21
4.292893
31
25.000000
12
-25.866026
22
4.500000
32
25.000000
13
-25.866026
23
4.500000
33
25.000000
0
3DFACE
8
0
10
-25.866026
20
4.500000
30
30.000000
11
-25.866026
21
4.500000
31
25.000000
12
-25.965927
22
4.741181
32
30.000000
13
-25.965927
23
4.741181
33
30.000000
0
3DFACE
8
0
10
-25.965927
20
4.741181
30
30.000000
11
-25.866026
21
4.500000
31
25.000000
12
-25.965927
22
4.741181
32
25.000000
13
-25.965927
23
4.741181
33
25.000000
0
3DFACE
8
0
10
-25.965927
20
4.741181
30
30.000000
11
-25.965927
21
4.741181
31
25.000000
12
-26.000000
22
5.000000
32
30.000000
13
-26.000000
23
5.000000
33
30.000000
0
3DFACE
8
0
10
-26.000000
20
5.000000
30
30.000000
11
-25.965927
21
4.741181
31
25.000000
12
-26.000000
22
5.000000
32
25.000000
13
-26.000000
23
5.000000
33
25.000000
0
3DFACE
8
0
10
-26.000000
20
5.000000
30
30.000000
11
-26.000000
21
5.000000
31
25.000000
12
-25.965927
22
5.258819
32
30.000000
13
-25.965927
23
5.258819
33
30.000000
0
3DFACE
8
0
10
-25.965927
20
5.258819
30
30.000000
11
-26.000000
21
5.000000
31
25.000000
12
-25.965927
22
5.258819
32
25.000000
13
-25.965927
23
5.258819
33
25.000000
0
3DFACE
8
0
10
-25.965927
20
5.258819
30
30.000000
11
-25.965927
21
5.258819
31
25.000000
12
-25.866026
22
5.500000
32
30.000000
13
-25.866026
23
5.500000
33
30.000000
0
3DFACE
8
0
10
-25.866026
20
5.500000
30
30.000000
11
-25.965927
21
5.258819
31
25.000000
12
-25.866026
22
5.500000
32
25.000000
13
-25.866026
23
5.500000
33
25.000000
0
3DFACE
8
0
10
-25.866026
20
5.500000
30
30.000000
11
-25.866026
21
5.500000
31
25.000000
12
-25.707108
22
5.707107
32
30.000000
13
-25.707108
23
5.707107
33
30.000000
0
3DFACE
8
0
10
-25.707108
20
5.707107
30
30.000000
11
-25.866026
21
5.500000
31
25.000000
12
-25.707108
22
5.707107
32
25.000000
13
-25.707108
23
5.707107
33
25.000000
0
3DFACE
8
0
10
-25.707108
20
5.707107
30
30.000000
11
-25.707108
21
5.707107
31
25.000000
12
-25.500000
22
5.866025
32
30.000000
13
-25.500000
23
5.866025
33
30.000000
0
3DFACE
8
0
10
-25.500000
20
5.866025
30
30.000000
11
-25.707108
21
5.707107
31
25.000000
12
-25.500000
22
5.866025
32
25.000000
13
-25.500000
23
5.866025
33
25.000000
0
3DFACE
8
0
10
-25.500000
20
5.866025
30
30.000000
11
-25.500000
21
5.866025
31
25.000000
12
-25.258820
22
5.965926
32
30.000000
13
-25.258820
23
5.965926
33
30.000000
0
3DFACE
8
0
10
-25.258820
20
5.965926
30
30.000000
11
-25.500000
21
5.866025
31
25.000000
12
-25.258820
22
5.965926
32
25.000000
13
-25.258820
23
5.965926
33
25.000000
0
3DFACE
8
0
10
-25.258820
20
5.965926
30
30.000000
11
-25.258820
21
5.965926
31
25.000000
12
-25.000000
22
6.000000
32
30.000000
13
-25.000000
23
6.000000
33
30.000000
0
3DFACE
8
0
10
-25.000000
20
6.000000
30
30.000000
11
-25.258820
21
5.965926
31
25.000000
12
-25.000000
22
6.000000
32
25.000000
13
-25.000000
23
6.000000
33
25.000000
0
3DFACE
8
0
10
-25.000000
20
6.000000
30
30.000000
11
-25.000000
21
6.000000
31
25.000000
12
-24.741180
22
5.965926
32
30.000000
13
-24.741180
23
5.965926
33
30.000000
0
3DFACE
8
0
10
-24.741180
20
5.965926
30
30.000000
11
-25.000000
21
6.000000
31
25.000000
12
-24.741180
22
5.965926
32
25.000000
13
-24.741180
23
5.965926
33
25.000000
0
3DFACE
8
0
10
-24.741180
20
5.965926
30
30.000000
11
-24.741180
21
5.965926
31
25.000000
12
-24.500000
22
5.866025
32
30.000000
13
-24.500000
23
5.866025
33
30.000000
0
3DFACE
8
0
10
-24.500000
20
5.866025
30
30.000000
11
-24.741180
21
5.965926
31
25.000000
12
-24.500000
22
5.866025
32
25.000000
13
-24.500000
23
5.866025
33
25.000000
0
3DFACE
8
0
10
-24.500000
20
5.866025
30
30.000000
11
-24.500000
21
5.866025
31
25.000000
12
-24.292894
22
5.707107
32
30.000000
13
-24.292894
23
5.707107
33
30.000000
0
3DFACE
8
0
10
-24.292894
20
5.707107
30
30.000000
11
-24.500000
21
5.866025
31
25.000000
12
-24.292894
22
5.707107
32
25.000000
13
-24.292894
23
5.707107
33
25.000000
0
3DFACE
8
0
10
-24.292894
20
5.707107
30
30.000000
11
-24.292894
21
5.707107
31
25.000000
12
-24.133974
22
5.500000
32
30.000000
13
-24.133974
23
5.500000
33
30.000000
0
3DFACE
8
0
10
-24.133974
20
5.500000
30
30.000000
11
-24.292894
21
5.707107
31
25.000000
12
-24.133974
22
5.500000
32
25.000000
13
-24.133974
23
5.500000
33
25.000000
0
3DFACE
8
0
10
-24.133974
20
5.500000
30
30.000000
11
-24.133974
21
5.500000
31
25.000000
12
-24.034075
22
5.258819
32
30.000000
13
-24.034075
23
5.258819
33
30.000000
0
3DFACE
8
0
10
-24.034075
20
5.258819
30
30.000000
11
-24.133974
21
5.500000
31
25.000000
12
-24.034075
22
5.258819
32
25.000000
13
-24.034075
23
5.258819
33
25.000000
0
3DFACE
8
0
10
-24.000000
20
5.000000
30
15.000000
11
-24.000000
21
5.000000
31
20.000000
12
-24.034075
22
5.258819
32
15.000000
13
-24.034075
23
5.258819
33
15.000000
0
3DFACE
8
0
10
-24.034075
20
5.258819
30
15.000000
11
-24.000000
21
5.000000
31
20.000000
12
-24.034075
22
5.258819
32
20.000000
13
-24.034075
23
5.258819
33
20.000000
0
3DFACE
8
0
10
-24.034075
20
5.258819
30
15.000000
11
-24.034075
21
5.258819
31
20.000000
12
-24.133974
22
5.500000
32
15.000000
13
-24.133974
23
5.500000
33
15.000000
0
3DFACE
8
0
10
-24.133974
20
5.500000
30
15.000000
11
-24.034075
21
5.258819
31
20.000000
12
-24.133974
22
5.500000
32
20.000000
13
-24.133974
23
5.500000
33
20.000000
0
3DFACE
8
0
10
-24.133974
20
5.500000
30
15.000000
11
-24.133974
21
5.500000
31
20.000000
12
-24.292894
22
5.707107
32
15.000000
13
-24.292894
23
5.707107
33
15.000000
0
3DFACE
8
0
10
-24.292894
20
5.707107
30
15.000000
11
-24.133974
21
5.500000
31
20.000000
12
-24.292894
22
5.707107
32
20.000000
13
-24.292894
23
5.707107
33
20.000000
0
3DFACE
8
0
10
-24.292894
20
5.707107
30
15.000000
11
-24.292894
21
5.707107
31
20.000000
12
-24.500000
22
5.866025
32
15.000000
13
-24.500000
23
5.866025
33
15.000000
0
3DFACE
8
0
10
-24.500000
20
5.866025
30
15.000000
11
-24.292894
21
5.707107
31
20.000000
12
-24.500000
22
5.866025
32
20.000000
13
-24.500000
23
5.866025
33
20.000000
0
3DFACE
8
0
10
-24.500000
20
5.866025
30
15.000000
11
-24.500000
21
5.866025
31
20.000000
12
-24.741180
22
5.965926
32
15.000000
13
-24.741180
23
5.965926
33
15.000000
0
3DFACE
8
0
10
-24.741180
20
5.965926
30
15.000000
11
-24.500000
21
5.866025
31
20.000000
12
-24.741180
22
5.965926
32
20.000000
13
-24.741180
23
5.965926
33
20.000000
0
3DFACE
8
0
10
-24.741180
20
5.965926
30
15.000000
11
-24.741180
21
5.965926
31
20.000000
12
-25.000000
22
6.000000
32
15.000000
13
-25.000000
23
6.000000
33
15.000000
0
3DFACE
8
0
10
-25.000000
20
6.000000
30
15.000000
11
-24.741180
21
5.965926
31
20.000000
12
-25.000000
22
6.000000
32
20.000000
13
-25.000000
23
6.000000
33
20.000000
0
3DFACE
8
0
10
-25.000000
20
6.000000
30
15.000000
11
-25.000000
21
6.000000
31
20.000000
12
-25.258820
22
5.965926
32
15.000000
13
-25.258820
23
5.965926
33
15.000000
0
3DFACE
8
0
10
-25.258820
20
5.965926
30
15.000000
11
-25.000000
21
6.000000
31
20.000000
12
-25.258820
22
5.965926
32
20.000000
13
-25.258820
23
5.965926
33
20.000000
0
3DFACE
8
0
10
-25.258820
20
5.965926
30
15.000000
11
-25.258820
21
5.965926
31
20.000000
12
-25.500000
22
5.866025
32
15.000000
13
-25.500000
23
5.866025
33
15.000000
0
3DFACE
8
0
10
-25.500000
20
5.866025
30
15.000000
11
-25.258820
21
5.965926
31
20.000000
12
-25.500000
22
5.866025
32
20.000000
13
-25.500000
23
5.866025
33
20.000000
0
3DFACE
8
0
10
-25.500000
20
5.866025
30
15.000000
11
-25.500000
21
5.866025
31
20.000000
12
-25.707108
22
5.707107
32
15.000000
13
-25.707108
23
5.707107
33
15.000000
0
3DFACE
8
0
10
-25.707108
20
5.707107
30
15.000000
11
-25.500000
21
5.866025
31
20.000000
12
-25.707108
22
5.707107
32
20.000000
13
-25.707108
23
5.707107
33
20.000000
0
3DFACE
8
0
10
-25.707108
20
5.707107
30
15.000000
11
-25.707108
21
5.707107
31
20.000000
12
-25.866026
22
5.500000
32
15.000000
13
-25.866026
23
5.500000
33
15.000000
0
3DFACE
8
0
10
-25.866026
20
5.500000
30
15.000000
11
-25.707108
21
5.707107
31
20.000000
12
-25.866026
22
5.500000
32
20.000000
13
-25.866026
23
5.500000
33
20.000000
0
3DFACE
8
0
10
-25.866026
20
5.500000
30
15.000000
11
-25.866026
21
5.500000
31
20.000000
12
-25.965927
22
5.258819
32
15.000000
13
-25.965927
23
5.258819
33
15.000000
0
3DFACE
8
0
10
-25.965927
20
5.258819
30
15.000000
11
-25.866026
21
5.500000
31
20.000000
12
-25.965927
22
5.258819
32
20.000000
13
-25.965927
23
5.258819
33
20.000000
0
3DFACE
8
0
10
-25.965927
20
5.258819
30
15.000000
11
-25.965927
21
5.258819
31
20.000000
12
-26.000000
22
5.000000
32
15.000000
13
-26.000000
23
5.000000
33
15.000000
0
3DFACE
8
0
10
-26.000000
20
5.000000
30
15.000000
11
-25.965927
21
5.258819
31
20.000000
12
-26.000000
22
5.000000
32
20.000000
13
-26.000000
23
5.000000
33
20.000000
0
3DFACE
8
0
10
-26.000000
20
5.000000
30
15.000000
11
-26.000000
21
5.000000
31
20.000000
12
-25.965927
22
4.741181
32
15.000000
13
-25.965927
23
4.741181
33
15.000000
0
3DFACE
8
0
10
-25.965927
20
4.741181
30
15.000000
11
-26.000000
21
5.000000
31
20.000000
12
-25.965927
22
4.741181
32
20.000000
13
-25.965927
23
4.741181
33
20.000000
0
3DFACE
8
0
10
-25.965927
20
4.741181
30
15.000000
11
-25.965927
21
4.741181
31
20.000000
12
-25.866026
22
4.500000
32
15.000000
13
-25.866026
23
4.500000
33
15.000000
0
3DFACE
8
0
10
-25.866026
20
4.500000
30
15.000000
11
-25.965927
21
4.741181
31
20.000000
12
-25.866026
22
4.500000
32
20.000000
13
-25.866026
23
4.500000
33
20.000000
0
3DFACE
8
0
10
-25.866026
20
4.500000
30
15.000000
11
-25.866026
21
4.500000
31
20.000000
12
-25.707108
22
4.292893
32
15.000000
13
-25.707108
23
4.292893
33
15.000000
0
3DFACE
8
0
10
-25.707108
20
4.292893
30
15.000000
11
-25.866026
21
4.500000
31
20.000000
12
-25.707108
22
4.292893
32
20.000000
13
-25.707108
23
4.292893
33
20.000000
0
3DFACE
8
0
10
-25.707108
20
4.292893
30
15.000000
11
-25.707108
21
4.292893
31
20.000000
12
-25.500000
22
4.133975
32
15.000000
13
-25.500000
23
4.133975
33
15.000000
0
3DFACE
8
0
10
-25.500000
20
4.133975
30
15.000000
11
-25.707108
21
4.292893
31
20.000000
12
-25.500000
22
4.133975
32
20.000000
13
-25.500000
23
4.133975
33
20.000000
0
3DFACE
8
0
10
-25.500000
20
4.133975
30
15.000000
11
-25.500000
21
4.133975
31
20.000000
12
-25.258820
22
4.034074
32
15.000000
13
-25.258820
23
4.034074
33
15.000000
0
3DFACE
8
0
10
-25.258820
20
4.034074
30
15.000000
11
-25.500000
21
4.133975
31
20.000000
12
-25.258820
22
4.034074
32
20.000000
13
-25.258820
23
4.034074
33
20.000000
0
3DFACE
8
0
10
-25.258820
20
4.034074
30
15.000000
11
-25.258820
21
4.034074
31
20.000000
12
-25.000000
22
4.000000
32
15.000000
13
-25.000000
23
4.000000
33
15.000000
0
3DFACE
8
0
10
-25.000000
20
4.000000
30
15.000000
11
-25.258820
21
4.034074
31
20.000000
12
-25.000000
22
4.000000
32
20.000000
13
-25.000000
23
4.000000
33
20.000000
0
3DFACE
8
0
10
-25.000000
20
4.000000
30
15.000000
11
-25.000000
21
4.000000
31
20.000000
12
-24.741180
22
4.034074
32
15.000000
13
-24.741180
23
4.034074
33
15.000000
0
3DFACE
8
0
10
-24.741180
20
4.034074
30
15.000000
11
-25.000000
21
4.000000
31
20.000000
12
-24.741180
22
4.034074
32
20.000000
13
-24.741180
23
4.034074
33
20.000000
0
3DFACE
8
0
10
-24.741180
20
4.034074
30
15.000000
11
-24.741180
21
4.034074
31
20.000000
12
-24.500000
22
4.133975
32
15.000000
13
-24.500000
23
4.133975
33
15.000000
0
3DFACE
8
0
10
-24.500000
20
4.133975
30
15.000000
11
-24.741180
21
4.034074
31
20.000000
12
-24.500000
22
4.133975
32
20.000000
13
-24.500000
23
4.133975
33
20.000000
0
3DFACE
8
0
10
-24.500000
20
4.133975
30
15.000000
11
-24.500000
21
4.133975
31
20.000000
12
-24.292894
22
4.292893
32
15.000000
13
-24.292894
23
4.292893
33
15.000000
0
3DFACE
8
0
10
-24.292894
20
4.292893
30
15.000000
11
-24.500000
21
4.133975
31
20.000000
12
-24.292894
22
4.292893
32
20.000000
13
-24.292894
23
4.292893
33
20.000000
0
3DFACE
8
0
10
-24.292894
20
4.292893
30
15.000000
11
-24.292894
21
4.292893
31
20.000000
12
-24.133974
22
4.500000
32
15.000000
13
-24.133974
23
4.500000
33
15.000000
0
3DFACE
8
0
10
-24.133974
20
4.500000
30
15.000000
11
-24.292894
21
4.292893
31
20.000000
12
-24.133974
22
4.500000
32
20.000000
13
-24.133974
23
4.500000
33
20.000000
0
3DFACE
8
0
10
-24.133974
20
4.500000
30
15.000000
11
-24.133974
21
4.500000
31
20.000000
12
-24.034075
22
4.741181
32
15.000000
13
-24.034075
23
4.741181
33
15.000000
0
3DFACE
8
0
10
-24.034075
20
4.741181
30
15.000000
11
-24.133974
21
4.500000
31
20.000000
12
-24.034075
22
4.741181
32
20.000000
13
-24.034075
23
4.741181
33
20.000000
0
3DFACE
8
0
10
-24.034075
20
4.741181
30
15.000000
11
-24.034075
21
4.741181
31
20.000000
12
-24.000000
22
5.000000
32
15.000000
13
-24.000000
23
5.000000
33
15.000000
0
3DFACE
8
0
10
-24.000000
20
5.000000
30
15.000000
11
-24.034075
21
4.741181
31
20.000000
12
-24.000000
22
5.000000
32
20.000000
13
-24.000000
23
5.000000
33
20.000000
0
3DFACE
8
0
10
-24.000000
20
5.000000
30
20.000000
11
-24.000000
21
5.000000
31
25.000000
12
-24.034075
22
5.258819
32
20.000000
13
-24.034075
23
5.258819
33
20.000000
0
3DFACE
8
0
10
-24.034075
20
5.258819
30
20.000000
11
-24.000000
21
5.000000
31
25.000000
12
-24.034075
22
5.258819
32
25.000000
13
-24.034075
23
5.258819
33
25.000000
0
3DFACE
8
0
10
-24.034075
20
5.258819
30
20.000000
11
-24.034075
21
5.258819
31
25.000000
12
-24.133974
22
5.500000
32
20.000000
13
-24.133974
23
5.500000
33
20.000000
0
3DFACE
8
0
10
-24.133974
20
5.500000
30
20.000000
11
-24.034075
21
5.258819
31
25.000000
12
-24.133974
22
5.500000
32
25.000000
13
-24.133974
23
5.500000
33
25.000000
0
3DFACE
8
0
10
-24.133974
20
5.500000
30
20.000000
11
-24.133974
21
5.500000
31
25.000000
12
-24.292894
22
5.707107
32
20.000000
13
-24.292894
23
5.707107
33
20.000000
0
3DFACE
8
0
10
-24.292894
20
5.707107
30
20.000000
11
-24.133974
21
5.500000
31
25.000000
12
-24.292894
22
5.707107
32
25.000000
13
-24.292894
23
5.707107
33
25.000000
0
3DFACE
8
0
10
-24.292894
20
5.707107
30
20.000000
11
-24.292894
21
5.707107
31
25.000000
12
-24.500000
22
5.866025
32
20.000000
13
-24.500000
23
5.866025
33
20.000000
0
3DFACE
8
0
10
-24.500000
20
5.866025
30
20.000000
11
-24.292894
21
5.707107
31
25.000000
12
-24.500000
22
5.866025
32
25.000000
13
-24.500000
23
5.866025
33
25.000000
0
3DFACE
8
0
10
-24.500000
20
5.866025
30
20.000000
11
-24.500000
21
5.866025
31
25.000000
12
-24.741180
22
5.965926
32
20.000000
13
-24.741180
23
5.965926
33
20.000000
0
3DFACE
8
0
10
-24.741180
20
5.965926
30
20.000000
11
-24.500000
21
5.866025
31
25.000000
12
-24.741180
22
5.965926
32
25.000000
13
-24.741180
23
5.965926
33
25.000000
0
3DFACE
8
0
10
-24.741180
20
5.965926
30
20.000000
11
-24.741180
21
5.965926
31
25.000000
12
-25.000000
22
6.000000
32
20.000000
13
-25.000000
23
6.000000
33
20.000000
0
3DFACE
8
0
10
-25.000000
20
6.000000
30
20.000000
11
-24.741180
21
5.965926
31
25.000000
12
-25.000000
22
6.000000
32
25.000000
13
-25.000000
23
6.000000
33
25.000000
0
3DFACE
8
0
10
-25.000000
20
6.000000
30
20.000000
11
-25.000000
21
6.000000
31
25.000000
12
-25.258820
22
5.965926
32
20.000000
13
-25.258820
23
5.965926
33
20.000000
0
3DFACE
8
0
10
-25.258820
20
5.965926
30
20.000000
11
-25.000000
21
6.000000
31
25.000000
12
-25.258820
22
5.965926
32
25.000000
13
-25.258820
23
5.965926
33
25.000000
0
3DFACE
8
0
10
-25.258820
20
5.965926
30
20.000000
11
-25.258820
21
5.965926
31
25.000000
12
-25.500000
22
5.866025
32
20.000000
13
-25.500000
23
5.866025
33
20.000000
0
3DFACE
8
0
10
-25.500000
20
5.866025
30
20.000000
11
-25.258820
21
5.965926
31
25.000000
12
-25.500000
22
5.866025
32
25.000000
13
-25.500000
23
5.866025
33
25.000000
0
3DFACE
8
0
10
-25.500000
20
5.866025
30
20.000000
11
-25.500000
21
5.866025
31
25.000000
12
-25.707108
22
5.707107
32
20.000000
13
-25.707108
23
5.707107
33
20.000000
0
3DFACE
8
0
10
-25.707108
20
5.707107
30
20.000000
11
-25.500000
21
5.866025
31
25.000000
12
-25.707108
22
5.707107
32
25.000000
13
-25.707108
23
5.707107
33
25.000000
0
3DFACE
8
0
10
-25.707108
20
5.707107
30
20.000000
11
-25.707108
21
5.707107
31
25.000000
12
-25.866026
22
5.500000
32
20.000000
13
-25.866026
23
5.500000
33
20.000000
0
3DFACE
8
0
10
-25.866026
20
5.500000
30
20.000000
11
-25.707108
21
5.707107
31
25.000000
12
-25.866026
22
5.500000
32
25.000000
13
-25.866026
23
5.500000
33
25.000000
0
3DFACE
8
0
10
-25.866026
20
5.500000
30
20.000000
11
-25.866026
21
5.500000
31
25.000000
12
-25.965927
22
5.258819
32
20.000000
13
-25.965927
23
5.258819
33
20.000000
0
3DFACE
8
0
10
-25.965927
20
5.258819
30
20.000000
11
-25.866026
21
5.500000
31
25.000000
12
-25.965927
22
5.258819
32
25.000000
13
-25.965927
23
5.258819
33
25.000000
0
3DFACE
8
0
10
-25.965927
20
5.258819
30
20.000000
11
-25.965927
21
5.258819
31
25.000000
12
-26.000000
22
5.000000
32
20.000000
13
-26.000000
23
5.000000
33
20.000000
0
3DFACE
8
0
10
-26.000000
20
5.000000
30
20.000000
11
-25.965927
21
5.258819
31
25.000000
12
-26.000000
22
5.000000
32
25.000000
13
-26.000000
23
5.000000
33
25.000000
0
3DFACE
8
0
10
-26.000000
20
5.000000
30
20.000000
11
-26.000000
21
5.000000
31
25.000000
12
-25.965927
22
4.741181
32
20.000000
13
-25.965927
23
4.741181
33
20.000000
0
3DFACE
8
0
10
-25.965927
20
4.741181
30
20.000000
11
-26.000000
21
5.000000
31
25.000000
12
-25.965927
22
4.741181
32
25.000000
13
-25.965927
23
4.741181
33
25.000000
0
3DFACE
8
0
10
-25.965927
20
4.741181
30
20.000000
11
-25.965927
21
4.741181
31
25.000000
12
-25.866026
22
4.500000
32
20.000000
13
-25.866026
23
4.500000
33
20.000000
0
3DFACE
8
0
10
-25.866026
20
4.500000
30
20.000000
11
-25.965927
21
4.741181
31
25.000000
12
-25.866026
22
4.500000
32
25.000000
13
-25.866026
23
4.500000
33
25.000000
0
3DFACE
8
0
10
-25.866026
20
4.500000
30
20.000000
11
-25.866026
21
4.500000
31
25.000000
12
-25.707108
22
4.292893
32
20.000000
13
-25.707108
23
4.292893
33
20.000000
0
3DFACE
8
0
10
-25.707108
20
4.292893
30
20.000000
11
-25.866026
21
4.500000
31
25.000000
12
-25.707108
22
4.292893
32
25.000000
13
-25.707108
23
4.292893
33
25.000000
0
3DFACE
8
0
10
-25.707108
20
4.292893
30
20.000000
11
-25.707108
21
4.292893
31
25.000000
12
-25.500000
22
4.133975
32
20.000000
13
-25.500000
23
4.133975
33
20.000000
0
3DFACE
8
0
10
-25.500000
20
4.133975
30
20.000000
11
-25.707108
21
4.292893
31
25.000000
12
-25.500000
22
4.133975
32
25.000000
13
-25.500000
23
4.133975
33
25.000000
0
3DFACE
8
0
10
-25.500000
20
4.133975
30
20.000000
11
-25.500000
21
4.133975
31
25.000000
12
-25.258820
22
4.034074
32
20.000000
13
-25.258820
23
4.034074
33
20.000000
0
3DFACE
8
0
10
-25.258820
20
4.034074
30
20.000000
11
-25.500000
21
4.133975
31
25.000000
12
-25.258820
22
4.034074
32
25.000000
13
-25.258820
23
4.034074
33
25.000000
0
3DFACE
8
0
10
-25.258820
20
4.034074
30
20.000000
11
-25.258820
21
4.034074
31
25.000000
12
-25.000000
22
4.000000
32
20.000000
13
-25.000000
23
4.000000
33
20.000000
0
3DFACE
8
0
10
-25.000000
20
4.000000
30
20.000000
11
-25.258820
21
4.034074
31
25.000000
12
-25.000000
22
4.000000
32
25.000000
13
-25.000000
23
4.000000
33
25.000000
0
3DFACE
8
0
10
-25.000000
20
4.000000
30
20.000000
11
-25.000000
21
4.000000
31
25.000000
12
-24.741180
22
4.034074
32
20.000000
13
-24.741180
23
4.034074
33
20.000000
0
3DFACE
8
0
10
-24.741180
20
4.034074
30
20.000000
11
-25.000000
21
4.000000
31
25.000000
12
-24.741180
22
4.034074
32
25.000000
13
-24.741180
23
4.034074
33
25.000000
0
3DFACE
8
0
10
-24.741180
20
4.034074
30
20.000000
11
-24.741180
21
4.034074
31
25.000000
12
-24.500000
22
4.133975
32
20.000000
13
-24.500000
23
4.133975
33
20.000000
0
3DFACE
8
0
10
-24.500000
20
4.133975
30
20.000000
11
-24.741180
21
4.034074
31
25.000000
12
-24.500000
22
4.133975
32
25.000000
13
-24.500000
23
4.133975
33
25.000000
0
3DFACE
8
0
10
-24.500000
20
4.133975
30
20.000000
11
-24.500000
21
4.133975
31
25.000000
12
-24.292894
22
4.292893
32
20.000000
13
-24.292894
23
4.292893
33
20.000000
0
3DFACE
8
0
10
-24.292894
20
4.292893
30
20.000000
11
-24.500000
21
4.133975
31
25.000000
12
-24.292894
22
4.292893
32
25.000000
13
-24.292894
23
4.292893
33
25.000000
0
3DFACE
8
0
10
-24.292894
20
4.292893
30
20.000000
11
-24.292894
21
4.292893
31
25.000000
12
-24.133974
22
4.500000
32
20.000000
13
-24.133974
23
4.500000
33
20.000000
0
3DFACE
8
0
10
-24.133974
20
4.500000
30
20.000000
11
-24.292894
21
4.292893
31
25.000000
12
-24.133974
22
4.500000
32
25.000000
13
-24.133974
23
4.500000
33
25.000000
0
3DFACE
8
0
10
-24.133974
20
4.500000
30
20.000000
11
-24.133974
21
4.500000
31
25.000000
12
-24.034075
22
4.741181
32
20.000000
13
-24.034075
23
4.741181
33
20.000000
0
3DFACE
8
0
10
-24.034075
20
4.741181
30
20.000000
11
-24.133974
21
4.500000
31
25.000000
12
-24.034075
22
4.741181
32
25.000000
13
-24.034075
23
4.741181
33
25.000000
0
3DFACE
8
0
10
-24.034075
20
4.741181
30
20.000000
11
-24.034075
21
4.741181
31
25.000000
12
-24.000000
22
5.000000
32
20.000000
13
-24.000000
23
5.000000
33
20.000000
0
3DFACE
8
0
10
-24.000000
20
5.000000
30
20.000000
11
-24.034075
21
4.741181
31
25.000000
12
-24.000000
22
5.000000
32
25.000000
13
-24.000000
23
5.000000
33
25.000000
0
3DFACE
8
0
10
25.965927
20
-5.258819
30
10.000000
11
25.965927
21
-5.258819
31
15.000000
12
26.000000
22
-5.000000
32
10.000000
13
26.000000
23
-5.000000
33
10.000000
0
3DFACE
8
0
10
26.000000
20
-5.000000
30
10.000000
11
25.965927
21
-5.258819
31
15.000000
12
26.000000
22
-5.000000
32
15.000000
13
26.000000
23
-5.000000
33
15.000000
0
3DFACE
8
0
10
26.000000
20
-5.000000
30
10.000000
11
26.000000
21
-5.000000
31
15.000000
12
25.965927
22
-4.741181
32
10.000000
13
25.965927
23
-4.741181
33
10.000000
0
3DFACE
8
0
10
25.965927
20
-4.741181
30
10.000000
11
26.000000
21
-5.000000
31
15.000000
12
25.965927
22
-4.741181
32
15.000000
13
25.965927
23
-4.741181
33
15.000000
0
3DFACE
8
0
10
25.965927
20
-4.741181
30
10.000000
11
25.965927
21
-4.741181
31
15.000000
12
25.866026
22
-4.500000
32
10.000000
13
25.866026
23
-4.500000
33
10.000000
0
3DFACE
8
0
10
25.866026
20
-4.500000
30
10.000000
11
25.965927
21
-4.741181
31
15.000000
12
25.866026
22
-4.500000
32
15.000000
13
25.866026
23
-4.500000
33
15.000000
0
3DFACE
8
0
10
25.866026
20
-4.500000
30
10.000000
11
25.866026
21
-4.500000
31
15.000000
12
25.707108
22
-4.292893
32
10.000000
13
25.707108
23
-4.292893
33
10.000000
0
3DFACE
8
0
10
25.707108
20
-4.292893
30
10.000000
11
25.866026
21
-4.500000
31
15.000000
12
25.707108
22
-4.292893
32
15.000000
13
25.707108
23
-4.292893
33
15.000000
0
3DFACE
8
0
10
25.707108
20
-4.292893
30
10.000000
11
25.707108
21
-4.292893
31
15.000000
12
25.500000
22
-4.133975
32
10.000000
13
25.500000
23
-4.133975
33
10.000000
0
3DFACE
8
0
10
25.500000
20
-4.133975
30
10.000000
11
25.707108
21
-4.292893
31
15.000000
12
25.500000
22
-4.133975
32
15.000000
13
25.500000
23
-4.133975
33
15.000000
0
3DFACE
8
0
10
25.500000
20
-4.133975
30
10.000000
11
25.500000
21
-4.133975
31
15.000000
12
25.258820
22
-4.034074
32
10.000000
13
25.258820
23
-4.034074
33
10.000000
0
3DFACE
8
0
10
25.258820
20
-4.034074
30
10.000000
11
25.500000
21
-4.133975
31
15.000000
12
25.258820
22
-4.034074
32
15.000000
13
25.258820
23
-4.034074
33
15.000000
0
3DFACE
8
0
10
25.258820
20
-4.034074
30
10.000000
11
25.258820
21
-4.034074
31
15.000000
12
25.000000
22
-4.000000
32
10.000000
13
25.000000
23
-4.000000
33
10.000000
0
3DFACE
8
0
10
25.000000
20
-4.000000
30
10.000000
11
25.258820
21
-4.034074
31
15.000000
12
25.000000
22
-4.000000
32
15.000000
13
25.000000
23
-4.000000
33
15.000000
0
3DFACE
8
0
10
25.000000
20
-4.000000
30
10.000000
11
25.000000
21
-4.000000
31
15.000000
12
24.741180
22
-4.034074
32
10.000000
13
24.741180
23
-4.034074
33
10.000000
0
3DFACE
8
0
10
24.741180
20
-4.034074
30
10.000000
11
25.000000
21
-4.000000
31
15.000000
12
24.741180
22
-4.034074
32
15.000000
13
24.741180
23
-4.034074
33
15.000000
0
3DFACE
8
0
10
24.741180
20
-4.034074
30
10.000000
11
24.741180
21
-4.034074
31
15.000000
12
24.500000
22
-4.133975
32
10.000000
13
24.500000
23
-4.133975
33
10.000000
0
3DFACE
8
0
10
24.500000
20
-4.133975
30
10.000000
11
24.741180
21
-4.034074
31
15.000000
12
24.500000
22
-4.133975
32
15.000000
13
24.500000
23
-4.133975
33
15.000000
0
3DFACE
8
0
10
24.500000
20
-4.133975
30
10.000000
11
24.500000
21
-4.133975
31
15.000000
12
24.292894
22
-4.292893
32
10.000000
13
24.292894
23
-4.292893
33
10.000000
0
3DFACE
8
0
10
24.292894
20
-4.292893
30
10.000000
11
24.500000
21
-4.133975
31
15.000000
12
24.292894
22
-4.292893
32
15.000000
13
24.292894
23
-4.292893
33
15.000000
0
3DFACE
8
0
10
24.292894
20
-4.292893
30
10.000000
11
24.292894
21
-4.292893
31
15.000000
12
24.133974
22
-4.500000
32
10.000000
13
24.133974
23
-4.500000
33
10.000000
0
3DFACE
8
0
10
24.133974
20
-4.500000
30
10.000000
11
24.292894
21
-4.292893
31
15.000000
12
24.133974
22
-4.500000
32
15.000000
13
24.133974
23
-4.500000
33
15.000000
0
3DFACE
8
0
10
24.133974
20
-4.500000
30
10.000000
11
24.133974
21
-4.500000
31
15.000000
12
24.034075
22
-4.741181
32
10.000000
13
24.034075
23
-4.741181
33
10.000000
0
3DFACE
8
0
10
24.034075
20
-4.741181
30
10.000000
11
24.133974
21
-4.500000
31
15.000000
12
24.034075
22
-4.741181
32
15.000000
13
24.034075
23
-4.741181
33
15.000000
0
3DFACE
8
0
10
24.034075
20
-4.741181
30
10.000000
11
24.034075
21
-4.741181
31
15.000000
12
24.000000
22
-5.000000
32
10.000000
13
24.000000
23
-5.000000
33
10.000000
0
3DFACE
8
0
10
24.000000
20
-5.000000
30
10.000000
11
24.034075
21
-4.741181
31
15.000000
12
24.000000
22
-5.000000
32
15.000000
13
24.000000
23
-5.000000
33
15.000000
0
3DFACE
8
0
10
24.000000
20
-5.000000
30
10.000000
11
24.000000
21
-5.000000
31
15.000000
12
24.034075
22
-5.258819
32
10.000000
13
24.034075
23
-5.258819
33
10.000000
0
3DFACE
8
0
10
24.034075
20
-5.258819
30
10.000000
11
24.000000
21
-5.000000
31
15.000000
12
24.034075
22
-5.258819
32
15.000000
13
24.034075
23
-5.258819
33
15.000000
0
3DFACE
8
0
10
24.034075
20
-5.258819
30
10.000000
11
24.034075
21
-5.258819
31
15.000000
12
24.133974
22
-5.500000
32
10.000000
13
24.133974
23
-5.500000
33
10.000000
0
3DFACE
8
0
10
24.133974
20
-5.500000
30
10.000000
11
24.034075
21
-5.258819
31
15.000000
12
24.133974
22
-5.500000
32
15.000000
13
24.133974
23
-5.500000
33
15.000000
0
3DFACE
8
0
10
24.133974
20
-5.500000
30
10.000000
11
24.133974
21
-5.500000
31
15.000000
12
24.292894
22
-5.707107
32
10.000000
13
24.292894
23
-5.707107
33
10.000000
0
3DFACE
8
0
10
24.292894
20
-5.707107
30
10.000000
11
24.133974
21
-5.500000
31
15.000000
12
24.292894
22
-5.707107
32
15.000000
13
24.292894
23
-5.707107
33
15.000000
0
3DFACE
8
0
10
24.292894
20
-5.707107
30
10.000000
11
24.292894
21
-5.707107
31
15.000000
12
24.500000
22
-5.866025
32
10.000000
13
24.500000
23
-5.866025
33
10.000000
0
3DFACE
8
0
10
24.500000
20
-5.866025
30
10.000000
11
24.292894
21
-5.707107
31
15.000000
12
24.500000
22
-5.866025
32
15.000000
13
24.500000
23
-5.866025
33
15.000000
0
3DFACE
8
0
10
24.500000
20
-5.866025
30
10.000000
11
24.500000
21
-5.866025
31
15.000000
12
24.741180
22
-5.965926
32
10.000000
13
24.741180
23
-5.965926
33
10.000000
0
3DFACE
8
0
10
24.741180
20
-5.965926
30
10.000000
11
24.500000
21
-5.866025
31
15.000000
12
24.741180
22
-5.965926
32
15.000000
13
24.741180
23
-5.965926
33
15.000000
0
3DFACE
8
0
10
24.741180
20
-5.965926
30
10.000000
11
24.741180
21
-5.965926
31
15.000000
12
25.000000
22
-6.000000
32
10.000000
13
25.000000
23
-6.000000
33
10.000000
0
3DFACE
8
0
10
25.000000
20
-6.000000
30
10.000000
11
24.741180
21
-5.965926
31
15.000000
12
25.000000
22
-6.000000
32
15.000000
13
25.000000
23
-6.000000
33
15.000000
0
3DFACE
8
0
10
25.000000
20
-6.000000
30
10.000000
11
25.000000
21
-6.000000
31
15.000000
12
25.258820
22
-5.965926
32
10.000000
13
25.258820
23
-5.965926
33
10.000000
0
3DFACE
8
0
10
25.258820
20
-5.965926
30
10.000000
11
25.000000
21
-6.000000
31
15.000000
12
25.258820
22
-5.965926
32
15.000000
13
25.258820
23
-5.965926
33
15.000000
0
3DFACE
8
0
10
25.258820
20
-5.965926
30
10.000000
11
25.258820
21
-5.965926
31
15.000000
12
25.500000
22
-5.866025
32
10.000000
13
25.500000
23
-5.866025
33
10.000000
0
3DFACE
8
0
10
25.500000
20
-5.866025
30
10.000000
11
25.258820
21
-5.965926
31
15.000000
12
25.500000
22
-5.866025
32
15.000000
13
25.500000
23
-5.866025
33
15.000000
0
3DFACE
8
0
10
25.500000
20
-5.866025
30
10.000000
11
25.500000
21
-5.866025
31
15.000000
12
25.707108
22
-5.707107
32
10.000000
13
25.707108
23
-5.707107
33
10.000000
0
3DFACE
8
0
10
25.707108
20
-5.707107
30
10.000000
11
25.500000
21
-5.866025
31
15.000000
12
25.707108
22
-5.707107
32
15.000000
13
25.707108
23
-5.707107
33
15.000000
0
3DFACE
8
0
10
25.707108
20
-5.707107
30
10.000000
11
25.707108
21
-5.707107
31
15.000000
12
25.866026
22
-5.500000
32
10.000000
13
25.866026
23
-5.500000
33
10.000000
0
3DFACE
8
0
10
25.866026
20
-5.500000
30
10.000000
11
25.707108
21
-5.707107
31
15.000000
12
25.866026
22
-5.500000
32
15.000000
13
25.866026
23
-5.500000
33
15.000000
0
3DFACE
8
0
10
25.866026
20
-5.500000
30
10.000000
11
25.866026
21
-5.500000
31
15.000000
12
25.965927
22
-5.258819
32
10.000000
13
25.965927
23
-5.258819
33
10.000000
0
3DFACE
8
0
10
25.965927
20
-5.258819
30
10.000000
11
25.866026
21
-5.500000
31
15.000000
12
25.965927
22
-5.258819
32
15.000000
13
25.965927
23
-5.258819
33
15.000000
0
3DFACE
8
0
10
25.965927
20
-4.741181
30
30.000000
11
25.965927
21
-4.741181
31
25.000000
12
26.000000
22
-5.000000
32
30.000000
13
26.000000
23
-5.000000
33
30.000000
0
3DFACE
8
0
10
26.000000
20
-5.000000
30
30.000000
11
25.965927
21
-4.741181
31
25.000000
12
26.000000
22
-5.000000
32
25.000000
13
26.000000
23
-5.000000
33
25.000000
0
3DFACE
8
0
10
26.000000
20
-5.000000
30
30.000000
11
26.000000
21
-5.000000
31
25.000000
12
25.965927
22
-5.258819
32
30.000000
13
25.965927
23
-5.258819
33
30.000000
0
3DFACE
8
0
10
25.965927
20
-5.258819
30
30.000000
11
26.000000
21
-5.000000
31
25.000000
12
25.965927
22
-5.258819
32
25.000000
13
25.965927
23
-5.258819
33
25.000000
0
3DFACE
8
0
10
25.965927
20
-5.258819
30
30.000000
11
25.965927
21
-5.258819
31
25.000000
12
25.866026
22
-5.500000
32
30.000000
13
25.866026
23
-5.500000
33
30.000000
0
3DFACE
8
0
10
25.866026
20
-5.500000
30
30.000000
11
25.965927
21
-5.258819
31
25.000000
12
25.866026
22
-5.500000
32
25.000000
13
25.866026
23
-5.500000
33
25.000000
0
3DFACE
8
0
10
25.866026
20
-5.500000
30
30.000000
11
25.866026
21
-5.500000
31
25.000000
12
25.707108
22
-5.707107
32
30.000000
13
25.707108
23
-5.707107
33
30.000000
0
3DFACE
8
0
10
25.707108
20
-5.707107
30
30.000000
11
25.866026
21
-5.500000
31
25.000000
12
25.707108
22
-5.707107
32
25.000000
13
25.707108
23
-5.707107
33
25.000000
0
3DFACE
8
0
10
25.707108
20
-5.707107
30
30.000000
11
25.707108
21
-5.707107
31
25.000000
12
25.500000
22
-5.866025
32
30.000000
13
25.500000
23
-5.866025
33
30.000000
0
3DFACE
8
0
10
25.500000
20
-5.866025
30
30.000000
11
25.707108
21
-5.707107
31
25.000000
12
25.500000
22
-5.866025
32
25.000000
13
25.500000
23
-5.866025
33
25.000000
0
3DFACE
8
0
10
25.500000
20
-5.866025
30
30.000000
11
25.500000
21
-5.866025
31
25.000000
12
25.258820
22
-5.965926
32
30.000000
13
25.258820
23
-5.965926
33
30.000000
0
3DFACE
8
0
10
25.258820
20
-5.965926
30
30.000000
11
25.500000
21
-5.866025
31
25.000000
12
25.258820
22
-5.965926
32
25.000000
13
25.258820
23
-5.965926
33
25.000000
0
3DFACE
8
0
10
25.258820
20
-5.965926
30
30.000000
11
25.258820
21
-5.965926
31
25.000000
12
25.000000
22
-6.000000
32
30.000000
13
25.000000
23
-6.000000
33
30.000000
0
3DFACE
8
0
10
25.000000
20
-6.000000
30
30.000000
11
25.258820
21
-5.965926
31
25.000000
12
25.000000
22
-6.000000
32
25.000000
13
25.000000
23
-6.000000
33
25.000000
0
3DFACE
8
0
10
25.000000
20
-6.000000
30
30.000000
11
25.000000
21
-6.000000
31
25.000000
12
24.741180
22
-5.965926
32
30.000000
13
24.741180
23
-5.965926
33
30.000000
0
3DFACE
8
0
10
24.741180
20
-5.965926
30
30.000000
11
25.000000
21
-6.000000
31
25.000000
12
24.741180
22
-5.965926
32
25.000000
13
24.741180
23
-5.965926
33
25.000000
0
3DFACE
8
0
10
24.741180
20
-5.965926
30
30.000000
11
24.741180
21
-5.965926
31
25.000000
12
24.500000
22
-5.866025
32
30.000000
13
24.500000
23
-5.866025
33
30.000000
0
3DFACE
8
0
10
24.500000
20
-5.866025
30
30.000000
11
24.741180
21
-5.965926
31
25.000000
12
24.500000
22
-5.866025
32
25.000000
13
24.500000
23
-5.866025
33
25.000000
0
3DFACE
8
0
10
24.500000
20
-5.866025
30
30.000000
11
24.500000
21
-5.866025
31
25.000000
12
24.292894
22
-5.707107
32
30.000000
13
24.292894
23
-5.707107
33
30.000000
0
3DFACE
8
0
10
24.292894
20
-5.707107
30
30.000000
11
24.500000
21
-5.866025
31
25.000000
12
24.292894
22
-5.707107
32
25.000000
13
24.292894
23
-5.707107
33
25.000000
0
3DFACE
8
0
10
24.292894
20
-5.707107
30
30.000000
11
24.292894
21
-5.707107
31
25.000000
12
24.133974
22
-5.500000
32
30.000000
13
24.133974
23
-5.500000
33
30.000000
0
3DFACE
8
0
10
24.133974
20
-5.500000
30
30.000000
11
24.292894
21
-5.707107
31
25.000000
12
24.133974
22
-5.500000
32
25.000000
13
24.133974
23
-5.500000
33
25.000000
0
3DFACE
8
0
10
24.133974
20
-5.500000
30
30.000000
11
24.133974
21
-5.500000
31
25.000000
12
24.034075
22
-5.258819
32
30.000000
13
24.034075
23
-5.258819
33
30.000000
0
3DFACE
8
0
10
24.034075
20
-5.258819
30
30.000000
11
24.133974
21
-5.500000
31
25.000000
12
24.034075
22
-5.258819
32
25.000000
13
24.034075
23
-5.258819
33
25.000000
0
3DFACE
8
0
10
24.034075
20
-5.258819
30
30.000000
11
24.034075
21
-5.258819
31
25.000000
12
24.000000
22
-5.000000
32
30.000000
13
24.000000
23
-5.000000
33
30.000000
0
3DFACE
8
0
10
24.000000
20
-5.000000
30
30.000000
11
24.034075
21
-5.258819
31
25.000000
12
24.000000
22
-5.000000
32
25.000000
13
24.000000
23
-5.000000
33
25.000000
0
3DFACE
8
0
10
24.000000
20
-5.000000
30
30.000000
11
24.000000
21
-5.000000
31
25.000000
12
24.034075
22
-4.741181
32
30.000000
13
24.034075
23
-4.741181
33
30.000000
0
3DFACE
8
0
10
24.034075
20
-4.741181
30
30.000000
11
24.000000
21
-5.000000
31
25.000000
12
24.034075
22
-4.741181
32
25.000000
13
24.034075
23
-4.741181
33
25.000000
0
3DFACE
8
0
10
24.034075
20
-4.741181
30
30.000000
11
24.034075
21
-4.741181
31
25.000000
12
24.133974
22
-4.500000
32
30.000000
13
24.133974
23
-4.500000
33
30.000000
0
3DFACE
8
0
10
24.133974
20
-4.500000
30
30.000000
11
24.034075
21
-4.741181
31
25.000000
12
24.133974
22
-4.500000
32
25.000000
13
24.133974
23
-4.500000
33
25.000000
0
3DFACE
8
0
10
24.133974
20
-4.500000
30
30.000000
11
24.133974
21
-4.500000
31
25.000000
12
24.292894
22
-4.292893
32
30.000000
13
24.292894
23
-4.292893
33
30.000000
0
3DFACE
8
0
10
24.292894
20
-4.292893
30
30.000000
11
24.133974
21
-4.500000
31
25.000000
12
24.292894
22
-4.292893
32
25.000000
13
24.292894
23
-4.292893
33
25.000000
0
3DFACE
8
0
10
24.292894
20
-4.292893
30
30.000000
11
24.292894
21
-4.292893
31
25.000000
12
24.500000
22
-4.133975
32
30.000000
13
24.500000
23
-4.133975
33
30.000000
0
3DFACE
8
0
10
24.500000
20
-4.133975
30
30.000000
11
24.292894
21
-4.292893
31
25.000000
12
24.500000
22
-4.133975
32
25.000000
13
24.500000
23
-4.133975
33
25.000000
0
3DFACE
8
0
10
24.500000
20
-4.133975
30
30.000000
11
24.500000
21
-4.133975
31
25.000000
12
24.741180
22
-4.034074
32
30.000000
13
24.741180
23
-4.034074
33
30.000000
0
3DFACE
8
0
10
24.741180
20
-4.034074
30
30.000000
11
24.500000
21
-4.133975
31
25.000000
12
24.741180
22
-4.034074
32
25.000000
13
24.741180
23
-4.034074
33
25.000000
0
3DFACE
8
0
10
24.741180
20
-4.034074
30
30.000000
11
24.741180
21
-4.034074
31
25.000000
12
25.000000
22
-4.000000
32
30.000000
13
25.000000
23
-4.000000
33
30.000000
0
3DFACE
8
0
10
25.000000
20
-4.000000
30
30.000000
11
24.741180
21
-4.034074
31
25.000000
12
25.000000
22
-4.000000
32
25.000000
13
25.000000
23
-4.000000
33
25.000000
0
3DFACE
8
0
10
25.000000
20
-4.000000
30
30.000000
11
25.000000
21
-4.000000
31
25.000000
12
25.258820
22
-4.034074
32
30.000000
13
25.258820
23
-4.034074
33
30.000000
0
3DFACE
8
0
10
25.258820
20
-4.034074
30
30.000000
11
25.000000
21
-4.000000
31
25.000000
12
25.258820
22
-4.034074
32
25.000000
13
25.258820
23
-4.034074
33
25.000000
0
3DFACE
8
0
10
25.258820
20
-4.034074
30
30.000000
11
25.258820
21
-4.034074
31
25.000000
12
25.500000
22
-4.133975
32
30.000000
13
25.500000
23
-4.133975
33
30.000000
0
3DFACE
8
0
10
25.500000
20
-4.133975
30
30.000000
11
25.258820
21
-4.034074
31
25.000000
12
25.500000
22
-4.133975
32
25.000000
13
25.500000
23
-4.133975
33
25.000000
0
3DFACE
8
0
10
25.500000
20
-4.133975
30
30.000000
11
25.500000
21
-4.133975
31
25.000000
12
25.707108
22
-4.292893
32
30.000000
13
25.707108
23
-4.292893
33
30.000000
0
3DFACE
8
0
10
25.707108
20
-4.292893
30
30.000000
11
25.500000
21
-4.133975
31
25.000000
12
25.707108
22
-4.292893
32
25.000000
13
25.707108
23
-4.292893
33
25.000000
0
3DFACE
8
0
10
25.707108
20
-4.292893
30
30.000000
11
25.707108
21
-4.292893
31
25.000000
12
25.866026
22
-4.500000
32
30.000000
13
25.866026
23
-4.500000
33
30.000000
0
3DFACE
8
0
10
25.866026
20
-4.500000
30
30.000000
11
25.707108
21
-4.292893
31
25.000000
12
25.866026
22
-4.500000
32
25.000000
13
25.866026
23
-4.500000
33
25.000000
0
3DFACE
8
0
10
25.866026
20
-4.500000
30
30.000000
11
25.866026
21
-4.500000
31
25.000000
12
25.965927
22
-4.741181
32
30.000000
13
25.965927
23
-4.741181
33
30.000000
0
3DFACE
8
0
10
25.965927
20
-4.741181
30
30.000000
11
25.866026
21
-4.500000
31
25.000000
12
25.965927
22
-4.741181
32
25.000000
13
25.965927
23
-4.741181
33
25.000000
0
3DFACE
8
0
10
26.000000
20
-5.000000
30
15.000000
11
26.000000
21
-5.000000
31
20.000000
12
25.965927
22
-4.741181
32
15.000000
13
25.965927
23
-4.741181
33
15.000000
0
3DFACE
8
0
10
25.965927
20
-4.741181
30
15.000000
11
26.000000
21
-5.000000
31
20.000000
12
25.965927
22
-4.741181
32
20.000000
13
25.965927
23
-4.741181
33
20.000000
0
3DFACE
8
0
10
25.965927
20
-4.741181
30
15.000000
11
25.965927
21
-4.741181
31
20.000000
12
25.866026
22
-4.500000
32
15.000000
13
25.866026
23
-4.500000
33
15.000000
0
3DFACE
8
0
10
25.866026
20
-4.500000
30
15.000000
11
25.965927
21
-4.741181
31
20.000000
12
25.866026
22
-4.500000
32
20.000000
13
25.866026
23
-4.500000
33
20.000000
0
3DFACE
8
0
10
25.866026
20
-4.500000
30
15.000000
11
25.866026
21
-4.500000
31
20.000000
12
25.707108
22
-4.292893
32
15.000000
13
25.707108
23
-4.292893
33
15.000000
0
3DFACE
8
0
10
25.707108
20
-4.292893
30
15.000000
11
25.866026
21
-4.500000
31
20.000000
12
25.707108
22
-4.292893
32
20.000000
13
25.707108
23
-4.292893
33
20.000000
0
3DFACE
8
0
10
25.707108
20
-4.292893
30
15.000000
11
25.707108
21
-4.292893
31
20.000000
12
25.500000
22
-4.133975
32
15.000000
13
25.500000
23
-4.133975
33
15.000000
0
3DFACE
8
0
10
25.500000
20
-4.133975
30
15.000000
11
25.707108
21
-4.292893
31
20.000000
12
25.500000
22
-4.133975
32
20.000000
13
25.500000
23
-4.133975
33
20.000000
0
3DFACE
8
0
10
25.500000
20
-4.133975
30
15.000000
11
25.500000
21
-4.133975
31
20.000000
12
25.258820
22
-4.034074
32
15.000000
13
25.258820
23
-4.034074
33
15.000000
0
3DFACE
8
0
10
25.258820
20
-4.034074
30
15.000000
11
25.500000
21
-4.133975
31
20.000000
12
25.258820
22
-4.034074
32
20.000000
13
25.258820
23
-4.034074
33
20.000000
0
3DFACE
8
0
10
25.258820
20
-4.034074
30
15.000000
11
25.258820
21
-4.034074
31
20.000000
12
25.000000
22
-4.000000
32
15.000000
13
25.000000
23
-4.000000
33
15.000000
0
3DFACE
8
0
10
25.000000
20
-4.000000
30
15.000000
11
25.258820
21
-4.034074
31
20.000000
12
25.000000
22
-4.000000
32
20.000000
13
25.000000
23
-4.000000
33
20.000000
0
3DFACE
8
0
10
25.000000
20
-4.000000
30
15.000000
11
25.000000
21
-4.000000
31
20.000000
12
24.741180
22
-4.034074
32
15.000000
13
24.741180
23
-4.034074
33
15.000000
0
3DFACE
8
0
10
24.741180
20
-4.034074
30
15.000000
11
25.000000
21
-4.000000
31
20.000000
12
24.741180
22
-4.034074
32
20.000000
13
24.741180
23
-4.034074
33
20.000000
0
3DFACE
8
0
10
24.741180
20
-4.034074
30
15.000000
11
24.741180
21
-4.034074
31
20.000000
12
24.500000
22
-4.133975
32
15.000000
13
24.500000
23
-4.133975
33
15.000000
0
3DFACE
8
0
10
24.500000
20
-4.133975
30
15.000000
11
24.741180
21
-4.034074
31
20.000000
12
24.500000
22
-4.133975
32
20.000000
13
24.500000
23
-4.133975
33
20.000000
0
3DFACE
8
0
10
24.500000
20
-4.133975
30
15.000000
11
24.500000
21
-4.133975
31
20.000000
12
24.292894
22
-4.292893
32
15.000000
13
24.292894
23
-4.292893
33
15.000000
0
3DFACE
8
0
10
24.292894
20
-4.292893
30
15.000000
11
24.500000
21
-4.133975
31
20.000000
12
24.292894
22
-4.292893
32
20.000000
13
24.292894
23
-4.292893
33
20.000000
0
3DFACE
8
0
10
24.292894
20
-4.292893
30
15.000000
11
24.292894
21
-4.292893
31
20.000000
12
24.133974
22
-4.500000
32
15.000000
13
24.133974
23
-4.500000
33
15.000000
0
3DFACE
8
0
10
24.133974
20
-4.500000
30
15.000000
11
24.292894
21
-4.292893
31
20.000000
12
24.133974
22
-4.500000
32
20.000000
13
24.133974
23
-4.500000
33
20.000000
0
3DFACE
8
0
10
24.133974
20
-4.500000
30
15.000000
11
24.133974
21
-4.500000
31
20.000000
12
24.034075
22
-4.741181
32
15.000000
13
24.034075
23
-4.741181
33
15.000000
0
3DFACE
8
0
10
24.034075
20
-4.741181
30
15.000000
11
24.133974
21
-4.500000
31
20.000000
12
24.034075
22
-4.741181
32
20.000000
13
24.034075
23
-4.741181
33
20.000000
0
3DFACE
8
0
10
24.034075
20
-4.741181
30
15.000000
11
24.034075
21
-4.741181
31
20.000000
12
24.000000
22
-5.000000
32
15.000000
13
24.000000
23
-5.000000
33
15.000000
0
3DFACE
8
0
10
24.000000
20
-5.000000
30
15.000000
11
24.034075
21
-4.741181
31
20.000000
12
24.000000
22
-5.000000
32
20.000000
13
24.000000
23
-5.000000
33
20.000000
0
3DFACE
8
0
10
24.000000
20
-5.000000
30
15.000000
11
24.000000
21
-5.000000
31
20.000000
12
24.034075
22
-5.258819
32
15.000000
13
24.034075
23
-5.258819
33
15.000000
0
3DFACE
8
0
10
24.034075
20
-5.258819
30
15.000000
11
24.000000
21
-5.000000
31
20.000000
12
24.034075
22
-5.258819
32
20.000000
13
24.034075
23
-5.258819
33
20.000000
0
3DFACE
8
0
10
24.034075
20
-5.258819
30
15.000000
11
24.034075
21
-5.258819
31
20.000000
12
24.133974
22
-5.500000
32
15.000000
13
24.133974
23
-5.500000
33
15.000000
0
3DFACE
8
0
10
24.133974
20
-5.500000
30
15.000000
11
24.034075
21
-5.258819
31
20.000000
12
24.133974
22
-5.500000
32
20.000000
13
24.133974
23
-5.500000
33
20.000000
0
3DFACE
8
0
10
24.133974
20
-5.500000
30
15.000000
11
24.133974
21
-5.500000
31
20.000000
12
24.292894
22
-5.707107
32
15.000000
13
24.292894
23
-5.707107
33
15.000000
0
3DFACE
8
0
10
24.292894
20
-5.707107
30
15.000000
11
24.133974
21
-5.500000
31
20.000000
12
24.292894
22
-5.707107
32
20.000000
13
24.292894
23
-5.707107
33
20.000000
0
3DFACE
8
0
10
24.292894
20
-5.707107
30
15.000000
11
24.292894
21
-5.707107
31
20.000000
12
24.500000
22
-5.866025
32
15.000000
13
24.500000
23
-5.866025
33
15.000000
0
3DFACE
8
0
10
24.500000
20
-5.866025
30
15.000000
11
24.292894
21
-5.707107
31
20.000000
12
24.500000
22
-5.866025
32
20.000000
13
24.500000
23
-5.866025
33
20.000000
0
3DFACE
8
0
10
24.500000
20
-5.866025
30
15.000000
11
24.500000
21
-5.866025
31
20.000000
12
24.741180
22
-5.965926
32
15.000000
13
24.741180
23
-5.965926
33
15.000000
0
3DFACE
8
0
10
24.741180
20
-5.965926
30
15.000000
11
24.500000
21
-5.866025
31
20.000000
12
24.741180
22
-5.965926
32
20.000000
13
24.741180
23
-5.965926
33
20.000000
0
3DFACE
8
0
10
24.741180
20
-5.965926
30
15.000000
11
24.741180
21
-5.965926
31
20.000000
12
25.000000
22
-6.000000
32
15.000000
13
25.000000
23
-6.000000
33
15.000000
0
3DFACE
8
0
10
25.000000
20
-6.000000
30
15.000000
11
24.741180
21
-5.965926
31
20.000000
12
25.000000
22
-6.000000
32
20.000000
13
25.000000
23
-6.000000
33
20.000000
0
3DFACE
8
0
10
25.000000
20
-6.000000
30
15.000000
11
25.000000
21
-6.000000
31
20.000000
12
25.258820
22
-5.965926
32
15.000000
13
25.258820
23
-5.965926
33
15.000000
0
3DFACE
8
0
10
25.258820
20
-5.965926
30
15.000000
11
25.000000
21
-6.000000
31
20.000000
12
25.258820
22
-5.965926
32
20.000000
13
25.258820
23
-5.965926
33
20.000000
0
3DFACE
8
0
10
25.258820
20
-5.965926
30
15.000000
11
25.258820
21
-5.965926
31
20.000000
12
25.500000
22
-5.866025
32
15.000000
13
25.500000
23
-5.866025
33
15.000000
0
3DFACE
8
0
10
25.500000
20
-5.866025
30
15.000000
11
25.258820
21
-5.965926
31
20.000000
12
25.500000
22
-5.866025
32
20.000000
13
25.500000
23
-5.866025
33
20.000000
0
3DFACE
8
0
10
25.500000
20
-5.866025
30
15.000000
11
25.500000
21
-5.866025
31
20.000000
12
25.707108
22
-5.707107
32
15.000000
13
25.707108
23
-5.707107
33
15.000000
0
3DFACE
8
0
10
25.707108
20
-5.707107
30
15.000000
11
25.500000
21
-5.866025
31
20.000000
12
25.707108
22
-5.707107
32
20.000000
13
25.707108
23
-5.707107
33
20.000000
0
3DFACE
8
0
10
25.707108
20
-5.707107
30
15.000000
11
25.707108
21
-5.707107
31
20.000000
12
25.866026
22
-5.500000
32
15.000000
13
25.866026
23
-5.500000
33
15.000000
0
3DFACE
8
0
10
25.866026
20
-5.500000
30
15.000000
11
25.707108
21
-5.707107
31
20.000000
12
25.866026
22
-5.500000
32
20.000000
13
25.866026
23
-5.500000
33
20.000000
0
3DFACE
8
0
10
25.866026
20
-5.500000
30
15.000000
11
25.866026
21
-5.500000
31
20.000000
12
25.965927
22
-5.258819
32
15.000000
13
25.965927
23
-5.258819
33
15.000000
0
3DFACE
8
0
10
25.965927
20
-5.258819
30
15.000000
11
25.866026
21
-5.500000
31
20.000000
12
25.965927
22
-5.258819
32
20.000000
13
25.965927
23
-5.258819
33
20.000000
0
3DFACE
8
0
10
25.965927
20
-5.258819
30
15.000000
11
25.965927
21
-5.258819
31
20.000000
12
26.000000
22
-5.000000
32
15.000000
13
26.000000
23
-5.000000
33
15.000000
0
3DFACE
8
0
10
26.000000
20
-5.000000
30
15.000000
11
25.965927
21
-5.258819
31
20.000000
12
26.000000
22
-5.000000
32
20.000000
13
26.000000
23
-5.000000
33
20.000000
0
3DFACE
8
0
10
26.000000
20
-5.000000
30
20.000000
11
26.000000
21
-5.000000
31
25.000000
12
25.965927
22
-4.741181
32
20.000000
13
25.965927
23
-4.741181
33
20.000000
0
3DFACE
8
0
10
25.965927
20
-4.741181
30
20.000000
11
26.000000
21
-5.000000
31
25.000000
12
25.965927
22
-4.741181
32
25.000000
13
25.965927
23
-4.741181
33
25.000000
0
3DFACE
8
0
10
25.965927
20
-4.741181
30
20.000000
11
25.965927
21
-4.741181
31
25.000000
12
25.866026
22
-4.500000
32
20.000000
13
25.866026
23
-4.500000
33
20.000000
0
3DFACE
8
0
10
25.866026
20
-4.500000
30
20.000000
11
25.965927
21
-4.741181
31
25.000000
12
25.866026
22
-4.500000
32
25.000000
13
25.866026
23
-4.500000
33
25.000000
0
3DFACE
8
0
10
25.866026
20
-4.500000
30
20.000000
11
25.866026
21
-4.500000
31
25.000000
12
25.707108
22
-4.292893
32
20.000000
13
25.707108
23
-4.292893
33
20.000000
0
3DFACE
8
0
10
25.707108
20
-4.292893
30
20.000000
11
25.866026
21
-4.500000
31
25.000000
12
25.707108
22
-4.292893
32
25.000000
13
25.707108
23
-4.292893
33
25.000000
0
3DFACE
8
0
10
25.707108
20
-4.292893
30
20.000000
11
25.707108
21
-4.292893
31
25.000000
12
25.500000
22
-4.133975
32
20.000000
13
25.500000
23
-4.133975
33
20.000000
0
3DFACE
8
0
10
25.500000
20
-4.133975
30
20.000000
11
25.707108
21
-4.292893
31
25.000000
12
25.500000
22
-4.133975
32
25.000000
13
25.500000
23
-4.133975
33
25.000000
0
3DFACE
8
0
10
25.500000
20
-4.133975
30
20.000000
11
25.500000
21
-4.133975
31
25.000000
12
25.258820
22
-4.034074
32
20.000000
13
25.258820
23
-4.034074
33
20.000000
0
3DFACE
8
0
10
25.258820
20
-4.034074
30
20.000000
11
25.500000
21
-4.133975
31
25.000000
12
25.258820
22
-4.034074
32
25.000000
13
25.258820
23
-4.034074
33
25.000000
0
3DFACE
8
0
10
25.258820
20
-4.034074
30
20.000000
11
25.258820
21
-4.034074
31
25.000000
12
25.000000
22
-4.000000
32
20.000000
13
25.000000
23
-4.000000
33
20.000000
0
3DFACE
8
0
10
25.000000
20
-4.000000
30
20.000000
11
25.258820
21
-4.034074
31
25.000000
12
25.000000
22
-4.000000
32
25.000000
13
25.000000
23
-4.000000
33
25.000000
0
3DFACE
8
0
10
25.000000
20
-4.000000
30
20.000000
11
25.000000
21
-4.000000
31
25.000000
12
24.741180
22
-4.034074
32
20.000000
13
24.741180
23
-4.034074
33
20.000000
0
3DFACE
8
0
10
24.741180
20
-4.034074
30
20.000000
11
25.000000
21
-4.000000
31
25.000000
12
24.741180
22
-4.034074
32
25.000000
13
24.741180
23
-4.034074
33
25.000000
0
3DFACE
8
0
10
24.741180
20
-4.034074
30
20.000000
11
24.741180
21
-4.034074
31
25.000000
12
24.500000
22
-4.133975
32
20.000000
13
24.500000
23
-4.133975
33
20.000000
0
3DFACE
8
0
10
24.500000
20
-4.133975
30
20.000000
11
24.741180
21
-4.034074
31
25.000000
12
24.500000
22
-4.133975
32
25.000000
13
24.500000
23
-4.133975
33
25.000000
0
3DFACE
8
0
10
24.500000
20
-4.133975
30
20.000000
11
24.500000
21
-4.133975
31
25.000000
12
24.292894
22
-4.292893
32
20.000000
13
24.292894
23
-4.292893
33
20.000000
0
3DFACE
8
0
10
24.292894
20
-4.292893
30
20.000000
11
24.500000
21
-4.133975
31
25.000000
12
24.292894
22
-4.292893
32
25.000000
13
24.292894
23
-4.292893
33
25.000000
0
3DFACE
8
0
10
24.292894
20
-4.292893
30
20.000000
11
24.292894
21
-4.292893
31
25.000000
12
24.133974
22
-4.500000
32
20.000000
13
24.133974
23
-4.500000
33
20.000000
0
3DFACE
8
0
10
24.133974
20
-4.500000
30
20.000000
11
24.292894
21
-4.292893
31
25.000000
12
24.133974
22
-4.500000
32
25.000000
13
24.133974
23
-4.500000
33
25.000000
0
3DFACE
8
0
10
24.133974
20
-4.500000
30
20.000000
11
24.133974
21
-4.500000
31
25.000000
12
24.034075
22
-4.741181
32
20.000000
13
24.034075
23
-4.741181
33
20.000000
0
3DFACE
8
0
10
24.034075
20
-4.741181
30
20.000000
11
24.133974
21
-4.500000
31
25.000000
12
24.034075
22
-4.741181
32
25.000000
13
24.034075
23
-4.741181
33
25.000000
0
3DFACE
8
0
10
24.034075
20
-4.741181
30
20.000000
11
24.034075
21
-4.741181
31
25.000000
12
24.000000
22
-5.000000
32
20.000000
13
24.000000
23
-5.000000
33
20.000000
0
3DFACE
8
0
10
24.000000
20
-5.000000
30
20.000000
11
24.034075
21
-4.741181
31
25.000000
12
24.000000
22
-5.000000
32
25.000000
13
24.000000
23
-5.000000
33
25.000000
0
3DFACE
8
0
10
24.000000
20
-5.000000
30
20.000000
11
24.000000
21
-5.000000
31
25.000000
12
24.034075
22
-5.258819
32
20.000000
13
24.034075
23
-5.258819
33
20.000000
0
3DFACE
8
0
10
24.034075
20
-5.258819
30
20.000000
11
24.000000
21
-5.000000
31
25.000000
12
24.034075
22
-5.258819
32
25.000000
13
24.034075
23
-5.258819
33
25.000000
0
3DFACE
8
0
10
24.034075
20
-5.258819
30
20.000000
11
24.034075
21
-5.258819
31
25.000000
12
24.133974
22
-5.500000
32
20.000000
13
24.133974
23
-5.500000
33
20.000000
0
3DFACE
8
0
10
24.133974
20
-5.500000
30
20.000000
11
24.034075
21
-5.258819
31
25.000000
12
24.133974
22
-5.500000
32
25.000000
13
24.133974
23
-5.500000
33
25.000000
0
3DFACE
8
0
10
24.133974
20
-5.500000
30
20.000000
11
24.133974
21
-5.500000
31
25.000000
12
24.292894
22
-5.707107
32
20.000000
13
24.292894
23
-5.707107
33
20.000000
0
3DFACE
8
0
10
24.292894
20
-5.707107
30
20.000000
11
24.133974
21
-5.500000
31
25.000000
12
24.292894
22
-5.707107
32
25.000000
13
24.292894
23
-5.707107
33
25.000000
0
3DFACE
8
0
10
24.292894
20
-5.707107
30
20.000000
11
24.292894
21
-5.707107
31
25.000000
12
24.500000
22
-5.866025
32
20.000000
13
24.500000
23
-5.866025
33
20.000000
0
3DFACE
8
0
10
24.500000
20
-5.866025
30
20.000000
11
24.292894
21
-5.707107
31
25.000000
12
24.500000
22
-5.866025
32
25.000000
13
24.500000
23
-5.866025
33
25.000000
0
3DFACE
8
0
10
24.500000
20
-5.866025
30
20.000000
11
24.500000
21
-5.866025
31
25.000000
12
24.741180
22
-5.965926
32
20.000000
13
24.741180
23
-5.965926
33
20.000000
0
3DFACE
8
0
10
24.741180
20
-5.965926
30
20.000000
11
24.500000
21
-5.866025
31
25.000000
12
24.741180
22
-5.965926
32
25.000000
13
24.741180
23
-5.965926
33
25.000000
0
3DFACE
8
0
10
24.741180
20
-5.965926
30
20.000000
11
24.741180
21
-5.965926
31
25.000000
12
25.000000
22
-6.000000
32
20.000000
13
25.000000
23
-6.000000
33
20.000000
0
3DFACE
8
0
10
25.000000
20
-6.000000
30
20.000000
11
24.741180
21
-5.965926
31
25.000000
12
25.000000
22
-6.000000
32
25.000000
13
25.000000
23
-6.000000
33
25.000000
0
3DFACE
8
0
10
25.000000
20
-6.000000
30
20.000000
11
25.000000
21
-6.000000
31
25.000000
12
25.258820
22
-5.965926
32
20.000000
13
25.258820
23
-5.965926
33
20.000000
0
3DFACE
8
0
10
25.258820
20
-5.965926
30
20.000000
11
25.000000
21
-6.000000
31
25.000000
12
25.258820
22
-5.965926
32
25.000000
13
25.258820
23
-5.965926
33
25.000000
0
3DFACE
8
0
10
25.258820
20
-5.965926
30
20.000000
11
25.258820
21
-5.965926
31
25.000000
12
25.500000
22
-5.866025
32
20.000000
13
25.500000
23
-5.866025
33
20.000000
0
3DFACE
8
0
10
25.500000
20
-5.866025
30
20.000000
11
25.258820
21
-5.965926
31
25.000000
12
25.500000
22
-5.866025
32
25.000000
13
25.500000
23
-5.866025
33
25.000000
0
3DFACE
8
0
10
25.500000
20
-5.866025
30
20.000000
11
25.500000
21
-5.866025
31
25.000000
12
25.707108
22
-5.707107
32
20.000000
13
25.707108
23
-5.707107
33
20.000000
0
3DFACE
8
0
10
25.707108
20
-5.707107
30
20.000000
11
25.500000
21
-5.866025
31
25.000000
12
25.707108
22
-5.707107
32
25.000000
13
25.707108
23
-5.707107
33
25.000000
0
3DFACE
8
0
10
25.707108
20
-5.707107
30
20.000000
11
25.707108
21
-5.707107
31
25.000000
12
25.866026
22
-5.500000
32
20.000000
13
25.866026
23
-5.500000
33
20.000000
0
3DFACE
8
0
10
25.866026
20
-5.500000
30
20.000000
11
25.707108
21
-5.707107
31
25.000000
12
25.866026
22
-5.500000
32
25.000000
13
25.866026
23
-5.500000
33
25.000000
0
3DFACE
8
0
10
25.866026
20
-5.500000
30
20.000000
11
25.866026
21
-5.500000
31
25.000000
12
25.965927
22
-5.258819
32
20.000000
13
25.965927
23
-5.258819
33
20.000000
0
3DFACE
8
0
10
25.965927
20
-5.258819
30
20.000000
11
25.866026
21
-5.500000
31
25.000000
12
25.965927
22
-5.258819
32
25.000000
13
25.965927
23
-5.258819
33
25.000000
0
3DFACE
8
0
10
25.965927
20
-5.258819
30
20.000000
11
25.965927
21
-5.258819
31
25.000000
12
26.000000
22
-5.000000
32
20.000000
13
26.000000
23
-5.000000
33
20.000000
0
3DFACE
8
0
10
26.000000
20
-5.000000
30
20.000000
11
25.965927
21
-5.258819
31
25.000000
12
26.000000
22
-5.000000
32
25.000000
13
26.000000
23
-5.000000
33
25.000000
0
3DFACE
8
0
10
21.187241
20
9.973279
30
10.000000
11
21.187241
21
-10.026721
31
10.000000
12
21.187241
22
9.973279
32
30.000000
13
21.187241
23
9.973279
33
30.000000
0
3DFACE
8
0
10
21.187241
20
9.973279
30
30.000000
11
21.187241
21
-10.026721
31
10.000000
12
21.187241
22
-10.026721
32
30.000000
13
21.187241
23
-10.026721
33
30.000000
0
3DFACE
8
0
10
21.187241
20
9.973279
30
30.000000
11
-21.312759
21
9.973279
31
30.000000
12
21.187241
22
9.973279
32
10.000000
13
21.187241
23
9.973279
33
10.000000
0
3DFACE
8
0
10
21.187241
20
9.973279
30
10.000000
11
-21.312759
21
9.973279
31
30.000000
12
-21.312759
22
9.973279
32
10.000000
13
-21.312759
23
9.973279
33
10.000000
0
3DFACE
8
0
10
21.187241
20
9.973279
30
10.000000
11
-21.312759
21
9.973279
31
10.000000
12
21.187241
22
9.973279
32
0.000000
13
21.187241
23
9.973279
33
0.000000
0
3DFACE
8
0
10
21.187241
20
9.973279
30
0.000000
11
-21.312759
21
9.973279
31
10.000000
12
-21.312759
22
9.973279
32
0.000000
13
-21.312759
23
9.973279
33
0.000000
0
3DFACE
8
0
10
-21.312759
20
-10.026721
30
10.000000
11
-21.312759
21
9.973279
31
10.000000
12
-21.312759
22
-10.026721
32
30.000000
13
-21.312759
23
-10.026721
33
30.000000
0
3DFACE
8
0
10
-21.312759
20
-10.026721
30
30.000000
11
-21.312759
21
9.973279
31
10.000000
12
-21.312759
22
9.973279
32
30.000000
13
-21.312759
23
9.973279
33
30.000000
0
3DFACE
8
0
10
-21.312759
20
-10.026721
30
30.000000
11
21.187241
21
-10.026721
31
30.000000
12
-21.312759
22
-10.026721
32
10.000000
13
-21.312759
23
-10.026721
33
10.000000
0
3DFACE
8
0
10
-21.312759
20
-10.026721
30
10.000000
11
21.187241
21
-10.026721
31
30.000000
12
21.187241
22
-10.026721
32
10.000000
13
21.187241
23
-10.026721
33
10.000000
0
3DFACE
8
0
10
-21.312759
20
-10.026721
30
10.000000
11
21.187241
21
-10.026721
31
10.000000
12
-30.000000
22
-10.026721
32
0.000000
13
-30.000000
23
-10.026721
33
0.000000
0
3DFACE
8
0
10
-30.000000
20
-10.026721
30
0.000000
11
21.187241
21
-10.026721
31
10.000000
12
30.000000
22
-10.026721
32
0.000000
13
30.000000
23
-10.026721
33
0.000000
0
3DFACE
8
0
10
30.000000
20
-10.026721
30
0.000000
11
21.187241
21
-10.026721
31
10.000000
12
30.000000
22
-10.026721
32
10.000000
13
30.000000
23
-10.026721
33
10.000000
0
3DFACE
8
0
10
-30.000000
20
-10.026721
30
0.000000
11
-30.000000
21
-10.026721
31
10.000000
12
-21.312759
22
-10.026721
32
10.000000
13
-21.312759
23
-10.026721
33
10.000000
0
3DFACE
8
0
10
-35.000000
20
25.000000
30
10.000000
11
-35.000000
21
-25.000000
31
10.000000
12
-35.000000
22
25.000000
32
30.000000
13
-35.000000
23
25.000000
33
30.000000
0
3DFACE
8
0
10
-35.000000
20
25.000000
30
30.000000
11
-35.000000
21
-25.000000
31
10.000000
12
-35.000000
22
-25.000000
32
30.000000
13
-35.000000
23
-25.000000
33
30.000000
0
3DFACE
8
0
10
37.349258
20
-25.000000
30
10.000000
11
37.349258
21
25.000000
31
10.000000
12
37.349258
22
-25.000000
32
30.000000
13
37.349258
23
-25.000000
33
30.000000
0
3DFACE
8
0
10
37.349258
20
-25.000000
30
30.000000
11
37.349258
21
25.000000
31
10.000000
12
37.349258
22
25.000000
32
30.000000
13
37.349258
23
25.000000
33
30.000000
0
3DFACE
8
0
10
-24.034075
20
-4.741181
30
30.000000
11
-24.000000
21
-5.000000
31
30.000000
12
-21.312759
22
-10.026721
32
30.000000
13
-21.312759
23
-10.026721
33
30.000000
0
3DFACE
8
0
10
-21.312759
20
-10.026721
30
30.000000
11
-24.000000
21
-5.000000
31
30.000000
12
-24.034075
22
-5.258819
32
30.000000
13
-24.034075
23
-5.258819
33
30.000000
0
3DFACE
8
0
10
-21.312759
20
-10.026721
30
30.000000
11
-24.034075
21
-5.258819
31
30.000000
12
-24.133974
22
-5.500000
32
30.000000
13
-24.133974
23
-5.500000
33
30.000000
0
3DFACE
8
0
10
-24.133974
20
-5.500000
30
30.000000
11
-24.292894
21
-5.707107
31
30.000000
12
-21.312759
22
-10.026721
32
30.000000
13
-21.312759
23
-10.026721
33
30.000000
0
3DFACE
8
0
10
-21.312759
20
-10.026721
30
30.000000
11
-24.292894
21
-5.707107
31
30.000000
12
-24.500000
22
-5.866025
32
30.000000
13
-24.500000
23
-5.866025
33
30.000000
0
3DFACE
8
0
10
-21.312759
20
-10.026721
30
30.000000
11
-24.500000
21
-5.866025
31
30.000000
12
-24.741180
22
-5.965926
32
30.000000
13
-24.741180
23
-5.965926
33
30.000000
0
3DFACE
8
0
10
-24.741180
20
-5.965926
30
30.000000
11
-25.000000
21
-6.000000
31
30.000000
12
-21.312759
22
-10.026721
32
30.000000
13
-21.312759
23
-10.026721
33
30.000000
0
3DFACE
8
0
10
-21.312759
20
-10.026721
30
30.000000
11
-25.000000
21
-6.000000
31
30.000000
12
-25.258820
22
-5.965926
32
30.000000
13
-25.258820
23
-5.965926
33
30.000000
0
3DFACE
8
0
10
-21.312759
20
-10.026721
30
30.000000
11
-25.258820
21
-5.965926
31
30.000000
12
-25.500000
22
-5.866025
32
30.000000
13
-25.500000
23
-5.866025
33
30.000000
0
3DFACE
8
0
10
-21.312759
20
-10.026721
30
30.000000
11
-25.500000
21
-5.866025
31
30.000000
12
-35.000000
22
-25.000000
32
30.000000
13
-35.000000
23
-25.000000
33
30.000000
0
3DFACE
8
0
10
-35.000000
20
-25.000000
30
30.000000
11
-25.500000
21
-5.866025
31
30.000000
12
-25.707108
22
-5.707107
32
30.000000
13
-25.707108
23
-5.707107
33
30.000000
0
3DFACE
8
0
10
-35.000000
20
-25.000000
30
30.000000
11
-25.707108
21
-5.707107
31
30.000000
12
-25.866026
22
-5.500000
32
30.000000
13
-25.866026
23
-5.500000
33
30.000000
0
3DFACE
8
0
10
-25.866026
20
-5.500000
30
30.000000
11
-25.965927
21
-5.258819
31
30.000000
12
-35.000000
22
-25.000000
32
30.000000
13
-35.000000
23
-25.000000
33
30.000000
0
3DFACE
8
0
10
-35.000000
20
-25.000000
30
30.000000
11
-25.965927
21
-5.258819
31
30.000000
12
-26.000000
22
-5.000000
32
30.000000
13
-26.000000
23
-5.000000
33
30.000000
0
3DFACE
8
0
10
-35.000000
20
-25.000000
30
30.000000
11
-26.000000
21
-5.000000
31
30.000000
12
-25.965927
22
-4.741181
32
30.000000
13
-25.965927
23
-4.741181
33
30.000000
0
3DFACE
8
0
10
-35.000000
20
-25.000000
30
30.000000
11
-25.965927
21
-4.741181
31
30.000000
12
-25.965927
22
4.741181
32
30.000000
13
-25.965927
23
4.741181
33
30.000000
0
3DFACE
8
0
10
-25.965927
20
4.741181
30
30.000000
11
-25.965927
21
-4.741181
31
30.000000
12
-25.866026
22
-4.500000
32
30.000000
13
-25.866026
23
-4.500000
33
30.000000
0
3DFACE
8
0
10
-25.965927
20
4.741181
30
30.000000
11
-25.866026
21
-4.500000
31
30.000000
12
-25.866026
22
4.500000
32
30.000000
13
-25.866026
23
4.500000
33
30.000000
0
3DFACE
8
0
10
-25.866026
20
4.500000
30
30.000000
11
-25.866026
21
-4.500000
31
30.000000
12
-25.707108
22
4.292893
32
30.000000
13
-25.707108
23
4.292893
33
30.000000
0
3DFACE
8
0
10
-25.707108
20
4.292893
30
30.000000
11
-25.866026
21
-4.500000
31
30.000000
12
-25.707108
22
-4.292893
32
30.000000
13
-25.707108
23
-4.292893
33
30.000000
0
3DFACE
8
0
10
-25.707108
20
4.292893
30
30.000000
11
-25.707108
21
-4.292893
31
30.000000
12
-25.500000
22
4.133975
32
30.000000
13
-25.500000
23
4.133975
33
30.000000
0
3DFACE
8
0
10
-25.500000
20
4.133975
30
30.000000
11
-25.707108
21
-4.292893
31
30.000000
12
-25.500000
22
-4.133975
32
30.000000
13
-25.500000
23
-4.133975
33
30.000000
0
3DFACE
8
0
10
-25.500000
20
4.133975
30
30.000000
11
-25.500000
21
-4.133975
31
30.000000
12
-25.258820
22
4.034074
32
30.000000
13
-25.258820
23
4.034074
33
30.000000
0
3DFACE
8
0
10
-25.258820
20
4.034074
30
30.000000
11
-25.500000
21
-4.133975
31
30.000000
12
-25.258820
22
-4.034074
32
30.000000
13
-25.258820
23
-4.034074
33
30.000000
0
3DFACE
8
0
10
-25.258820
20
4.034074
30
30.000000
11
-25.258820
21
-4.034074
31
30.000000
12
-25.000000
22
4.000000
32
30.000000
13
-25.000000
23
4.000000
33
30.000000
0
3DFACE
8
0
10
-25.000000
20
4.000000
30
30.000000
11
-25.258820
21
-4.034074
31
30.000000
12
-25.000000
22
-4.000000
32
30.000000
13
-25.000000
23
-4.000000
33
30.000000
0
3DFACE
8
0
10
-25.000000
20
4.000000
30
30.000000
11
-25.000000
21
-4.000000
31
30.000000
12
-24.741180
22
-4.034074
32
30.000000
13
-24.741180
23
-4.034074
33
30.000000
0
3DFACE
8
0
10
-25.000000
20
4.000000
30
30.000000
11
-24.741180
21
-4.034074
31
30.000000
12
-24.741180
22
4.034074
32
30.000000
13
-24.741180
23
4.034074
33
30.000000
0
3DFACE
8
0
10
-24.741180
20
4.034074
30
30.000000
11
-24.741180
21
-4.034074
31
30.000000
12
-24.500000
22
-4.133975
32
30.000000
13
-24.500000
23
-4.133975
33
30.000000
0
3DFACE
8
0
10
-24.741180
20
4.034074
30
30.000000
11
-24.500000
21
-4.133975
31
30.000000
12
-24.500000
22
4.133975
32
30.000000
13
-24.500000
23
4.133975
33
30.000000
0
3DFACE
8
0
10
-24.500000
20
4.133975
30
30.000000
11
-24.500000
21
-4.133975
31
30.000000
12
-24.292894
22
-4.292893
32
30.000000
13
-24.292894
23
-4.292893
33
30.000000
0
3DFACE
8
0
10
-24.500000
20
4.133975
30
30.000000
11
-24.292894
21
-4.292893
31
30.000000
12
-24.292894
22
4.292893
32
30.000000
13
-24.292894
23
4.292893
33
30.000000
0
3DFACE
8
0
10
-24.292894
20
4.292893
30
30.000000
11
-24.292894
21
-4.292893
31
30.000000
12
-24.133974
22
-4.500000
32
30.000000
13
-24.133974
23
-4.500000
33
30.000000
0
3DFACE
8
0
10
-24.292894
20
4.292893
30
30.000000
11
-24.133974
21
-4.500000
31
30.000000
12
-24.133974
22
4.500000
32
30.000000
13
-24.133974
23
4.500000
33
30.000000
0
3DFACE
8
0
10
-24.133974
20
4.500000
30
30.000000
11
-24.133974
21
-4.500000
31
30.000000
12
-24.034075
22
4.741181
32
30.000000
13
-24.034075
23
4.741181
33
30.000000
0
3DFACE
8
0
10
-24.034075
20
4.741181
30
30.000000
11
-24.133974
21
-4.500000
31
30.000000
12
-24.034075
22
-4.741181
32
30.000000
13
-24.034075
23
-4.741181
33
30.000000
0
3DFACE
8
0
10
-24.034075
20
4.741181
30
30.000000
11
-24.034075
21
-4.741181
31
30.000000
12
-21.312759
22
9.973279
32
30.000000
13
-21.312759
23
9.973279
33
30.000000
0
3DFACE
8
0
10
-21.312759
20
9.973279
30
30.000000
11
-24.034075
21
-4.741181
31
30.000000
12
-21.312759
22
-10.026721
32
30.000000
13
-21.312759
23
-10.026721
33
30.000000
0
3DFACE
8
0
10
25.965927
20
5.258819
30
30.000000
11
26.000000
21
5.000000
31
30.000000
12
37.349258
22
25.000000
32
30.000000
13
37.349258
23
25.000000
33
30.000000
0
3DFACE
8
0
10
37.349258
20
25.000000
30
30.000000
11
26.000000
21
5.000000
31
30.000000
12
25.965927
22
4.741181
32
30.000000
13
25.965927
23
4.741181
33
30.000000
0
3DFACE
8
0
10
37.349258
20
25.000000
30
30.000000
11
25.965927
21
4.741181
31
30.000000
12
37.349258
22
-25.000000
32
30.000000
13
37.349258
23
-25.000000
33
30.000000
0
3DFACE
8
0
10
37.349258
20
-25.000000
30
30.000000
11
25.965927
21
4.741181
31
30.000000
12
25.965927
22
-4.741181
32
30.000000
13
25.965927
23
-4.741181
33
30.000000
0
3DFACE
8
0
10
37.349258
20
-25.000000
30
30.000000
11
25.965927
21
-4.741181
31
30.000000
12
26.000000
22
-5.000000
32
30.000000
13
26.000000
23
-5.000000
33
30.000000
0
3DFACE
8
0
10
25.965927
20
-4.741181
30
30.000000
11
25.965927
21
4.741181
31
30.000000
12
25.866026
22
-4.500000
32
30.000000
13
25.866026
23
-4.500000
33
30.000000
0
3DFACE
8
0
10
25.866026
20
-4.500000
30
30.000000
11
25.965927
21
4.741181
31
30.000000
12
25.866026
22
4.500000
32
30.000000
13
25.866026
23
4.500000
33
30.000000
0
3DFACE
8
0
10
25.866026
20
-4.500000
30
30.000000
11
25.866026
21
4.500000
31
30.000000
12
25.707108
22
4.292893
32
30.000000
13
25.707108
23
4.292893
33
30.000000
0
3DFACE
8
0
10
25.866026
20
-4.500000
30
30.000000
11
25.707108
21
4.292893
31
30.000000
12
25.707108
22
-4.292893
32
30.000000
13
25.707108
23
-4.292893
33
30.000000
0
3DFACE
8
0
10
25.707108
20
-4.292893
30
30.000000
11
25.707108
21
4.292893
31
30.000000
12
25.500000
22
4.133975
32
30.000000
13
25.500000
23
4.133975
33
30.000000
0
3DFACE
8
0
10
25.707108
20
-4.292893
30
30.000000
11
25.500000
21
4.133975
31
30.000000
12
25.500000
22
-4.133975
32
30.000000
13
25.500000
23
-4.133975
33
30.000000
0
3DFACE
8
0
10
25.500000
20
-4.133975
30
30.000000
11
25.500000
21
4.133975
31
30.000000
12
25.258820
22
4.034074
32
30.000000
13
25.258820
23
4.034074
33
30.000000
0
3DFACE
8
0
10
25.500000
20
-4.133975
30
30.000000
11
25.258820
21
4.034074
31
30.000000
12
25.258820
22
-4.034074
32
30.000000
13
25.258820
23
-4.034074
33
30.000000
0
3DFACE
8
0
10
25.258820
20
-4.034074
30
30.000000
11
25.258820
21
4.034074
31
30.000000
12
25.000000
22
4.000000
32
30.000000
13
25.000000
23
4.000000
33
30.000000
0
3DFACE
8
0
10
25.258820
20
-4.034074
30
30.000000
11
25.000000
21
4.000000
31
30.000000
12
25.000000
22
-4.000000
32
30.000000
13
25.000000
23
-4.000000
33
30.000000
0
3DFACE
8
0
10
25.000000
20
-4.000000
30
30.000000
11
25.000000
21
4.000000
31
30.000000
12
24.741180
22
-4.034074
32
30.000000
13
24.741180
23
-4.034074
33
30.000000
0
3DFACE
8
0
10
24.741180
20
-4.034074
30
30.000000
11
25.000000
21
4.000000
31
30.000000
12
24.741180
22
4.034074
32
30.000000
13
24.741180
23
4.034074
33
30.000000
0
3DFACE
8
0
10
24.741180
20
-4.034074
30
30.000000
11
24.741180
21
4.034074
31
30.000000
12
24.500000
22
-4.133975
32
30.000000
13
24.500000
23
-4.133975
33
30.000000
0
3DFACE
8
0
10
24.500000
20
-4.133975
30
30.000000
11
24.741180
21
4.034074
31
30.000000
12
24.500000
22
4.133975
32
30.000000
13
24.500000
23
4.133975
33
30.000000
0
3DFACE
8
0
10
24.500000
20
-4.133975
30
30.000000
11
24.500000
21
4.133975
31
30.000000
12
24.292894
22
-4.292893
32
30.000000
13
24.292894
23
-4.292893
33
30.000000
0
3DFACE
8
0
10
24.292894
20
-4.292893
30
30.000000
11
24.500000
21
4.133975
31
30.000000
12
24.292894
22
4.292893
32
30.000000
13
24.292894
23
4.292893
33
30.000000
0
3DFACE
8
0
10
24.292894
20
-4.292893
30
30.000000
11
24.292894
21
4.292893
31
30.000000
12
24.133974
22
-4.500000
32
30.000000
13
24.133974
23
-4.500000
33
30.000000
0
3DFACE
8
0
10
24.133974
20
-4.500000
30
30.000000
11
24.292894
21
4.292893
31
30.000000
12
24.133974
22
4.500000
32
30.000000
13
24.133974
23
4.500000
33
30.000000
0
3DFACE
8
0
10
24.133974
20
-4.500000
30
30.000000
11
24.133974
21
4.500000
31
30.000000
12
24.034075
22
4.741181
32
30.000000
13
24.034075
23
4.741181
33
30.000000
0
3DFACE
8
0
10
24.000000
20
5.000000
30
30.000000
11
21.187241
21
9.973279
31
30.000000
12
24.034075
22
4.741181
32
30.000000
13
24.034075
23
4.741181
33
30.000000
0
3DFACE
8
0
10
24.034075
20
4.741181
30
30.000000
11
21.187241
21
9.973279
31
30.000000
12
24.034075
22
-4.741181
32
30.000000
13
24.034075
23
-4.741181
33
30.000000
0
3DFACE
8
0
10
24.034075
20
4.741181
30
30.000000
11
24.034075
21
-4.741181
31
30.000000
12
24.133974
22
-4.500000
32
30.000000
13
24.133974
23
-4.500000
33
30.000000
0
3DFACE
8
0
10
24.000000
20
5.000000
30
30.000000
11
24.034075
21
5.258819
31
30.000000
12
21.187241
22
9.973279
32
30.000000
13
21.187241
23
9.973279
33
30.000000
0
3DFACE
8
0
10
21.187241
20
9.973279
30
30.000000
11
24.034075
21
5.258819
31
30.000000
12
24.133974
22
5.500000
32
30.000000
13
24.133974
23
5.500000
33
30.000000
0
3DFACE
8
0
10
21.187241
20
9.973279
30
30.000000
11
24.133974
21
5.500000
31
30.000000
12
24.292894
22
5.707107
32
30.000000
13
24.292894
23
5.707107
33
30.000000
0
3DFACE
8
0
10
24.292894
20
5.707107
30
30.000000
11
24.500000
21
5.866025
31
30.000000
12
21.187241
22
9.973279
32
30.000000
13
21.187241
23
9.973279
33
30.000000
0
3DFACE
8
0
10
21.187241
20
9.973279
30
30.000000
11
24.500000
21
5.866025
31
30.000000
12
24.741180
22
5.965926
32
30.000000
13
24.741180
23
5.965926
33
30.000000
0
3DFACE
8
0
10
21.187241
20
9.973279
30
30.000000
11
24.741180
21
5.965926
31
30.000000
12
25.000000
22
6.000000
32
30.000000
13
25.000000
23
6.000000
33
30.000000
0
3DFACE
8
0
10
25.000000
20
6.000000
30
30.000000
11
25.258820
21
5.965926
31
30.000000
12
21.187241
22
9.973279
32
30.000000
13
21.187241
23
9.973279
33
30.000000
0
3DFACE
8
0
10
21.187241
20
9.973279
30
30.000000
11
25.258820
21
5.965926
31
30.000000
12
25.500000
22
5.866025
32
30.000000
13
25.500000
23
5.866025
33
30.000000
0
3DFACE
8
0
10
21.187241
20
9.973279
30
30.000000
11
25.500000
21
5.866025
31
30.000000
12
37.349258
22
25.000000
32
30.000000
13
37.349258
23
25.000000
33
30.000000
0
3DFACE
8
0
10
37.349258
20
25.000000
30
30.000000
11
25.500000
21
5.866025
31
30.000000
12
25.707108
22
5.707107
32
30.000000
13
25.707108
23
5.707107
33
30.000000
0
3DFACE
8
0
10
37.349258
20
25.000000
30
30.000000
11
25.707108
21
5.707107
31
30.000000
12
25.866026
22
5.500000
32
30.000000
13
25.866026
23
5.500000
33
30.000000
0
3DFACE
8
0
10
25.866026
20
5.500000
30
30.000000
11
25.965927
21
5.258819
31
30.000000
12
37.349258
22
25.000000
32
30.000000
13
37.349258
23
25.000000
33
30.000000
0
3DFACE
8
0
10
-24.034075
20
5.258819
30
30.000000
11
-24.000000
21
5.000000
31
30.000000
12
-21.312759
22
9.973279
32
30.000000
13
-21.312759
23
9.973279
33
30.000000
0
3DFACE
8
0
10
-21.312759
20
9.973279
30
30.000000
11
-24.000000
21
5.000000
31
30.000000
12
-24.034075
22
4.741181
32
30.000000
13
-24.034075
23
4.741181
33
30.000000
0
3DFACE
8
0
10
-35.000000
20
-25.000000
30
30.000000
11
-25.965927
21
4.741181
31
30.000000
12
-35.000000
22
25.000000
32
30.000000
13
-35.000000
23
25.000000
33
30.000000
0
3DFACE
8
0
10
-35.000000
20
25.000000
30
30.000000
11
-25.965927
21
4.741181
31
30.000000
12
-26.000000
22
5.000000
32
30.000000
13
-26.000000
23
5.000000
33
30.000000
0
3DFACE
8
0
10
-35.000000
20
25.000000
30
30.000000
11
-26.000000
21
5.000000
31
30.000000
12
-25.965927
22
5.258819
32
30.000000
13
-25.965927
23
5.258819
33
30.000000
0
3DFACE
8
0
10
-25.965927
20
5.258819
30
30.000000
11
-25.866026
21
5.500000
31
30.000000
12
-35.000000
22
25.000000
32
30.000000
13
-35.000000
23
25.000000
33
30.000000
0
3DFACE
8
0
10
-35.000000
20
25.000000
30
30.000000
11
-25.866026
21
5.500000
31
30.000000
12
-25.707108
22
5.707107
32
30.000000
13
-25.707108
23
5.707107
33
30.000000
0
3DFACE
8
0
10
-35.000000
20
25.000000
30
30.000000
11
-25.707108
21
5.707107
31
30.000000
12
-25.500000
22
5.866025
32
30.000000
13
-25.500000
23
5.866025
33
30.000000
0
3DFACE
8
0
10
-35.000000
20
25.000000
30
30.000000
11
-25.500000
21
5.866025
31
30.000000
12
-21.312759
22
9.973279
32
30.000000
13
-21.312759
23
9.973279
33
30.000000
0
3DFACE
8
0
10
-21.312759
20
9.973279
30
30.000000
11
-25.500000
21
5.866025
31
30.000000
12
-25.258820
22
5.965926
32
30.000000
13
-25.258820
23
5.965926
33
30.000000
0
3DFACE
8
0
10
-21.312759
20
9.973279
30
30.000000
11
-25.258820
21
5.965926
31
30.000000
12
-25.000000
22
6.000000
32
30.000000
13
-25.000000
23
6.000000
33
30.000000
0
3DFACE
8
0
10
-25.000000
20
6.000000
30
30.000000
11
-24.741180
21
5.965926
31
30.000000
12
-21.312759
22
9.973279
32
30.000000
13
-21.312759
23
9.973279
33
30.000000
0
3DFACE
8
0
10
-21.312759
20
9.973279
30
30.000000
11
-24.741180
21
5.965926
31
30.000000
12
-24.500000
22
5.866025
32
30.000000
13
-24.500000
23
5.866025
33
30.000000
0
3DFACE
8
0
10
-21.312759
20
9.973279
30
30.000000
11
-24.500000
21
5.866025
31
30.000000
12
-24.292894
22
5.707107
32
30.000000
13
-24.292894
23
5.707107
33
30.000000
0
3DFACE
8
0
10
-24.292894
20
5.707107
30
30.000000
11
-24.133974
21
5.500000
31
30.000000
12
-21.312759
22
9.973279
32
30.000000
13
-21.312759
23
9.973279
33
30.000000
0
3DFACE
8
0
10
-21.312759
20
9.973279
30
30.000000
11
-24.133974
21
5.500000
31
30.000000
12
-24.034075
22
5.258819
32
30.000000
13
-24.034075
23
5.258819
33
30.000000
0
3DFACE
8
0
10
26.000000
20
-5.000000
30
30.000000
11
25.965927
21
-5.258819
31
30.000000
12
37.349258
22
-25.000000
32
30.000000
13
37.349258
23
-25.000000
33
30.000000
0
3DFACE
8
0
10
37.349258
20
-25.000000
30
30.000000
11
25.965927
21
-5.258819
31
30.000000
12
25.866026
22
-5.500000
32
30.000000
13
25.866026
23
-5.500000
33
30.000000
0
3DFACE
8
0
10
37.349258
20
-25.000000
30
30.000000
11
25.866026
21
-5.500000
31
30.000000
12
25.707108
22
-5.707107
32
30.000000
13
25.707108
23
-5.707107
33
30.000000
0
3DFACE
8
0
10
25.707108
20
-5.707107
30
30.000000
11
25.500000
21
-5.866025
31
30.000000
12
37.349258
22
-25.000000
32
30.000000
13
37.349258
23
-25.000000
33
30.000000
0
3DFACE
8
0
10
37.349258
20
-25.000000
30
30.000000
11
25.500000
21
-5.866025
31
30.000000
12
21.187241
22
-10.026721
32
30.000000
13
21.187241
23
-10.026721
33
30.000000
0
3DFACE
8
0
10
37.349258
20
-25.000000
30
30.000000
11
21.187241
21
-10.026721
31
30.000000
12
-35.000000
22
-25.000000
32
30.000000
13
-35.000000
23
-25.000000
33
30.000000
0
3DFACE
8
0
10
-35.000000
20
-25.000000
30
30.000000
11
21.187241
21
-10.026721
31
30.000000
12
-21.312759
22
-10.026721
32
30.000000
13
-21.312759
23
-10.026721
33
30.000000
0
3DFACE
8
0
10
25.500000
20
-5.866025
30
30.000000
11
25.258820
21
-5.965926
31
30.000000
12
21.187241
22
-10.026721
32
30.000000
13
21.187241
23
-10.026721
33
30.000000
0
3DFACE
8
0
10
21.187241
20
-10.026721
30
30.000000
11
25.258820
21
-5.965926
31
30.000000
12
25.000000
22
-6.000000
32
30.000000
13
25.000000
23
-6.000000
33
30.000000
0
3DFACE
8
0
10
21.187241
20
-10.026721
30
30.000000
11
25.000000
21
-6.000000
31
30.000000
12
24.741180
22
-5.965926
32
30.000000
13
24.741180
23
-5.965926
33
30.000000
0
3DFACE
8
0
10
24.741180
20
-5.965926
30
30.000000
11
24.500000
21
-5.866025
31
30.000000
12
21.187241
22
-10.026721
32
30.000000
13
21.187241
23
-10.026721
33
30.000000
0
3DFACE
8
0
10
21.187241
20
-10.026721
30
30.000000
11
24.500000
21
-5.866025
31
30.000000
12
24.292894
22
-5.707107
32
30.000000
13
24.292894
23
-5.707107
33
30.000000
0
3DFACE
8
0
10
21.187241
20
-10.026721
30
30.000000
11
24.292894
21
-5.707107
31
30.000000
12
24.133974
22
-5.500000
32
30.000000
13
24.133974
23
-5.500000
33
30.000000
0
3DFACE
8
0
10
24.133974
20
-5.500000
30
30.000000
11
24.034075
21
-5.258819
31
30.000000
12
21.187241
22
-10.026721
32
30.000000
13
21.187241
23
-10.026721
33
30.000000
0
3DFACE
8
0
10
21.187241
20
-10.026721
30
30.000000
11
24.034075
21
-5.258819
31
30.000000
12
24.000000
22
-5.000000
32
30.000000
13
24.000000
23
-5.000000
33
30.000000
0
3DFACE
8
0
10
21.187241
20
-10.026721
30
30.000000
11
24.000000
21
-5.000000
31
30.000000
12
24.034075
22
-4.741181
32
30.000000
13
24.034075
23
-4.741181
33
30.000000
0
3DFACE
8
0
10
21.187241
20
9.973279
30
30.000000
11
21.187241
21
-10.026721
31
30.000000
12
24.034075
22
-4.741181
32
30.000000
13
24.034075
23
-4.741181
33
30.000000
0
3DFACE
8
0
10
-21.312759
20
9.973279
30
30.000000
11
21.187241
21
9.973279
31
30.000000
12
-35.000000
22
25.000000
32
30.000000
13
-35.000000
23
25.000000
33
30.000000
0
3DFACE
8
0
10
-35.000000
20
25.000000
30
30.000000
11
21.187241
21
9.973279
31
30.000000
12
37.349258
22
25.000000
32
30.000000
13
37.349258
23
25.000000
33
30.000000
0
3DFACE
8
0
10
37.349258
20
-25.000000
30
10.000000
11
50.113342
21
-25.000000
31
10.000000
12
37.349258
22
25.000000
32
10.000000
13
37.349258
23
25.000000
33
10.000000
0
3DFACE
8
0
10
37.349258
20
25.000000
30
10.000000
11
50.113342
21
-25.000000
31
10.000000
12
50.113342
22
25.000000
32
10.000000
13
50.113342
23
25.000000
33
10.000000
0
3DFACE
8
0
10
-49.886658
20
25.000000
30
0.000000
11
-49.886658
21
-25.000000
31
0.000000
12
-49.886658
22
25.000000
32
10.000000
13
-49.886658
23
25.000000
33
10.000000
0
3DFACE
8
0
10
-49.886658
20
25.000000
30
10.000000
11
-49.886658
21
-25.000000
31
0.000000
12
-49.886658
22
-25.000000
32
10.000000
13
-49.886658
23
-25.000000
33
10.000000
0
3DFACE
8
0
10
-49.886658
20
25.000000
30
0.000000
11
-35.000000
21
25.000000
31
10.000000
12
50.113342
22
25.000000
32
0.000000
13
50.113342
23
25.000000
33
0.000000
0
3DFACE
8
0
10
50.113342
20
25.000000
30
0.000000
11
-35.000000
21
25.000000
31
10.000000
12
37.349258
22
25.000000
32
10.000000
13
37.349258
23
25.000000
33
10.000000
0
3DFACE
8
0
10
50.113342
20
25.000000
30
0.000000
11
37.349258
21
25.000000
31
10.000000
12
50.113342
22
25.000000
32
10.000000
13
50.113342
23
25.000000
33
10.000000
0
3DFACE
8
0
10
-49.886658
20
25.000000
30
0.000000
11
-49.886658
21
25.000000
31
10.000000
12
-35.000000
22
25.000000
32
10.000000
13
-35.000000
23
25.000000
33
10.000000
0
3DFACE
8
0
10
-35.000000
20
25.000000
30
30.000000
11
37.349258
21
25.000000
31
30.000000
12
-35.000000
22
25.000000
32
10.000000
13
-35.000000
23
25.000000
33
10.000000
0
3DFACE
8
0
10
-35.000000
20
25.000000
30
10.000000
11
37.349258
21
25.000000
31
30.000000
12
37.349258
22
25.000000
32
10.000000
13
37.349258
23
25.000000
33
10.000000
0
3DFACE
8
0
10
50.113342
20
-25.000000
30
0.000000
11
50.113342
21
25.000000
31
0.000000
12
50.113342
22
-25.000000
32
10.000000
13
50.113342
23
-25.000000
33
10.000000
0
3DFACE
8
0
10
50.113342
20
-25.000000
30
10.000000
11
50.113342
21
25.000000
31
0.000000
12
50.113342
22
25.000000
32
10.000000
13
50.113342
23
25.000000
33
10.000000
0
3DFACE
8
0
10
-49.886658
20
-25.000000
30
10.000000
11
-49.886658
21
-25.000000
31
0.000000
12
-35.000000
22
-25.000000
32
10.000000
13
-35.000000
23
-25.000000
33
10.000000
0
3DFACE
8
0
10
-35.000000
20
-25.000000
30
10.000000
11
-49.886658
21
-25.000000
31
0.000000
12
50.113342
22
-25.000000
32
0.000000
13
50.113342
23
-25.000000
33
0.000000
0
3DFACE
8
0
10
-35.000000
20
-25.000000
30
10.000000
11
50.113342
21
-25.000000
31
0.000000
12
37.349258
22
-25.000000
32
10.000000
13
37.349258
23
-25.000000
33
10.000000
0
3DFACE
8
0
10
37.349258
20
-25.000000
30
10.000000
11
50.113342
21
-25.000000
31
0.000000
12
50.113342
22
-25.000000
32
10.000000
13
50.113342
23
-25.000000
33
10.000000
0
3DFACE
8
0
10
37.349258
20
-25.000000
30
30.000000
11
-35.000000
21
-25.000000
31
30.000000
12
37.349258
22
-25.000000
32
10.000000
13
37.349258
23
-25.000000
33
10.000000
0
3DFACE
8
0
10
37.349258
20
-25.000000
30
10.000000
11
-35.000000
21
-25.000000
31
30.000000
12
-35.000000
22
-25.000000
32
10.000000
13
-35.000000
23
-25.000000
33
10.000000
0
3DFACE
8
0
10
-35.000000
20
25.000000
30
10.000000
11
-49.886658
21
25.000000
31
10.000000
12
-35.000000
22
-25.000000
32
10.000000
13
-35.000000
23
-25.000000
33
10.000000
0
3DFACE
8
0
10
-35.000000
20
-25.000000
30
10.000000
11
-49.886658
21
25.000000
31
10.000000
12
-49.886658
22
-25.000000
32
10.000000
13
-49.886658
23
-25.000000
33
10.000000
0
ENDSEC
0
EOF
